%TF.GenerationSoftware,KiCad,Pcbnew,7.0.11+dfsg-1build4*%
%TF.CreationDate,2026-09-22T19:18:01+09:00*%
%TF.ProjectId,t1s_hat,7431735f-6861-4742-9e6b-696361645f70,rev?*%
%TF.SameCoordinates,Original*%
%TF.FileFunction,Copper,L1,Top*%
%TF.FilePolarity,Positive*%
%FSLAX46Y46*%
G04 Gerber Fmt 4.6, Leading zero omitted, Abs format (unit mm)*
G04 Created by KiCad (PCBNEW 7.0.11+dfsg-1build4) date 2026-09-22 19:18:01*
%MOMM*%
%LPD*%
G01*
G04 APERTURE LIST*
G04 Aperture macros list*
%AMRoundRect*
0 Rectangle with rounded corners*
0 $1 Rounding radius*
0 $2 $3 $4 $5 $6 $7 $8 $9 X,Y pos of 4 corners*
0 Add a 4 corners polygon primitive as box body*
4,1,4,$2,$3,$4,$5,$6,$7,$8,$9,$2,$3,0*
0 Add four circle primitives for the rounded corners*
1,1,$1+$1,$2,$3*
1,1,$1+$1,$4,$5*
1,1,$1+$1,$6,$7*
1,1,$1+$1,$8,$9*
0 Add four rect primitives between the rounded corners*
20,1,$1+$1,$2,$3,$4,$5,0*
20,1,$1+$1,$4,$5,$6,$7,0*
20,1,$1+$1,$6,$7,$8,$9,0*
20,1,$1+$1,$8,$9,$2,$3,0*%
%AMFreePoly0*
4,1,14,0.340806,0.106694,0.394194,0.053306,0.412500,0.009112,0.412500,-0.062500,0.394194,-0.106694,0.350000,-0.125000,-0.350000,-0.125000,-0.394194,-0.106694,-0.412500,-0.062500,-0.412500,0.062500,-0.394194,0.106694,-0.350000,0.125000,0.296612,0.125000,0.340806,0.106694,0.340806,0.106694,$1*%
%AMFreePoly1*
4,1,14,0.394194,0.106694,0.412500,0.062500,0.412500,-0.009112,0.394194,-0.053306,0.340806,-0.106694,0.296612,-0.125000,-0.350000,-0.125000,-0.394194,-0.106694,-0.412500,-0.062500,-0.412500,0.062500,-0.394194,0.106694,-0.350000,0.125000,0.350000,0.125000,0.394194,0.106694,0.394194,0.106694,$1*%
%AMFreePoly2*
4,1,14,0.106694,0.394194,0.125000,0.350000,0.125000,-0.350000,0.106694,-0.394194,0.062500,-0.412500,-0.062500,-0.412500,-0.106694,-0.394194,-0.125000,-0.350000,-0.125000,0.296612,-0.106694,0.340806,-0.053306,0.394194,-0.009112,0.412500,0.062500,0.412500,0.106694,0.394194,0.106694,0.394194,$1*%
%AMFreePoly3*
4,1,14,0.053306,0.394194,0.106694,0.340806,0.125000,0.296612,0.125000,-0.350000,0.106694,-0.394194,0.062500,-0.412500,-0.062500,-0.412500,-0.106694,-0.394194,-0.125000,-0.350000,-0.125000,0.350000,-0.106694,0.394194,-0.062500,0.412500,0.009112,0.412500,0.053306,0.394194,0.053306,0.394194,$1*%
%AMFreePoly4*
4,1,14,0.394194,0.106694,0.412500,0.062500,0.412500,-0.062500,0.394194,-0.106694,0.350000,-0.125000,-0.296612,-0.125000,-0.340806,-0.106694,-0.394194,-0.053306,-0.412500,-0.009112,-0.412500,0.062500,-0.394194,0.106694,-0.350000,0.125000,0.350000,0.125000,0.394194,0.106694,0.394194,0.106694,$1*%
%AMFreePoly5*
4,1,14,0.394194,0.106694,0.412500,0.062500,0.412500,-0.062500,0.394194,-0.106694,0.350000,-0.125000,-0.350000,-0.125000,-0.394194,-0.106694,-0.412500,-0.062500,-0.412500,0.009112,-0.394194,0.053306,-0.340806,0.106694,-0.296612,0.125000,0.350000,0.125000,0.394194,0.106694,0.394194,0.106694,$1*%
%AMFreePoly6*
4,1,14,0.106694,0.394194,0.125000,0.350000,0.125000,-0.296612,0.106694,-0.340806,0.053306,-0.394194,0.009112,-0.412500,-0.062500,-0.412500,-0.106694,-0.394194,-0.125000,-0.350000,-0.125000,0.350000,-0.106694,0.394194,-0.062500,0.412500,0.062500,0.412500,0.106694,0.394194,0.106694,0.394194,$1*%
%AMFreePoly7*
4,1,14,0.106694,0.394194,0.125000,0.350000,0.125000,-0.350000,0.106694,-0.394194,0.062500,-0.412500,-0.009112,-0.412500,-0.053306,-0.394194,-0.106694,-0.340806,-0.125000,-0.296612,-0.125000,0.350000,-0.106694,0.394194,-0.062500,0.412500,0.062500,0.412500,0.106694,0.394194,0.106694,0.394194,$1*%
G04 Aperture macros list end*
%TA.AperFunction,SMDPad,CuDef*%
%ADD10RoundRect,0.080000X0.120000X0.170000X-0.120000X0.170000X-0.120000X-0.170000X0.120000X-0.170000X0*%
%TD*%
%TA.AperFunction,SMDPad,CuDef*%
%ADD11RoundRect,0.225000X-0.225000X-0.250000X0.225000X-0.250000X0.225000X0.250000X-0.225000X0.250000X0*%
%TD*%
%TA.AperFunction,SMDPad,CuDef*%
%ADD12RoundRect,0.200000X-0.200000X-0.275000X0.200000X-0.275000X0.200000X0.275000X-0.200000X0.275000X0*%
%TD*%
%TA.AperFunction,SMDPad,CuDef*%
%ADD13RoundRect,0.218750X-0.256250X0.218750X-0.256250X-0.218750X0.256250X-0.218750X0.256250X0.218750X0*%
%TD*%
%TA.AperFunction,SMDPad,CuDef*%
%ADD14RoundRect,0.200000X0.200000X0.275000X-0.200000X0.275000X-0.200000X-0.275000X0.200000X-0.275000X0*%
%TD*%
%TA.AperFunction,SMDPad,CuDef*%
%ADD15RoundRect,0.250000X0.250000X0.475000X-0.250000X0.475000X-0.250000X-0.475000X0.250000X-0.475000X0*%
%TD*%
%TA.AperFunction,SMDPad,CuDef*%
%ADD16RoundRect,0.250000X-0.250000X-0.475000X0.250000X-0.475000X0.250000X0.475000X-0.250000X0.475000X0*%
%TD*%
%TA.AperFunction,SMDPad,CuDef*%
%ADD17RoundRect,0.225000X0.225000X0.250000X-0.225000X0.250000X-0.225000X-0.250000X0.225000X-0.250000X0*%
%TD*%
%TA.AperFunction,SMDPad,CuDef*%
%ADD18RoundRect,0.080000X-0.120000X-0.170000X0.120000X-0.170000X0.120000X0.170000X-0.120000X0.170000X0*%
%TD*%
%TA.AperFunction,ComponentPad*%
%ADD19R,1.700000X1.700000*%
%TD*%
%TA.AperFunction,ComponentPad*%
%ADD20O,1.700000X1.700000*%
%TD*%
%TA.AperFunction,SMDPad,CuDef*%
%ADD21R,1.000000X1.800000*%
%TD*%
%TA.AperFunction,SMDPad,CuDef*%
%ADD22RoundRect,0.218750X-0.218750X-0.256250X0.218750X-0.256250X0.218750X0.256250X-0.218750X0.256250X0*%
%TD*%
%TA.AperFunction,SMDPad,CuDef*%
%ADD23RoundRect,0.250000X-0.262500X-0.450000X0.262500X-0.450000X0.262500X0.450000X-0.262500X0.450000X0*%
%TD*%
%TA.AperFunction,SMDPad,CuDef*%
%ADD24FreePoly0,0.000000*%
%TD*%
%TA.AperFunction,SMDPad,CuDef*%
%ADD25RoundRect,0.062500X-0.350000X-0.062500X0.350000X-0.062500X0.350000X0.062500X-0.350000X0.062500X0*%
%TD*%
%TA.AperFunction,SMDPad,CuDef*%
%ADD26FreePoly1,0.000000*%
%TD*%
%TA.AperFunction,SMDPad,CuDef*%
%ADD27FreePoly2,0.000000*%
%TD*%
%TA.AperFunction,SMDPad,CuDef*%
%ADD28RoundRect,0.062500X-0.062500X-0.350000X0.062500X-0.350000X0.062500X0.350000X-0.062500X0.350000X0*%
%TD*%
%TA.AperFunction,SMDPad,CuDef*%
%ADD29FreePoly3,0.000000*%
%TD*%
%TA.AperFunction,SMDPad,CuDef*%
%ADD30FreePoly4,0.000000*%
%TD*%
%TA.AperFunction,SMDPad,CuDef*%
%ADD31FreePoly5,0.000000*%
%TD*%
%TA.AperFunction,SMDPad,CuDef*%
%ADD32FreePoly6,0.000000*%
%TD*%
%TA.AperFunction,SMDPad,CuDef*%
%ADD33FreePoly7,0.000000*%
%TD*%
%TA.AperFunction,HeatsinkPad*%
%ADD34C,0.500000*%
%TD*%
%TA.AperFunction,HeatsinkPad*%
%ADD35R,3.400000X3.400000*%
%TD*%
%TA.AperFunction,SMDPad,CuDef*%
%ADD36RoundRect,0.250000X-0.312500X-0.625000X0.312500X-0.625000X0.312500X0.625000X-0.312500X0.625000X0*%
%TD*%
%TA.AperFunction,SMDPad,CuDef*%
%ADD37RoundRect,0.225000X0.250000X-0.225000X0.250000X0.225000X-0.250000X0.225000X-0.250000X-0.225000X0*%
%TD*%
%TA.AperFunction,SMDPad,CuDef*%
%ADD38RoundRect,0.250000X0.475000X-0.250000X0.475000X0.250000X-0.475000X0.250000X-0.475000X-0.250000X0*%
%TD*%
%TA.AperFunction,SMDPad,CuDef*%
%ADD39RoundRect,0.200000X0.275000X-0.200000X0.275000X0.200000X-0.275000X0.200000X-0.275000X-0.200000X0*%
%TD*%
%TA.AperFunction,SMDPad,CuDef*%
%ADD40RoundRect,0.120000X0.180000X-0.405000X0.180000X0.405000X-0.180000X0.405000X-0.180000X-0.405000X0*%
%TD*%
%TA.AperFunction,ComponentPad*%
%ADD41RoundRect,0.250000X0.650000X1.550000X-0.650000X1.550000X-0.650000X-1.550000X0.650000X-1.550000X0*%
%TD*%
%TA.AperFunction,ComponentPad*%
%ADD42O,1.800000X3.600000*%
%TD*%
%TA.AperFunction,SMDPad,CuDef*%
%ADD43RoundRect,0.250000X0.312500X0.625000X-0.312500X0.625000X-0.312500X-0.625000X0.312500X-0.625000X0*%
%TD*%
%TA.AperFunction,ViaPad*%
%ADD44C,0.450000*%
%TD*%
%TA.AperFunction,ViaPad*%
%ADD45C,0.600000*%
%TD*%
%TA.AperFunction,Conductor*%
%ADD46C,0.400000*%
%TD*%
%TA.AperFunction,Conductor*%
%ADD47C,0.450000*%
%TD*%
%TA.AperFunction,Conductor*%
%ADD48C,0.300000*%
%TD*%
%TA.AperFunction,Conductor*%
%ADD49C,0.250000*%
%TD*%
%TA.AperFunction,Conductor*%
%ADD50C,0.150000*%
%TD*%
%TA.AperFunction,Conductor*%
%ADD51C,0.200000*%
%TD*%
%TA.AperFunction,Conductor*%
%ADD52C,0.350000*%
%TD*%
G04 APERTURE END LIST*
D10*
%TO.P,MOV2,1*%
%TO.N,BUS_N*%
X21400000Y37000000D03*
%TO.P,MOV2,2*%
%TO.N,GND*%
X20600000Y37000000D03*
%TD*%
D11*
%TO.P,C8,1*%
%TO.N,VDDP*%
X19725000Y16000000D03*
%TO.P,C8,2*%
%TO.N,GND*%
X21275000Y16000000D03*
%TD*%
D12*
%TO.P,R4,1*%
%TO.N,+3V3*%
X23175000Y15000000D03*
%TO.P,R4,2*%
%TO.N,RESET_N*%
X24825000Y15000000D03*
%TD*%
D11*
%TO.P,C9,1*%
%TO.N,VDDP_17*%
X44225000Y9500000D03*
%TO.P,C9,2*%
%TO.N,GND*%
X45775000Y9500000D03*
%TD*%
D13*
%TO.P,FB1,1*%
%TO.N,+3V3*%
X33000000Y31187500D03*
%TO.P,FB1,2*%
%TO.N,VDDA*%
X33000000Y29612500D03*
%TD*%
D14*
%TO.P,JP1,1*%
%TO.N,VDDP*%
X7725000Y8700000D03*
%TO.P,JP1,2*%
%TO.N,VDDP_17*%
X6075000Y8700000D03*
%TD*%
D11*
%TO.P,C14,1*%
%TO.N,VDDAU*%
X46725000Y26000000D03*
%TO.P,C14,2*%
%TO.N,GND*%
X48275000Y26000000D03*
%TD*%
D15*
%TO.P,C3,1*%
%TO.N,BUS_CT*%
X27050000Y37000000D03*
%TO.P,C3,2*%
%TO.N,GND*%
X25150000Y37000000D03*
%TD*%
D16*
%TO.P,C6,1*%
%TO.N,+3V3*%
X15050000Y18000000D03*
%TO.P,C6,2*%
%TO.N,GND*%
X16950000Y18000000D03*
%TD*%
D17*
%TO.P,C11,1*%
%TO.N,VDDA*%
X33175000Y28000000D03*
%TO.P,C11,2*%
%TO.N,GND*%
X31625000Y28000000D03*
%TD*%
D18*
%TO.P,MOV1,1*%
%TO.N,BUS_P*%
X37100000Y37000000D03*
%TO.P,MOV1,2*%
%TO.N,GND*%
X37900000Y37000000D03*
%TD*%
D19*
%TO.P,J1,1*%
%TO.N,+3V3*%
X8196000Y3360000D03*
D20*
%TO.P,J1,2*%
%TO.N,N/C*%
X8196000Y5900000D03*
%TO.P,J1,3*%
X10736000Y3360000D03*
%TO.P,J1,4*%
X10736000Y5900000D03*
%TO.P,J1,5*%
X13276000Y3360000D03*
%TO.P,J1,6*%
%TO.N,GND*%
X13276000Y5900000D03*
%TO.P,J1,7*%
%TO.N,N/C*%
X15816000Y3360000D03*
%TO.P,J1,8*%
X15816000Y5900000D03*
%TO.P,J1,9*%
%TO.N,GND*%
X18356000Y3360000D03*
%TO.P,J1,10*%
%TO.N,N/C*%
X18356000Y5900000D03*
%TO.P,J1,11*%
X20896000Y3360000D03*
%TO.P,J1,12*%
X20896000Y5900000D03*
%TO.P,J1,13*%
X23436000Y3360000D03*
%TO.P,J1,14*%
%TO.N,GND*%
X23436000Y5900000D03*
%TO.P,J1,15*%
%TO.N,RESET_N*%
X25976000Y3360000D03*
%TO.P,J1,16*%
%TO.N,IRQ_N*%
X25976000Y5900000D03*
%TO.P,J1,17*%
%TO.N,+3V3*%
X28516000Y3360000D03*
%TO.P,J1,18*%
%TO.N,N/C*%
X28516000Y5900000D03*
%TO.P,J1,19*%
%TO.N,SPI_MOSI*%
X31056000Y3360000D03*
%TO.P,J1,20*%
%TO.N,GND*%
X31056000Y5900000D03*
%TO.P,J1,21*%
%TO.N,SPI_MISO*%
X33596000Y3360000D03*
%TO.P,J1,22*%
%TO.N,N/C*%
X33596000Y5900000D03*
%TO.P,J1,23*%
%TO.N,SPI_SCLK*%
X36136000Y3360000D03*
%TO.P,J1,24*%
%TO.N,SPI_CS_N*%
X36136000Y5900000D03*
%TO.P,J1,25*%
%TO.N,GND*%
X38676000Y3360000D03*
%TO.P,J1,26*%
%TO.N,N/C*%
X38676000Y5900000D03*
%TO.P,J1,27*%
X41216000Y3360000D03*
%TO.P,J1,28*%
X41216000Y5900000D03*
%TO.P,J1,29*%
X43756000Y3360000D03*
%TO.P,J1,30*%
%TO.N,GND*%
X43756000Y5900000D03*
%TO.P,J1,31*%
%TO.N,N/C*%
X46296000Y3360000D03*
%TO.P,J1,32*%
X46296000Y5900000D03*
%TO.P,J1,33*%
X48836000Y3360000D03*
%TO.P,J1,34*%
%TO.N,GND*%
X48836000Y5900000D03*
%TO.P,J1,35*%
%TO.N,N/C*%
X51376000Y3360000D03*
%TO.P,J1,36*%
X51376000Y5900000D03*
%TO.P,J1,37*%
X53916000Y3360000D03*
%TO.P,J1,38*%
X53916000Y5900000D03*
%TO.P,J1,39*%
%TO.N,GND*%
X56456000Y3360000D03*
%TO.P,J1,40*%
%TO.N,N/C*%
X56456000Y5900000D03*
%TD*%
D17*
%TO.P,C12,1*%
%TO.N,VDDA*%
X33175000Y26400000D03*
%TO.P,C12,2*%
%TO.N,GND*%
X31625000Y26400000D03*
%TD*%
D11*
%TO.P,C13,1*%
%TO.N,VDDAU*%
X46725000Y27600000D03*
%TO.P,C13,2*%
%TO.N,GND*%
X48275000Y27600000D03*
%TD*%
D12*
%TO.P,R5,1*%
%TO.N,+3V3*%
X31501000Y9500000D03*
%TO.P,R5,2*%
%TO.N,SPI_CS_N*%
X33151000Y9500000D03*
%TD*%
D14*
%TO.P,R9,1*%
%TO.N,+3V3*%
X48325000Y21500000D03*
%TO.P,R9,2*%
%TO.N,LED1_A*%
X46675000Y21500000D03*
%TD*%
D21*
%TO.P,Y1,1*%
%TO.N,XTI*%
X38150000Y26600000D03*
%TO.P,Y1,2*%
%TO.N,XTO*%
X35650000Y26600000D03*
%TD*%
D22*
%TO.P,FB3,1*%
%TO.N,+3V3*%
X17212500Y12000000D03*
%TO.P,FB3,2*%
%TO.N,VDDP*%
X18787500Y12000000D03*
%TD*%
D23*
%TO.P,R3,1*%
%TO.N,BUS_CT*%
X29987500Y37000000D03*
%TO.P,R3,2*%
%TO.N,GND*%
X31812500Y37000000D03*
%TD*%
D16*
%TO.P,C4,1*%
%TO.N,CCOMP*%
X38550000Y20550000D03*
%TO.P,C4,2*%
%TO.N,GND*%
X40450000Y20550000D03*
%TD*%
D14*
%TO.P,R8,1*%
%TO.N,+3V3*%
X48325000Y19000000D03*
%TO.P,R8,2*%
%TO.N,LED0_A*%
X46675000Y19000000D03*
%TD*%
D17*
%TO.P,C10,1*%
%TO.N,VDDP_17*%
X42775000Y9500000D03*
%TO.P,C10,2*%
%TO.N,GND*%
X41225000Y9500000D03*
%TD*%
D24*
%TO.P,U1,1*%
%TO.N,N/C*%
X27562500Y21750000D03*
D25*
%TO.P,U1,2*%
%TO.N,GND*%
X27562500Y21250000D03*
%TO.P,U1,3*%
X27562500Y20750000D03*
%TO.P,U1,4*%
%TO.N,VDDP*%
X27562500Y20250000D03*
%TO.P,U1,5*%
%TO.N,GND*%
X27562500Y19750000D03*
%TO.P,U1,6*%
%TO.N,N/C*%
X27562500Y19250000D03*
%TO.P,U1,7*%
%TO.N,VDDP*%
X27562500Y18750000D03*
D26*
%TO.P,U1,8*%
%TO.N,RESET_N*%
X27562500Y18250000D03*
D27*
%TO.P,U1,9*%
%TO.N,IRQ_N*%
X28250000Y17562500D03*
D28*
%TO.P,U1,10*%
%TO.N,SPI_MISO*%
X28750000Y17562500D03*
%TO.P,U1,11*%
%TO.N,SPI_CS_N*%
X29250000Y17562500D03*
%TO.P,U1,12*%
%TO.N,SPI_SCLK*%
X29750000Y17562500D03*
%TO.P,U1,13*%
%TO.N,SPI_MOSI*%
X30250000Y17562500D03*
%TO.P,U1,14*%
%TO.N,GND*%
X30750000Y17562500D03*
%TO.P,U1,15*%
%TO.N,N/C*%
X31250000Y17562500D03*
D29*
%TO.P,U1,16*%
%TO.N,GND*%
X31750000Y17562500D03*
D30*
%TO.P,U1,17*%
%TO.N,VDDP_17*%
X32437500Y18250000D03*
D25*
%TO.P,U1,18*%
%TO.N,LED0_K*%
X32437500Y18750000D03*
%TO.P,U1,19*%
%TO.N,LED1_K*%
X32437500Y19250000D03*
%TO.P,U1,20*%
%TO.N,GND*%
X32437500Y19750000D03*
%TO.P,U1,21*%
%TO.N,CCOMP*%
X32437500Y20250000D03*
%TO.P,U1,22*%
%TO.N,GND*%
X32437500Y20750000D03*
%TO.P,U1,23*%
X32437500Y21250000D03*
D31*
%TO.P,U1,24*%
%TO.N,N/C*%
X32437500Y21750000D03*
D32*
%TO.P,U1,25*%
%TO.N,VDDAU*%
X31750000Y22437500D03*
D28*
%TO.P,U1,26*%
%TO.N,RBIAS*%
X31250000Y22437500D03*
%TO.P,U1,27*%
%TO.N,XTI*%
X30750000Y22437500D03*
%TO.P,U1,28*%
%TO.N,XTO*%
X30250000Y22437500D03*
%TO.P,U1,29*%
%TO.N,VDDA*%
X29750000Y22437500D03*
%TO.P,U1,30*%
%TO.N,TRXP*%
X29250000Y22437500D03*
%TO.P,U1,31*%
%TO.N,TRXN*%
X28750000Y22437500D03*
D33*
%TO.P,U1,32*%
%TO.N,GND*%
X28250000Y22437500D03*
D34*
%TO.P,U1,33*%
X28550000Y21450000D03*
X28550000Y20000000D03*
X28550000Y18550000D03*
X30000000Y21450000D03*
X30000000Y20000000D03*
D35*
X30000000Y20000000D03*
D34*
X30000000Y18550000D03*
X31450000Y21450000D03*
X31450000Y20000000D03*
X31450000Y18550000D03*
%TD*%
D36*
%TO.P,R2,1*%
%TO.N,BUS_N*%
X23537500Y34200000D03*
%TO.P,R2,2*%
%TO.N,BUS_CT*%
X26462500Y34200000D03*
%TD*%
D37*
%TO.P,C16,1*%
%TO.N,XTI*%
X38150000Y28625000D03*
%TO.P,C16,2*%
%TO.N,GND*%
X38150000Y30175000D03*
%TD*%
D22*
%TO.P,D1,1*%
%TO.N,LED0_K*%
X43212500Y19000000D03*
%TO.P,D1,2*%
%TO.N,LED0_A*%
X44787500Y19000000D03*
%TD*%
D11*
%TO.P,C7,1*%
%TO.N,VDDP*%
X19025000Y13600000D03*
%TO.P,C7,2*%
%TO.N,GND*%
X20575000Y13600000D03*
%TD*%
D38*
%TO.P,C2,1*%
%TO.N,CMC_N*%
X27500000Y29850000D03*
%TO.P,C2,2*%
%TO.N,BUS_N*%
X27500000Y31750000D03*
%TD*%
D37*
%TO.P,C15,1*%
%TO.N,XTO*%
X35650000Y28625000D03*
%TO.P,C15,2*%
%TO.N,GND*%
X35650000Y30175000D03*
%TD*%
D39*
%TO.P,R7,1*%
%TO.N,RBIAS*%
X41000000Y25975000D03*
%TO.P,R7,2*%
%TO.N,GND*%
X41000000Y27625000D03*
%TD*%
D40*
%TO.P,L1,1*%
%TO.N,TRXP*%
X29000000Y25075000D03*
%TO.P,L1,2*%
%TO.N,TRXN*%
X28000000Y25075000D03*
%TO.P,L1,3*%
%TO.N,CMC_N*%
X28000000Y28125000D03*
%TO.P,L1,4*%
%TO.N,CMC_P*%
X29000000Y28125000D03*
%TD*%
D38*
%TO.P,C1,1*%
%TO.N,CMC_P*%
X29500000Y29850000D03*
%TO.P,C1,2*%
%TO.N,BUS_P*%
X29500000Y31750000D03*
%TD*%
D22*
%TO.P,D2,1*%
%TO.N,LED1_K*%
X43212500Y21500000D03*
%TO.P,D2,2*%
%TO.N,LED1_A*%
X44787500Y21500000D03*
%TD*%
D41*
%TO.P,CN1,1*%
%TO.N,BUS_P*%
X30405000Y40650000D03*
D42*
%TO.P,CN1,2*%
%TO.N,BUS_N*%
X26595000Y40650000D03*
%TO.P,CN1,3*%
X22785000Y40650000D03*
%TO.P,CN1,4*%
%TO.N,BUS_P*%
X18975000Y40650000D03*
%TD*%
D11*
%TO.P,C5,1*%
%TO.N,CCOMP*%
X34625000Y21000000D03*
%TO.P,C5,2*%
%TO.N,GND*%
X36175000Y21000000D03*
%TD*%
D43*
%TO.P,R1,1*%
%TO.N,BUS_P*%
X33462500Y34200000D03*
%TO.P,R1,2*%
%TO.N,BUS_CT*%
X30537500Y34200000D03*
%TD*%
D13*
%TO.P,FB2,1*%
%TO.N,+3V3*%
X44000000Y30287500D03*
%TO.P,FB2,2*%
%TO.N,VDDAU*%
X44000000Y28712500D03*
%TD*%
D14*
%TO.P,R6,1*%
%TO.N,+3V3*%
X29425000Y12400000D03*
%TO.P,R6,2*%
%TO.N,IRQ_N*%
X27775000Y12400000D03*
%TD*%
D44*
%TO.N,GND*%
X33300000Y21750000D03*
D45*
X17900000Y18000000D03*
X36900000Y20200000D03*
X41000000Y28700000D03*
D44*
X31750000Y16700000D03*
D45*
X49100000Y27600000D03*
X40700000Y9500000D03*
X27600000Y23200000D03*
X30699999Y26400000D03*
D44*
X33300000Y20750000D03*
D45*
X20625000Y12400000D03*
D44*
X41400000Y20550000D03*
D45*
X46300000Y9500000D03*
D44*
X25400000Y19550000D03*
D45*
X22100000Y16000000D03*
X30699999Y28000000D03*
X38150000Y30900000D03*
X25150000Y35600000D03*
X18500000Y37000000D03*
X49100000Y26000000D03*
X31812000Y35600000D03*
X40100000Y37000000D03*
X35650000Y30900000D03*
%TD*%
D46*
%TO.N,+3V3*%
X13500000Y10500000D02*
X13500000Y46500000D01*
X22166000Y2000000D02*
X22166000Y15000000D01*
D47*
X33000000Y31900000D02*
X33000000Y31187500D01*
X44000000Y31900000D02*
X33000000Y31900000D01*
X8196000Y2000000D02*
X6900000Y2000000D01*
D48*
X29786000Y2000000D02*
X28515999Y2000000D01*
D47*
X28515999Y2000000D02*
X28515999Y3360000D01*
X8196000Y3360000D02*
X8196000Y2000000D01*
D46*
X13500000Y46500000D02*
X52646000Y46500000D01*
D47*
X6900000Y10500000D02*
X17213000Y10500000D01*
D46*
X52646000Y31900000D02*
X52646000Y19000000D01*
X22166000Y15000000D02*
X23175000Y15000000D01*
D48*
X52646000Y21500000D02*
X48325000Y21500000D01*
D46*
X52646000Y31900000D02*
X44000000Y31900000D01*
D48*
X13500000Y18000000D02*
X15050000Y18000000D01*
D47*
X17213000Y10500000D02*
X17212500Y12000000D01*
D46*
X52646000Y46500000D02*
X52646000Y31900000D01*
X44000000Y31900000D02*
X44000000Y30287500D01*
D48*
X29425000Y12400000D02*
X29786000Y12400000D01*
D49*
X29786000Y9500000D02*
X31501000Y9500000D01*
D47*
X8196000Y2000000D02*
X28515999Y2000000D01*
D48*
X29786000Y12400000D02*
X29786000Y2000000D01*
D47*
X6900000Y2000000D02*
X6900000Y10500000D01*
D48*
X52646000Y19000000D02*
X48325000Y19000000D01*
%TO.N,GND*%
X21275000Y16000000D02*
X22100000Y16000000D01*
X48275000Y27600000D02*
X49100000Y27600000D01*
X28000000Y23200000D02*
X27600000Y23200000D01*
X45775000Y9500000D02*
X46300000Y9500000D01*
X38150000Y30175000D02*
X38150000Y30900000D01*
D50*
X32437500Y21250000D02*
X33300000Y21250000D01*
D48*
X41225000Y9500000D02*
X40700000Y9500000D01*
D50*
X33300000Y21250000D02*
X33300000Y21750000D01*
X32437500Y20750000D02*
X33300000Y20750000D01*
D48*
X37900000Y37000000D02*
X40100000Y37000000D01*
X31625000Y26400000D02*
X30699999Y26400000D01*
X31812500Y37000000D02*
X31812000Y35600000D01*
X36175000Y21000000D02*
X36900000Y20200000D01*
X20600000Y37000000D02*
X18500000Y37000000D01*
D50*
X36900000Y19750000D02*
X36900000Y20200000D01*
D48*
X16950000Y18000000D02*
X17900000Y18000000D01*
D51*
X31750000Y17562500D02*
X31750000Y16700000D01*
D48*
X41000000Y27625000D02*
X41000000Y28700000D01*
X25150000Y37000000D02*
X25150000Y35600000D01*
X40450000Y20550000D02*
X41400000Y20550000D01*
X35650000Y30175000D02*
X35650000Y30900000D01*
D50*
X32437500Y19750000D02*
X36900000Y19750000D01*
D48*
X31625000Y28000000D02*
X30699999Y28000000D01*
X28250000Y22437500D02*
X28000000Y23200000D01*
X20575000Y13600000D02*
X20625000Y12400000D01*
X28250000Y22437500D02*
X27600000Y23200000D01*
X48275000Y26000000D02*
X49100000Y26000000D01*
D50*
X27562500Y19750000D02*
X25400000Y19550000D01*
D49*
%TO.N,RESET_N*%
X27562500Y18250000D02*
X24706000Y18250000D01*
X24706000Y18250000D02*
X24706000Y14000000D01*
X24706000Y3360000D02*
X25976000Y3360000D01*
X24706000Y14000000D02*
X24706000Y3360000D01*
X24825000Y15000000D02*
X24706000Y14000000D01*
%TO.N,IRQ_N*%
X27775000Y12400000D02*
X28250000Y12400000D01*
X28250000Y12400000D02*
X25976000Y12400000D01*
X25976000Y12400000D02*
X25976000Y5900000D01*
X28250000Y17562500D02*
X28250000Y12400000D01*
%TO.N,SPI_MOSI*%
X30250000Y17562500D02*
X30250000Y16000000D01*
X39946000Y16000000D02*
X39946000Y1350000D01*
X30250000Y16000000D02*
X39946000Y16000000D01*
X39946000Y1350000D02*
X31056000Y1350000D01*
X31056000Y1350000D02*
X31056000Y3360000D01*
%TO.N,SPI_MISO*%
X28750000Y17562500D02*
X28750000Y13600000D01*
X32326000Y3360000D02*
X33596000Y3360000D01*
X32326000Y13600000D02*
X32326000Y3360000D01*
X28750000Y13600000D02*
X32326000Y13600000D01*
%TO.N,SPI_SCLK*%
X29750000Y17562500D02*
X29750000Y15200000D01*
X37406000Y15200000D02*
X37406000Y3360000D01*
X37406000Y3360000D02*
X36136000Y3360000D01*
X29750000Y15200000D02*
X37406000Y15200000D01*
%TO.N,SPI_CS_N*%
X34866000Y5900000D02*
X36136000Y5900000D01*
X33151000Y9500000D02*
X34866000Y9500000D01*
X29250000Y14400000D02*
X34866000Y14400000D01*
X29250000Y17562500D02*
X29250000Y14400000D01*
X34866000Y14400000D02*
X34866000Y5900000D01*
D48*
%TO.N,VDDP*%
X19626000Y13600000D02*
X18975000Y13600000D01*
X19626000Y13600000D02*
X19025000Y13600000D01*
X19626000Y18750000D02*
X19626000Y16000000D01*
X19626000Y8700000D02*
X7725000Y8700000D01*
X19626000Y16000000D02*
X19725000Y16000000D01*
X19626000Y16000000D02*
X19626000Y13600000D01*
X19626000Y13600000D02*
X19626000Y8700000D01*
D47*
X19626000Y20250000D02*
X19626000Y13600000D01*
D48*
X18975000Y13600000D02*
X18787500Y12000000D01*
X27562500Y20250000D02*
X19626000Y20250000D01*
X27562500Y18750000D02*
X19626000Y18750000D01*
%TO.N,VDDP_17*%
X42486000Y800000D02*
X42486000Y8000000D01*
X44225000Y9500000D02*
X42775000Y9500000D01*
X47566000Y17600000D02*
X47566000Y8000000D01*
X32437500Y18250000D02*
X33400000Y17600000D01*
D47*
X6075000Y8700000D02*
X6075000Y800000D01*
D48*
X42486000Y8000000D02*
X44225000Y8000000D01*
D47*
X6075000Y800000D02*
X42486000Y800000D01*
D48*
X44225000Y8000000D02*
X44225000Y9500000D01*
X33400000Y17600000D02*
X47566000Y17600000D01*
X47566000Y8000000D02*
X44225000Y8000000D01*
D49*
%TO.N,LED0_K*%
X43213000Y18750000D02*
X43212500Y19000000D01*
X32437500Y18750000D02*
X43213000Y18750000D01*
%TO.N,LED1_K*%
X42000000Y21500000D02*
X43212500Y21500000D01*
X42000000Y19250000D02*
X42000000Y21500000D01*
X32437500Y19250000D02*
X42000000Y19250000D01*
D50*
%TO.N,CCOMP*%
X34625000Y21000000D02*
X34625000Y22400000D01*
X32437500Y20250000D02*
X34625000Y20250000D01*
X34625000Y22400000D02*
X38550000Y22400000D01*
X34625000Y20250000D02*
X34625000Y21000000D01*
X38550000Y22400000D02*
X38550000Y20550000D01*
%TO.N,VDDAU*%
X31750000Y22900000D02*
X44000000Y22900000D01*
D48*
X44000000Y26000000D02*
X46725000Y26000000D01*
X44000000Y27600000D02*
X46725000Y27600000D01*
D47*
X44000000Y22900000D02*
X44000000Y28712500D01*
D50*
X31750000Y22437500D02*
X31750000Y22900000D01*
%TO.N,RBIAS*%
X31250000Y22437500D02*
X31250000Y23400000D01*
D49*
X41000000Y23400000D02*
X41000000Y25975000D01*
D50*
X31250000Y23400000D02*
X41000000Y23400000D01*
D49*
%TO.N,XTI*%
X38600000Y23900000D02*
X38600000Y26600000D01*
X38150000Y26600000D02*
X38150000Y28625000D01*
X38600000Y26600000D02*
X38150000Y26600000D01*
D50*
X30750000Y23900000D02*
X38600000Y23900000D01*
X30750000Y22437500D02*
X30750000Y23900000D01*
D49*
%TO.N,XTO*%
X35650000Y26600000D02*
X35650000Y28625000D01*
D50*
X30250000Y24400000D02*
X35650000Y24400000D01*
D49*
X35650000Y24400000D02*
X35650000Y26600000D01*
D50*
X30250000Y22437500D02*
X30250000Y24400000D01*
%TO.N,VDDA*%
X29750000Y24900000D02*
X33000000Y24900000D01*
D48*
X33000000Y26400000D02*
X33175000Y26400000D01*
D50*
X29750000Y22437500D02*
X29750000Y24900000D01*
D48*
X33000000Y28000000D02*
X33175000Y28000000D01*
D47*
X33000000Y24900000D02*
X33000000Y29612500D01*
D52*
%TO.N,TRXP*%
X29000000Y25000000D02*
X29000000Y25075000D01*
D50*
X29250000Y24750000D02*
X29000000Y25000000D01*
X29250000Y22437500D02*
X29250000Y24750000D01*
%TO.N,TRXN*%
X28750000Y22437500D02*
X28750000Y24000000D01*
X28750000Y24000000D02*
X28000000Y24750000D01*
D52*
X28000000Y24750000D02*
X28000000Y25075000D01*
%TO.N,CMC_N*%
X27500000Y29600000D02*
X27500000Y29850000D01*
X28000000Y28125000D02*
X28000000Y29100000D01*
X28000000Y29100000D02*
X27500000Y29600000D01*
%TO.N,CMC_P*%
X29000000Y29100000D02*
X29500000Y29600000D01*
X29500000Y29600000D02*
X29500000Y29850000D01*
X29000000Y28125000D02*
X29000000Y29100000D01*
%TO.N,BUS_P*%
X30405000Y38400000D02*
X30405000Y40650000D01*
X18975000Y44000000D02*
X18975000Y40650000D01*
X29500000Y31750000D02*
X29500000Y32800000D01*
X29500000Y32800000D02*
X33460000Y32800000D01*
X30405000Y40650000D02*
X30405000Y44000000D01*
X30405000Y44000000D02*
X18975000Y44000000D01*
X33460000Y37000000D02*
X37100000Y37000000D01*
X33460000Y38400000D02*
X30405000Y38400000D01*
X33460000Y32800000D02*
X33460000Y38400000D01*
%TO.N,BUS_N*%
X27500000Y32800000D02*
X23539999Y32800000D01*
X26595000Y40650000D02*
X22785000Y40650000D01*
X26595000Y38400000D02*
X26595000Y40650000D01*
X23539999Y38400000D02*
X26595000Y38400000D01*
X23539999Y32800000D02*
X23539999Y38400000D01*
X27500000Y31750000D02*
X27500000Y32800000D01*
X23539999Y37000000D02*
X21400000Y37000000D01*
D49*
%TO.N,BUS_CT*%
X26462500Y34200000D02*
X30537500Y34200000D01*
X27050000Y37000000D02*
X28500000Y37000000D01*
X28500000Y37000000D02*
X29987500Y37000000D01*
X28500000Y34200000D02*
X28500000Y37000000D01*
%TO.N,LED0_A*%
X44787500Y19000000D02*
X46675000Y19000000D01*
%TO.N,LED1_A*%
X44787500Y21500000D02*
X46675000Y21500000D01*
%TD*%
%TA.AperFunction,Conductor*%
%TO.N,GND*%
G36*
X63222065Y48889385D02*
G01*
X63518112Y48872759D01*
X63526346Y48871830D01*
X63816603Y48822514D01*
X63824671Y48820673D01*
X64107605Y48739161D01*
X64115418Y48736427D01*
X64387428Y48623756D01*
X64394904Y48620156D01*
X64652594Y48477737D01*
X64659608Y48473329D01*
X64899716Y48302963D01*
X64906203Y48297791D01*
X65125741Y48101600D01*
X65131604Y48095737D01*
X65327789Y47876205D01*
X65332962Y47869717D01*
X65503324Y47629615D01*
X65507740Y47622588D01*
X65650155Y47364905D01*
X65653755Y47357429D01*
X65766422Y47085429D01*
X65769163Y47077596D01*
X65850669Y46794683D01*
X65852515Y46786592D01*
X65901828Y46496353D01*
X65902758Y46488107D01*
X65919384Y46192066D01*
X65919500Y46187917D01*
X65919500Y44074000D01*
X65902187Y44026434D01*
X65858350Y44001124D01*
X65845500Y44000000D01*
X58000000Y44000000D01*
X58000000Y22000000D01*
X65845500Y22000000D01*
X65893066Y21982687D01*
X65918376Y21938850D01*
X65919500Y21926000D01*
X65919500Y3002084D01*
X65919384Y2997935D01*
X65902758Y2701894D01*
X65901828Y2693648D01*
X65852515Y2403409D01*
X65850669Y2395318D01*
X65769163Y2112405D01*
X65766422Y2104572D01*
X65653755Y1832572D01*
X65650155Y1825096D01*
X65507740Y1567413D01*
X65503324Y1560386D01*
X65332962Y1320284D01*
X65327789Y1313796D01*
X65131604Y1094264D01*
X65125736Y1088396D01*
X64906204Y892211D01*
X64899716Y887038D01*
X64659614Y716676D01*
X64652587Y712260D01*
X64394904Y569845D01*
X64387428Y566245D01*
X64115428Y453578D01*
X64107595Y450837D01*
X63824682Y369331D01*
X63816591Y367485D01*
X63526352Y318172D01*
X63518106Y317242D01*
X63222066Y300616D01*
X63217917Y300500D01*
X42751152Y300500D01*
X42703586Y317813D01*
X42678276Y361650D01*
X42687066Y411500D01*
X42717555Y440434D01*
X42739220Y451472D01*
X42834528Y546780D01*
X42895719Y666874D01*
X42916804Y800000D01*
X42895719Y933126D01*
X42844565Y1033522D01*
X42836500Y1067117D01*
X42836500Y2617685D01*
X42853813Y2665251D01*
X42897650Y2690561D01*
X42947500Y2681771D01*
X42967702Y2664631D01*
X43009590Y2613590D01*
X43169550Y2482315D01*
X43352046Y2384768D01*
X43550066Y2324700D01*
X43756000Y2304417D01*
X43961934Y2324700D01*
X44159954Y2384768D01*
X44342450Y2482315D01*
X44502410Y2613590D01*
X44633685Y2773550D01*
X44731232Y2956046D01*
X44791300Y3154066D01*
X44811583Y3360000D01*
X45240417Y3360000D01*
X45260700Y3154065D01*
X45282377Y3082607D01*
X45320768Y2956046D01*
X45418315Y2773550D01*
X45549590Y2613590D01*
X45709550Y2482315D01*
X45892046Y2384768D01*
X46090066Y2324700D01*
X46296000Y2304417D01*
X46501934Y2324700D01*
X46699954Y2384768D01*
X46882450Y2482315D01*
X47042410Y2613590D01*
X47173685Y2773550D01*
X47271232Y2956046D01*
X47331300Y3154066D01*
X47351583Y3360000D01*
X47780417Y3360000D01*
X47800700Y3154065D01*
X47822377Y3082607D01*
X47860768Y2956046D01*
X47958315Y2773550D01*
X48089590Y2613590D01*
X48249550Y2482315D01*
X48432046Y2384768D01*
X48630066Y2324700D01*
X48836000Y2304417D01*
X49041934Y2324700D01*
X49239954Y2384768D01*
X49422450Y2482315D01*
X49582410Y2613590D01*
X49713685Y2773550D01*
X49811232Y2956046D01*
X49871300Y3154066D01*
X49891583Y3360000D01*
X50320417Y3360000D01*
X50340700Y3154065D01*
X50362377Y3082607D01*
X50400768Y2956046D01*
X50498315Y2773550D01*
X50629590Y2613590D01*
X50789550Y2482315D01*
X50972046Y2384768D01*
X51170066Y2324700D01*
X51376000Y2304417D01*
X51581934Y2324700D01*
X51779954Y2384768D01*
X51962450Y2482315D01*
X52122410Y2613590D01*
X52253685Y2773550D01*
X52351232Y2956046D01*
X52411300Y3154066D01*
X52431583Y3360000D01*
X52860417Y3360000D01*
X52880700Y3154065D01*
X52902377Y3082607D01*
X52940768Y2956046D01*
X53038315Y2773550D01*
X53169590Y2613590D01*
X53329550Y2482315D01*
X53512046Y2384768D01*
X53710066Y2324700D01*
X53916000Y2304417D01*
X54121934Y2324700D01*
X54319954Y2384768D01*
X54502450Y2482315D01*
X54662410Y2613590D01*
X54793685Y2773550D01*
X54891232Y2956046D01*
X54951300Y3154066D01*
X54971583Y3360000D01*
X54951300Y3565934D01*
X54891232Y3763954D01*
X54793685Y3946450D01*
X54662410Y4106410D01*
X54502450Y4237685D01*
X54407882Y4288233D01*
X54319956Y4335231D01*
X54319955Y4335232D01*
X54319954Y4335232D01*
X54208158Y4369145D01*
X54121935Y4395300D01*
X53916000Y4415583D01*
X53710064Y4395300D01*
X53512043Y4335231D01*
X53329549Y4237685D01*
X53169590Y4106411D01*
X53169589Y4106410D01*
X53038315Y3946451D01*
X52940769Y3763957D01*
X52880700Y3565936D01*
X52860417Y3360000D01*
X52431583Y3360000D01*
X52411300Y3565934D01*
X52351232Y3763954D01*
X52253685Y3946450D01*
X52122410Y4106410D01*
X51962450Y4237685D01*
X51867882Y4288233D01*
X51779956Y4335231D01*
X51779955Y4335232D01*
X51779954Y4335232D01*
X51668158Y4369145D01*
X51581935Y4395300D01*
X51376000Y4415583D01*
X51170064Y4395300D01*
X50972043Y4335231D01*
X50789549Y4237685D01*
X50629590Y4106411D01*
X50629589Y4106410D01*
X50498315Y3946451D01*
X50400769Y3763957D01*
X50340700Y3565936D01*
X50320417Y3360000D01*
X49891583Y3360000D01*
X49871300Y3565934D01*
X49811232Y3763954D01*
X49713685Y3946450D01*
X49582410Y4106410D01*
X49422450Y4237685D01*
X49327882Y4288233D01*
X49239956Y4335231D01*
X49239955Y4335232D01*
X49239954Y4335232D01*
X49128158Y4369145D01*
X49041935Y4395300D01*
X48836000Y4415583D01*
X48630064Y4395300D01*
X48432043Y4335231D01*
X48249549Y4237685D01*
X48089590Y4106411D01*
X48089589Y4106410D01*
X47958315Y3946451D01*
X47860769Y3763957D01*
X47800700Y3565936D01*
X47780417Y3360000D01*
X47351583Y3360000D01*
X47331300Y3565934D01*
X47271232Y3763954D01*
X47173685Y3946450D01*
X47042410Y4106410D01*
X46882450Y4237685D01*
X46787882Y4288233D01*
X46699956Y4335231D01*
X46699955Y4335232D01*
X46699954Y4335232D01*
X46588158Y4369145D01*
X46501935Y4395300D01*
X46296000Y4415583D01*
X46090064Y4395300D01*
X45892043Y4335231D01*
X45709549Y4237685D01*
X45549590Y4106411D01*
X45549589Y4106410D01*
X45418315Y3946451D01*
X45320769Y3763957D01*
X45260700Y3565936D01*
X45240417Y3360000D01*
X44811583Y3360000D01*
X44791300Y3565934D01*
X44731232Y3763954D01*
X44633685Y3946450D01*
X44502410Y4106410D01*
X44342450Y4237685D01*
X44247882Y4288233D01*
X44159956Y4335231D01*
X44159955Y4335232D01*
X44159954Y4335232D01*
X44048158Y4369145D01*
X43961935Y4395300D01*
X43756000Y4415583D01*
X43550064Y4395300D01*
X43352043Y4335231D01*
X43169549Y4237685D01*
X43009590Y4106411D01*
X43009589Y4106410D01*
X42967703Y4055371D01*
X42924144Y4029585D01*
X42874201Y4037830D01*
X42841243Y4076250D01*
X42836500Y4102316D01*
X42836500Y4566355D01*
X59750656Y4566355D01*
X59781315Y4313843D01*
X59781319Y4313826D01*
X59852086Y4069509D01*
X59852089Y4069500D01*
X59961134Y3839694D01*
X59961136Y3839691D01*
X59961137Y3839689D01*
X59961138Y3839688D01*
X60105639Y3630341D01*
X60281851Y3446885D01*
X60485209Y3294071D01*
X60710447Y3175857D01*
X60951731Y3095305D01*
X61202812Y3054500D01*
X61202815Y3054500D01*
X61393482Y3054500D01*
X61583549Y3069844D01*
X61830532Y3130720D01*
X62064552Y3230426D01*
X62279547Y3366381D01*
X62469950Y3535063D01*
X62630828Y3732103D01*
X62758015Y3952398D01*
X62848218Y4190243D01*
X62899099Y4439477D01*
X62909342Y4693645D01*
X62878681Y4946166D01*
X62842880Y5069763D01*
X62807911Y5190492D01*
X62807908Y5190501D01*
X62698863Y5420307D01*
X62698861Y5420310D01*
X62686270Y5438551D01*
X62554359Y5629659D01*
X62378147Y5813115D01*
X62174789Y5965929D01*
X61949551Y6084143D01*
X61708267Y6164695D01*
X61457186Y6205500D01*
X61266516Y6205500D01*
X61076451Y6190157D01*
X60829468Y6129281D01*
X60595447Y6029575D01*
X60380450Y5893619D01*
X60190045Y5724935D01*
X60029168Y5527896D01*
X59901983Y5307604D01*
X59901979Y5307595D01*
X59811781Y5069763D01*
X59811781Y5069761D01*
X59760898Y4820520D01*
X59750656Y4566355D01*
X42836500Y4566355D01*
X42836500Y5900000D01*
X45240417Y5900000D01*
X45260700Y5694065D01*
X45275036Y5646806D01*
X45311106Y5527897D01*
X45320769Y5496044D01*
X45418315Y5313550D01*
X45548996Y5154313D01*
X45549590Y5153590D01*
X45709550Y5022315D01*
X45892046Y4924768D01*
X46090066Y4864700D01*
X46296000Y4844417D01*
X46501934Y4864700D01*
X46699954Y4924768D01*
X46882450Y5022315D01*
X47042410Y5153590D01*
X47173685Y5313550D01*
X47271232Y5496046D01*
X47331300Y5694066D01*
X47351583Y5900000D01*
X50320417Y5900000D01*
X50340700Y5694065D01*
X50355036Y5646806D01*
X50391106Y5527897D01*
X50400769Y5496044D01*
X50498315Y5313550D01*
X50628996Y5154313D01*
X50629590Y5153590D01*
X50789550Y5022315D01*
X50972046Y4924768D01*
X51170066Y4864700D01*
X51376000Y4844417D01*
X51581934Y4864700D01*
X51779954Y4924768D01*
X51962450Y5022315D01*
X52122410Y5153590D01*
X52253685Y5313550D01*
X52351232Y5496046D01*
X52411300Y5694066D01*
X52431583Y5900000D01*
X52860417Y5900000D01*
X52880700Y5694065D01*
X52895036Y5646806D01*
X52931106Y5527897D01*
X52940769Y5496044D01*
X53038315Y5313550D01*
X53168996Y5154313D01*
X53169590Y5153590D01*
X53329550Y5022315D01*
X53512046Y4924768D01*
X53710066Y4864700D01*
X53916000Y4844417D01*
X54121934Y4864700D01*
X54319954Y4924768D01*
X54502450Y5022315D01*
X54662410Y5153590D01*
X54793685Y5313550D01*
X54891232Y5496046D01*
X54951300Y5694066D01*
X54971583Y5900000D01*
X55400417Y5900000D01*
X55420700Y5694065D01*
X55435036Y5646806D01*
X55471106Y5527897D01*
X55480769Y5496044D01*
X55578315Y5313550D01*
X55708996Y5154313D01*
X55709590Y5153590D01*
X55869550Y5022315D01*
X56052046Y4924768D01*
X56250066Y4864700D01*
X56456000Y4844417D01*
X56661934Y4864700D01*
X56859954Y4924768D01*
X57042450Y5022315D01*
X57202410Y5153590D01*
X57333685Y5313550D01*
X57431232Y5496046D01*
X57491300Y5694066D01*
X57511583Y5900000D01*
X57491300Y6105934D01*
X57431232Y6303954D01*
X57333685Y6486450D01*
X57202410Y6646410D01*
X57042450Y6777685D01*
X56859954Y6875232D01*
X56733882Y6913475D01*
X56661935Y6935300D01*
X56456000Y6955583D01*
X56250064Y6935300D01*
X56077984Y6883100D01*
X56052050Y6875233D01*
X56052043Y6875231D01*
X55869549Y6777685D01*
X55709590Y6646411D01*
X55709589Y6646410D01*
X55578315Y6486451D01*
X55480769Y6303957D01*
X55420700Y6105936D01*
X55400417Y5900000D01*
X54971583Y5900000D01*
X54951300Y6105934D01*
X54891232Y6303954D01*
X54793685Y6486450D01*
X54662410Y6646410D01*
X54502450Y6777685D01*
X54319954Y6875232D01*
X54193882Y6913475D01*
X54121935Y6935300D01*
X53916000Y6955583D01*
X53710064Y6935300D01*
X53537984Y6883100D01*
X53512050Y6875233D01*
X53512043Y6875231D01*
X53329549Y6777685D01*
X53169590Y6646411D01*
X53169589Y6646410D01*
X53038315Y6486451D01*
X52940769Y6303957D01*
X52880700Y6105936D01*
X52860417Y5900000D01*
X52431583Y5900000D01*
X52411300Y6105934D01*
X52351232Y6303954D01*
X52253685Y6486450D01*
X52122410Y6646410D01*
X51962450Y6777685D01*
X51779954Y6875232D01*
X51653882Y6913475D01*
X51581935Y6935300D01*
X51376000Y6955583D01*
X51170064Y6935300D01*
X50997984Y6883100D01*
X50972050Y6875233D01*
X50972043Y6875231D01*
X50789549Y6777685D01*
X50629590Y6646411D01*
X50629589Y6646410D01*
X50498315Y6486451D01*
X50400769Y6303957D01*
X50340700Y6105936D01*
X50320417Y5900000D01*
X47351583Y5900000D01*
X47331300Y6105934D01*
X47271232Y6303954D01*
X47173685Y6486450D01*
X47042410Y6646410D01*
X46882450Y6777685D01*
X46699954Y6875232D01*
X46573882Y6913475D01*
X46501935Y6935300D01*
X46296000Y6955583D01*
X46090064Y6935300D01*
X45917984Y6883100D01*
X45892050Y6875233D01*
X45892043Y6875231D01*
X45709549Y6777685D01*
X45549590Y6646411D01*
X45549589Y6646410D01*
X45418315Y6486451D01*
X45320769Y6303957D01*
X45260700Y6105936D01*
X45240417Y5900000D01*
X42836500Y5900000D01*
X42836500Y7575500D01*
X42853813Y7623066D01*
X42897650Y7648376D01*
X42910500Y7649500D01*
X44166512Y7649500D01*
X44207452Y7649500D01*
X44213560Y7649248D01*
X44224075Y7648376D01*
X44254341Y7645868D01*
X44254341Y7645869D01*
X44254344Y7645868D01*
X44259743Y7647236D01*
X44277909Y7649500D01*
X47548452Y7649500D01*
X47554560Y7649248D01*
X47565075Y7648376D01*
X47595341Y7645868D01*
X47595341Y7645869D01*
X47595344Y7645868D01*
X47635045Y7655922D01*
X47640979Y7657167D01*
X47681381Y7663908D01*
X47686284Y7666563D01*
X47703340Y7673217D01*
X47708741Y7674584D01*
X47743010Y7696975D01*
X47748260Y7700102D01*
X47784258Y7719582D01*
X47788031Y7723682D01*
X47802007Y7735519D01*
X47806669Y7738563D01*
X47831807Y7770863D01*
X47835745Y7775513D01*
X47863484Y7805644D01*
X47865725Y7810754D01*
X47875096Y7826480D01*
X47878517Y7830874D01*
X47891812Y7869603D01*
X47894023Y7875270D01*
X47910473Y7912768D01*
X47910932Y7918317D01*
X47914693Y7936250D01*
X47916500Y7941512D01*
X47916500Y7982452D01*
X47916753Y7988564D01*
X47920132Y8029344D01*
X47920132Y8029346D01*
X47918764Y8034749D01*
X47916500Y8052912D01*
X47916500Y17582452D01*
X47916753Y17588564D01*
X47920132Y17629344D01*
X47920132Y17629345D01*
X47910084Y17669022D01*
X47908832Y17674989D01*
X47902092Y17715381D01*
X47899439Y17720283D01*
X47892782Y17737345D01*
X47891416Y17742741D01*
X47869021Y17777018D01*
X47865899Y17782259D01*
X47846418Y17818258D01*
X47842313Y17822037D01*
X47830482Y17836008D01*
X47827437Y17840669D01*
X47827434Y17840671D01*
X47795130Y17865815D01*
X47790480Y17869753D01*
X47760356Y17897484D01*
X47760354Y17897485D01*
X47760353Y17897486D01*
X47755246Y17899726D01*
X47739522Y17909096D01*
X47735128Y17912516D01*
X47735124Y17912518D01*
X47696413Y17925808D01*
X47690717Y17928031D01*
X47653233Y17944473D01*
X47653229Y17944474D01*
X47647674Y17944934D01*
X47629761Y17948690D01*
X47624488Y17950500D01*
X47583548Y17950500D01*
X47577439Y17950753D01*
X47573470Y17951082D01*
X47536658Y17954133D01*
X47533989Y17953457D01*
X47531256Y17952765D01*
X47513091Y17950500D01*
X33529914Y17950500D01*
X33488499Y17963174D01*
X33166171Y18180850D01*
X33089872Y18232377D01*
X33060143Y18273345D01*
X33058711Y18308141D01*
X33059578Y18312499D01*
X33054891Y18336064D01*
X33062591Y18386094D01*
X33100649Y18419469D01*
X33127469Y18424500D01*
X42689439Y18424500D01*
X42737005Y18407187D01*
X42741765Y18402826D01*
X42744250Y18400341D01*
X42797781Y18373066D01*
X42862579Y18340050D01*
X42862579Y18340049D01*
X42960753Y18324500D01*
X42960754Y18324500D01*
X43464247Y18324500D01*
X43562420Y18340049D01*
X43680751Y18400342D01*
X43774658Y18494249D01*
X43834951Y18612580D01*
X43850500Y18710754D01*
X44149500Y18710754D01*
X44165049Y18612580D01*
X44225340Y18494251D01*
X44319250Y18400341D01*
X44372781Y18373066D01*
X44437579Y18340050D01*
X44437579Y18340049D01*
X44535753Y18324500D01*
X44535754Y18324500D01*
X45039247Y18324500D01*
X45137420Y18340049D01*
X45255751Y18400342D01*
X45349658Y18494249D01*
X45409951Y18612580D01*
X45409951Y18612586D01*
X45411752Y18618122D01*
X45412999Y18617717D01*
X45434410Y18656347D01*
X45481666Y18674489D01*
X45482960Y18674500D01*
X46014304Y18674500D01*
X46061870Y18657187D01*
X46087180Y18613350D01*
X46087393Y18612077D01*
X46089354Y18599695D01*
X46089354Y18599694D01*
X46125240Y18529266D01*
X46146950Y18486658D01*
X46236658Y18396950D01*
X46349696Y18339354D01*
X46443481Y18324500D01*
X46906518Y18324501D01*
X46906519Y18324501D01*
X47000304Y18339354D01*
X47000306Y18339355D01*
X47024385Y18351624D01*
X47113342Y18396950D01*
X47203050Y18486658D01*
X47260646Y18599696D01*
X47275500Y18693481D01*
X47275499Y19306518D01*
X47275360Y19307394D01*
X47260646Y19400305D01*
X47260645Y19400307D01*
X47206918Y19505750D01*
X47203050Y19513342D01*
X47113342Y19603050D01*
X47000304Y19660646D01*
X47000302Y19660647D01*
X47000301Y19660647D01*
X46906519Y19675500D01*
X46443480Y19675500D01*
X46349695Y19660647D01*
X46349693Y19660646D01*
X46236657Y19603050D01*
X46146951Y19513344D01*
X46089353Y19400302D01*
X46089353Y19400301D01*
X46087393Y19387924D01*
X46062852Y19343651D01*
X46015595Y19325511D01*
X46014304Y19325500D01*
X45482960Y19325500D01*
X45435394Y19342813D01*
X45412667Y19382176D01*
X45411752Y19381878D01*
X45410352Y19386186D01*
X45410084Y19386650D01*
X45409960Y19387392D01*
X45409951Y19387417D01*
X45409951Y19387420D01*
X45379804Y19446586D01*
X45349659Y19505750D01*
X45255749Y19599660D01*
X45137420Y19659951D01*
X45137420Y19659952D01*
X45039247Y19675500D01*
X45039246Y19675500D01*
X44535754Y19675500D01*
X44535753Y19675500D01*
X44437579Y19659952D01*
X44437579Y19659951D01*
X44319250Y19599660D01*
X44225340Y19505750D01*
X44165049Y19387421D01*
X44165048Y19387421D01*
X44149500Y19289247D01*
X44149500Y18710754D01*
X43850500Y18710754D01*
X43850500Y19289246D01*
X43834951Y19387420D01*
X43804804Y19446586D01*
X43774659Y19505750D01*
X43680749Y19599660D01*
X43562420Y19659951D01*
X43562420Y19659952D01*
X43464247Y19675500D01*
X43464246Y19675500D01*
X42960754Y19675500D01*
X42960753Y19675500D01*
X42862579Y19659952D01*
X42862579Y19659951D01*
X42744250Y19599660D01*
X42650340Y19505750D01*
X42590049Y19387421D01*
X42590048Y19387421D01*
X42574500Y19289247D01*
X42574500Y19149500D01*
X42557187Y19101934D01*
X42513350Y19076624D01*
X42500500Y19075500D01*
X42388559Y19075500D01*
X42340993Y19092813D01*
X42315683Y19136650D01*
X42319023Y19174812D01*
X42325500Y19192606D01*
X42325500Y21100500D01*
X42342813Y21148066D01*
X42386650Y21173376D01*
X42399500Y21174500D01*
X42517040Y21174500D01*
X42564606Y21157187D01*
X42587332Y21117825D01*
X42588248Y21118122D01*
X42589647Y21113815D01*
X42589916Y21113350D01*
X42590039Y21112609D01*
X42590049Y21112580D01*
X42650340Y20994251D01*
X42744250Y20900341D01*
X42803414Y20870196D01*
X42862579Y20840050D01*
X42862579Y20840049D01*
X42960753Y20824500D01*
X42960754Y20824500D01*
X43464247Y20824500D01*
X43562420Y20840049D01*
X43680751Y20900342D01*
X43774658Y20994249D01*
X43834951Y21112580D01*
X43850500Y21210754D01*
X44149500Y21210754D01*
X44165049Y21112580D01*
X44225340Y20994251D01*
X44319250Y20900341D01*
X44378414Y20870196D01*
X44437579Y20840050D01*
X44437579Y20840049D01*
X44535753Y20824500D01*
X44535754Y20824500D01*
X45039247Y20824500D01*
X45137420Y20840049D01*
X45255751Y20900342D01*
X45349658Y20994249D01*
X45409951Y21112580D01*
X45409951Y21112586D01*
X45411752Y21118122D01*
X45412999Y21117717D01*
X45434410Y21156347D01*
X45481666Y21174489D01*
X45482960Y21174500D01*
X46014304Y21174500D01*
X46061870Y21157187D01*
X46087180Y21113350D01*
X46087393Y21112077D01*
X46089354Y21099695D01*
X46089354Y21099694D01*
X46143081Y20994251D01*
X46146950Y20986658D01*
X46236658Y20896950D01*
X46349696Y20839354D01*
X46443481Y20824500D01*
X46906518Y20824501D01*
X46906519Y20824501D01*
X47000304Y20839354D01*
X47000306Y20839355D01*
X47002419Y20840432D01*
X47113342Y20896950D01*
X47203050Y20986658D01*
X47260646Y21099696D01*
X47275500Y21193481D01*
X47275499Y21806518D01*
X47274854Y21810588D01*
X47260646Y21900305D01*
X47260645Y21900307D01*
X47221166Y21977787D01*
X47203050Y22013342D01*
X47113342Y22103050D01*
X47000304Y22160646D01*
X47000302Y22160647D01*
X47000301Y22160647D01*
X46906519Y22175500D01*
X46443480Y22175500D01*
X46349695Y22160647D01*
X46349693Y22160646D01*
X46236657Y22103050D01*
X46146951Y22013344D01*
X46089353Y21900302D01*
X46089353Y21900301D01*
X46087393Y21887924D01*
X46062852Y21843651D01*
X46015595Y21825511D01*
X46014304Y21825500D01*
X45482960Y21825500D01*
X45435394Y21842813D01*
X45412667Y21882176D01*
X45411752Y21881878D01*
X45410352Y21886186D01*
X45410084Y21886650D01*
X45409960Y21887392D01*
X45409951Y21887417D01*
X45409951Y21887420D01*
X45367197Y21971329D01*
X45349659Y22005750D01*
X45255749Y22099660D01*
X45137420Y22159951D01*
X45137420Y22159952D01*
X45039247Y22175500D01*
X45039246Y22175500D01*
X44535754Y22175500D01*
X44535753Y22175500D01*
X44437579Y22159952D01*
X44437579Y22159951D01*
X44319250Y22099660D01*
X44225340Y22005750D01*
X44165049Y21887421D01*
X44165048Y21887421D01*
X44149500Y21789247D01*
X44149500Y21210754D01*
X43850500Y21210754D01*
X43850500Y21789246D01*
X43834951Y21887420D01*
X43792197Y21971329D01*
X43774659Y22005750D01*
X43680749Y22099660D01*
X43562420Y22159951D01*
X43562420Y22159952D01*
X43464247Y22175500D01*
X43464246Y22175500D01*
X42960754Y22175500D01*
X42960753Y22175500D01*
X42862579Y22159952D01*
X42862579Y22159951D01*
X42744250Y22099660D01*
X42650340Y22005750D01*
X42590049Y21887421D01*
X42588248Y21881878D01*
X42587000Y21882284D01*
X42565590Y21843653D01*
X42518334Y21825511D01*
X42517040Y21825500D01*
X41942603Y21825500D01*
X41921507Y21817823D01*
X41909058Y21814487D01*
X41886958Y21810589D01*
X41886952Y21810587D01*
X41867517Y21799367D01*
X41855835Y21793919D01*
X41844813Y21789907D01*
X41834740Y21786240D01*
X41834738Y21786239D01*
X41834735Y21786237D01*
X41817546Y21771814D01*
X41806984Y21764418D01*
X41787545Y21753195D01*
X41787541Y21753192D01*
X41773113Y21735998D01*
X41763999Y21726884D01*
X41746809Y21712459D01*
X41746802Y21712450D01*
X41735582Y21693018D01*
X41728188Y21682458D01*
X41713763Y21665266D01*
X41713758Y21665259D01*
X41706081Y21644166D01*
X41700632Y21632480D01*
X41689410Y21613043D01*
X41685513Y21590941D01*
X41682176Y21578485D01*
X41674500Y21557395D01*
X41674500Y19649500D01*
X41657187Y19601934D01*
X41613350Y19576624D01*
X41600500Y19575500D01*
X39106732Y19575500D01*
X39059166Y19592813D01*
X39033856Y19636650D01*
X39042646Y19686500D01*
X39062790Y19709040D01*
X39122146Y19752847D01*
X39122146Y19752848D01*
X39122150Y19752850D01*
X39202793Y19862118D01*
X39247646Y19990301D01*
X39250500Y20020734D01*
X39250500Y21079266D01*
X39247646Y21109699D01*
X39246368Y21113350D01*
X39202793Y21237882D01*
X39202792Y21237884D01*
X39122153Y21347147D01*
X39122146Y21347154D01*
X39012883Y21427793D01*
X39012881Y21427794D01*
X38884700Y21472647D01*
X38883713Y21472862D01*
X38883253Y21473153D01*
X38880449Y21474134D01*
X38880676Y21474784D01*
X38840935Y21499924D01*
X38825500Y21545158D01*
X38825500Y22365580D01*
X38826922Y22380017D01*
X38830897Y22400000D01*
X38817133Y22469196D01*
X38809515Y22507495D01*
X38808249Y22509389D01*
X38807555Y22512227D01*
X38806726Y22514229D01*
X38807034Y22514357D01*
X38796219Y22558556D01*
X38818607Y22603955D01*
X38864939Y22624342D01*
X38869779Y22624500D01*
X43643100Y22624500D01*
X43690666Y22607187D01*
X43695426Y22602826D01*
X43746780Y22551472D01*
X43866873Y22490282D01*
X43866873Y22490281D01*
X43885075Y22487399D01*
X44000000Y22469196D01*
X44133126Y22490281D01*
X44253220Y22551472D01*
X44348528Y22646780D01*
X44409719Y22766874D01*
X44425500Y22866512D01*
X44425500Y25575500D01*
X44442813Y25623066D01*
X44486650Y25648376D01*
X44499500Y25649500D01*
X46028310Y25649500D01*
X46075876Y25632187D01*
X46094244Y25609096D01*
X46151472Y25496780D01*
X46246780Y25401472D01*
X46366874Y25340281D01*
X46466511Y25324500D01*
X46466512Y25324500D01*
X46983489Y25324500D01*
X47033307Y25332391D01*
X47083126Y25340281D01*
X47203220Y25401472D01*
X47298528Y25496780D01*
X47359719Y25616874D01*
X47375500Y25716512D01*
X47375500Y26283488D01*
X47372836Y26300305D01*
X47359719Y26383126D01*
X47359718Y26383127D01*
X47355755Y26390904D01*
X47298528Y26503220D01*
X47203220Y26598528D01*
X47203219Y26598529D01*
X47083126Y26659719D01*
X47083125Y26659720D01*
X46983489Y26675500D01*
X46983488Y26675500D01*
X46466512Y26675500D01*
X46466511Y26675500D01*
X46366874Y26659720D01*
X46366873Y26659719D01*
X46246780Y26598529D01*
X46151473Y26503222D01*
X46094244Y26390904D01*
X46057224Y26356382D01*
X46028310Y26350500D01*
X44499500Y26350500D01*
X44451934Y26367813D01*
X44426624Y26411650D01*
X44425500Y26424500D01*
X44425500Y27175500D01*
X44442813Y27223066D01*
X44486650Y27248376D01*
X44499500Y27249500D01*
X46028310Y27249500D01*
X46075876Y27232187D01*
X46094244Y27209096D01*
X46151472Y27096780D01*
X46246780Y27001472D01*
X46366874Y26940281D01*
X46466511Y26924500D01*
X46466512Y26924500D01*
X46983489Y26924500D01*
X47033307Y26932391D01*
X47083126Y26940281D01*
X47203220Y27001472D01*
X47298528Y27096780D01*
X47359719Y27216874D01*
X47375500Y27316512D01*
X47375500Y27883488D01*
X47359719Y27983126D01*
X47298528Y28103220D01*
X47203220Y28198528D01*
X47203219Y28198529D01*
X47083126Y28259719D01*
X47083125Y28259720D01*
X46983489Y28275500D01*
X46983488Y28275500D01*
X46466512Y28275500D01*
X46466511Y28275500D01*
X46366874Y28259720D01*
X46366873Y28259719D01*
X46246780Y28198529D01*
X46151473Y28103222D01*
X46094244Y27990904D01*
X46057224Y27956382D01*
X46028310Y27950500D01*
X44499500Y27950500D01*
X44451934Y27967813D01*
X44426624Y28011650D01*
X44425500Y28024500D01*
X44425500Y28064106D01*
X44442813Y28111672D01*
X44465899Y28130037D01*
X44505751Y28150342D01*
X44599658Y28244249D01*
X44659951Y28362580D01*
X44675500Y28460754D01*
X44675500Y28964246D01*
X44659951Y29062420D01*
X44599658Y29180751D01*
X44505751Y29274658D01*
X44505749Y29274660D01*
X44387420Y29334951D01*
X44387420Y29334952D01*
X44289247Y29350500D01*
X44289246Y29350500D01*
X43710754Y29350500D01*
X43710753Y29350500D01*
X43612579Y29334952D01*
X43612579Y29334951D01*
X43494250Y29274660D01*
X43400340Y29180750D01*
X43340049Y29062421D01*
X43340048Y29062421D01*
X43324500Y28964247D01*
X43324500Y28460754D01*
X43340049Y28362580D01*
X43400340Y28244251D01*
X43400342Y28244249D01*
X43494249Y28150342D01*
X43534097Y28130038D01*
X43568617Y28093021D01*
X43574500Y28064106D01*
X43574500Y23249500D01*
X43557187Y23201934D01*
X43513350Y23176624D01*
X43500500Y23175500D01*
X41374411Y23175500D01*
X41326845Y23192813D01*
X41301535Y23236650D01*
X41309275Y23280547D01*
X41308375Y23280874D01*
X41310232Y23285979D01*
X41310325Y23286500D01*
X41310326Y23286501D01*
X41310369Y23286577D01*
X41310588Y23286955D01*
X41325500Y23371525D01*
X41325500Y25314305D01*
X41342813Y25361871D01*
X41386650Y25387181D01*
X41387904Y25387391D01*
X41400304Y25389354D01*
X41513342Y25446950D01*
X41603050Y25536658D01*
X41660646Y25649696D01*
X41675500Y25743481D01*
X41675499Y26206518D01*
X41660646Y26300304D01*
X41660646Y26300305D01*
X41660645Y26300307D01*
X41618445Y26383127D01*
X41603050Y26413342D01*
X41513342Y26503050D01*
X41400304Y26560646D01*
X41400302Y26560647D01*
X41400301Y26560647D01*
X41306519Y26575500D01*
X40693480Y26575500D01*
X40599689Y26560646D01*
X40596860Y26559726D01*
X40594424Y26559812D01*
X40593943Y26559735D01*
X40593928Y26559829D01*
X40546272Y26561497D01*
X40508658Y26595372D01*
X40500000Y26630106D01*
X40500000Y31400500D01*
X40517313Y31448066D01*
X40561150Y31473376D01*
X40574000Y31474500D01*
X43525500Y31474500D01*
X43573066Y31457187D01*
X43598376Y31413350D01*
X43599500Y31400500D01*
X43599500Y30948634D01*
X43582187Y30901068D01*
X43559096Y30882700D01*
X43494248Y30849658D01*
X43400340Y30755750D01*
X43340049Y30637421D01*
X43340048Y30637421D01*
X43324500Y30539247D01*
X43324500Y30035754D01*
X43340049Y29937580D01*
X43400340Y29819251D01*
X43494250Y29725341D01*
X43553414Y29695196D01*
X43612579Y29665050D01*
X43612579Y29665049D01*
X43710753Y29649500D01*
X43710754Y29649500D01*
X44289247Y29649500D01*
X44387420Y29665049D01*
X44505751Y29725342D01*
X44599658Y29819249D01*
X44659951Y29937580D01*
X44675500Y30035754D01*
X44675500Y30539246D01*
X44659951Y30637420D01*
X44599658Y30755751D01*
X44505751Y30849658D01*
X44440904Y30882700D01*
X44406382Y30919721D01*
X44400500Y30948634D01*
X44400500Y31425500D01*
X44417813Y31473066D01*
X44461650Y31498376D01*
X44474500Y31499500D01*
X52171500Y31499500D01*
X52219066Y31482187D01*
X52244376Y31438350D01*
X52245500Y31425500D01*
X52245500Y21924500D01*
X52228187Y21876934D01*
X52184350Y21851624D01*
X52171500Y21850500D01*
X48980592Y21850500D01*
X48933026Y21867813D01*
X48914271Y21895616D01*
X48913289Y21895115D01*
X48910646Y21900302D01*
X48910646Y21900304D01*
X48853050Y22013342D01*
X48763342Y22103050D01*
X48650304Y22160646D01*
X48650302Y22160647D01*
X48650301Y22160647D01*
X48556519Y22175500D01*
X48093480Y22175500D01*
X47999695Y22160647D01*
X47999693Y22160646D01*
X47886657Y22103050D01*
X47796951Y22013344D01*
X47739353Y21900302D01*
X47724500Y21806520D01*
X47724500Y21193481D01*
X47739353Y21099696D01*
X47739354Y21099694D01*
X47793081Y20994251D01*
X47796950Y20986658D01*
X47886658Y20896950D01*
X47999696Y20839354D01*
X48093481Y20824500D01*
X48556518Y20824501D01*
X48556519Y20824501D01*
X48650304Y20839354D01*
X48650306Y20839355D01*
X48652419Y20840432D01*
X48763342Y20896950D01*
X48853050Y20986658D01*
X48910646Y21099696D01*
X48910646Y21099699D01*
X48913289Y21104885D01*
X48914731Y21104151D01*
X48941379Y21138256D01*
X48980592Y21149500D01*
X52171500Y21149500D01*
X52219066Y21132187D01*
X52244376Y21088350D01*
X52245500Y21075500D01*
X52245500Y19424500D01*
X52228187Y19376934D01*
X52184350Y19351624D01*
X52171500Y19350500D01*
X48980592Y19350500D01*
X48933026Y19367813D01*
X48914271Y19395616D01*
X48913289Y19395115D01*
X48910646Y19400302D01*
X48910646Y19400304D01*
X48853050Y19513342D01*
X48763342Y19603050D01*
X48650304Y19660646D01*
X48650302Y19660647D01*
X48650301Y19660647D01*
X48556519Y19675500D01*
X48093480Y19675500D01*
X47999695Y19660647D01*
X47999693Y19660646D01*
X47886657Y19603050D01*
X47796951Y19513344D01*
X47739353Y19400302D01*
X47724500Y19306520D01*
X47724500Y18693481D01*
X47739353Y18599696D01*
X47739354Y18599694D01*
X47775240Y18529266D01*
X47796950Y18486658D01*
X47886658Y18396950D01*
X47999696Y18339354D01*
X48093481Y18324500D01*
X48556518Y18324501D01*
X48556519Y18324501D01*
X48650304Y18339354D01*
X48650306Y18339355D01*
X48674385Y18351624D01*
X48763342Y18396950D01*
X48853050Y18486658D01*
X48910646Y18599696D01*
X48910646Y18599699D01*
X48913289Y18604885D01*
X48914731Y18604151D01*
X48941379Y18638256D01*
X48980592Y18649500D01*
X52433951Y18649500D01*
X52467546Y18641435D01*
X52485098Y18632492D01*
X52520696Y18614354D01*
X52646000Y18594508D01*
X52771304Y18614354D01*
X52884342Y18671950D01*
X52974050Y18761658D01*
X53031646Y18874696D01*
X53046500Y18968481D01*
X53046500Y31862658D01*
X53047411Y31874234D01*
X53051492Y31900001D01*
X53047411Y31925768D01*
X53046500Y31937344D01*
X53046500Y46136355D01*
X61650657Y46136355D01*
X61681316Y45883843D01*
X61681320Y45883826D01*
X61752087Y45639509D01*
X61752090Y45639500D01*
X61861135Y45409694D01*
X61861137Y45409691D01*
X61861138Y45409689D01*
X61861139Y45409688D01*
X62005640Y45200341D01*
X62181852Y45016885D01*
X62385210Y44864071D01*
X62610448Y44745857D01*
X62851732Y44665305D01*
X63102813Y44624500D01*
X63102816Y44624500D01*
X63293483Y44624500D01*
X63483550Y44639844D01*
X63730533Y44700720D01*
X63964553Y44800426D01*
X64179548Y44936381D01*
X64369951Y45105063D01*
X64530829Y45302103D01*
X64658016Y45522398D01*
X64748219Y45760243D01*
X64799100Y46009477D01*
X64809343Y46263645D01*
X64778682Y46516166D01*
X64747070Y46625302D01*
X64707912Y46760492D01*
X64707909Y46760501D01*
X64598864Y46990307D01*
X64598862Y46990310D01*
X64578153Y47020312D01*
X64454360Y47199659D01*
X64278148Y47383115D01*
X64074790Y47535929D01*
X63849552Y47654143D01*
X63608268Y47734695D01*
X63357187Y47775500D01*
X63166517Y47775500D01*
X62976452Y47760157D01*
X62729469Y47699281D01*
X62495448Y47599575D01*
X62280451Y47463619D01*
X62090046Y47294935D01*
X61929169Y47097896D01*
X61801984Y46877604D01*
X61801980Y46877595D01*
X61711782Y46639763D01*
X61711782Y46639761D01*
X61711781Y46639759D01*
X61711781Y46639757D01*
X61708830Y46625302D01*
X61660899Y46390520D01*
X61650657Y46136355D01*
X53046500Y46136355D01*
X53046500Y46462658D01*
X53047411Y46474234D01*
X53049608Y46488107D01*
X53051492Y46500000D01*
X53031646Y46625304D01*
X52974050Y46738342D01*
X52884342Y46828050D01*
X52771304Y46885646D01*
X52771302Y46885647D01*
X52771301Y46885647D01*
X52677519Y46900500D01*
X52646000Y46905492D01*
X52620233Y46901411D01*
X52608657Y46900500D01*
X13537343Y46900500D01*
X13525767Y46901411D01*
X13500000Y46905492D01*
X13468481Y46900500D01*
X13374698Y46885647D01*
X13261656Y46828049D01*
X13171951Y46738344D01*
X13114353Y46625302D01*
X13094508Y46500001D01*
X13098589Y46474234D01*
X13099500Y46462658D01*
X13099500Y10999500D01*
X13082187Y10951934D01*
X13038350Y10926624D01*
X13025500Y10925500D01*
X6939312Y10925500D01*
X6927736Y10926411D01*
X6900000Y10930804D01*
X6866512Y10925500D01*
X6766873Y10909720D01*
X6766873Y10909719D01*
X6646780Y10848529D01*
X6551471Y10753220D01*
X6490281Y10633127D01*
X6490280Y10633127D01*
X6469196Y10500001D01*
X6473589Y10472264D01*
X6474500Y10460688D01*
X6474500Y9435538D01*
X6457187Y9387972D01*
X6413350Y9362662D01*
X6388924Y9362449D01*
X6306519Y9375500D01*
X5843480Y9375500D01*
X5749695Y9360647D01*
X5749693Y9360646D01*
X5636657Y9303050D01*
X5546951Y9213344D01*
X5489353Y9100302D01*
X5474500Y9006520D01*
X5474500Y8393481D01*
X5489353Y8299696D01*
X5489354Y8299694D01*
X5508845Y8261442D01*
X5546950Y8186658D01*
X5627826Y8105782D01*
X5649218Y8059907D01*
X5649500Y8053457D01*
X5649500Y839314D01*
X5648589Y827738D01*
X5644196Y800001D01*
X5649500Y766512D01*
X5665281Y666874D01*
X5714719Y569845D01*
X5726472Y546780D01*
X5821780Y451472D01*
X5843444Y440434D01*
X5877966Y403414D01*
X5880614Y352864D01*
X5850151Y312438D01*
X5809848Y300500D01*
X3002083Y300500D01*
X2997934Y300616D01*
X2701893Y317242D01*
X2693647Y318172D01*
X2403408Y367485D01*
X2395317Y369331D01*
X2112404Y450837D01*
X2104571Y453578D01*
X1832571Y566245D01*
X1825095Y569845D01*
X1567412Y712260D01*
X1560385Y716676D01*
X1320283Y887038D01*
X1313795Y892211D01*
X1268010Y933127D01*
X1094258Y1088401D01*
X1088400Y1094259D01*
X892209Y1313797D01*
X887037Y1320284D01*
X716675Y1560386D01*
X712263Y1567406D01*
X569844Y1825096D01*
X566244Y1832572D01*
X533026Y1912767D01*
X453573Y2104582D01*
X450839Y2112395D01*
X369327Y2395329D01*
X367486Y2403397D01*
X318170Y2693654D01*
X317241Y2701894D01*
X316660Y2712234D01*
X300616Y2997935D01*
X300500Y3002084D01*
X300500Y4566355D01*
X1750657Y4566355D01*
X1781316Y4313843D01*
X1781320Y4313826D01*
X1852087Y4069509D01*
X1852090Y4069500D01*
X1961135Y3839694D01*
X1961137Y3839691D01*
X1961138Y3839689D01*
X1961139Y3839688D01*
X2105640Y3630341D01*
X2281852Y3446885D01*
X2485210Y3294071D01*
X2710448Y3175857D01*
X2951732Y3095305D01*
X3202813Y3054500D01*
X3202816Y3054500D01*
X3393483Y3054500D01*
X3583550Y3069844D01*
X3830533Y3130720D01*
X4064553Y3230426D01*
X4279548Y3366381D01*
X4469951Y3535063D01*
X4630829Y3732103D01*
X4758016Y3952398D01*
X4848219Y4190243D01*
X4899100Y4439477D01*
X4909343Y4693645D01*
X4878682Y4946166D01*
X4842881Y5069763D01*
X4807912Y5190492D01*
X4807909Y5190501D01*
X4698864Y5420307D01*
X4698862Y5420310D01*
X4686271Y5438551D01*
X4554360Y5629659D01*
X4378148Y5813115D01*
X4174790Y5965929D01*
X3949552Y6084143D01*
X3708268Y6164695D01*
X3457187Y6205500D01*
X3266517Y6205500D01*
X3076452Y6190157D01*
X2829469Y6129281D01*
X2595448Y6029575D01*
X2380451Y5893619D01*
X2190046Y5724935D01*
X2029169Y5527896D01*
X1901984Y5307604D01*
X1901980Y5307595D01*
X1811782Y5069763D01*
X1811782Y5069761D01*
X1760899Y4820520D01*
X1750657Y4566355D01*
X300500Y4566355D01*
X300500Y46166355D01*
X1400657Y46166355D01*
X1431316Y45913843D01*
X1431320Y45913826D01*
X1502087Y45669509D01*
X1502090Y45669500D01*
X1611135Y45439694D01*
X1611137Y45439691D01*
X1611138Y45439689D01*
X1611139Y45439688D01*
X1755640Y45230341D01*
X1931852Y45046885D01*
X2135210Y44894071D01*
X2360448Y44775857D01*
X2601732Y44695305D01*
X2852813Y44654500D01*
X2852816Y44654500D01*
X3043483Y44654500D01*
X3233550Y44669844D01*
X3480533Y44730720D01*
X3714553Y44830426D01*
X3929548Y44966381D01*
X4119951Y45135063D01*
X4280829Y45332103D01*
X4408016Y45552398D01*
X4498219Y45790243D01*
X4549100Y46039477D01*
X4559343Y46293645D01*
X4528682Y46546166D01*
X4473017Y46738342D01*
X4457912Y46790492D01*
X4457909Y46790501D01*
X4348864Y47020307D01*
X4348862Y47020310D01*
X4274601Y47127896D01*
X4204360Y47229659D01*
X4028148Y47413115D01*
X3824790Y47565929D01*
X3599552Y47684143D01*
X3358268Y47764695D01*
X3107187Y47805500D01*
X2916517Y47805500D01*
X2726452Y47790157D01*
X2479469Y47729281D01*
X2245448Y47629575D01*
X2030451Y47493619D01*
X1840046Y47324935D01*
X1679169Y47127896D01*
X1551984Y46907604D01*
X1551980Y46907595D01*
X1461782Y46669763D01*
X1461782Y46669761D01*
X1410899Y46420520D01*
X1400657Y46166355D01*
X300500Y46166355D01*
X300500Y46187917D01*
X300616Y46192066D01*
X304636Y46263651D01*
X317241Y46488115D01*
X318171Y46496353D01*
X321536Y46516158D01*
X367487Y46786608D01*
X369326Y46794668D01*
X450841Y47077611D01*
X453571Y47085414D01*
X566246Y47357436D01*
X569840Y47364898D01*
X712268Y47622603D01*
X716665Y47629601D01*
X887044Y47869727D01*
X892202Y47876196D01*
X1088408Y48095751D01*
X1094249Y48101592D01*
X1313804Y48297798D01*
X1320273Y48302956D01*
X1560399Y48473335D01*
X1567397Y48477732D01*
X1825102Y48620160D01*
X1832564Y48623754D01*
X2104586Y48736429D01*
X2112389Y48739159D01*
X2395332Y48820674D01*
X2403392Y48822513D01*
X2693655Y48871830D01*
X2701885Y48872759D01*
X2997934Y48889385D01*
X3002083Y48889500D01*
X3047595Y48889500D01*
X63172405Y48889500D01*
X63217917Y48889500D01*
X63222065Y48889385D01*
G37*
%TD.AperFunction*%
%TA.AperFunction,Conductor*%
G36*
X34694518Y5615607D02*
G01*
X34694653Y5615975D01*
X34700738Y5613761D01*
X34700739Y5613760D01*
X34721835Y5606082D01*
X34733523Y5600631D01*
X34752951Y5589414D01*
X34752952Y5589414D01*
X34752955Y5589412D01*
X34775049Y5585517D01*
X34787513Y5582178D01*
X34808606Y5574500D01*
X34837525Y5574500D01*
X35082088Y5574500D01*
X35129654Y5557187D01*
X35152900Y5521983D01*
X35158484Y5503575D01*
X35160768Y5496045D01*
X35258315Y5313550D01*
X35388996Y5154313D01*
X35389590Y5153590D01*
X35549550Y5022315D01*
X35732046Y4924768D01*
X35930066Y4864700D01*
X36136000Y4844417D01*
X36341934Y4864700D01*
X36539954Y4924768D01*
X36722450Y5022315D01*
X36882410Y5153590D01*
X36949297Y5235094D01*
X36992855Y5260879D01*
X37042798Y5252634D01*
X37075757Y5214215D01*
X37080500Y5188148D01*
X37080500Y4071853D01*
X37063187Y4024287D01*
X37019350Y3998977D01*
X36969500Y4007767D01*
X36949297Y4024908D01*
X36882410Y4106410D01*
X36882409Y4106411D01*
X36722450Y4237685D01*
X36539956Y4335231D01*
X36539955Y4335232D01*
X36539954Y4335232D01*
X36428158Y4369145D01*
X36341935Y4395300D01*
X36136000Y4415583D01*
X35930064Y4395300D01*
X35732043Y4335231D01*
X35549549Y4237685D01*
X35389590Y4106411D01*
X35389589Y4106410D01*
X35258315Y3946451D01*
X35160769Y3763957D01*
X35100700Y3565936D01*
X35080417Y3360000D01*
X35100700Y3154065D01*
X35122377Y3082607D01*
X35160768Y2956046D01*
X35258315Y2773550D01*
X35389590Y2613590D01*
X35549550Y2482315D01*
X35732046Y2384768D01*
X35930066Y2324700D01*
X36136000Y2304417D01*
X36341934Y2324700D01*
X36539954Y2384768D01*
X36722450Y2482315D01*
X36882410Y2613590D01*
X37013685Y2773550D01*
X37111232Y2956046D01*
X37119099Y2981982D01*
X37149472Y3022473D01*
X37189912Y3034500D01*
X37463394Y3034500D01*
X37484487Y3042178D01*
X37496944Y3045515D01*
X37500383Y3046122D01*
X37519045Y3049412D01*
X37538480Y3060634D01*
X37550162Y3066082D01*
X37571260Y3073760D01*
X37588455Y3088190D01*
X37599015Y3095584D01*
X37618455Y3106806D01*
X37632887Y3124007D01*
X37641995Y3133115D01*
X37659194Y3147545D01*
X37670416Y3166985D01*
X37677809Y3177543D01*
X37692240Y3194739D01*
X37699921Y3215845D01*
X37705361Y3227511D01*
X37716588Y3246955D01*
X37720485Y3269065D01*
X37723824Y3281520D01*
X37731500Y3302605D01*
X37731500Y5188148D01*
X37748813Y5235714D01*
X37792650Y5261024D01*
X37842500Y5252234D01*
X37862701Y5235095D01*
X37901229Y5188148D01*
X37928996Y5154313D01*
X37929590Y5153590D01*
X38089550Y5022315D01*
X38272046Y4924768D01*
X38470066Y4864700D01*
X38676000Y4844417D01*
X38881934Y4864700D01*
X39079954Y4924768D01*
X39262450Y5022315D01*
X39422410Y5153590D01*
X39489297Y5235094D01*
X39532855Y5260879D01*
X39582798Y5252634D01*
X39615757Y5214215D01*
X39620500Y5188148D01*
X39620500Y1749500D01*
X39603187Y1701934D01*
X39559350Y1676624D01*
X39546500Y1675500D01*
X31455500Y1675500D01*
X31407934Y1692813D01*
X31382624Y1736650D01*
X31381500Y1749500D01*
X31381500Y2306088D01*
X31398813Y2353654D01*
X31434017Y2376901D01*
X31459954Y2384768D01*
X31642450Y2482315D01*
X31802410Y2613590D01*
X31933685Y2773550D01*
X32031232Y2956046D01*
X32053853Y3030621D01*
X32084227Y3071112D01*
X32133523Y3082607D01*
X32154518Y3075607D01*
X32154653Y3075975D01*
X32160738Y3073761D01*
X32160739Y3073760D01*
X32181835Y3066082D01*
X32193520Y3060633D01*
X32202428Y3055490D01*
X32212951Y3049414D01*
X32212952Y3049414D01*
X32212955Y3049412D01*
X32235049Y3045517D01*
X32247512Y3042178D01*
X32268606Y3034500D01*
X32297525Y3034500D01*
X32542088Y3034500D01*
X32589654Y3017187D01*
X32612900Y2981983D01*
X32618484Y2963575D01*
X32620768Y2956045D01*
X32620769Y2956044D01*
X32718315Y2773550D01*
X32849590Y2613590D01*
X33009550Y2482315D01*
X33192046Y2384768D01*
X33390066Y2324700D01*
X33596000Y2304417D01*
X33801934Y2324700D01*
X33999954Y2384768D01*
X34182450Y2482315D01*
X34342410Y2613590D01*
X34473685Y2773550D01*
X34571232Y2956046D01*
X34631300Y3154066D01*
X34651583Y3360000D01*
X34631300Y3565934D01*
X34571232Y3763954D01*
X34473685Y3946450D01*
X34342410Y4106410D01*
X34182450Y4237685D01*
X34087882Y4288233D01*
X33999956Y4335231D01*
X33999955Y4335232D01*
X33999954Y4335232D01*
X33888158Y4369145D01*
X33801935Y4395300D01*
X33596000Y4415583D01*
X33390064Y4395300D01*
X33192043Y4335231D01*
X33009549Y4237685D01*
X32849590Y4106411D01*
X32849589Y4106410D01*
X32782703Y4024908D01*
X32739144Y3999122D01*
X32689201Y4007367D01*
X32656243Y4045786D01*
X32651500Y4071853D01*
X32651500Y5188148D01*
X32668813Y5235714D01*
X32712650Y5261024D01*
X32762500Y5252234D01*
X32782701Y5235095D01*
X32821229Y5188148D01*
X32848996Y5154313D01*
X32849590Y5153590D01*
X33009550Y5022315D01*
X33192046Y4924768D01*
X33390066Y4864700D01*
X33596000Y4844417D01*
X33801934Y4864700D01*
X33999954Y4924768D01*
X34182450Y5022315D01*
X34342410Y5153590D01*
X34473685Y5313550D01*
X34571232Y5496046D01*
X34593853Y5570621D01*
X34624227Y5611112D01*
X34673523Y5622607D01*
X34694518Y5615607D01*
G37*
%TD.AperFunction*%
%TA.AperFunction,Conductor*%
G36*
X24356117Y18382187D02*
G01*
X24381427Y18338350D01*
X24381427Y18312650D01*
X24380500Y18307393D01*
X24380500Y15627544D01*
X24363187Y15579978D01*
X24358826Y15575218D01*
X24296951Y15513344D01*
X24239353Y15400302D01*
X24224500Y15306520D01*
X24224500Y14693481D01*
X24239353Y14599696D01*
X24239354Y14599694D01*
X24296950Y14486658D01*
X24358826Y14424782D01*
X24380218Y14378906D01*
X24380500Y14372456D01*
X24380500Y14023687D01*
X24379982Y14014949D01*
X24379416Y14010193D01*
X24379416Y14010186D01*
X24380384Y13992949D01*
X24380500Y13988801D01*
X24380500Y4071853D01*
X24363187Y4024287D01*
X24319350Y3998977D01*
X24269500Y4007767D01*
X24249297Y4024908D01*
X24182410Y4106410D01*
X24182409Y4106411D01*
X24022450Y4237685D01*
X23839956Y4335231D01*
X23839955Y4335232D01*
X23839954Y4335232D01*
X23728158Y4369145D01*
X23641935Y4395300D01*
X23436000Y4415583D01*
X23230064Y4395300D01*
X23032043Y4335231D01*
X22849549Y4237685D01*
X22687445Y4104650D01*
X22639692Y4087857D01*
X22592318Y4105688D01*
X22567488Y4149799D01*
X22566500Y4161853D01*
X22566500Y14388456D01*
X22583813Y14436022D01*
X22627650Y14461332D01*
X22677500Y14452542D01*
X22692826Y14440782D01*
X22736658Y14396950D01*
X22849696Y14339354D01*
X22943481Y14324500D01*
X23406518Y14324501D01*
X23406519Y14324501D01*
X23500304Y14339354D01*
X23500306Y14339355D01*
X23502419Y14340432D01*
X23613342Y14396950D01*
X23703050Y14486658D01*
X23760646Y14599696D01*
X23775500Y14693481D01*
X23775499Y15306518D01*
X23774465Y15313045D01*
X23760646Y15400305D01*
X23760645Y15400307D01*
X23716859Y15486240D01*
X23703050Y15513342D01*
X23613342Y15603050D01*
X23500304Y15660646D01*
X23500302Y15660647D01*
X23500301Y15660647D01*
X23406519Y15675500D01*
X22943480Y15675500D01*
X22849695Y15660647D01*
X22849693Y15660646D01*
X22736657Y15603050D01*
X22646951Y15513344D01*
X22646950Y15513342D01*
X22616303Y15453193D01*
X22610041Y15440904D01*
X22573021Y15406382D01*
X22544107Y15400500D01*
X22203343Y15400500D01*
X22191767Y15401411D01*
X22166000Y15405492D01*
X22134481Y15400500D01*
X22040698Y15385647D01*
X21927656Y15328049D01*
X21837951Y15238344D01*
X21780353Y15125302D01*
X21760508Y15000001D01*
X21764589Y14974234D01*
X21765500Y14962658D01*
X21765500Y6701853D01*
X21748187Y6654287D01*
X21704350Y6628977D01*
X21654500Y6637767D01*
X21644555Y6644650D01*
X21482450Y6777685D01*
X21299956Y6875231D01*
X21299955Y6875232D01*
X21299954Y6875232D01*
X21173882Y6913475D01*
X21101935Y6935300D01*
X20896000Y6955583D01*
X20690064Y6935300D01*
X20517984Y6883100D01*
X20492050Y6875233D01*
X20492043Y6875231D01*
X20309549Y6777685D01*
X20149590Y6646411D01*
X20149589Y6646410D01*
X20018315Y6486451D01*
X19920769Y6303957D01*
X19860700Y6105936D01*
X19840417Y5900000D01*
X19860700Y5694065D01*
X19875036Y5646806D01*
X19911106Y5527897D01*
X19920769Y5496044D01*
X20018315Y5313550D01*
X20148996Y5154313D01*
X20149590Y5153590D01*
X20309550Y5022315D01*
X20492046Y4924768D01*
X20690066Y4864700D01*
X20896000Y4844417D01*
X21101934Y4864700D01*
X21299954Y4924768D01*
X21482450Y5022315D01*
X21642410Y5153590D01*
X21642411Y5153593D01*
X21644555Y5155351D01*
X21692307Y5172144D01*
X21739682Y5154313D01*
X21764512Y5110202D01*
X21765500Y5098148D01*
X21765500Y4161853D01*
X21748187Y4114287D01*
X21704350Y4088977D01*
X21654500Y4097767D01*
X21644555Y4104650D01*
X21482450Y4237685D01*
X21299956Y4335231D01*
X21299955Y4335232D01*
X21299954Y4335232D01*
X21188158Y4369145D01*
X21101935Y4395300D01*
X20896000Y4415583D01*
X20690064Y4395300D01*
X20492043Y4335231D01*
X20309549Y4237685D01*
X20149590Y4106411D01*
X20149589Y4106410D01*
X20018315Y3946451D01*
X19920769Y3763957D01*
X19860700Y3565936D01*
X19840417Y3360000D01*
X19860700Y3154065D01*
X19882377Y3082607D01*
X19908061Y2997935D01*
X19920769Y2956044D01*
X20018315Y2773550D01*
X20149589Y2613591D01*
X20149590Y2613590D01*
X20218907Y2556703D01*
X20244693Y2513144D01*
X20236448Y2463201D01*
X20198029Y2430243D01*
X20171962Y2425500D01*
X16540038Y2425500D01*
X16492472Y2442813D01*
X16467162Y2486650D01*
X16475952Y2536500D01*
X16493093Y2556703D01*
X16513649Y2573574D01*
X16562410Y2613590D01*
X16693685Y2773550D01*
X16791232Y2956046D01*
X16851300Y3154066D01*
X16871583Y3360000D01*
X16851300Y3565934D01*
X16791232Y3763954D01*
X16693685Y3946450D01*
X16562410Y4106410D01*
X16402450Y4237685D01*
X16307882Y4288233D01*
X16219956Y4335231D01*
X16219955Y4335232D01*
X16219954Y4335232D01*
X16108158Y4369145D01*
X16021935Y4395300D01*
X15816000Y4415583D01*
X15610064Y4395300D01*
X15412043Y4335231D01*
X15229549Y4237685D01*
X15069590Y4106411D01*
X15069589Y4106410D01*
X14938315Y3946451D01*
X14840769Y3763957D01*
X14780700Y3565936D01*
X14760417Y3360000D01*
X14780700Y3154065D01*
X14802377Y3082607D01*
X14828061Y2997935D01*
X14840769Y2956044D01*
X14938315Y2773550D01*
X15069589Y2613591D01*
X15069590Y2613590D01*
X15138907Y2556703D01*
X15164693Y2513144D01*
X15156448Y2463201D01*
X15118029Y2430243D01*
X15091962Y2425500D01*
X14000038Y2425500D01*
X13952472Y2442813D01*
X13927162Y2486650D01*
X13935952Y2536500D01*
X13953093Y2556703D01*
X13973649Y2573574D01*
X14022410Y2613590D01*
X14153685Y2773550D01*
X14251232Y2956046D01*
X14311300Y3154066D01*
X14331583Y3360000D01*
X14311300Y3565934D01*
X14251232Y3763954D01*
X14153685Y3946450D01*
X14022410Y4106410D01*
X13862450Y4237685D01*
X13767882Y4288233D01*
X13679956Y4335231D01*
X13679955Y4335232D01*
X13679954Y4335232D01*
X13568158Y4369145D01*
X13481935Y4395300D01*
X13276000Y4415583D01*
X13070064Y4395300D01*
X12872043Y4335231D01*
X12689549Y4237685D01*
X12529590Y4106411D01*
X12529589Y4106410D01*
X12398315Y3946451D01*
X12300769Y3763957D01*
X12240700Y3565936D01*
X12220417Y3360000D01*
X12240700Y3154065D01*
X12262377Y3082607D01*
X12288061Y2997935D01*
X12300769Y2956044D01*
X12398315Y2773550D01*
X12529589Y2613591D01*
X12529590Y2613590D01*
X12598907Y2556703D01*
X12624693Y2513144D01*
X12616448Y2463201D01*
X12578029Y2430243D01*
X12551962Y2425500D01*
X11460038Y2425500D01*
X11412472Y2442813D01*
X11387162Y2486650D01*
X11395952Y2536500D01*
X11413093Y2556703D01*
X11433649Y2573574D01*
X11482410Y2613590D01*
X11613685Y2773550D01*
X11711232Y2956046D01*
X11771300Y3154066D01*
X11791583Y3360000D01*
X11771300Y3565934D01*
X11711232Y3763954D01*
X11613685Y3946450D01*
X11482410Y4106410D01*
X11322450Y4237685D01*
X11227882Y4288233D01*
X11139956Y4335231D01*
X11139955Y4335232D01*
X11139954Y4335232D01*
X11028158Y4369145D01*
X10941935Y4395300D01*
X10736000Y4415583D01*
X10530064Y4395300D01*
X10332043Y4335231D01*
X10149549Y4237685D01*
X9989590Y4106411D01*
X9989589Y4106410D01*
X9858315Y3946451D01*
X9760769Y3763957D01*
X9700700Y3565936D01*
X9680417Y3360000D01*
X9700700Y3154065D01*
X9722377Y3082607D01*
X9748061Y2997935D01*
X9760769Y2956044D01*
X9858315Y2773550D01*
X9989589Y2613591D01*
X9989590Y2613590D01*
X10058907Y2556703D01*
X10084693Y2513144D01*
X10076448Y2463201D01*
X10038029Y2430243D01*
X10011962Y2425500D01*
X9320500Y2425500D01*
X9272934Y2442813D01*
X9247624Y2486650D01*
X9246500Y2499500D01*
X9246500Y4229747D01*
X9244921Y4237685D01*
X9234867Y4288231D01*
X9190552Y4354552D01*
X9168343Y4369392D01*
X9124232Y4398867D01*
X9124233Y4398867D01*
X9094989Y4404684D01*
X9065748Y4410500D01*
X7399500Y4410500D01*
X7351934Y4427813D01*
X7326624Y4471650D01*
X7325500Y4484500D01*
X7325500Y5099028D01*
X7342813Y5146594D01*
X7386650Y5171904D01*
X7436500Y5163114D01*
X7446442Y5155485D01*
X7446780Y5155896D01*
X7449589Y5153591D01*
X7449590Y5153590D01*
X7609550Y5022315D01*
X7792046Y4924768D01*
X7990066Y4864700D01*
X8196000Y4844417D01*
X8401934Y4864700D01*
X8599954Y4924768D01*
X8782450Y5022315D01*
X8942410Y5153590D01*
X9073685Y5313550D01*
X9171232Y5496046D01*
X9231300Y5694066D01*
X9251583Y5900000D01*
X9680417Y5900000D01*
X9700700Y5694065D01*
X9715036Y5646806D01*
X9751106Y5527897D01*
X9760769Y5496044D01*
X9858315Y5313550D01*
X9988996Y5154313D01*
X9989590Y5153590D01*
X10149550Y5022315D01*
X10332046Y4924768D01*
X10530066Y4864700D01*
X10736000Y4844417D01*
X10941934Y4864700D01*
X11139954Y4924768D01*
X11322450Y5022315D01*
X11482410Y5153590D01*
X11613685Y5313550D01*
X11711232Y5496046D01*
X11771300Y5694066D01*
X11791583Y5900000D01*
X14760417Y5900000D01*
X14780700Y5694065D01*
X14795036Y5646806D01*
X14831106Y5527897D01*
X14840769Y5496044D01*
X14938315Y5313550D01*
X15068996Y5154313D01*
X15069590Y5153590D01*
X15229550Y5022315D01*
X15412046Y4924768D01*
X15610066Y4864700D01*
X15816000Y4844417D01*
X16021934Y4864700D01*
X16219954Y4924768D01*
X16402450Y5022315D01*
X16562410Y5153590D01*
X16693685Y5313550D01*
X16791232Y5496046D01*
X16851300Y5694066D01*
X16871583Y5900000D01*
X17300417Y5900000D01*
X17320700Y5694065D01*
X17335036Y5646806D01*
X17371106Y5527897D01*
X17380769Y5496044D01*
X17478315Y5313550D01*
X17608996Y5154313D01*
X17609590Y5153590D01*
X17769550Y5022315D01*
X17952046Y4924768D01*
X18150066Y4864700D01*
X18356000Y4844417D01*
X18561934Y4864700D01*
X18759954Y4924768D01*
X18942450Y5022315D01*
X19102410Y5153590D01*
X19233685Y5313550D01*
X19331232Y5496046D01*
X19391300Y5694066D01*
X19411583Y5900000D01*
X19391300Y6105934D01*
X19331232Y6303954D01*
X19233685Y6486450D01*
X19102410Y6646410D01*
X18942450Y6777685D01*
X18759954Y6875232D01*
X18633882Y6913475D01*
X18561935Y6935300D01*
X18356000Y6955583D01*
X18150064Y6935300D01*
X17977984Y6883100D01*
X17952050Y6875233D01*
X17952043Y6875231D01*
X17769549Y6777685D01*
X17609590Y6646411D01*
X17609589Y6646410D01*
X17478315Y6486451D01*
X17380769Y6303957D01*
X17320700Y6105936D01*
X17300417Y5900000D01*
X16871583Y5900000D01*
X16851300Y6105934D01*
X16791232Y6303954D01*
X16693685Y6486450D01*
X16562410Y6646410D01*
X16402450Y6777685D01*
X16219954Y6875232D01*
X16093882Y6913475D01*
X16021935Y6935300D01*
X15816000Y6955583D01*
X15610064Y6935300D01*
X15437984Y6883100D01*
X15412050Y6875233D01*
X15412043Y6875231D01*
X15229549Y6777685D01*
X15069590Y6646411D01*
X15069589Y6646410D01*
X14938315Y6486451D01*
X14840769Y6303957D01*
X14780700Y6105936D01*
X14760417Y5900000D01*
X11791583Y5900000D01*
X11771300Y6105934D01*
X11711232Y6303954D01*
X11613685Y6486450D01*
X11482410Y6646410D01*
X11322450Y6777685D01*
X11139954Y6875232D01*
X11013882Y6913475D01*
X10941935Y6935300D01*
X10736000Y6955583D01*
X10530064Y6935300D01*
X10357984Y6883100D01*
X10332050Y6875233D01*
X10332043Y6875231D01*
X10149549Y6777685D01*
X9989590Y6646411D01*
X9989589Y6646410D01*
X9858315Y6486451D01*
X9760769Y6303957D01*
X9700700Y6105936D01*
X9680417Y5900000D01*
X9251583Y5900000D01*
X9231300Y6105934D01*
X9171232Y6303954D01*
X9073685Y6486450D01*
X8942410Y6646410D01*
X8782450Y6777685D01*
X8599954Y6875232D01*
X8473882Y6913475D01*
X8401935Y6935300D01*
X8196000Y6955583D01*
X7990064Y6935300D01*
X7817984Y6883100D01*
X7792050Y6875233D01*
X7792043Y6875231D01*
X7609549Y6777685D01*
X7446780Y6644104D01*
X7445480Y6645688D01*
X7405950Y6627254D01*
X7357055Y6640355D01*
X7328021Y6681819D01*
X7325500Y6700972D01*
X7325500Y7964463D01*
X7342813Y8012029D01*
X7386650Y8037339D01*
X7411073Y8037552D01*
X7493481Y8024500D01*
X7956518Y8024501D01*
X7956519Y8024501D01*
X8050304Y8039354D01*
X8050306Y8039355D01*
X8076913Y8052912D01*
X8163342Y8096950D01*
X8253050Y8186658D01*
X8310646Y8299696D01*
X8310646Y8299699D01*
X8313289Y8304885D01*
X8314731Y8304151D01*
X8341379Y8338256D01*
X8380592Y8349500D01*
X19608452Y8349500D01*
X19614560Y8349248D01*
X19628250Y8348113D01*
X19655341Y8345868D01*
X19655341Y8345869D01*
X19655344Y8345868D01*
X19695045Y8355922D01*
X19700979Y8357167D01*
X19741381Y8363908D01*
X19746284Y8366563D01*
X19763340Y8373217D01*
X19768741Y8374584D01*
X19803010Y8396975D01*
X19808260Y8400102D01*
X19844258Y8419582D01*
X19848031Y8423682D01*
X19862007Y8435519D01*
X19866669Y8438563D01*
X19891807Y8470863D01*
X19895745Y8475513D01*
X19923484Y8505644D01*
X19925725Y8510754D01*
X19935096Y8526480D01*
X19938517Y8530874D01*
X19951812Y8569603D01*
X19954023Y8575270D01*
X19970473Y8612768D01*
X19970932Y8618317D01*
X19974693Y8636250D01*
X19976500Y8641512D01*
X19976500Y8682452D01*
X19976753Y8688564D01*
X19980132Y8729344D01*
X19980132Y8729346D01*
X19978764Y8734749D01*
X19976500Y8752912D01*
X19976500Y13332887D01*
X19984565Y13366480D01*
X20035719Y13466874D01*
X20051500Y13566512D01*
X20051500Y15278820D01*
X20068813Y15326386D01*
X20091905Y15344754D01*
X20165891Y15382452D01*
X20203220Y15401472D01*
X20298528Y15496780D01*
X20359719Y15616874D01*
X20375500Y15716512D01*
X20375500Y16283488D01*
X20373497Y16296132D01*
X20359719Y16383126D01*
X20359718Y16383127D01*
X20298528Y16503220D01*
X20203221Y16598527D01*
X20203220Y16598528D01*
X20153970Y16623623D01*
X20091904Y16655247D01*
X20057382Y16692267D01*
X20051500Y16721181D01*
X20051500Y18325500D01*
X20068813Y18373066D01*
X20112650Y18398376D01*
X20125500Y18399500D01*
X24308551Y18399500D01*
X24356117Y18382187D01*
G37*
%TD.AperFunction*%
%TA.AperFunction,Conductor*%
G36*
X30887870Y9157187D02*
G01*
X30913180Y9113350D01*
X30913393Y9112077D01*
X30915354Y9099695D01*
X30915354Y9099694D01*
X30967793Y8996779D01*
X30972950Y8986658D01*
X31062658Y8896950D01*
X31175696Y8839354D01*
X31269481Y8824500D01*
X31732518Y8824501D01*
X31732519Y8824501D01*
X31826304Y8839354D01*
X31892905Y8873290D01*
X31943145Y8879459D01*
X31985598Y8851890D01*
X32000500Y8807355D01*
X32000500Y4071853D01*
X31983187Y4024287D01*
X31939350Y3998977D01*
X31889500Y4007767D01*
X31869297Y4024908D01*
X31802410Y4106410D01*
X31802409Y4106411D01*
X31642450Y4237685D01*
X31459956Y4335231D01*
X31459955Y4335232D01*
X31459954Y4335232D01*
X31348158Y4369145D01*
X31261935Y4395300D01*
X31056000Y4415583D01*
X30850064Y4395300D01*
X30652043Y4335231D01*
X30469549Y4237685D01*
X30309590Y4106411D01*
X30309589Y4106410D01*
X30267703Y4055371D01*
X30224144Y4029585D01*
X30174201Y4037830D01*
X30141243Y4076250D01*
X30136500Y4102316D01*
X30136500Y9100500D01*
X30153813Y9148066D01*
X30197650Y9173376D01*
X30210500Y9174500D01*
X30840304Y9174500D01*
X30887870Y9157187D01*
G37*
%TD.AperFunction*%
%TA.AperFunction,Conductor*%
G36*
X52219066Y46082187D02*
G01*
X52244376Y46038350D01*
X52245500Y46025500D01*
X52245500Y32374500D01*
X52228187Y32326934D01*
X52184350Y32301624D01*
X52171500Y32300500D01*
X44168984Y32300500D01*
X44135389Y32308566D01*
X44133126Y32309719D01*
X44133125Y32309720D01*
X44033489Y32325500D01*
X44033488Y32325500D01*
X40574000Y32325500D01*
X40526434Y32342813D01*
X40501124Y32386650D01*
X40500000Y32399500D01*
X40500000Y39800000D01*
X31579500Y39800000D01*
X31531934Y39817313D01*
X31506624Y39861150D01*
X31505500Y39874000D01*
X31505500Y42254260D01*
X31505500Y42254266D01*
X31502646Y42284699D01*
X31457793Y42412882D01*
X31457792Y42412884D01*
X31377153Y42522147D01*
X31377146Y42522154D01*
X31267883Y42602793D01*
X31267881Y42602794D01*
X31139704Y42647645D01*
X31139705Y42647645D01*
X31139700Y42647646D01*
X31139699Y42647646D01*
X31109266Y42650500D01*
X31109260Y42650500D01*
X30854500Y42650500D01*
X30806934Y42667813D01*
X30781624Y42711650D01*
X30780500Y42724500D01*
X30780500Y43981411D01*
X30780753Y43987523D01*
X30783328Y44018591D01*
X30784392Y44031437D01*
X30773567Y44074181D01*
X30772319Y44080132D01*
X30765065Y44123610D01*
X30761911Y44129439D01*
X30755256Y44146495D01*
X30753629Y44152919D01*
X30753628Y44152921D01*
X30753628Y44152922D01*
X30729513Y44189832D01*
X30726387Y44195079D01*
X30722564Y44202143D01*
X30705419Y44233826D01*
X30700539Y44238319D01*
X30688709Y44252287D01*
X30685084Y44257836D01*
X30650293Y44284915D01*
X30645639Y44288858D01*
X30613221Y44318702D01*
X30613217Y44318704D01*
X30607146Y44321367D01*
X30591420Y44330738D01*
X30586190Y44334809D01*
X30559596Y44343938D01*
X30544499Y44349121D01*
X30538810Y44351341D01*
X30498454Y44369043D01*
X30491840Y44369592D01*
X30473935Y44373346D01*
X30467660Y44375500D01*
X30423589Y44375500D01*
X30417478Y44375753D01*
X30415006Y44375958D01*
X30373565Y44379393D01*
X30368938Y44378221D01*
X30367133Y44377764D01*
X30348969Y44375500D01*
X18993589Y44375500D01*
X18987478Y44375753D01*
X18984623Y44375990D01*
X18943563Y44379393D01*
X18900839Y44368574D01*
X18894857Y44367320D01*
X18851391Y44360066D01*
X18851386Y44360064D01*
X18845554Y44356908D01*
X18828514Y44350259D01*
X18822079Y44348629D01*
X18822076Y44348628D01*
X18785177Y44324521D01*
X18779926Y44321392D01*
X18741171Y44300418D01*
X18741170Y44300417D01*
X18736681Y44295540D01*
X18722717Y44283713D01*
X18717168Y44280088D01*
X18717159Y44280080D01*
X18690090Y44245302D01*
X18686139Y44240637D01*
X18656296Y44208219D01*
X18653631Y44202143D01*
X18644265Y44186425D01*
X18640191Y44181191D01*
X18625882Y44139508D01*
X18623658Y44133810D01*
X18605958Y44093460D01*
X18605957Y44093454D01*
X18605409Y44086842D01*
X18601654Y44068936D01*
X18599500Y44062662D01*
X18599500Y44018591D01*
X18599247Y44012479D01*
X18595607Y43968566D01*
X18597236Y43962135D01*
X18599500Y43943969D01*
X18599500Y42635903D01*
X18582187Y42588337D01*
X18556241Y42568591D01*
X18422251Y42507399D01*
X18422247Y42507396D01*
X18251047Y42385486D01*
X18106014Y42233380D01*
X17992385Y42056569D01*
X17914274Y41861456D01*
X17874500Y41655084D01*
X17874500Y39697576D01*
X17889472Y39540780D01*
X17948683Y39339127D01*
X17948685Y39339123D01*
X18044986Y39152322D01*
X18044988Y39152319D01*
X18044989Y39152318D01*
X18174908Y38987114D01*
X18333740Y38849484D01*
X18333741Y38849484D01*
X18333744Y38849481D01*
X18515756Y38744396D01*
X18714367Y38675656D01*
X18922398Y38645746D01*
X19132330Y38655746D01*
X19336576Y38705296D01*
X19527753Y38792604D01*
X19698952Y38914514D01*
X19843986Y39066622D01*
X19957613Y39243428D01*
X20035725Y39438543D01*
X20075500Y39644915D01*
X20075500Y41602425D01*
X20060528Y41759218D01*
X20001316Y41960875D01*
X19905011Y42147682D01*
X19775092Y42312886D01*
X19691308Y42385486D01*
X19616259Y42450517D01*
X19616256Y42450519D01*
X19434244Y42555604D01*
X19400296Y42567354D01*
X19361009Y42599273D01*
X19350500Y42637284D01*
X19350500Y43550500D01*
X19367813Y43598066D01*
X19411650Y43623376D01*
X19424500Y43624500D01*
X29955500Y43624500D01*
X30003066Y43607187D01*
X30028376Y43563350D01*
X30029500Y43550500D01*
X30029500Y42724500D01*
X30012187Y42676934D01*
X29968350Y42651624D01*
X29955500Y42650500D01*
X29700734Y42650500D01*
X29670301Y42647646D01*
X29670299Y42647646D01*
X29670295Y42647645D01*
X29542118Y42602794D01*
X29542116Y42602793D01*
X29432853Y42522154D01*
X29432846Y42522147D01*
X29352207Y42412884D01*
X29352206Y42412882D01*
X29307355Y42284705D01*
X29307354Y42284701D01*
X29307354Y42284699D01*
X29304500Y42254266D01*
X29304500Y42254260D01*
X29304500Y39874000D01*
X29287187Y39826434D01*
X29243350Y39801124D01*
X29230500Y39800000D01*
X27769500Y39800000D01*
X27721934Y39817313D01*
X27696624Y39861150D01*
X27695500Y39874000D01*
X27695500Y41602418D01*
X27695500Y41602425D01*
X27680528Y41759218D01*
X27621316Y41960875D01*
X27525011Y42147682D01*
X27395092Y42312886D01*
X27311308Y42385486D01*
X27236259Y42450517D01*
X27236256Y42450519D01*
X27054244Y42555604D01*
X27054240Y42555606D01*
X27054239Y42555606D01*
X26855636Y42624343D01*
X26855633Y42624344D01*
X26647602Y42654254D01*
X26647598Y42654254D01*
X26647596Y42654254D01*
X26437668Y42644254D01*
X26233427Y42594705D01*
X26233425Y42594705D01*
X26233424Y42594704D01*
X26074554Y42522150D01*
X26042245Y42507395D01*
X25871047Y42385486D01*
X25726014Y42233380D01*
X25612385Y42056569D01*
X25534274Y41861456D01*
X25494500Y41655084D01*
X25494500Y41099500D01*
X25477187Y41051934D01*
X25433350Y41026624D01*
X25420500Y41025500D01*
X23959500Y41025500D01*
X23911934Y41042813D01*
X23886624Y41086650D01*
X23885500Y41099500D01*
X23885500Y41602418D01*
X23885500Y41602425D01*
X23870528Y41759218D01*
X23811316Y41960875D01*
X23715011Y42147682D01*
X23585092Y42312886D01*
X23501308Y42385486D01*
X23426259Y42450517D01*
X23426256Y42450519D01*
X23244244Y42555604D01*
X23244240Y42555606D01*
X23244239Y42555606D01*
X23045636Y42624343D01*
X23045633Y42624344D01*
X22837602Y42654254D01*
X22837598Y42654254D01*
X22837596Y42654254D01*
X22627668Y42644254D01*
X22423427Y42594705D01*
X22423425Y42594705D01*
X22423424Y42594704D01*
X22264554Y42522150D01*
X22232245Y42507395D01*
X22061047Y42385486D01*
X21916014Y42233380D01*
X21802385Y42056569D01*
X21724274Y41861456D01*
X21684500Y41655084D01*
X21684500Y39874000D01*
X21667187Y39826434D01*
X21623350Y39801124D01*
X21610500Y39800000D01*
X21000000Y39800000D01*
X21000000Y37220467D01*
X20999508Y37211954D01*
X20999500Y37211880D01*
X20999500Y37211876D01*
X20999500Y36788121D01*
X20999507Y36788060D01*
X21000000Y36779533D01*
X21000000Y23400000D01*
X28400500Y23400000D01*
X28448066Y23382687D01*
X28473376Y23338850D01*
X28474500Y23326000D01*
X28474500Y22964558D01*
X28462029Y22923447D01*
X28439760Y22890119D01*
X28424500Y22813400D01*
X28424500Y22061601D01*
X28439760Y21984883D01*
X28496275Y21900301D01*
X28497888Y21897888D01*
X28584883Y21839760D01*
X28661599Y21824500D01*
X28838400Y21824501D01*
X28915117Y21839760D01*
X28958888Y21869008D01*
X29008056Y21881038D01*
X29041111Y21869008D01*
X29084883Y21839760D01*
X29161599Y21824500D01*
X29338400Y21824501D01*
X29415117Y21839760D01*
X29458888Y21869008D01*
X29508056Y21881038D01*
X29541111Y21869008D01*
X29584883Y21839760D01*
X29661599Y21824500D01*
X29838400Y21824501D01*
X29915117Y21839760D01*
X29958888Y21869008D01*
X30008056Y21881038D01*
X30041111Y21869008D01*
X30084883Y21839760D01*
X30161599Y21824500D01*
X30338400Y21824501D01*
X30415117Y21839760D01*
X30458888Y21869008D01*
X30508056Y21881038D01*
X30541111Y21869008D01*
X30584883Y21839760D01*
X30661599Y21824500D01*
X30838400Y21824501D01*
X30915117Y21839760D01*
X30958888Y21869008D01*
X31008056Y21881038D01*
X31041111Y21869008D01*
X31084883Y21839760D01*
X31161599Y21824500D01*
X31338400Y21824501D01*
X31415117Y21839760D01*
X31455423Y21866693D01*
X31504587Y21878723D01*
X31537644Y21866693D01*
X31561434Y21850797D01*
X31609270Y21830983D01*
X31647845Y21823310D01*
X31687500Y21815422D01*
X31687500Y21815423D01*
X31687501Y21815422D01*
X31706242Y21819151D01*
X31720679Y21820572D01*
X31725932Y21820572D01*
X31740368Y21819150D01*
X31747040Y21817823D01*
X31757583Y21815726D01*
X31800858Y21789467D01*
X31815724Y21757589D01*
X31819150Y21740372D01*
X31820572Y21725933D01*
X31820572Y21720679D01*
X31819150Y21706243D01*
X31815422Y21687500D01*
X31815422Y21687499D01*
X31830983Y21609269D01*
X31830985Y21609263D01*
X31836131Y21596840D01*
X31836132Y21596839D01*
X31850794Y21561438D01*
X31895110Y21495113D01*
X31895112Y21495111D01*
X31961434Y21450797D01*
X32009270Y21430983D01*
X32047845Y21423310D01*
X32087500Y21415422D01*
X32087500Y21415423D01*
X32087501Y21415422D01*
X32106242Y21419151D01*
X32120679Y21420572D01*
X32754321Y21420572D01*
X32768757Y21419151D01*
X32787499Y21415422D01*
X32865730Y21430983D01*
X32911157Y21449800D01*
X32912723Y21450384D01*
X32913558Y21450795D01*
X32913566Y21450797D01*
X32913569Y21450798D01*
X32979890Y21495113D01*
X33024204Y21561435D01*
X33038868Y21596838D01*
X33038867Y21596839D01*
X33044016Y21609268D01*
X33059578Y21687495D01*
X33056471Y21703113D01*
X33055849Y21706246D01*
X33054428Y21720679D01*
X33054428Y21779320D01*
X33055850Y21793757D01*
X33058388Y21806518D01*
X33059578Y21812499D01*
X33056215Y21829404D01*
X33045138Y21885093D01*
X33044017Y21890730D01*
X33024203Y21938566D01*
X33024202Y21938568D01*
X32979888Y22004889D01*
X32978600Y22005750D01*
X32913565Y22049204D01*
X32865734Y22069016D01*
X32865723Y22069019D01*
X32787500Y22084578D01*
X32787499Y22084578D01*
X32768757Y22080850D01*
X32754321Y22079428D01*
X32174068Y22079428D01*
X32159631Y22080850D01*
X32142412Y22084276D01*
X32099139Y22110536D01*
X32084272Y22142421D01*
X32080849Y22159635D01*
X32079428Y22174067D01*
X32079428Y22550500D01*
X32096741Y22598066D01*
X32140578Y22623376D01*
X32153428Y22624500D01*
X34305221Y22624500D01*
X34352787Y22607187D01*
X34378097Y22563350D01*
X34369307Y22513500D01*
X34366750Y22509388D01*
X34365485Y22507496D01*
X34344103Y22400000D01*
X34348078Y22380017D01*
X34349500Y22365580D01*
X34349500Y21736008D01*
X34332187Y21688442D01*
X34288350Y21663132D01*
X34287077Y21662919D01*
X34266877Y21659720D01*
X34266871Y21659718D01*
X34146780Y21598529D01*
X34051471Y21503220D01*
X33990281Y21383127D01*
X33990280Y21383126D01*
X33974500Y21283489D01*
X33974500Y20716512D01*
X33991192Y20611122D01*
X33988071Y20610628D01*
X33986759Y20571852D01*
X33952928Y20534199D01*
X33918118Y20525500D01*
X32964557Y20525500D01*
X32923445Y20537971D01*
X32890117Y20560240D01*
X32813401Y20575500D01*
X32813399Y20575500D01*
X32061600Y20575500D01*
X31984882Y20560240D01*
X31897888Y20502113D01*
X31897887Y20502112D01*
X31839760Y20415118D01*
X31824500Y20338400D01*
X31824500Y20161601D01*
X31839760Y20084883D01*
X31862148Y20051376D01*
X31897888Y19997888D01*
X31984883Y19939760D01*
X32061599Y19924500D01*
X32813400Y19924501D01*
X32890117Y19939760D01*
X32923445Y19962029D01*
X32964557Y19974500D01*
X34590580Y19974500D01*
X34605015Y19973079D01*
X34625000Y19969103D01*
X34732495Y19990485D01*
X34823624Y20051376D01*
X34884515Y20142505D01*
X34900500Y20222867D01*
X34900500Y20222868D01*
X34905897Y20250000D01*
X34905861Y20250181D01*
X34905897Y20250413D01*
X34905897Y20257288D01*
X34906955Y20257288D01*
X34913560Y20300209D01*
X34951617Y20333585D01*
X34966864Y20337706D01*
X34983126Y20340281D01*
X35103220Y20401472D01*
X35198528Y20496780D01*
X35259719Y20616874D01*
X35275500Y20716512D01*
X35275500Y21283488D01*
X35265417Y21347147D01*
X35259719Y21383126D01*
X35259718Y21383127D01*
X35241363Y21419150D01*
X35198528Y21503220D01*
X35103220Y21598528D01*
X35103219Y21598529D01*
X34983128Y21659718D01*
X34983127Y21659719D01*
X34983126Y21659719D01*
X34983124Y21659720D01*
X34983122Y21659720D01*
X34962923Y21662919D01*
X34918651Y21687460D01*
X34900511Y21734717D01*
X34900500Y21736008D01*
X34900500Y22050500D01*
X34917813Y22098066D01*
X34961650Y22123376D01*
X34974500Y22124500D01*
X38200500Y22124500D01*
X38248066Y22107187D01*
X38273376Y22063350D01*
X38274500Y22050500D01*
X38274500Y21545158D01*
X38257187Y21497592D01*
X38219348Y21474714D01*
X38219551Y21474134D01*
X38216796Y21473171D01*
X38216287Y21472862D01*
X38215299Y21472647D01*
X38087118Y21427794D01*
X38087116Y21427793D01*
X37977853Y21347154D01*
X37977846Y21347147D01*
X37897207Y21237884D01*
X37897206Y21237882D01*
X37852355Y21109705D01*
X37852354Y21109701D01*
X37852354Y21109699D01*
X37849500Y21079266D01*
X37849500Y20020734D01*
X37852354Y19990301D01*
X37852354Y19990299D01*
X37852355Y19990296D01*
X37897206Y19862119D01*
X37897207Y19862117D01*
X37977846Y19752854D01*
X37977853Y19752847D01*
X38037210Y19709040D01*
X38065202Y19666865D01*
X38059534Y19616564D01*
X38022860Y19581675D01*
X37993268Y19575500D01*
X32061600Y19575500D01*
X31984882Y19560240D01*
X31897888Y19502113D01*
X31897887Y19502112D01*
X31839760Y19415118D01*
X31824500Y19338400D01*
X31824500Y19161601D01*
X31839760Y19084883D01*
X31839761Y19084880D01*
X31869006Y19041111D01*
X31881037Y18991943D01*
X31869006Y18958889D01*
X31839760Y18915119D01*
X31824500Y18838400D01*
X31824500Y18661601D01*
X31839760Y18584883D01*
X31839761Y18584880D01*
X31866690Y18544577D01*
X31878721Y18495409D01*
X31866692Y18462357D01*
X31850796Y18438566D01*
X31830983Y18390733D01*
X31830982Y18390727D01*
X31815422Y18312506D01*
X31815422Y18312505D01*
X31819150Y18293762D01*
X31820572Y18279326D01*
X31820572Y18274064D01*
X31819149Y18259628D01*
X31815422Y18240884D01*
X31829719Y18169016D01*
X31830986Y18162650D01*
X31838434Y18144669D01*
X31838435Y18144668D01*
X31850316Y18115985D01*
X31850704Y18115001D01*
X31850800Y18114813D01*
X31850802Y18114809D01*
X31884120Y18064952D01*
X31895120Y18048491D01*
X31911008Y18037876D01*
X31922225Y18028671D01*
X31928682Y18022214D01*
X31937878Y18011009D01*
X31948509Y17995102D01*
X32014833Y17950792D01*
X32022419Y17947651D01*
X32022432Y17947645D01*
X32027253Y17945648D01*
X32027256Y17945646D01*
X32062659Y17930982D01*
X32140889Y17915422D01*
X32159630Y17919151D01*
X32174067Y17920572D01*
X32276384Y17920572D01*
X32317799Y17907898D01*
X33191992Y17317534D01*
X33196029Y17314604D01*
X33230872Y17287484D01*
X33230873Y17287484D01*
X33230874Y17287483D01*
X33266523Y17275245D01*
X33273241Y17272565D01*
X33307522Y17256899D01*
X33316337Y17256033D01*
X33333125Y17252379D01*
X33341511Y17249500D01*
X33341512Y17249500D01*
X33379205Y17249500D01*
X33386441Y17249145D01*
X33423935Y17245461D01*
X33423935Y17245462D01*
X33423937Y17245461D01*
X33432557Y17247505D01*
X33449625Y17249500D01*
X47141500Y17249500D01*
X47189066Y17232187D01*
X47214376Y17188350D01*
X47215500Y17175500D01*
X47215500Y8424500D01*
X47198187Y8376934D01*
X47154350Y8351624D01*
X47141500Y8350500D01*
X44649500Y8350500D01*
X44601934Y8367813D01*
X44576624Y8411650D01*
X44575500Y8424500D01*
X44575500Y8791049D01*
X44592813Y8838615D01*
X44615900Y8856981D01*
X44703220Y8901472D01*
X44798528Y8996780D01*
X44859719Y9116874D01*
X44875500Y9216512D01*
X44875500Y9783488D01*
X44859719Y9883126D01*
X44798528Y10003220D01*
X44703220Y10098528D01*
X44703219Y10098529D01*
X44583126Y10159719D01*
X44583125Y10159720D01*
X44483489Y10175500D01*
X44483488Y10175500D01*
X43966512Y10175500D01*
X43966511Y10175500D01*
X43866874Y10159720D01*
X43866873Y10159719D01*
X43746780Y10098529D01*
X43651473Y10003222D01*
X43594244Y9890904D01*
X43557224Y9856382D01*
X43528310Y9850500D01*
X43471690Y9850500D01*
X43424124Y9867813D01*
X43405756Y9890904D01*
X43400837Y9900557D01*
X43348528Y10003220D01*
X43253220Y10098528D01*
X43253219Y10098529D01*
X43133126Y10159719D01*
X43133125Y10159720D01*
X43033489Y10175500D01*
X43033488Y10175500D01*
X42516512Y10175500D01*
X42516511Y10175500D01*
X42416874Y10159720D01*
X42416873Y10159719D01*
X42296780Y10098529D01*
X42201471Y10003220D01*
X42140281Y9883127D01*
X42140280Y9883126D01*
X42124500Y9783489D01*
X42124500Y9216512D01*
X42140280Y9116875D01*
X42140281Y9116874D01*
X42196509Y9006519D01*
X42201472Y8996780D01*
X42296780Y8901472D01*
X42416874Y8840281D01*
X42516511Y8824500D01*
X42516512Y8824500D01*
X43033489Y8824500D01*
X43083307Y8832391D01*
X43133126Y8840281D01*
X43253220Y8901472D01*
X43348528Y8996780D01*
X43405756Y9109096D01*
X43442776Y9143618D01*
X43471690Y9149500D01*
X43528310Y9149500D01*
X43575876Y9132187D01*
X43594244Y9109096D01*
X43601368Y9095115D01*
X43651472Y8996780D01*
X43746780Y8901472D01*
X43834097Y8856982D01*
X43868617Y8819963D01*
X43874500Y8791049D01*
X43874500Y8424500D01*
X43857187Y8376934D01*
X43813350Y8351624D01*
X43800500Y8350500D01*
X42503548Y8350500D01*
X42497439Y8350753D01*
X42493198Y8351105D01*
X42456657Y8354133D01*
X42456656Y8354133D01*
X42416973Y8344084D01*
X42410991Y8342830D01*
X42370621Y8336093D01*
X42370613Y8336090D01*
X42365706Y8333435D01*
X42348668Y8326787D01*
X42343261Y8325418D01*
X42343260Y8325418D01*
X42308995Y8303032D01*
X42303745Y8299904D01*
X42267745Y8280421D01*
X42267740Y8280417D01*
X42263960Y8276311D01*
X42250000Y8264489D01*
X42245335Y8261442D01*
X42245332Y8261439D01*
X42220191Y8229138D01*
X42216240Y8224473D01*
X42188515Y8194356D01*
X42186274Y8189245D01*
X42176906Y8173524D01*
X42173483Y8169127D01*
X42160194Y8130419D01*
X42157972Y8124725D01*
X42141526Y8087233D01*
X42141526Y8087231D01*
X42141066Y8081676D01*
X42137311Y8063766D01*
X42135500Y8058490D01*
X42135500Y8017549D01*
X42135247Y8011438D01*
X42131867Y7970659D01*
X42131868Y7970656D01*
X42133235Y7965257D01*
X42135500Y7947091D01*
X42135500Y6642316D01*
X42118187Y6594750D01*
X42074350Y6569440D01*
X42024500Y6578230D01*
X42004297Y6595371D01*
X41962410Y6646410D01*
X41962409Y6646411D01*
X41802450Y6777685D01*
X41619956Y6875231D01*
X41619955Y6875232D01*
X41619954Y6875232D01*
X41493882Y6913475D01*
X41421935Y6935300D01*
X41216000Y6955583D01*
X41010064Y6935300D01*
X40837984Y6883100D01*
X40812050Y6875233D01*
X40812043Y6875231D01*
X40629549Y6777685D01*
X40469590Y6646411D01*
X40469589Y6646410D01*
X40402703Y6564908D01*
X40359144Y6539122D01*
X40309201Y6547367D01*
X40276243Y6585786D01*
X40271500Y6611853D01*
X40271500Y16057395D01*
X40263824Y16078484D01*
X40260486Y16090942D01*
X40256588Y16113043D01*
X40256588Y16113045D01*
X40245360Y16132492D01*
X40239916Y16144168D01*
X40232240Y16165260D01*
X40217814Y16182452D01*
X40210415Y16193019D01*
X40209528Y16194554D01*
X40199194Y16212455D01*
X40199192Y16212457D01*
X40181998Y16226885D01*
X40172879Y16236004D01*
X40158455Y16253194D01*
X40139013Y16264419D01*
X40128453Y16271814D01*
X40111261Y16286240D01*
X40111260Y16286241D01*
X40090164Y16293920D01*
X40078479Y16299369D01*
X40059045Y16310589D01*
X40059043Y16310590D01*
X40036941Y16314487D01*
X40024484Y16317825D01*
X40003397Y16325500D01*
X40003394Y16325500D01*
X39974475Y16325500D01*
X30649500Y16325500D01*
X30601934Y16342813D01*
X30576624Y16386650D01*
X30575500Y16399500D01*
X30575500Y17186601D01*
X30924500Y17186601D01*
X30937309Y17122207D01*
X30939760Y17109883D01*
X30997888Y17022888D01*
X31084883Y16964760D01*
X31161599Y16949500D01*
X31338400Y16949501D01*
X31415117Y16964760D01*
X31502112Y17022888D01*
X31560240Y17109883D01*
X31575500Y17186599D01*
X31575499Y17938400D01*
X31560240Y18015117D01*
X31502112Y18102112D01*
X31482822Y18115001D01*
X31415117Y18160240D01*
X31402986Y18162653D01*
X31338401Y18175500D01*
X31338399Y18175500D01*
X31161600Y18175500D01*
X31084882Y18160240D01*
X30997888Y18102113D01*
X30997887Y18102112D01*
X30939760Y18015118D01*
X30924500Y17938400D01*
X30924500Y17186601D01*
X30575500Y17186601D01*
X30575500Y17595504D01*
X30575499Y17595522D01*
X30575499Y17938399D01*
X30573034Y17950793D01*
X30560240Y18015117D01*
X30502112Y18102112D01*
X30482822Y18115001D01*
X30415117Y18160240D01*
X30402986Y18162653D01*
X30338401Y18175500D01*
X30338399Y18175500D01*
X30161600Y18175500D01*
X30084882Y18160240D01*
X30084879Y18160239D01*
X30041111Y18130994D01*
X29991943Y18118963D01*
X29958889Y18130994D01*
X29915118Y18160240D01*
X29889545Y18165327D01*
X29838401Y18175500D01*
X29838399Y18175500D01*
X29661600Y18175500D01*
X29584882Y18160240D01*
X29584879Y18160239D01*
X29541111Y18130994D01*
X29491943Y18118963D01*
X29458889Y18130994D01*
X29415118Y18160240D01*
X29389545Y18165327D01*
X29338401Y18175500D01*
X29338399Y18175500D01*
X29161600Y18175500D01*
X29084882Y18160240D01*
X29084879Y18160239D01*
X29041111Y18130994D01*
X28991943Y18118963D01*
X28958889Y18130994D01*
X28915118Y18160240D01*
X28889545Y18165327D01*
X28838401Y18175500D01*
X28838399Y18175500D01*
X28661600Y18175500D01*
X28584882Y18160240D01*
X28544575Y18133309D01*
X28495406Y18121279D01*
X28462355Y18133309D01*
X28445352Y18144669D01*
X28438566Y18149203D01*
X28438564Y18149204D01*
X28390734Y18169016D01*
X28390723Y18169019D01*
X28312500Y18184578D01*
X28312499Y18184578D01*
X28293757Y18180850D01*
X28279321Y18179428D01*
X28274068Y18179428D01*
X28259632Y18180850D01*
X28242412Y18184276D01*
X28199139Y18210536D01*
X28184274Y18242417D01*
X28180850Y18259632D01*
X28179428Y18274068D01*
X28179428Y18279320D01*
X28180850Y18293757D01*
X28183562Y18307393D01*
X28184578Y18312499D01*
X28169017Y18390730D01*
X28150208Y18436140D01*
X28149619Y18437717D01*
X28149203Y18438566D01*
X28149202Y18438569D01*
X28133309Y18462354D01*
X28121277Y18511522D01*
X28133309Y18544579D01*
X28160240Y18584883D01*
X28175500Y18661599D01*
X28175499Y18838400D01*
X28160240Y18915117D01*
X28130992Y18958889D01*
X28118962Y19008056D01*
X28130993Y19041112D01*
X28153970Y19075500D01*
X28160240Y19084883D01*
X28175500Y19161599D01*
X28175499Y19338400D01*
X28160240Y19415117D01*
X28102112Y19502112D01*
X28096667Y19505750D01*
X28015117Y19560240D01*
X27938401Y19575500D01*
X27938399Y19575500D01*
X27186600Y19575500D01*
X27109882Y19560240D01*
X27022888Y19502113D01*
X27022887Y19502112D01*
X26964760Y19415118D01*
X26949500Y19338400D01*
X26949501Y19174500D01*
X26932189Y19126934D01*
X26888351Y19101624D01*
X26875501Y19100500D01*
X20125500Y19100500D01*
X20077934Y19117813D01*
X20052624Y19161650D01*
X20051500Y19174500D01*
X20051500Y19825500D01*
X20068813Y19873066D01*
X20112650Y19898376D01*
X20125500Y19899500D01*
X27591534Y19899500D01*
X27591540Y19899500D01*
X27677881Y19913908D01*
X27680974Y19915583D01*
X27716195Y19924501D01*
X27938399Y19924501D01*
X27938400Y19924501D01*
X28015117Y19939760D01*
X28102112Y19997888D01*
X28160240Y20084883D01*
X28175500Y20161599D01*
X28175499Y20338400D01*
X28160240Y20415117D01*
X28102112Y20502112D01*
X28067109Y20525500D01*
X28015117Y20560240D01*
X27938401Y20575500D01*
X27938399Y20575500D01*
X27706157Y20575500D01*
X27682129Y20579510D01*
X27620988Y20600500D01*
X19893117Y20600500D01*
X19859522Y20608565D01*
X19759126Y20659719D01*
X19626000Y20680804D01*
X19492873Y20659720D01*
X19492873Y20659719D01*
X19372780Y20598529D01*
X19277471Y20503220D01*
X19216281Y20383127D01*
X19216280Y20383126D01*
X19200500Y20283489D01*
X19200500Y16582900D01*
X19183187Y16535334D01*
X19178826Y16530574D01*
X19151472Y16503221D01*
X19151471Y16503220D01*
X19090281Y16383127D01*
X19090280Y16383126D01*
X19074500Y16283489D01*
X19074500Y15716512D01*
X19090280Y15616875D01*
X19090281Y15616874D01*
X19151471Y15496781D01*
X19178826Y15469426D01*
X19200218Y15423550D01*
X19200500Y15417100D01*
X19200500Y14349500D01*
X19183187Y14301934D01*
X19139350Y14276624D01*
X19126500Y14275500D01*
X18766511Y14275500D01*
X18666874Y14259720D01*
X18666873Y14259719D01*
X18546780Y14198529D01*
X18451471Y14103220D01*
X18390281Y13983127D01*
X18390280Y13983126D01*
X18374500Y13883489D01*
X18374500Y13316512D01*
X18390280Y13216875D01*
X18390281Y13216874D01*
X18451471Y13096781D01*
X18526074Y13022178D01*
X18547466Y12976302D01*
X18547245Y12961239D01*
X18519872Y12727654D01*
X18497141Y12682426D01*
X18457953Y12663178D01*
X18437579Y12659951D01*
X18319250Y12599660D01*
X18225340Y12505750D01*
X18165049Y12387421D01*
X18165048Y12387421D01*
X18149500Y12289247D01*
X18149500Y11710754D01*
X18165049Y11612580D01*
X18225340Y11494251D01*
X18319250Y11400341D01*
X18361792Y11378665D01*
X18437579Y11340050D01*
X18437579Y11340049D01*
X18535753Y11324500D01*
X18535754Y11324500D01*
X19039247Y11324500D01*
X19071970Y11329683D01*
X19137420Y11340049D01*
X19167905Y11355583D01*
X19218146Y11361751D01*
X19260599Y11334183D01*
X19275500Y11289648D01*
X19275500Y9124500D01*
X19258187Y9076934D01*
X19214350Y9051624D01*
X19201500Y9050500D01*
X8380592Y9050500D01*
X8333026Y9067813D01*
X8314271Y9095616D01*
X8313289Y9095115D01*
X8310646Y9100302D01*
X8310646Y9100304D01*
X8253050Y9213342D01*
X8163342Y9303050D01*
X8050304Y9360646D01*
X8050302Y9360647D01*
X8050301Y9360647D01*
X7956519Y9375500D01*
X7493479Y9375500D01*
X7411075Y9362449D01*
X7361386Y9372108D01*
X7329531Y9411447D01*
X7325500Y9435538D01*
X7325500Y10000500D01*
X7342813Y10048066D01*
X7386650Y10073376D01*
X7399500Y10074500D01*
X17173771Y10074500D01*
X17185322Y10073594D01*
X17213144Y10069196D01*
X17280534Y10079893D01*
X17346126Y10090281D01*
X17346129Y10090283D01*
X17346138Y10090284D01*
X17346250Y10090320D01*
X17346258Y10090325D01*
X17346263Y10090325D01*
X17406174Y10120878D01*
X17406196Y10120881D01*
X17406193Y10120887D01*
X17406195Y10120888D01*
X17466220Y10151472D01*
X17466224Y10151477D01*
X17466231Y10151480D01*
X17466327Y10151550D01*
X17466331Y10151555D01*
X17466336Y10151557D01*
X17513217Y10198470D01*
X17561528Y10246780D01*
X17561531Y10246787D01*
X17561607Y10246891D01*
X17561607Y10246892D01*
X17561612Y10246896D01*
X17591638Y10305876D01*
X17622719Y10366874D01*
X17622720Y10366878D01*
X17622759Y10366998D01*
X17622760Y10367006D01*
X17622763Y10367011D01*
X17633142Y10432687D01*
X17643804Y10500000D01*
X17639396Y10527822D01*
X17638486Y10539373D01*
X17638222Y11333300D01*
X17655519Y11380872D01*
X17678628Y11399260D01*
X17679397Y11399653D01*
X17680751Y11400342D01*
X17774658Y11494249D01*
X17834951Y11612580D01*
X17850500Y11710754D01*
X17850500Y12289246D01*
X17834951Y12387420D01*
X17799297Y12457395D01*
X17774659Y12505750D01*
X17680749Y12599660D01*
X17562420Y12659951D01*
X17562420Y12659952D01*
X17464247Y12675500D01*
X17464246Y12675500D01*
X16960754Y12675500D01*
X16960753Y12675500D01*
X16862579Y12659952D01*
X16862579Y12659951D01*
X16744250Y12599660D01*
X16650340Y12505750D01*
X16590049Y12387421D01*
X16590048Y12387421D01*
X16574500Y12289247D01*
X16574500Y11710754D01*
X16590049Y11612580D01*
X16650340Y11494251D01*
X16650342Y11494249D01*
X16744249Y11400342D01*
X16746815Y11399035D01*
X16748428Y11397305D01*
X16748961Y11396918D01*
X16748885Y11396815D01*
X16781338Y11362016D01*
X16787222Y11333124D01*
X16787333Y10999525D01*
X16770036Y10951953D01*
X16726207Y10926629D01*
X16713333Y10925500D01*
X13974500Y10925500D01*
X13926934Y10942813D01*
X13901624Y10986650D01*
X13900500Y10999500D01*
X13900500Y17575500D01*
X13917813Y17623066D01*
X13961650Y17648376D01*
X13974500Y17649500D01*
X14275500Y17649500D01*
X14323066Y17632187D01*
X14348376Y17588350D01*
X14349500Y17575500D01*
X14349500Y17470734D01*
X14352354Y17440301D01*
X14352354Y17440299D01*
X14352355Y17440296D01*
X14397206Y17312119D01*
X14397207Y17312117D01*
X14477846Y17202854D01*
X14477853Y17202847D01*
X14587116Y17122208D01*
X14587118Y17122207D01*
X14715295Y17077356D01*
X14715301Y17077354D01*
X14745734Y17074500D01*
X14745741Y17074500D01*
X15354258Y17074500D01*
X15354266Y17074500D01*
X15384699Y17077354D01*
X15512882Y17122207D01*
X15622150Y17202850D01*
X15702793Y17312118D01*
X15747646Y17440301D01*
X15750500Y17470734D01*
X15750500Y18529266D01*
X15747646Y18559699D01*
X15738834Y18584881D01*
X15702793Y18687882D01*
X15702792Y18687884D01*
X15622153Y18797147D01*
X15622146Y18797154D01*
X15512883Y18877793D01*
X15512881Y18877794D01*
X15384704Y18922645D01*
X15384705Y18922645D01*
X15384700Y18922646D01*
X15384699Y18922646D01*
X15354266Y18925500D01*
X14745734Y18925500D01*
X14715301Y18922646D01*
X14715299Y18922646D01*
X14715295Y18922645D01*
X14587118Y18877794D01*
X14587116Y18877793D01*
X14477853Y18797154D01*
X14477846Y18797147D01*
X14397207Y18687884D01*
X14397206Y18687882D01*
X14352355Y18559705D01*
X14352354Y18559701D01*
X14352354Y18559699D01*
X14349500Y18529266D01*
X14349500Y18529260D01*
X14349500Y18424500D01*
X14332187Y18376934D01*
X14288350Y18351624D01*
X14275500Y18350500D01*
X13974500Y18350500D01*
X13926934Y18367813D01*
X13901624Y18411650D01*
X13900500Y18424500D01*
X13900500Y21687499D01*
X26940422Y21687499D01*
X26955983Y21609269D01*
X26955985Y21609263D01*
X26961131Y21596840D01*
X26961132Y21596839D01*
X26975794Y21561438D01*
X27020110Y21495113D01*
X27020112Y21495111D01*
X27086434Y21450797D01*
X27134270Y21430983D01*
X27172845Y21423310D01*
X27212500Y21415422D01*
X27212500Y21415423D01*
X27212501Y21415422D01*
X27231242Y21419151D01*
X27245679Y21420572D01*
X27879321Y21420572D01*
X27893757Y21419151D01*
X27912499Y21415422D01*
X27990730Y21430983D01*
X28036157Y21449800D01*
X28037723Y21450384D01*
X28038558Y21450795D01*
X28038566Y21450797D01*
X28038569Y21450798D01*
X28104890Y21495113D01*
X28149204Y21561435D01*
X28163868Y21596838D01*
X28163867Y21596839D01*
X28169016Y21609268D01*
X28184578Y21687495D01*
X28181471Y21703113D01*
X28180849Y21706246D01*
X28179428Y21720679D01*
X28179428Y21725933D01*
X28180850Y21740372D01*
X28184578Y21759110D01*
X28169018Y21837341D01*
X28169015Y21837347D01*
X28169014Y21837352D01*
X28153860Y21873937D01*
X28153838Y21873987D01*
X28149239Y21885093D01*
X28149239Y21885092D01*
X28149208Y21885167D01*
X28149198Y21885191D01*
X28113528Y21938568D01*
X28104881Y21951508D01*
X28104879Y21951510D01*
X28088992Y21962124D01*
X28077775Y21971329D01*
X28071317Y21977787D01*
X28062116Y21988999D01*
X28051492Y22004898D01*
X28007182Y22034501D01*
X27985167Y22049208D01*
X27977036Y22052576D01*
X27977029Y22052579D01*
X27937347Y22069016D01*
X27937335Y22069020D01*
X27859111Y22084578D01*
X27840369Y22080850D01*
X27825933Y22079428D01*
X27245679Y22079428D01*
X27231242Y22080850D01*
X27212501Y22084578D01*
X27212500Y22084578D01*
X27134276Y22069019D01*
X27134265Y22069016D01*
X27086447Y22049209D01*
X27086435Y22049204D01*
X27086434Y22049203D01*
X27086432Y22049202D01*
X27069741Y22038050D01*
X27020111Y22004889D01*
X27020110Y22004888D01*
X26975796Y21938566D01*
X26955983Y21890733D01*
X26955982Y21890727D01*
X26940422Y21812506D01*
X26940422Y21812505D01*
X26944150Y21793762D01*
X26945572Y21779326D01*
X26945572Y21720679D01*
X26944150Y21706243D01*
X26940422Y21687500D01*
X26940422Y21687499D01*
X13900500Y21687499D01*
X13900500Y46025500D01*
X13917813Y46073066D01*
X13961650Y46098376D01*
X13974500Y46099500D01*
X52171500Y46099500D01*
X52219066Y46082187D01*
G37*
%TD.AperFunction*%
%TD*%
M02*
