%TF.GenerationSoftware,KiCad,Pcbnew,7.0.11+dfsg-1build4*%
%TF.CreationDate,2026-09-22T18:03:32+09:00*%
%TF.ProjectId,t1s_hat,7431735f-6861-4742-9e6b-696361645f70,rev?*%
%TF.SameCoordinates,Original*%
%TF.FileFunction,Soldermask,Bot*%
%TF.FilePolarity,Negative*%
%FSLAX46Y46*%
G04 Gerber Fmt 4.6, Leading zero omitted, Abs format (unit mm)*
G04 Created by KiCad (PCBNEW 7.0.11+dfsg-1build4) date 2026-09-22 18:03:32*
%MOMM*%
%LPD*%
G01*
G04 APERTURE LIST*
G04 Aperture macros list*
%AMRoundRect*
0 Rectangle with rounded corners*
0 $1 Rounding radius*
0 $2 $3 $4 $5 $6 $7 $8 $9 X,Y pos of 4 corners*
0 Add a 4 corners polygon primitive as box body*
4,1,4,$2,$3,$4,$5,$6,$7,$8,$9,$2,$3,0*
0 Add four circle primitives for the rounded corners*
1,1,$1+$1,$2,$3*
1,1,$1+$1,$4,$5*
1,1,$1+$1,$6,$7*
1,1,$1+$1,$8,$9*
0 Add four rect primitives between the rounded corners*
20,1,$1+$1,$2,$3,$4,$5,0*
20,1,$1+$1,$4,$5,$6,$7,0*
20,1,$1+$1,$6,$7,$8,$9,0*
20,1,$1+$1,$8,$9,$2,$3,0*%
G04 Aperture macros list end*
%ADD10R,1.700000X1.700000*%
%ADD11O,1.700000X1.700000*%
%ADD12C,2.750000*%
%ADD13RoundRect,0.250000X0.650000X1.550000X-0.650000X1.550000X-0.650000X-1.550000X0.650000X-1.550000X0*%
%ADD14O,1.800000X3.600000*%
G04 APERTURE END LIST*
D10*
%TO.C,J1*%
X8196000Y3360000D03*
D11*
X8196000Y5900000D03*
X10736000Y3360000D03*
X10736000Y5900000D03*
X13276000Y3360000D03*
X13276000Y5900000D03*
X15816000Y3360000D03*
X15816000Y5900000D03*
X18356000Y3360000D03*
X18356000Y5900000D03*
X20896000Y3360000D03*
X20896000Y5900000D03*
X23436000Y3360000D03*
X23436000Y5900000D03*
X25976000Y3360000D03*
X25976000Y5900000D03*
X28516000Y3360000D03*
X28516000Y5900000D03*
X31056000Y3360000D03*
X31056000Y5900000D03*
X33596000Y3360000D03*
X33596000Y5900000D03*
X36136000Y3360000D03*
X36136000Y5900000D03*
X38676000Y3360000D03*
X38676000Y5900000D03*
X41216000Y3360000D03*
X41216000Y5900000D03*
X43756000Y3360000D03*
X43756000Y5900000D03*
X46296000Y3360000D03*
X46296000Y5900000D03*
X48836000Y3360000D03*
X48836000Y5900000D03*
X51376000Y3360000D03*
X51376000Y5900000D03*
X53916000Y3360000D03*
X53916000Y5900000D03*
X56456000Y3360000D03*
X56456000Y5900000D03*
%TD*%
D12*
%TO.C,H4*%
X63230000Y46200000D03*
%TD*%
%TO.C,H3*%
X2980000Y46230000D03*
%TD*%
D13*
%TO.C,CN1*%
X30405000Y41000000D03*
D14*
X26595000Y41000000D03*
X22785000Y41000000D03*
X18975000Y41000000D03*
%TD*%
D12*
%TO.C,H2*%
X61329999Y4630000D03*
%TD*%
%TO.C,H1*%
X3330000Y4630000D03*
%TD*%
M02*
