M48
; DRILL file {KiCad 7.0.11+dfsg-1build4} date Tue 22 Sep 2026 07:18:01 PM KST
; FORMAT={-:-/ absolute / metric / decimal}
; #@! TF.CreationDate,2026-09-22T19:18:01+09:00
; #@! TF.GenerationSoftware,Kicad,Pcbnew,7.0.11+dfsg-1build4
; #@! TF.FileFunction,Plated,1,2,PTH
FMAT,2
METRIC
; #@! TA.AperFunction,Plated,PTH,ComponentDrill
T1C0.200
; #@! TA.AperFunction,Plated,PTH,ViaDrill
T2C0.250
; #@! TA.AperFunction,Plated,PTH,ViaDrill
T3C0.300
; #@! TA.AperFunction,Plated,PTH,ComponentDrill
T4C1.000
; #@! TA.AperFunction,Plated,PTH,ComponentDrill
T5C1.200
%
G90
G05
T1
X28.55Y21.45
X28.55Y20.0
X28.55Y18.55
X30.0Y21.45
X30.0Y20.0
X30.0Y18.55
X31.45Y21.45
X31.45Y20.0
X31.45Y18.55
T2
X25.4Y19.55
X31.75Y16.7
X33.3Y21.75
X33.3Y20.75
X41.4Y20.55
T3
X17.9Y18.0
X18.5Y37.0
X20.625Y12.4
X22.1Y16.0
X25.15Y35.6
X27.6Y23.2
X30.7Y28.0
X30.7Y26.4
X31.812Y35.6
X35.65Y30.9
X36.9Y20.2
X38.15Y30.9
X40.1Y37.0
X40.7Y9.5
X41.0Y28.7
X46.3Y9.5
X49.1Y27.6
X49.1Y26.0
T4
X8.196Y5.9
X8.196Y3.36
X10.736Y5.9
X10.736Y3.36
X13.276Y5.9
X13.276Y3.36
X15.816Y5.9
X15.816Y3.36
X18.356Y5.9
X18.356Y3.36
X20.896Y5.9
X20.896Y3.36
X23.436Y5.9
X23.436Y3.36
X25.976Y5.9
X25.976Y3.36
X28.516Y5.9
X28.516Y3.36
X31.056Y5.9
X31.056Y3.36
X33.596Y5.9
X33.596Y3.36
X36.136Y5.9
X36.136Y3.36
X38.676Y5.9
X38.676Y3.36
X41.216Y5.9
X41.216Y3.36
X43.756Y5.9
X43.756Y3.36
X46.296Y5.9
X46.296Y3.36
X48.836Y5.9
X48.836Y3.36
X51.376Y5.9
X51.376Y3.36
X53.916Y5.9
X53.916Y3.36
X56.456Y5.9
X56.456Y3.36
T5
X18.975Y40.65
X22.785Y40.65
X26.595Y40.65
X30.405Y40.65
M30
