%TF.GenerationSoftware,KiCad,Pcbnew,7.0.11+dfsg-1build4*%
%TF.CreationDate,2026-09-22T18:03:32+09:00*%
%TF.ProjectId,t1s_hat,7431735f-6861-4742-9e6b-696361645f70,rev?*%
%TF.SameCoordinates,Original*%
%TF.FileFunction,Soldermask,Top*%
%TF.FilePolarity,Negative*%
%FSLAX46Y46*%
G04 Gerber Fmt 4.6, Leading zero omitted, Abs format (unit mm)*
G04 Created by KiCad (PCBNEW 7.0.11+dfsg-1build4) date 2026-09-22 18:03:32*
%MOMM*%
%LPD*%
G01*
G04 APERTURE LIST*
G04 Aperture macros list*
%AMRoundRect*
0 Rectangle with rounded corners*
0 $1 Rounding radius*
0 $2 $3 $4 $5 $6 $7 $8 $9 X,Y pos of 4 corners*
0 Add a 4 corners polygon primitive as box body*
4,1,4,$2,$3,$4,$5,$6,$7,$8,$9,$2,$3,0*
0 Add four circle primitives for the rounded corners*
1,1,$1+$1,$2,$3*
1,1,$1+$1,$4,$5*
1,1,$1+$1,$6,$7*
1,1,$1+$1,$8,$9*
0 Add four rect primitives between the rounded corners*
20,1,$1+$1,$2,$3,$4,$5,0*
20,1,$1+$1,$4,$5,$6,$7,0*
20,1,$1+$1,$6,$7,$8,$9,0*
20,1,$1+$1,$8,$9,$2,$3,0*%
%AMFreePoly0*
4,1,14,0.340806,0.106694,0.394194,0.053306,0.412500,0.009112,0.412500,-0.062500,0.394194,-0.106694,0.350000,-0.125000,-0.350000,-0.125000,-0.394194,-0.106694,-0.412500,-0.062500,-0.412500,0.062500,-0.394194,0.106694,-0.350000,0.125000,0.296612,0.125000,0.340806,0.106694,0.340806,0.106694,$1*%
%AMFreePoly1*
4,1,14,0.394194,0.106694,0.412500,0.062500,0.412500,-0.009112,0.394194,-0.053306,0.340806,-0.106694,0.296612,-0.125000,-0.350000,-0.125000,-0.394194,-0.106694,-0.412500,-0.062500,-0.412500,0.062500,-0.394194,0.106694,-0.350000,0.125000,0.350000,0.125000,0.394194,0.106694,0.394194,0.106694,$1*%
%AMFreePoly2*
4,1,14,0.106694,0.394194,0.125000,0.350000,0.125000,-0.350000,0.106694,-0.394194,0.062500,-0.412500,-0.062500,-0.412500,-0.106694,-0.394194,-0.125000,-0.350000,-0.125000,0.296612,-0.106694,0.340806,-0.053306,0.394194,-0.009112,0.412500,0.062500,0.412500,0.106694,0.394194,0.106694,0.394194,$1*%
%AMFreePoly3*
4,1,14,0.053306,0.394194,0.106694,0.340806,0.125000,0.296612,0.125000,-0.350000,0.106694,-0.394194,0.062500,-0.412500,-0.062500,-0.412500,-0.106694,-0.394194,-0.125000,-0.350000,-0.125000,0.350000,-0.106694,0.394194,-0.062500,0.412500,0.009112,0.412500,0.053306,0.394194,0.053306,0.394194,$1*%
%AMFreePoly4*
4,1,14,0.394194,0.106694,0.412500,0.062500,0.412500,-0.062500,0.394194,-0.106694,0.350000,-0.125000,-0.296612,-0.125000,-0.340806,-0.106694,-0.394194,-0.053306,-0.412500,-0.009112,-0.412500,0.062500,-0.394194,0.106694,-0.350000,0.125000,0.350000,0.125000,0.394194,0.106694,0.394194,0.106694,$1*%
%AMFreePoly5*
4,1,14,0.394194,0.106694,0.412500,0.062500,0.412500,-0.062500,0.394194,-0.106694,0.350000,-0.125000,-0.350000,-0.125000,-0.394194,-0.106694,-0.412500,-0.062500,-0.412500,0.009112,-0.394194,0.053306,-0.340806,0.106694,-0.296612,0.125000,0.350000,0.125000,0.394194,0.106694,0.394194,0.106694,$1*%
%AMFreePoly6*
4,1,14,0.106694,0.394194,0.125000,0.350000,0.125000,-0.296612,0.106694,-0.340806,0.053306,-0.394194,0.009112,-0.412500,-0.062500,-0.412500,-0.106694,-0.394194,-0.125000,-0.350000,-0.125000,0.350000,-0.106694,0.394194,-0.062500,0.412500,0.062500,0.412500,0.106694,0.394194,0.106694,0.394194,$1*%
%AMFreePoly7*
4,1,14,0.106694,0.394194,0.125000,0.350000,0.125000,-0.350000,0.106694,-0.394194,0.062500,-0.412500,-0.009112,-0.412500,-0.053306,-0.394194,-0.106694,-0.340806,-0.125000,-0.296612,-0.125000,0.350000,-0.106694,0.394194,-0.062500,0.412500,0.062500,0.412500,0.106694,0.394194,0.106694,0.394194,$1*%
G04 Aperture macros list end*
%ADD10RoundRect,0.218750X-0.256250X0.218750X-0.256250X-0.218750X0.256250X-0.218750X0.256250X0.218750X0*%
%ADD11RoundRect,0.225000X0.225000X0.250000X-0.225000X0.250000X-0.225000X-0.250000X0.225000X-0.250000X0*%
%ADD12RoundRect,0.250000X-0.262500X-0.450000X0.262500X-0.450000X0.262500X0.450000X-0.262500X0.450000X0*%
%ADD13RoundRect,0.250000X-0.250000X-0.475000X0.250000X-0.475000X0.250000X0.475000X-0.250000X0.475000X0*%
%ADD14RoundRect,0.225000X-0.225000X-0.250000X0.225000X-0.250000X0.225000X0.250000X-0.225000X0.250000X0*%
%ADD15RoundRect,0.250000X-0.312500X-0.625000X0.312500X-0.625000X0.312500X0.625000X-0.312500X0.625000X0*%
%ADD16RoundRect,0.250000X0.475000X-0.250000X0.475000X0.250000X-0.475000X0.250000X-0.475000X-0.250000X0*%
%ADD17R,1.700000X1.700000*%
%ADD18O,1.700000X1.700000*%
%ADD19RoundRect,0.200000X0.275000X-0.200000X0.275000X0.200000X-0.275000X0.200000X-0.275000X-0.200000X0*%
%ADD20C,2.750000*%
%ADD21RoundRect,0.120000X0.180000X-0.430000X0.180000X0.430000X-0.180000X0.430000X-0.180000X-0.430000X0*%
%ADD22R,1.000000X1.800000*%
%ADD23RoundRect,0.250000X0.312500X0.625000X-0.312500X0.625000X-0.312500X-0.625000X0.312500X-0.625000X0*%
%ADD24RoundRect,0.218750X-0.218750X-0.256250X0.218750X-0.256250X0.218750X0.256250X-0.218750X0.256250X0*%
%ADD25RoundRect,0.200000X0.200000X0.275000X-0.200000X0.275000X-0.200000X-0.275000X0.200000X-0.275000X0*%
%ADD26RoundRect,0.250000X0.650000X1.550000X-0.650000X1.550000X-0.650000X-1.550000X0.650000X-1.550000X0*%
%ADD27O,1.800000X3.600000*%
%ADD28FreePoly0,0.000000*%
%ADD29RoundRect,0.062500X-0.350000X-0.062500X0.350000X-0.062500X0.350000X0.062500X-0.350000X0.062500X0*%
%ADD30FreePoly1,0.000000*%
%ADD31FreePoly2,0.000000*%
%ADD32RoundRect,0.062500X-0.062500X-0.350000X0.062500X-0.350000X0.062500X0.350000X-0.062500X0.350000X0*%
%ADD33FreePoly3,0.000000*%
%ADD34FreePoly4,0.000000*%
%ADD35FreePoly5,0.000000*%
%ADD36FreePoly6,0.000000*%
%ADD37FreePoly7,0.000000*%
%ADD38R,3.400000X3.400000*%
%ADD39RoundRect,0.250000X0.250000X0.475000X-0.250000X0.475000X-0.250000X-0.475000X0.250000X-0.475000X0*%
%ADD40RoundRect,0.225000X0.250000X-0.225000X0.250000X0.225000X-0.250000X0.225000X-0.250000X-0.225000X0*%
%ADD41RoundRect,0.200000X-0.200000X-0.275000X0.200000X-0.275000X0.200000X0.275000X-0.200000X0.275000X0*%
G04 APERTURE END LIST*
D10*
%TO.C,FB1*%
X33000000Y31187500D03*
X33000000Y29612500D03*
%TD*%
D11*
%TO.C,C12*%
X32375000Y26400000D03*
X30825000Y26400000D03*
%TD*%
D12*
%TO.C,R3*%
X29987500Y37000000D03*
X31812500Y37000000D03*
%TD*%
D11*
%TO.C,C11*%
X32375000Y28000000D03*
X30825000Y28000000D03*
%TD*%
D13*
%TO.C,C6*%
X15050000Y18000000D03*
X16950000Y18000000D03*
%TD*%
D14*
%TO.C,C5*%
X34625000Y21000000D03*
X36175000Y21000000D03*
%TD*%
D15*
%TO.C,R2*%
X23537500Y34200000D03*
X26462500Y34200000D03*
%TD*%
D16*
%TO.C,C1*%
X29500000Y29850000D03*
X29500000Y31750000D03*
%TD*%
D17*
%TO.C,J1*%
X8196000Y3360000D03*
D18*
X8196000Y5900000D03*
X10736000Y3360000D03*
X10736000Y5900000D03*
X13276000Y3360000D03*
X13276000Y5900000D03*
X15816000Y3360000D03*
X15816000Y5900000D03*
X18356000Y3360000D03*
X18356000Y5900000D03*
X20896000Y3360000D03*
X20896000Y5900000D03*
X23436000Y3360000D03*
X23436000Y5900000D03*
X25976000Y3360000D03*
X25976000Y5900000D03*
X28516000Y3360000D03*
X28516000Y5900000D03*
X31056000Y3360000D03*
X31056000Y5900000D03*
X33596000Y3360000D03*
X33596000Y5900000D03*
X36136000Y3360000D03*
X36136000Y5900000D03*
X38676000Y3360000D03*
X38676000Y5900000D03*
X41216000Y3360000D03*
X41216000Y5900000D03*
X43756000Y3360000D03*
X43756000Y5900000D03*
X46296000Y3360000D03*
X46296000Y5900000D03*
X48836000Y3360000D03*
X48836000Y5900000D03*
X51376000Y3360000D03*
X51376000Y5900000D03*
X53916000Y3360000D03*
X53916000Y5900000D03*
X56456000Y3360000D03*
X56456000Y5900000D03*
%TD*%
D10*
%TO.C,FB2*%
X44000000Y30287500D03*
X44000000Y28712500D03*
%TD*%
D19*
%TO.C,R7*%
X41000000Y25975000D03*
X41000000Y27625000D03*
%TD*%
D20*
%TO.C,H4*%
X63230000Y46200000D03*
%TD*%
D21*
%TO.C,L1*%
X28000000Y25250000D03*
X28000000Y27950000D03*
X29000000Y27950000D03*
X29000000Y25250000D03*
%TD*%
D14*
%TO.C,C9*%
X44225000Y9500000D03*
X45775000Y9500000D03*
%TD*%
D22*
%TO.C,Y1*%
X38150000Y26600000D03*
X35650000Y26600000D03*
%TD*%
D23*
%TO.C,R1*%
X33462500Y34200000D03*
X30537500Y34200000D03*
%TD*%
D20*
%TO.C,H3*%
X2980000Y46230000D03*
%TD*%
D24*
%TO.C,FB3*%
X17212500Y12000000D03*
X18787500Y12000000D03*
%TD*%
%TO.C,D2*%
X43212500Y21500000D03*
X44787500Y21500000D03*
%TD*%
D25*
%TO.C,R6*%
X29425000Y12400000D03*
X27775000Y12400000D03*
%TD*%
D14*
%TO.C,C14*%
X46725000Y26000000D03*
X48275000Y26000000D03*
%TD*%
D25*
%TO.C,R5*%
X50825000Y12400000D03*
X49175000Y12400000D03*
%TD*%
D26*
%TO.C,CN1*%
X30405000Y41000000D03*
D27*
X26595000Y41000000D03*
X22785000Y41000000D03*
X18975000Y41000000D03*
%TD*%
D15*
%TO.C,MOV1*%
X36037500Y37000000D03*
X38962500Y37000000D03*
%TD*%
D28*
%TO.C,U1*%
X27562500Y21750000D03*
D29*
X27562500Y21250000D03*
X27562500Y20750000D03*
X27562500Y20250000D03*
X27562500Y19750000D03*
X27562500Y19250000D03*
X27562500Y18750000D03*
D30*
X27562500Y18250000D03*
D31*
X28250000Y17562500D03*
D32*
X28750000Y17562500D03*
X29250000Y17562500D03*
X29750000Y17562500D03*
X30250000Y17562500D03*
X30750000Y17562500D03*
X31250000Y17562500D03*
D33*
X31750000Y17562500D03*
D34*
X32437500Y18250000D03*
D29*
X32437500Y18750000D03*
X32437500Y19250000D03*
X32437500Y19750000D03*
X32437500Y20250000D03*
X32437500Y20750000D03*
X32437500Y21250000D03*
D35*
X32437500Y21750000D03*
D36*
X31750000Y22437500D03*
D32*
X31250000Y22437500D03*
X30750000Y22437500D03*
X30250000Y22437500D03*
X29750000Y22437500D03*
X29250000Y22437500D03*
X28750000Y22437500D03*
D37*
X28250000Y22437500D03*
D38*
X30000000Y20000000D03*
%TD*%
D24*
%TO.C,D1*%
X43212500Y19000000D03*
X44787500Y19000000D03*
%TD*%
D14*
%TO.C,C13*%
X46725000Y27600000D03*
X48275000Y27600000D03*
%TD*%
D39*
%TO.C,C3*%
X27050000Y37000000D03*
X25150000Y37000000D03*
%TD*%
D23*
%TO.C,MOV2*%
X22462500Y37000000D03*
X19537500Y37000000D03*
%TD*%
D25*
%TO.C,R9*%
X48325000Y21500000D03*
X46675000Y21500000D03*
%TD*%
D14*
%TO.C,C7*%
X19025000Y13600000D03*
X20575000Y13600000D03*
%TD*%
D16*
%TO.C,C2*%
X27500000Y29850000D03*
X27500000Y31750000D03*
%TD*%
D40*
%TO.C,C15*%
X35650000Y28625000D03*
X35650000Y30175000D03*
%TD*%
D11*
%TO.C,C10*%
X42775000Y9500000D03*
X41225000Y9500000D03*
%TD*%
D20*
%TO.C,H2*%
X61329999Y4630000D03*
%TD*%
D14*
%TO.C,C8*%
X19725000Y16000000D03*
X21275000Y16000000D03*
%TD*%
D20*
%TO.C,H1*%
X3330000Y4630000D03*
%TD*%
D41*
%TO.C,R4*%
X23175000Y15000000D03*
X24825000Y15000000D03*
%TD*%
D13*
%TO.C,C4*%
X38550000Y20550000D03*
X40450000Y20550000D03*
%TD*%
D25*
%TO.C,R8*%
X48325000Y19000000D03*
X46675000Y19000000D03*
%TD*%
D40*
%TO.C,C16*%
X38150000Y28625000D03*
X38150000Y30175000D03*
%TD*%
M02*
