%TF.GenerationSoftware,KiCad,Pcbnew,7.0.11+dfsg-1build4*%
%TF.CreationDate,2026-09-22T18:03:32+09:00*%
%TF.ProjectId,t1s_hat,7431735f-6861-4742-9e6b-696361645f70,rev?*%
%TF.SameCoordinates,Original*%
%TF.FileFunction,Legend,Top*%
%TF.FilePolarity,Positive*%
%FSLAX46Y46*%
G04 Gerber Fmt 4.6, Leading zero omitted, Abs format (unit mm)*
G04 Created by KiCad (PCBNEW 7.0.11+dfsg-1build4) date 2026-09-22 18:03:32*
%MOMM*%
%LPD*%
G01*
G04 APERTURE LIST*
%ADD10C,0.150000*%
%ADD11C,0.130000*%
%ADD12C,0.140000*%
%ADD13C,0.220000*%
%ADD14C,0.240000*%
%ADD15C,0.160000*%
%ADD16C,0.200000*%
%ADD17C,0.120000*%
%ADD18C,0.100000*%
G04 APERTURE END LIST*
D10*
X58000000Y22000000D02*
X58000000Y44000000D01*
X7295999Y8000000D02*
X9096000Y8000000D01*
X58000000Y22000000D02*
X66220000Y22000000D01*
X9096000Y8000000D02*
X8196000Y9200000D01*
X58000000Y44000000D02*
X66220000Y44000000D01*
X7295999Y8000000D02*
X8196000Y9200000D01*
D11*
X3112378Y38636665D02*
X2737521Y38636665D01*
X2924949Y38636665D02*
X2924949Y39436665D01*
X2924949Y39436665D02*
X2862473Y39322380D01*
X2862473Y39322380D02*
X2799997Y39246189D01*
X2799997Y39246189D02*
X2737521Y39208094D01*
X3393521Y38941427D02*
X3893331Y38941427D01*
X4174473Y39360475D02*
X4205711Y39398570D01*
X4205711Y39398570D02*
X4268187Y39436665D01*
X4268187Y39436665D02*
X4424378Y39436665D01*
X4424378Y39436665D02*
X4486854Y39398570D01*
X4486854Y39398570D02*
X4518092Y39360475D01*
X4518092Y39360475D02*
X4549330Y39284284D01*
X4549330Y39284284D02*
X4549330Y39208094D01*
X4549330Y39208094D02*
X4518092Y39093808D01*
X4518092Y39093808D02*
X4143235Y38636665D01*
X4143235Y38636665D02*
X4549330Y38636665D01*
X5611426Y38636665D02*
X5611426Y39055713D01*
X5611426Y39055713D02*
X5580188Y39131903D01*
X5580188Y39131903D02*
X5517712Y39169999D01*
X5517712Y39169999D02*
X5392759Y39169999D01*
X5392759Y39169999D02*
X5330283Y39131903D01*
X5611426Y38674760D02*
X5548950Y38636665D01*
X5548950Y38636665D02*
X5392759Y38636665D01*
X5392759Y38636665D02*
X5330283Y38674760D01*
X5330283Y38674760D02*
X5299045Y38750951D01*
X5299045Y38750951D02*
X5299045Y38827141D01*
X5299045Y38827141D02*
X5330283Y38903332D01*
X5330283Y38903332D02*
X5392759Y38941427D01*
X5392759Y38941427D02*
X5548950Y38941427D01*
X5548950Y38941427D02*
X5611426Y38979522D01*
X5923807Y39169999D02*
X5923807Y38636665D01*
X5923807Y39093808D02*
X5955045Y39131903D01*
X5955045Y39131903D02*
X6017521Y39169999D01*
X6017521Y39169999D02*
X6111236Y39169999D01*
X6111236Y39169999D02*
X6173712Y39131903D01*
X6173712Y39131903D02*
X6204950Y39055713D01*
X6204950Y39055713D02*
X6204950Y38636665D01*
X6798474Y38636665D02*
X6798474Y39436665D01*
X6798474Y38674760D02*
X6735998Y38636665D01*
X6735998Y38636665D02*
X6611045Y38636665D01*
X6611045Y38636665D02*
X6548569Y38674760D01*
X6548569Y38674760D02*
X6517331Y38712856D01*
X6517331Y38712856D02*
X6486093Y38789046D01*
X6486093Y38789046D02*
X6486093Y39017618D01*
X6486093Y39017618D02*
X6517331Y39093808D01*
X6517331Y39093808D02*
X6548569Y39131903D01*
X6548569Y39131903D02*
X6611045Y39169999D01*
X6611045Y39169999D02*
X6735998Y39169999D01*
X6735998Y39169999D02*
X6798474Y39131903D01*
X7548189Y39436665D02*
X7954284Y39436665D01*
X7954284Y39436665D02*
X7735617Y39131903D01*
X7735617Y39131903D02*
X7829332Y39131903D01*
X7829332Y39131903D02*
X7891808Y39093808D01*
X7891808Y39093808D02*
X7923046Y39055713D01*
X7923046Y39055713D02*
X7954284Y38979522D01*
X7954284Y38979522D02*
X7954284Y38789046D01*
X7954284Y38789046D02*
X7923046Y38712856D01*
X7923046Y38712856D02*
X7891808Y38674760D01*
X7891808Y38674760D02*
X7829332Y38636665D01*
X7829332Y38636665D02*
X7641903Y38636665D01*
X7641903Y38636665D02*
X7579427Y38674760D01*
X7579427Y38674760D02*
X7548189Y38712856D01*
X8235427Y38941427D02*
X8735237Y38941427D01*
X9328760Y39169999D02*
X9328760Y38636665D01*
X9172569Y39474760D02*
X9016379Y38903332D01*
X9016379Y38903332D02*
X9422474Y38903332D01*
X10453332Y38636665D02*
X10453332Y39055713D01*
X10453332Y39055713D02*
X10422094Y39131903D01*
X10422094Y39131903D02*
X10359618Y39169999D01*
X10359618Y39169999D02*
X10234665Y39169999D01*
X10234665Y39169999D02*
X10172189Y39131903D01*
X10453332Y38674760D02*
X10390856Y38636665D01*
X10390856Y38636665D02*
X10234665Y38636665D01*
X10234665Y38636665D02*
X10172189Y38674760D01*
X10172189Y38674760D02*
X10140951Y38750951D01*
X10140951Y38750951D02*
X10140951Y38827141D01*
X10140951Y38827141D02*
X10172189Y38903332D01*
X10172189Y38903332D02*
X10234665Y38941427D01*
X10234665Y38941427D02*
X10390856Y38941427D01*
X10390856Y38941427D02*
X10453332Y38979522D01*
X10765713Y38636665D02*
X10765713Y39169999D01*
X10765713Y39017618D02*
X10796951Y39093808D01*
X10796951Y39093808D02*
X10828189Y39131903D01*
X10828189Y39131903D02*
X10890665Y39169999D01*
X10890665Y39169999D02*
X10953142Y39169999D01*
X11421713Y38674760D02*
X11359237Y38636665D01*
X11359237Y38636665D02*
X11234284Y38636665D01*
X11234284Y38636665D02*
X11171808Y38674760D01*
X11171808Y38674760D02*
X11140570Y38750951D01*
X11140570Y38750951D02*
X11140570Y39055713D01*
X11140570Y39055713D02*
X11171808Y39131903D01*
X11171808Y39131903D02*
X11234284Y39169999D01*
X11234284Y39169999D02*
X11359237Y39169999D01*
X11359237Y39169999D02*
X11421713Y39131903D01*
X11421713Y39131903D02*
X11452951Y39055713D01*
X11452951Y39055713D02*
X11452951Y38979522D01*
X11452951Y38979522D02*
X11140570Y38903332D01*
X12140190Y39169999D02*
X12390094Y39169999D01*
X12233904Y39436665D02*
X12233904Y38750951D01*
X12233904Y38750951D02*
X12265142Y38674760D01*
X12265142Y38674760D02*
X12327618Y38636665D01*
X12327618Y38636665D02*
X12390094Y38636665D01*
X12608761Y38636665D02*
X12608761Y39436665D01*
X12889904Y38636665D02*
X12889904Y39055713D01*
X12889904Y39055713D02*
X12858666Y39131903D01*
X12858666Y39131903D02*
X12796190Y39169999D01*
X12796190Y39169999D02*
X12702475Y39169999D01*
X12702475Y39169999D02*
X12639999Y39131903D01*
X12639999Y39131903D02*
X12608761Y39093808D01*
X13452190Y38674760D02*
X13389714Y38636665D01*
X13389714Y38636665D02*
X13264761Y38636665D01*
X13264761Y38636665D02*
X13202285Y38674760D01*
X13202285Y38674760D02*
X13171047Y38750951D01*
X13171047Y38750951D02*
X13171047Y39055713D01*
X13171047Y39055713D02*
X13202285Y39131903D01*
X13202285Y39131903D02*
X13264761Y39169999D01*
X13264761Y39169999D02*
X13389714Y39169999D01*
X13389714Y39169999D02*
X13452190Y39131903D01*
X13452190Y39131903D02*
X13483428Y39055713D01*
X13483428Y39055713D02*
X13483428Y38979522D01*
X13483428Y38979522D02*
X13171047Y38903332D01*
X14233143Y38674760D02*
X14295619Y38636665D01*
X14295619Y38636665D02*
X14420571Y38636665D01*
X14420571Y38636665D02*
X14483048Y38674760D01*
X14483048Y38674760D02*
X14514286Y38750951D01*
X14514286Y38750951D02*
X14514286Y38789046D01*
X14514286Y38789046D02*
X14483048Y38865237D01*
X14483048Y38865237D02*
X14420571Y38903332D01*
X14420571Y38903332D02*
X14326857Y38903332D01*
X14326857Y38903332D02*
X14264381Y38941427D01*
X14264381Y38941427D02*
X14233143Y39017618D01*
X14233143Y39017618D02*
X14233143Y39055713D01*
X14233143Y39055713D02*
X14264381Y39131903D01*
X14264381Y39131903D02*
X14326857Y39169999D01*
X14326857Y39169999D02*
X14420571Y39169999D01*
X14420571Y39169999D02*
X14483048Y39131903D01*
X15076572Y38636665D02*
X15076572Y39055713D01*
X15076572Y39055713D02*
X15045334Y39131903D01*
X15045334Y39131903D02*
X14982858Y39169999D01*
X14982858Y39169999D02*
X14857905Y39169999D01*
X14857905Y39169999D02*
X14795429Y39131903D01*
X15076572Y38674760D02*
X15014096Y38636665D01*
X15014096Y38636665D02*
X14857905Y38636665D01*
X14857905Y38636665D02*
X14795429Y38674760D01*
X14795429Y38674760D02*
X14764191Y38750951D01*
X14764191Y38750951D02*
X14764191Y38827141D01*
X14764191Y38827141D02*
X14795429Y38903332D01*
X14795429Y38903332D02*
X14857905Y38941427D01*
X14857905Y38941427D02*
X15014096Y38941427D01*
X15014096Y38941427D02*
X15076572Y38979522D01*
X15388953Y38636665D02*
X15388953Y39169999D01*
X15388953Y39093808D02*
X15420191Y39131903D01*
X15420191Y39131903D02*
X15482667Y39169999D01*
X15482667Y39169999D02*
X15576382Y39169999D01*
X15576382Y39169999D02*
X15638858Y39131903D01*
X15638858Y39131903D02*
X15670096Y39055713D01*
X15670096Y39055713D02*
X15670096Y38636665D01*
X15670096Y39055713D02*
X15701334Y39131903D01*
X15701334Y39131903D02*
X15763810Y39169999D01*
X15763810Y39169999D02*
X15857524Y39169999D01*
X15857524Y39169999D02*
X15920001Y39131903D01*
X15920001Y39131903D02*
X15951239Y39055713D01*
X15951239Y39055713D02*
X15951239Y38636665D01*
X16513525Y38674760D02*
X16451049Y38636665D01*
X16451049Y38636665D02*
X16326096Y38636665D01*
X16326096Y38636665D02*
X16263620Y38674760D01*
X16263620Y38674760D02*
X16232382Y38750951D01*
X16232382Y38750951D02*
X16232382Y39055713D01*
X16232382Y39055713D02*
X16263620Y39131903D01*
X16263620Y39131903D02*
X16326096Y39169999D01*
X16326096Y39169999D02*
X16451049Y39169999D01*
X16451049Y39169999D02*
X16513525Y39131903D01*
X16513525Y39131903D02*
X16544763Y39055713D01*
X16544763Y39055713D02*
X16544763Y38979522D01*
X16544763Y38979522D02*
X16232382Y38903332D01*
X17325716Y39169999D02*
X17325716Y38369999D01*
X17325716Y39131903D02*
X17388192Y39169999D01*
X17388192Y39169999D02*
X17513145Y39169999D01*
X17513145Y39169999D02*
X17575621Y39131903D01*
X17575621Y39131903D02*
X17606859Y39093808D01*
X17606859Y39093808D02*
X17638097Y39017618D01*
X17638097Y39017618D02*
X17638097Y38789046D01*
X17638097Y38789046D02*
X17606859Y38712856D01*
X17606859Y38712856D02*
X17575621Y38674760D01*
X17575621Y38674760D02*
X17513145Y38636665D01*
X17513145Y38636665D02*
X17388192Y38636665D01*
X17388192Y38636665D02*
X17325716Y38674760D01*
X18200383Y38636665D02*
X18200383Y39055713D01*
X18200383Y39055713D02*
X18169145Y39131903D01*
X18169145Y39131903D02*
X18106669Y39169999D01*
X18106669Y39169999D02*
X17981716Y39169999D01*
X17981716Y39169999D02*
X17919240Y39131903D01*
X18200383Y38674760D02*
X18137907Y38636665D01*
X18137907Y38636665D02*
X17981716Y38636665D01*
X17981716Y38636665D02*
X17919240Y38674760D01*
X17919240Y38674760D02*
X17888002Y38750951D01*
X17888002Y38750951D02*
X17888002Y38827141D01*
X17888002Y38827141D02*
X17919240Y38903332D01*
X17919240Y38903332D02*
X17981716Y38941427D01*
X17981716Y38941427D02*
X18137907Y38941427D01*
X18137907Y38941427D02*
X18200383Y38979522D01*
X18512764Y38636665D02*
X18512764Y39169999D01*
X18512764Y39436665D02*
X18481526Y39398570D01*
X18481526Y39398570D02*
X18512764Y39360475D01*
X18512764Y39360475D02*
X18544002Y39398570D01*
X18544002Y39398570D02*
X18512764Y39436665D01*
X18512764Y39436665D02*
X18512764Y39360475D01*
X18825145Y38636665D02*
X18825145Y39169999D01*
X18825145Y39017618D02*
X18856383Y39093808D01*
X18856383Y39093808D02*
X18887621Y39131903D01*
X18887621Y39131903D02*
X18950097Y39169999D01*
X18950097Y39169999D02*
X19012574Y39169999D01*
X19262478Y38674760D02*
X19262478Y38636665D01*
X19262478Y38636665D02*
X19231240Y38560475D01*
X19231240Y38560475D02*
X19200002Y38522380D01*
X19231240Y39131903D02*
X19262478Y39093808D01*
X19262478Y39093808D02*
X19231240Y39055713D01*
X19231240Y39055713D02*
X19200002Y39093808D01*
X19200002Y39093808D02*
X19231240Y39131903D01*
X19231240Y39131903D02*
X19231240Y39055713D01*
D12*
X14078676Y9090923D02*
X14078676Y8448066D01*
X14078676Y8448066D02*
X14043533Y8319495D01*
X14043533Y8319495D02*
X13973247Y8233780D01*
X13973247Y8233780D02*
X13867819Y8190923D01*
X13867819Y8190923D02*
X13797533Y8190923D01*
X14816676Y8190923D02*
X14394962Y8190923D01*
X14605819Y8190923D02*
X14605819Y9090923D01*
X14605819Y9090923D02*
X14535533Y8962352D01*
X14535533Y8962352D02*
X14465248Y8876638D01*
X14465248Y8876638D02*
X14394962Y8833780D01*
X15695248Y8190923D02*
X15695248Y9090923D01*
X15695248Y9090923D02*
X15976391Y9090923D01*
X15976391Y9090923D02*
X16046676Y9048066D01*
X16046676Y9048066D02*
X16081819Y9005209D01*
X16081819Y9005209D02*
X16116962Y8919495D01*
X16116962Y8919495D02*
X16116962Y8790923D01*
X16116962Y8790923D02*
X16081819Y8705209D01*
X16081819Y8705209D02*
X16046676Y8662352D01*
X16046676Y8662352D02*
X15976391Y8619495D01*
X15976391Y8619495D02*
X15695248Y8619495D01*
X16433248Y8190923D02*
X16433248Y9090923D01*
X16784677Y8190923D02*
X16784677Y9090923D01*
X16784677Y9090923D02*
X17206391Y8190923D01*
X17206391Y8190923D02*
X17206391Y9090923D01*
X18506677Y8190923D02*
X18084963Y8190923D01*
X18295820Y8190923D02*
X18295820Y9090923D01*
X18295820Y9090923D02*
X18225534Y8962352D01*
X18225534Y8962352D02*
X18155249Y8876638D01*
X18155249Y8876638D02*
X18084963Y8833780D01*
D13*
X22970714Y38310036D02*
X22970714Y39610036D01*
X22970714Y39610036D02*
X23599286Y38310036D01*
X23599286Y38310036D02*
X23599286Y39610036D01*
D12*
X8699247Y32590923D02*
X8449247Y33019495D01*
X8270676Y32590923D02*
X8270676Y33490923D01*
X8270676Y33490923D02*
X8556390Y33490923D01*
X8556390Y33490923D02*
X8627819Y33448066D01*
X8627819Y33448066D02*
X8663533Y33405209D01*
X8663533Y33405209D02*
X8699247Y33319495D01*
X8699247Y33319495D02*
X8699247Y33190923D01*
X8699247Y33190923D02*
X8663533Y33105209D01*
X8663533Y33105209D02*
X8627819Y33062352D01*
X8627819Y33062352D02*
X8556390Y33019495D01*
X8556390Y33019495D02*
X8270676Y33019495D01*
X9413533Y32590923D02*
X8984962Y32590923D01*
X9199247Y32590923D02*
X9199247Y33490923D01*
X9199247Y33490923D02*
X9127819Y33362352D01*
X9127819Y33362352D02*
X9056390Y33276638D01*
X9056390Y33276638D02*
X8984962Y33233780D01*
X10734962Y32590923D02*
X10484962Y33019495D01*
X10306391Y32590923D02*
X10306391Y33490923D01*
X10306391Y33490923D02*
X10592105Y33490923D01*
X10592105Y33490923D02*
X10663534Y33448066D01*
X10663534Y33448066D02*
X10699248Y33405209D01*
X10699248Y33405209D02*
X10734962Y33319495D01*
X10734962Y33319495D02*
X10734962Y33190923D01*
X10734962Y33190923D02*
X10699248Y33105209D01*
X10699248Y33105209D02*
X10663534Y33062352D01*
X10663534Y33062352D02*
X10592105Y33019495D01*
X10592105Y33019495D02*
X10306391Y33019495D01*
X11020677Y33405209D02*
X11056391Y33448066D01*
X11056391Y33448066D02*
X11127820Y33490923D01*
X11127820Y33490923D02*
X11306391Y33490923D01*
X11306391Y33490923D02*
X11377820Y33448066D01*
X11377820Y33448066D02*
X11413534Y33405209D01*
X11413534Y33405209D02*
X11449248Y33319495D01*
X11449248Y33319495D02*
X11449248Y33233780D01*
X11449248Y33233780D02*
X11413534Y33105209D01*
X11413534Y33105209D02*
X10984962Y32590923D01*
X10984962Y32590923D02*
X11449248Y32590923D01*
X12806392Y33490923D02*
X13234964Y33490923D01*
X13020678Y32590923D02*
X13020678Y33490923D01*
X13484964Y33062352D02*
X13734964Y33062352D01*
X13842107Y32590923D02*
X13484964Y32590923D01*
X13484964Y32590923D02*
X13484964Y33490923D01*
X13484964Y33490923D02*
X13842107Y33490923D01*
X14592106Y32590923D02*
X14342106Y33019495D01*
X14163535Y32590923D02*
X14163535Y33490923D01*
X14163535Y33490923D02*
X14449249Y33490923D01*
X14449249Y33490923D02*
X14520678Y33448066D01*
X14520678Y33448066D02*
X14556392Y33405209D01*
X14556392Y33405209D02*
X14592106Y33319495D01*
X14592106Y33319495D02*
X14592106Y33190923D01*
X14592106Y33190923D02*
X14556392Y33105209D01*
X14556392Y33105209D02*
X14520678Y33062352D01*
X14520678Y33062352D02*
X14449249Y33019495D01*
X14449249Y33019495D02*
X14163535Y33019495D01*
X14913535Y32590923D02*
X14913535Y33490923D01*
X14913535Y33490923D02*
X15163535Y32848066D01*
X15163535Y32848066D02*
X15413535Y33490923D01*
X15413535Y33490923D02*
X15413535Y32590923D01*
X15770678Y32590923D02*
X15770678Y33490923D01*
X16127821Y32590923D02*
X16127821Y33490923D01*
X16127821Y33490923D02*
X16556392Y32590923D01*
X16556392Y32590923D02*
X16556392Y33490923D01*
X16877821Y32848066D02*
X17234964Y32848066D01*
X16806392Y32590923D02*
X17056392Y33490923D01*
X17056392Y33490923D02*
X17306392Y32590923D01*
X17449249Y33490923D02*
X17877821Y33490923D01*
X17663535Y32590923D02*
X17663535Y33490923D01*
X18127821Y32590923D02*
X18127821Y33490923D01*
X18627821Y33490923D02*
X18770678Y33490923D01*
X18770678Y33490923D02*
X18842107Y33448066D01*
X18842107Y33448066D02*
X18913535Y33362352D01*
X18913535Y33362352D02*
X18949250Y33190923D01*
X18949250Y33190923D02*
X18949250Y32890923D01*
X18949250Y32890923D02*
X18913535Y32719495D01*
X18913535Y32719495D02*
X18842107Y32633780D01*
X18842107Y32633780D02*
X18770678Y32590923D01*
X18770678Y32590923D02*
X18627821Y32590923D01*
X18627821Y32590923D02*
X18556393Y32633780D01*
X18556393Y32633780D02*
X18484964Y32719495D01*
X18484964Y32719495D02*
X18449250Y32890923D01*
X18449250Y32890923D02*
X18449250Y33190923D01*
X18449250Y33190923D02*
X18484964Y33362352D01*
X18484964Y33362352D02*
X18556393Y33448066D01*
X18556393Y33448066D02*
X18627821Y33490923D01*
X19270678Y32590923D02*
X19270678Y33490923D01*
X19270678Y33490923D02*
X19699249Y32590923D01*
X19699249Y32590923D02*
X19699249Y33490923D01*
X20627821Y32933780D02*
X21199250Y32933780D01*
X22092107Y32633780D02*
X22199250Y32590923D01*
X22199250Y32590923D02*
X22377821Y32590923D01*
X22377821Y32590923D02*
X22449250Y32633780D01*
X22449250Y32633780D02*
X22484964Y32676638D01*
X22484964Y32676638D02*
X22520678Y32762352D01*
X22520678Y32762352D02*
X22520678Y32848066D01*
X22520678Y32848066D02*
X22484964Y32933780D01*
X22484964Y32933780D02*
X22449250Y32976638D01*
X22449250Y32976638D02*
X22377821Y33019495D01*
X22377821Y33019495D02*
X22234964Y33062352D01*
X22234964Y33062352D02*
X22163535Y33105209D01*
X22163535Y33105209D02*
X22127821Y33148066D01*
X22127821Y33148066D02*
X22092107Y33233780D01*
X22092107Y33233780D02*
X22092107Y33319495D01*
X22092107Y33319495D02*
X22127821Y33405209D01*
X22127821Y33405209D02*
X22163535Y33448066D01*
X22163535Y33448066D02*
X22234964Y33490923D01*
X22234964Y33490923D02*
X22413535Y33490923D01*
X22413535Y33490923D02*
X22520678Y33448066D01*
X22842107Y32590923D02*
X22842107Y33490923D01*
X22842107Y33062352D02*
X23270678Y33062352D01*
X23270678Y32590923D02*
X23270678Y33490923D01*
X23627821Y32590923D02*
X23627821Y33490923D01*
X23984964Y32590923D02*
X23984964Y33490923D01*
X23984964Y33490923D02*
X24270678Y33490923D01*
X24270678Y33490923D02*
X24342107Y33448066D01*
X24342107Y33448066D02*
X24377821Y33405209D01*
X24377821Y33405209D02*
X24413535Y33319495D01*
X24413535Y33319495D02*
X24413535Y33190923D01*
X24413535Y33190923D02*
X24377821Y33105209D01*
X24377821Y33105209D02*
X24342107Y33062352D01*
X24342107Y33062352D02*
X24270678Y33019495D01*
X24270678Y33019495D02*
X23984964Y33019495D01*
X24734964Y32590923D02*
X24734964Y33490923D01*
X24734964Y33490923D02*
X25020678Y33490923D01*
X25020678Y33490923D02*
X25092107Y33448066D01*
X25092107Y33448066D02*
X25127821Y33405209D01*
X25127821Y33405209D02*
X25163535Y33319495D01*
X25163535Y33319495D02*
X25163535Y33190923D01*
X25163535Y33190923D02*
X25127821Y33105209D01*
X25127821Y33105209D02*
X25092107Y33062352D01*
X25092107Y33062352D02*
X25020678Y33019495D01*
X25020678Y33019495D02*
X24734964Y33019495D01*
X25484964Y33062352D02*
X25734964Y33062352D01*
X25842107Y32590923D02*
X25484964Y32590923D01*
X25484964Y32590923D02*
X25484964Y33490923D01*
X25484964Y33490923D02*
X25842107Y33490923D01*
X26163535Y32590923D02*
X26163535Y33490923D01*
X26163535Y33490923D02*
X26342106Y33490923D01*
X26342106Y33490923D02*
X26449249Y33448066D01*
X26449249Y33448066D02*
X26520678Y33362352D01*
X26520678Y33362352D02*
X26556392Y33276638D01*
X26556392Y33276638D02*
X26592106Y33105209D01*
X26592106Y33105209D02*
X26592106Y32976638D01*
X26592106Y32976638D02*
X26556392Y32805209D01*
X26556392Y32805209D02*
X26520678Y32719495D01*
X26520678Y32719495D02*
X26449249Y32633780D01*
X26449249Y32633780D02*
X26342106Y32590923D01*
X26342106Y32590923D02*
X26163535Y32590923D01*
X27484964Y33490923D02*
X27484964Y32762352D01*
X27484964Y32762352D02*
X27520678Y32676638D01*
X27520678Y32676638D02*
X27556393Y32633780D01*
X27556393Y32633780D02*
X27627821Y32590923D01*
X27627821Y32590923D02*
X27770678Y32590923D01*
X27770678Y32590923D02*
X27842107Y32633780D01*
X27842107Y32633780D02*
X27877821Y32676638D01*
X27877821Y32676638D02*
X27913535Y32762352D01*
X27913535Y32762352D02*
X27913535Y33490923D01*
X28270678Y32590923D02*
X28270678Y33490923D01*
X28270678Y33490923D02*
X28699249Y32590923D01*
X28699249Y32590923D02*
X28699249Y33490923D01*
X29020678Y32633780D02*
X29127821Y32590923D01*
X29127821Y32590923D02*
X29306392Y32590923D01*
X29306392Y32590923D02*
X29377821Y32633780D01*
X29377821Y32633780D02*
X29413535Y32676638D01*
X29413535Y32676638D02*
X29449249Y32762352D01*
X29449249Y32762352D02*
X29449249Y32848066D01*
X29449249Y32848066D02*
X29413535Y32933780D01*
X29413535Y32933780D02*
X29377821Y32976638D01*
X29377821Y32976638D02*
X29306392Y33019495D01*
X29306392Y33019495D02*
X29163535Y33062352D01*
X29163535Y33062352D02*
X29092106Y33105209D01*
X29092106Y33105209D02*
X29056392Y33148066D01*
X29056392Y33148066D02*
X29020678Y33233780D01*
X29020678Y33233780D02*
X29020678Y33319495D01*
X29020678Y33319495D02*
X29056392Y33405209D01*
X29056392Y33405209D02*
X29092106Y33448066D01*
X29092106Y33448066D02*
X29163535Y33490923D01*
X29163535Y33490923D02*
X29342106Y33490923D01*
X29342106Y33490923D02*
X29449249Y33448066D01*
X29663535Y33490923D02*
X30092107Y33490923D01*
X29877821Y32590923D02*
X29877821Y33490923D01*
X30342107Y33490923D02*
X30342107Y32762352D01*
X30342107Y32762352D02*
X30377821Y32676638D01*
X30377821Y32676638D02*
X30413536Y32633780D01*
X30413536Y32633780D02*
X30484964Y32590923D01*
X30484964Y32590923D02*
X30627821Y32590923D01*
X30627821Y32590923D02*
X30699250Y32633780D01*
X30699250Y32633780D02*
X30734964Y32676638D01*
X30734964Y32676638D02*
X30770678Y32762352D01*
X30770678Y32762352D02*
X30770678Y33490923D01*
X31377821Y33062352D02*
X31127821Y33062352D01*
X31127821Y32590923D02*
X31127821Y33490923D01*
X31127821Y33490923D02*
X31484964Y33490923D01*
X32020678Y33062352D02*
X31770678Y33062352D01*
X31770678Y32590923D02*
X31770678Y33490923D01*
X31770678Y33490923D02*
X32127821Y33490923D01*
X32413535Y33062352D02*
X32663535Y33062352D01*
X32770678Y32590923D02*
X32413535Y32590923D01*
X32413535Y32590923D02*
X32413535Y33490923D01*
X32413535Y33490923D02*
X32770678Y33490923D01*
X33092106Y32590923D02*
X33092106Y33490923D01*
X33092106Y33490923D02*
X33270677Y33490923D01*
X33270677Y33490923D02*
X33377820Y33448066D01*
X33377820Y33448066D02*
X33449249Y33362352D01*
X33449249Y33362352D02*
X33484963Y33276638D01*
X33484963Y33276638D02*
X33520677Y33105209D01*
X33520677Y33105209D02*
X33520677Y32976638D01*
X33520677Y32976638D02*
X33484963Y32805209D01*
X33484963Y32805209D02*
X33449249Y32719495D01*
X33449249Y32719495D02*
X33377820Y32633780D01*
X33377820Y32633780D02*
X33270677Y32590923D01*
X33270677Y32590923D02*
X33092106Y32590923D01*
D13*
X7257142Y41763774D02*
X7942857Y41763774D01*
X7599999Y40363774D02*
X7599999Y41763774D01*
X8971428Y40363774D02*
X8285714Y40363774D01*
X8628571Y40363774D02*
X8628571Y41763774D01*
X8628571Y41763774D02*
X8514285Y41563774D01*
X8514285Y41563774D02*
X8400000Y41430440D01*
X8400000Y41430440D02*
X8285714Y41363774D01*
X9428571Y40430440D02*
X9600000Y40363774D01*
X9600000Y40363774D02*
X9885714Y40363774D01*
X9885714Y40363774D02*
X10000000Y40430440D01*
X10000000Y40430440D02*
X10057142Y40497107D01*
X10057142Y40497107D02*
X10114285Y40630440D01*
X10114285Y40630440D02*
X10114285Y40763774D01*
X10114285Y40763774D02*
X10057142Y40897107D01*
X10057142Y40897107D02*
X10000000Y40963774D01*
X10000000Y40963774D02*
X9885714Y41030440D01*
X9885714Y41030440D02*
X9657142Y41097107D01*
X9657142Y41097107D02*
X9542857Y41163774D01*
X9542857Y41163774D02*
X9485714Y41230440D01*
X9485714Y41230440D02*
X9428571Y41363774D01*
X9428571Y41363774D02*
X9428571Y41497107D01*
X9428571Y41497107D02*
X9485714Y41630440D01*
X9485714Y41630440D02*
X9542857Y41697107D01*
X9542857Y41697107D02*
X9657142Y41763774D01*
X9657142Y41763774D02*
X9942857Y41763774D01*
X9942857Y41763774D02*
X10114285Y41697107D01*
X11942857Y41097107D02*
X12114285Y41030440D01*
X12114285Y41030440D02*
X12171428Y40963774D01*
X12171428Y40963774D02*
X12228571Y40830440D01*
X12228571Y40830440D02*
X12228571Y40630440D01*
X12228571Y40630440D02*
X12171428Y40497107D01*
X12171428Y40497107D02*
X12114285Y40430440D01*
X12114285Y40430440D02*
X12000000Y40363774D01*
X12000000Y40363774D02*
X11542857Y40363774D01*
X11542857Y40363774D02*
X11542857Y41763774D01*
X11542857Y41763774D02*
X11942857Y41763774D01*
X11942857Y41763774D02*
X12057143Y41697107D01*
X12057143Y41697107D02*
X12114285Y41630440D01*
X12114285Y41630440D02*
X12171428Y41497107D01*
X12171428Y41497107D02*
X12171428Y41363774D01*
X12171428Y41363774D02*
X12114285Y41230440D01*
X12114285Y41230440D02*
X12057143Y41163774D01*
X12057143Y41163774D02*
X11942857Y41097107D01*
X11942857Y41097107D02*
X11542857Y41097107D01*
X12742857Y41763774D02*
X12742857Y40630440D01*
X12742857Y40630440D02*
X12800000Y40497107D01*
X12800000Y40497107D02*
X12857143Y40430440D01*
X12857143Y40430440D02*
X12971428Y40363774D01*
X12971428Y40363774D02*
X13200000Y40363774D01*
X13200000Y40363774D02*
X13314285Y40430440D01*
X13314285Y40430440D02*
X13371428Y40497107D01*
X13371428Y40497107D02*
X13428571Y40630440D01*
X13428571Y40630440D02*
X13428571Y41763774D01*
X13942857Y40430440D02*
X14114286Y40363774D01*
X14114286Y40363774D02*
X14400000Y40363774D01*
X14400000Y40363774D02*
X14514286Y40430440D01*
X14514286Y40430440D02*
X14571428Y40497107D01*
X14571428Y40497107D02*
X14628571Y40630440D01*
X14628571Y40630440D02*
X14628571Y40763774D01*
X14628571Y40763774D02*
X14571428Y40897107D01*
X14571428Y40897107D02*
X14514286Y40963774D01*
X14514286Y40963774D02*
X14400000Y41030440D01*
X14400000Y41030440D02*
X14171428Y41097107D01*
X14171428Y41097107D02*
X14057143Y41163774D01*
X14057143Y41163774D02*
X14000000Y41230440D01*
X14000000Y41230440D02*
X13942857Y41363774D01*
X13942857Y41363774D02*
X13942857Y41497107D01*
X13942857Y41497107D02*
X14000000Y41630440D01*
X14000000Y41630440D02*
X14057143Y41697107D01*
X14057143Y41697107D02*
X14171428Y41763774D01*
X14171428Y41763774D02*
X14457143Y41763774D01*
X14457143Y41763774D02*
X14628571Y41697107D01*
D14*
X26000000Y48018552D02*
X26685715Y48018552D01*
X26342857Y46518552D02*
X26342857Y48018552D01*
X27714286Y46518552D02*
X27028572Y46518552D01*
X27371429Y46518552D02*
X27371429Y48018552D01*
X27371429Y48018552D02*
X27257143Y47804266D01*
X27257143Y47804266D02*
X27142858Y47661409D01*
X27142858Y47661409D02*
X27028572Y47589980D01*
X28171429Y46589980D02*
X28342858Y46518552D01*
X28342858Y46518552D02*
X28628572Y46518552D01*
X28628572Y46518552D02*
X28742858Y46589980D01*
X28742858Y46589980D02*
X28800000Y46661409D01*
X28800000Y46661409D02*
X28857143Y46804266D01*
X28857143Y46804266D02*
X28857143Y46947123D01*
X28857143Y46947123D02*
X28800000Y47089980D01*
X28800000Y47089980D02*
X28742858Y47161409D01*
X28742858Y47161409D02*
X28628572Y47232838D01*
X28628572Y47232838D02*
X28400000Y47304266D01*
X28400000Y47304266D02*
X28285715Y47375695D01*
X28285715Y47375695D02*
X28228572Y47447123D01*
X28228572Y47447123D02*
X28171429Y47589980D01*
X28171429Y47589980D02*
X28171429Y47732838D01*
X28171429Y47732838D02*
X28228572Y47875695D01*
X28228572Y47875695D02*
X28285715Y47947123D01*
X28285715Y47947123D02*
X28400000Y48018552D01*
X28400000Y48018552D02*
X28685715Y48018552D01*
X28685715Y48018552D02*
X28857143Y47947123D01*
X30285715Y46518552D02*
X30285715Y48018552D01*
X30285715Y47304266D02*
X30971429Y47304266D01*
X30971429Y46518552D02*
X30971429Y48018552D01*
X31485715Y46947123D02*
X32057144Y46947123D01*
X31371429Y46518552D02*
X31771429Y48018552D01*
X31771429Y48018552D02*
X32171429Y46518552D01*
X32400000Y48018552D02*
X33085715Y48018552D01*
X32742857Y46518552D02*
X32742857Y48018552D01*
X35885715Y46518552D02*
X35314287Y46518552D01*
X35314287Y46518552D02*
X35314287Y48018552D01*
X36228573Y46947123D02*
X36800002Y46947123D01*
X36114287Y46518552D02*
X36514287Y48018552D01*
X36514287Y48018552D02*
X36914287Y46518552D01*
X37314287Y46518552D02*
X37314287Y48018552D01*
X37314287Y48018552D02*
X38000001Y46518552D01*
X38000001Y46518552D02*
X38000001Y48018552D01*
X38742858Y47375695D02*
X38628573Y47447123D01*
X38628573Y47447123D02*
X38571430Y47518552D01*
X38571430Y47518552D02*
X38514287Y47661409D01*
X38514287Y47661409D02*
X38514287Y47732838D01*
X38514287Y47732838D02*
X38571430Y47875695D01*
X38571430Y47875695D02*
X38628573Y47947123D01*
X38628573Y47947123D02*
X38742858Y48018552D01*
X38742858Y48018552D02*
X38971430Y48018552D01*
X38971430Y48018552D02*
X39085716Y47947123D01*
X39085716Y47947123D02*
X39142858Y47875695D01*
X39142858Y47875695D02*
X39200001Y47732838D01*
X39200001Y47732838D02*
X39200001Y47661409D01*
X39200001Y47661409D02*
X39142858Y47518552D01*
X39142858Y47518552D02*
X39085716Y47447123D01*
X39085716Y47447123D02*
X38971430Y47375695D01*
X38971430Y47375695D02*
X38742858Y47375695D01*
X38742858Y47375695D02*
X38628573Y47304266D01*
X38628573Y47304266D02*
X38571430Y47232838D01*
X38571430Y47232838D02*
X38514287Y47089980D01*
X38514287Y47089980D02*
X38514287Y46804266D01*
X38514287Y46804266D02*
X38571430Y46661409D01*
X38571430Y46661409D02*
X38628573Y46589980D01*
X38628573Y46589980D02*
X38742858Y46518552D01*
X38742858Y46518552D02*
X38971430Y46518552D01*
X38971430Y46518552D02*
X39085716Y46589980D01*
X39085716Y46589980D02*
X39142858Y46661409D01*
X39142858Y46661409D02*
X39200001Y46804266D01*
X39200001Y46804266D02*
X39200001Y47089980D01*
X39200001Y47089980D02*
X39142858Y47232838D01*
X39142858Y47232838D02*
X39085716Y47304266D01*
X39085716Y47304266D02*
X38971430Y47375695D01*
X40228573Y48018552D02*
X40000001Y48018552D01*
X40000001Y48018552D02*
X39885715Y47947123D01*
X39885715Y47947123D02*
X39828573Y47875695D01*
X39828573Y47875695D02*
X39714287Y47661409D01*
X39714287Y47661409D02*
X39657144Y47375695D01*
X39657144Y47375695D02*
X39657144Y46804266D01*
X39657144Y46804266D02*
X39714287Y46661409D01*
X39714287Y46661409D02*
X39771430Y46589980D01*
X39771430Y46589980D02*
X39885715Y46518552D01*
X39885715Y46518552D02*
X40114287Y46518552D01*
X40114287Y46518552D02*
X40228573Y46589980D01*
X40228573Y46589980D02*
X40285715Y46661409D01*
X40285715Y46661409D02*
X40342858Y46804266D01*
X40342858Y46804266D02*
X40342858Y47161409D01*
X40342858Y47161409D02*
X40285715Y47304266D01*
X40285715Y47304266D02*
X40228573Y47375695D01*
X40228573Y47375695D02*
X40114287Y47447123D01*
X40114287Y47447123D02*
X39885715Y47447123D01*
X39885715Y47447123D02*
X39771430Y47375695D01*
X39771430Y47375695D02*
X39714287Y47304266D01*
X39714287Y47304266D02*
X39657144Y47161409D01*
X41428572Y48018552D02*
X40857144Y48018552D01*
X40857144Y48018552D02*
X40800001Y47304266D01*
X40800001Y47304266D02*
X40857144Y47375695D01*
X40857144Y47375695D02*
X40971430Y47447123D01*
X40971430Y47447123D02*
X41257144Y47447123D01*
X41257144Y47447123D02*
X41371430Y47375695D01*
X41371430Y47375695D02*
X41428572Y47304266D01*
X41428572Y47304266D02*
X41485715Y47161409D01*
X41485715Y47161409D02*
X41485715Y46804266D01*
X41485715Y46804266D02*
X41428572Y46661409D01*
X41428572Y46661409D02*
X41371430Y46589980D01*
X41371430Y46589980D02*
X41257144Y46518552D01*
X41257144Y46518552D02*
X40971430Y46518552D01*
X40971430Y46518552D02*
X40857144Y46589980D01*
X40857144Y46589980D02*
X40800001Y46661409D01*
X42628572Y46518552D02*
X41942858Y46518552D01*
X42285715Y46518552D02*
X42285715Y48018552D01*
X42285715Y48018552D02*
X42171429Y47804266D01*
X42171429Y47804266D02*
X42057144Y47661409D01*
X42057144Y47661409D02*
X41942858Y47589980D01*
X45600001Y46518552D02*
X44914287Y46518552D01*
X45257144Y46518552D02*
X45257144Y48018552D01*
X45257144Y48018552D02*
X45142858Y47804266D01*
X45142858Y47804266D02*
X45028573Y47661409D01*
X45028573Y47661409D02*
X44914287Y47589980D01*
X46342858Y48018552D02*
X46457144Y48018552D01*
X46457144Y48018552D02*
X46571430Y47947123D01*
X46571430Y47947123D02*
X46628573Y47875695D01*
X46628573Y47875695D02*
X46685715Y47732838D01*
X46685715Y47732838D02*
X46742858Y47447123D01*
X46742858Y47447123D02*
X46742858Y47089980D01*
X46742858Y47089980D02*
X46685715Y46804266D01*
X46685715Y46804266D02*
X46628573Y46661409D01*
X46628573Y46661409D02*
X46571430Y46589980D01*
X46571430Y46589980D02*
X46457144Y46518552D01*
X46457144Y46518552D02*
X46342858Y46518552D01*
X46342858Y46518552D02*
X46228573Y46589980D01*
X46228573Y46589980D02*
X46171430Y46661409D01*
X46171430Y46661409D02*
X46114287Y46804266D01*
X46114287Y46804266D02*
X46057144Y47089980D01*
X46057144Y47089980D02*
X46057144Y47447123D01*
X46057144Y47447123D02*
X46114287Y47732838D01*
X46114287Y47732838D02*
X46171430Y47875695D01*
X46171430Y47875695D02*
X46228573Y47947123D01*
X46228573Y47947123D02*
X46342858Y48018552D01*
X47657144Y47304266D02*
X47828572Y47232838D01*
X47828572Y47232838D02*
X47885715Y47161409D01*
X47885715Y47161409D02*
X47942858Y47018552D01*
X47942858Y47018552D02*
X47942858Y46804266D01*
X47942858Y46804266D02*
X47885715Y46661409D01*
X47885715Y46661409D02*
X47828572Y46589980D01*
X47828572Y46589980D02*
X47714287Y46518552D01*
X47714287Y46518552D02*
X47257144Y46518552D01*
X47257144Y46518552D02*
X47257144Y48018552D01*
X47257144Y48018552D02*
X47657144Y48018552D01*
X47657144Y48018552D02*
X47771430Y47947123D01*
X47771430Y47947123D02*
X47828572Y47875695D01*
X47828572Y47875695D02*
X47885715Y47732838D01*
X47885715Y47732838D02*
X47885715Y47589980D01*
X47885715Y47589980D02*
X47828572Y47447123D01*
X47828572Y47447123D02*
X47771430Y47375695D01*
X47771430Y47375695D02*
X47657144Y47304266D01*
X47657144Y47304266D02*
X47257144Y47304266D01*
X48400001Y46947123D02*
X48971430Y46947123D01*
X48285715Y46518552D02*
X48685715Y48018552D01*
X48685715Y48018552D02*
X49085715Y46518552D01*
X49428572Y46589980D02*
X49600001Y46518552D01*
X49600001Y46518552D02*
X49885715Y46518552D01*
X49885715Y46518552D02*
X50000001Y46589980D01*
X50000001Y46589980D02*
X50057143Y46661409D01*
X50057143Y46661409D02*
X50114286Y46804266D01*
X50114286Y46804266D02*
X50114286Y46947123D01*
X50114286Y46947123D02*
X50057143Y47089980D01*
X50057143Y47089980D02*
X50000001Y47161409D01*
X50000001Y47161409D02*
X49885715Y47232838D01*
X49885715Y47232838D02*
X49657143Y47304266D01*
X49657143Y47304266D02*
X49542858Y47375695D01*
X49542858Y47375695D02*
X49485715Y47447123D01*
X49485715Y47447123D02*
X49428572Y47589980D01*
X49428572Y47589980D02*
X49428572Y47732838D01*
X49428572Y47732838D02*
X49485715Y47875695D01*
X49485715Y47875695D02*
X49542858Y47947123D01*
X49542858Y47947123D02*
X49657143Y48018552D01*
X49657143Y48018552D02*
X49942858Y48018552D01*
X49942858Y48018552D02*
X50114286Y47947123D01*
X50628572Y47304266D02*
X51028572Y47304266D01*
X51200000Y46518552D02*
X50628572Y46518552D01*
X50628572Y46518552D02*
X50628572Y48018552D01*
X50628572Y48018552D02*
X51200000Y48018552D01*
X51714286Y47089980D02*
X52628572Y47089980D01*
X53028571Y48018552D02*
X53714286Y48018552D01*
X53371428Y46518552D02*
X53371428Y48018552D01*
X54742857Y46518552D02*
X54057143Y46518552D01*
X54400000Y46518552D02*
X54400000Y48018552D01*
X54400000Y48018552D02*
X54285714Y47804266D01*
X54285714Y47804266D02*
X54171429Y47661409D01*
X54171429Y47661409D02*
X54057143Y47589980D01*
X55200000Y46589980D02*
X55371429Y46518552D01*
X55371429Y46518552D02*
X55657143Y46518552D01*
X55657143Y46518552D02*
X55771429Y46589980D01*
X55771429Y46589980D02*
X55828571Y46661409D01*
X55828571Y46661409D02*
X55885714Y46804266D01*
X55885714Y46804266D02*
X55885714Y46947123D01*
X55885714Y46947123D02*
X55828571Y47089980D01*
X55828571Y47089980D02*
X55771429Y47161409D01*
X55771429Y47161409D02*
X55657143Y47232838D01*
X55657143Y47232838D02*
X55428571Y47304266D01*
X55428571Y47304266D02*
X55314286Y47375695D01*
X55314286Y47375695D02*
X55257143Y47447123D01*
X55257143Y47447123D02*
X55200000Y47589980D01*
X55200000Y47589980D02*
X55200000Y47732838D01*
X55200000Y47732838D02*
X55257143Y47875695D01*
X55257143Y47875695D02*
X55314286Y47947123D01*
X55314286Y47947123D02*
X55428571Y48018552D01*
X55428571Y48018552D02*
X55714286Y48018552D01*
X55714286Y48018552D02*
X55885714Y47947123D01*
D12*
X60609077Y26339287D02*
X59709077Y26339287D01*
X60609077Y26767858D02*
X60094791Y26446430D01*
X59709077Y26767858D02*
X60223362Y26339287D01*
X60137648Y27089287D02*
X60137648Y27339287D01*
X60609077Y27446430D02*
X60609077Y27089287D01*
X60609077Y27089287D02*
X59709077Y27089287D01*
X59709077Y27089287D02*
X59709077Y27446430D01*
X60137648Y27767858D02*
X60137648Y28017858D01*
X60609077Y28125001D02*
X60609077Y27767858D01*
X60609077Y27767858D02*
X59709077Y27767858D01*
X59709077Y27767858D02*
X59709077Y28125001D01*
X60609077Y28446429D02*
X59709077Y28446429D01*
X59709077Y28446429D02*
X59709077Y28732143D01*
X59709077Y28732143D02*
X59751934Y28803572D01*
X59751934Y28803572D02*
X59794791Y28839286D01*
X59794791Y28839286D02*
X59880505Y28875000D01*
X59880505Y28875000D02*
X60009077Y28875000D01*
X60009077Y28875000D02*
X60094791Y28839286D01*
X60094791Y28839286D02*
X60137648Y28803572D01*
X60137648Y28803572D02*
X60180505Y28732143D01*
X60180505Y28732143D02*
X60180505Y28446429D01*
X59709077Y29339286D02*
X59709077Y29482143D01*
X59709077Y29482143D02*
X59751934Y29553572D01*
X59751934Y29553572D02*
X59837648Y29625000D01*
X59837648Y29625000D02*
X60009077Y29660715D01*
X60009077Y29660715D02*
X60309077Y29660715D01*
X60309077Y29660715D02*
X60480505Y29625000D01*
X60480505Y29625000D02*
X60566220Y29553572D01*
X60566220Y29553572D02*
X60609077Y29482143D01*
X60609077Y29482143D02*
X60609077Y29339286D01*
X60609077Y29339286D02*
X60566220Y29267857D01*
X60566220Y29267857D02*
X60480505Y29196429D01*
X60480505Y29196429D02*
X60309077Y29160715D01*
X60309077Y29160715D02*
X60009077Y29160715D01*
X60009077Y29160715D02*
X59837648Y29196429D01*
X59837648Y29196429D02*
X59751934Y29267857D01*
X59751934Y29267857D02*
X59709077Y29339286D01*
X59709077Y29982143D02*
X60437648Y29982143D01*
X60437648Y29982143D02*
X60523362Y30017857D01*
X60523362Y30017857D02*
X60566220Y30053571D01*
X60566220Y30053571D02*
X60609077Y30125000D01*
X60609077Y30125000D02*
X60609077Y30267857D01*
X60609077Y30267857D02*
X60566220Y30339286D01*
X60566220Y30339286D02*
X60523362Y30375000D01*
X60523362Y30375000D02*
X60437648Y30410714D01*
X60437648Y30410714D02*
X59709077Y30410714D01*
X59709077Y30660714D02*
X59709077Y31089285D01*
X60609077Y30875000D02*
X59709077Y30875000D01*
X60266220Y31910715D02*
X60266220Y32482143D01*
X60609077Y33410715D02*
X59709077Y33410715D01*
X59709077Y33410715D02*
X60609077Y33839286D01*
X60609077Y33839286D02*
X59709077Y33839286D01*
X59709077Y34339286D02*
X59709077Y34482143D01*
X59709077Y34482143D02*
X59751934Y34553572D01*
X59751934Y34553572D02*
X59837648Y34625000D01*
X59837648Y34625000D02*
X60009077Y34660715D01*
X60009077Y34660715D02*
X60309077Y34660715D01*
X60309077Y34660715D02*
X60480505Y34625000D01*
X60480505Y34625000D02*
X60566220Y34553572D01*
X60566220Y34553572D02*
X60609077Y34482143D01*
X60609077Y34482143D02*
X60609077Y34339286D01*
X60609077Y34339286D02*
X60566220Y34267857D01*
X60566220Y34267857D02*
X60480505Y34196429D01*
X60480505Y34196429D02*
X60309077Y34160715D01*
X60309077Y34160715D02*
X60009077Y34160715D01*
X60009077Y34160715D02*
X59837648Y34196429D01*
X59837648Y34196429D02*
X59751934Y34267857D01*
X59751934Y34267857D02*
X59709077Y34339286D01*
X60523362Y35982143D02*
X60566220Y35946429D01*
X60566220Y35946429D02*
X60609077Y35839286D01*
X60609077Y35839286D02*
X60609077Y35767858D01*
X60609077Y35767858D02*
X60566220Y35660715D01*
X60566220Y35660715D02*
X60480505Y35589286D01*
X60480505Y35589286D02*
X60394791Y35553572D01*
X60394791Y35553572D02*
X60223362Y35517858D01*
X60223362Y35517858D02*
X60094791Y35517858D01*
X60094791Y35517858D02*
X59923362Y35553572D01*
X59923362Y35553572D02*
X59837648Y35589286D01*
X59837648Y35589286D02*
X59751934Y35660715D01*
X59751934Y35660715D02*
X59709077Y35767858D01*
X59709077Y35767858D02*
X59709077Y35839286D01*
X59709077Y35839286D02*
X59751934Y35946429D01*
X59751934Y35946429D02*
X59794791Y35982143D01*
X59709077Y36446429D02*
X59709077Y36589286D01*
X59709077Y36589286D02*
X59751934Y36660715D01*
X59751934Y36660715D02*
X59837648Y36732143D01*
X59837648Y36732143D02*
X60009077Y36767858D01*
X60009077Y36767858D02*
X60309077Y36767858D01*
X60309077Y36767858D02*
X60480505Y36732143D01*
X60480505Y36732143D02*
X60566220Y36660715D01*
X60566220Y36660715D02*
X60609077Y36589286D01*
X60609077Y36589286D02*
X60609077Y36446429D01*
X60609077Y36446429D02*
X60566220Y36375000D01*
X60566220Y36375000D02*
X60480505Y36303572D01*
X60480505Y36303572D02*
X60309077Y36267858D01*
X60309077Y36267858D02*
X60009077Y36267858D01*
X60009077Y36267858D02*
X59837648Y36303572D01*
X59837648Y36303572D02*
X59751934Y36375000D01*
X59751934Y36375000D02*
X59709077Y36446429D01*
X60609077Y37089286D02*
X59709077Y37089286D01*
X59709077Y37089286D02*
X59709077Y37375000D01*
X59709077Y37375000D02*
X59751934Y37446429D01*
X59751934Y37446429D02*
X59794791Y37482143D01*
X59794791Y37482143D02*
X59880505Y37517857D01*
X59880505Y37517857D02*
X60009077Y37517857D01*
X60009077Y37517857D02*
X60094791Y37482143D01*
X60094791Y37482143D02*
X60137648Y37446429D01*
X60137648Y37446429D02*
X60180505Y37375000D01*
X60180505Y37375000D02*
X60180505Y37089286D01*
X60609077Y37839286D02*
X59709077Y37839286D01*
X59709077Y37839286D02*
X59709077Y38125000D01*
X59709077Y38125000D02*
X59751934Y38196429D01*
X59751934Y38196429D02*
X59794791Y38232143D01*
X59794791Y38232143D02*
X59880505Y38267857D01*
X59880505Y38267857D02*
X60009077Y38267857D01*
X60009077Y38267857D02*
X60094791Y38232143D01*
X60094791Y38232143D02*
X60137648Y38196429D01*
X60137648Y38196429D02*
X60180505Y38125000D01*
X60180505Y38125000D02*
X60180505Y37839286D01*
X60137648Y38589286D02*
X60137648Y38839286D01*
X60609077Y38946429D02*
X60609077Y38589286D01*
X60609077Y38589286D02*
X59709077Y38589286D01*
X59709077Y38589286D02*
X59709077Y38946429D01*
X60609077Y39696428D02*
X60180505Y39446428D01*
X60609077Y39267857D02*
X59709077Y39267857D01*
X59709077Y39267857D02*
X59709077Y39553571D01*
X59709077Y39553571D02*
X59751934Y39625000D01*
X59751934Y39625000D02*
X59794791Y39660714D01*
X59794791Y39660714D02*
X59880505Y39696428D01*
X59880505Y39696428D02*
X60009077Y39696428D01*
X60009077Y39696428D02*
X60094791Y39660714D01*
X60094791Y39660714D02*
X60137648Y39625000D01*
X60137648Y39625000D02*
X60180505Y39553571D01*
X60180505Y39553571D02*
X60180505Y39267857D01*
D13*
X19186904Y38310036D02*
X19186904Y39610036D01*
X19186904Y39610036D02*
X19605952Y39610036D01*
X19605952Y39610036D02*
X19710714Y39548131D01*
X19710714Y39548131D02*
X19763095Y39486226D01*
X19763095Y39486226D02*
X19815476Y39362417D01*
X19815476Y39362417D02*
X19815476Y39176702D01*
X19815476Y39176702D02*
X19763095Y39052893D01*
X19763095Y39052893D02*
X19710714Y38990988D01*
X19710714Y38990988D02*
X19605952Y38929083D01*
X19605952Y38929083D02*
X19186904Y38929083D01*
D12*
X8270676Y29890923D02*
X8270676Y30790923D01*
X8627819Y29890923D02*
X8627819Y30790923D01*
X8627819Y30790923D02*
X9056390Y29890923D01*
X9056390Y29890923D02*
X9056390Y30790923D01*
X9306390Y30790923D02*
X9734962Y30790923D01*
X9520676Y29890923D02*
X9520676Y30790923D01*
X9984962Y30362352D02*
X10234962Y30362352D01*
X10342105Y29890923D02*
X9984962Y29890923D01*
X9984962Y29890923D02*
X9984962Y30790923D01*
X9984962Y30790923D02*
X10342105Y30790923D01*
X11092104Y29890923D02*
X10842104Y30319495D01*
X10663533Y29890923D02*
X10663533Y30790923D01*
X10663533Y30790923D02*
X10949247Y30790923D01*
X10949247Y30790923D02*
X11020676Y30748066D01*
X11020676Y30748066D02*
X11056390Y30705209D01*
X11056390Y30705209D02*
X11092104Y30619495D01*
X11092104Y30619495D02*
X11092104Y30490923D01*
X11092104Y30490923D02*
X11056390Y30405209D01*
X11056390Y30405209D02*
X11020676Y30362352D01*
X11020676Y30362352D02*
X10949247Y30319495D01*
X10949247Y30319495D02*
X10663533Y30319495D01*
X11413533Y29890923D02*
X11413533Y30790923D01*
X11913533Y30790923D02*
X12056390Y30790923D01*
X12056390Y30790923D02*
X12127819Y30748066D01*
X12127819Y30748066D02*
X12199247Y30662352D01*
X12199247Y30662352D02*
X12234962Y30490923D01*
X12234962Y30490923D02*
X12234962Y30190923D01*
X12234962Y30190923D02*
X12199247Y30019495D01*
X12199247Y30019495D02*
X12127819Y29933780D01*
X12127819Y29933780D02*
X12056390Y29890923D01*
X12056390Y29890923D02*
X11913533Y29890923D01*
X11913533Y29890923D02*
X11842105Y29933780D01*
X11842105Y29933780D02*
X11770676Y30019495D01*
X11770676Y30019495D02*
X11734962Y30190923D01*
X11734962Y30190923D02*
X11734962Y30490923D01*
X11734962Y30490923D02*
X11770676Y30662352D01*
X11770676Y30662352D02*
X11842105Y30748066D01*
X11842105Y30748066D02*
X11913533Y30790923D01*
X12984961Y29890923D02*
X12734961Y30319495D01*
X12556390Y29890923D02*
X12556390Y30790923D01*
X12556390Y30790923D02*
X12842104Y30790923D01*
X12842104Y30790923D02*
X12913533Y30748066D01*
X12913533Y30748066D02*
X12949247Y30705209D01*
X12949247Y30705209D02*
X12984961Y30619495D01*
X12984961Y30619495D02*
X12984961Y30490923D01*
X12984961Y30490923D02*
X12949247Y30405209D01*
X12949247Y30405209D02*
X12913533Y30362352D01*
X12913533Y30362352D02*
X12842104Y30319495D01*
X12842104Y30319495D02*
X12556390Y30319495D01*
X13877819Y29890923D02*
X13877819Y30790923D01*
X13877819Y30790923D02*
X14056390Y30790923D01*
X14056390Y30790923D02*
X14163533Y30748066D01*
X14163533Y30748066D02*
X14234962Y30662352D01*
X14234962Y30662352D02*
X14270676Y30576638D01*
X14270676Y30576638D02*
X14306390Y30405209D01*
X14306390Y30405209D02*
X14306390Y30276638D01*
X14306390Y30276638D02*
X14270676Y30105209D01*
X14270676Y30105209D02*
X14234962Y30019495D01*
X14234962Y30019495D02*
X14163533Y29933780D01*
X14163533Y29933780D02*
X14056390Y29890923D01*
X14056390Y29890923D02*
X13877819Y29890923D01*
X15056390Y29890923D02*
X14806390Y30319495D01*
X14627819Y29890923D02*
X14627819Y30790923D01*
X14627819Y30790923D02*
X14913533Y30790923D01*
X14913533Y30790923D02*
X14984962Y30748066D01*
X14984962Y30748066D02*
X15020676Y30705209D01*
X15020676Y30705209D02*
X15056390Y30619495D01*
X15056390Y30619495D02*
X15056390Y30490923D01*
X15056390Y30490923D02*
X15020676Y30405209D01*
X15020676Y30405209D02*
X14984962Y30362352D01*
X14984962Y30362352D02*
X14913533Y30319495D01*
X14913533Y30319495D02*
X14627819Y30319495D01*
X15520676Y30790923D02*
X15663533Y30790923D01*
X15663533Y30790923D02*
X15734962Y30748066D01*
X15734962Y30748066D02*
X15806390Y30662352D01*
X15806390Y30662352D02*
X15842105Y30490923D01*
X15842105Y30490923D02*
X15842105Y30190923D01*
X15842105Y30190923D02*
X15806390Y30019495D01*
X15806390Y30019495D02*
X15734962Y29933780D01*
X15734962Y29933780D02*
X15663533Y29890923D01*
X15663533Y29890923D02*
X15520676Y29890923D01*
X15520676Y29890923D02*
X15449248Y29933780D01*
X15449248Y29933780D02*
X15377819Y30019495D01*
X15377819Y30019495D02*
X15342105Y30190923D01*
X15342105Y30190923D02*
X15342105Y30490923D01*
X15342105Y30490923D02*
X15377819Y30662352D01*
X15377819Y30662352D02*
X15449248Y30748066D01*
X15449248Y30748066D02*
X15520676Y30790923D01*
X16163533Y29890923D02*
X16163533Y30790923D01*
X16163533Y30790923D02*
X16449247Y30790923D01*
X16449247Y30790923D02*
X16520676Y30748066D01*
X16520676Y30748066D02*
X16556390Y30705209D01*
X16556390Y30705209D02*
X16592104Y30619495D01*
X16592104Y30619495D02*
X16592104Y30490923D01*
X16592104Y30490923D02*
X16556390Y30405209D01*
X16556390Y30405209D02*
X16520676Y30362352D01*
X16520676Y30362352D02*
X16449247Y30319495D01*
X16449247Y30319495D02*
X16163533Y30319495D01*
X17484962Y29976638D02*
X17520676Y29933780D01*
X17520676Y29933780D02*
X17484962Y29890923D01*
X17484962Y29890923D02*
X17449248Y29933780D01*
X17449248Y29933780D02*
X17484962Y29976638D01*
X17484962Y29976638D02*
X17484962Y29890923D01*
X17842105Y29976638D02*
X17877819Y29933780D01*
X17877819Y29933780D02*
X17842105Y29890923D01*
X17842105Y29890923D02*
X17806391Y29933780D01*
X17806391Y29933780D02*
X17842105Y29976638D01*
X17842105Y29976638D02*
X17842105Y29890923D01*
X18199248Y29976638D02*
X18234962Y29933780D01*
X18234962Y29933780D02*
X18199248Y29890923D01*
X18199248Y29890923D02*
X18163534Y29933780D01*
X18163534Y29933780D02*
X18199248Y29976638D01*
X18199248Y29976638D02*
X18199248Y29890923D01*
X18556391Y29976638D02*
X18592105Y29933780D01*
X18592105Y29933780D02*
X18556391Y29890923D01*
X18556391Y29890923D02*
X18520677Y29933780D01*
X18520677Y29933780D02*
X18556391Y29976638D01*
X18556391Y29976638D02*
X18556391Y29890923D01*
X19877820Y29890923D02*
X19449249Y29890923D01*
X19663534Y29890923D02*
X19663534Y30790923D01*
X19663534Y30790923D02*
X19592106Y30662352D01*
X19592106Y30662352D02*
X19520677Y30576638D01*
X19520677Y30576638D02*
X19449249Y30533780D01*
X20199249Y29890923D02*
X20199249Y30790923D01*
X20627820Y29890923D02*
X20306392Y30405209D01*
X20627820Y30790923D02*
X20199249Y30276638D01*
X21306392Y30790923D02*
X20949249Y30790923D01*
X20949249Y30790923D02*
X20913535Y30362352D01*
X20913535Y30362352D02*
X20949249Y30405209D01*
X20949249Y30405209D02*
X21020678Y30448066D01*
X21020678Y30448066D02*
X21199249Y30448066D01*
X21199249Y30448066D02*
X21270678Y30405209D01*
X21270678Y30405209D02*
X21306392Y30362352D01*
X21306392Y30362352D02*
X21342106Y30276638D01*
X21342106Y30276638D02*
X21342106Y30062352D01*
X21342106Y30062352D02*
X21306392Y29976638D01*
X21306392Y29976638D02*
X21270678Y29933780D01*
X21270678Y29933780D02*
X21199249Y29890923D01*
X21199249Y29890923D02*
X21020678Y29890923D01*
X21020678Y29890923D02*
X20949249Y29933780D01*
X20949249Y29933780D02*
X20913535Y29976638D01*
X23770679Y29890923D02*
X23342108Y29890923D01*
X23556393Y29890923D02*
X23556393Y30790923D01*
X23556393Y30790923D02*
X23484965Y30662352D01*
X23484965Y30662352D02*
X23413536Y30576638D01*
X23413536Y30576638D02*
X23342108Y30533780D01*
X24056394Y29890923D02*
X24627822Y30790923D01*
X24163537Y30790923D02*
X24234965Y30748066D01*
X24234965Y30748066D02*
X24270679Y30662352D01*
X24270679Y30662352D02*
X24234965Y30576638D01*
X24234965Y30576638D02*
X24163537Y30533780D01*
X24163537Y30533780D02*
X24092108Y30576638D01*
X24092108Y30576638D02*
X24056394Y30662352D01*
X24056394Y30662352D02*
X24092108Y30748066D01*
X24092108Y30748066D02*
X24163537Y30790923D01*
X24592108Y29933780D02*
X24627822Y30019495D01*
X24627822Y30019495D02*
X24592108Y30105209D01*
X24592108Y30105209D02*
X24520679Y30148066D01*
X24520679Y30148066D02*
X24449251Y30105209D01*
X24449251Y30105209D02*
X24413537Y30019495D01*
X24413537Y30019495D02*
X24449251Y29933780D01*
X24449251Y29933780D02*
X24520679Y29890923D01*
X24520679Y29890923D02*
X24592108Y29933780D01*
D13*
X30616904Y38310036D02*
X30616904Y39610036D01*
X30616904Y39610036D02*
X31035952Y39610036D01*
X31035952Y39610036D02*
X31140714Y39548131D01*
X31140714Y39548131D02*
X31193095Y39486226D01*
X31193095Y39486226D02*
X31245476Y39362417D01*
X31245476Y39362417D02*
X31245476Y39176702D01*
X31245476Y39176702D02*
X31193095Y39052893D01*
X31193095Y39052893D02*
X31140714Y38990988D01*
X31140714Y38990988D02*
X31035952Y38929083D01*
X31035952Y38929083D02*
X30616904Y38929083D01*
D11*
X52085526Y23136665D02*
X51752192Y23136665D01*
X51752192Y23136665D02*
X51752192Y23936665D01*
X52318859Y23555713D02*
X52552193Y23555713D01*
X52652193Y23136665D02*
X52318859Y23136665D01*
X52318859Y23136665D02*
X52318859Y23936665D01*
X52318859Y23936665D02*
X52652193Y23936665D01*
X52952192Y23136665D02*
X52952192Y23936665D01*
X52952192Y23936665D02*
X53118859Y23936665D01*
X53118859Y23936665D02*
X53218859Y23898570D01*
X53218859Y23898570D02*
X53285526Y23822380D01*
X53285526Y23822380D02*
X53318859Y23746189D01*
X53318859Y23746189D02*
X53352192Y23593808D01*
X53352192Y23593808D02*
X53352192Y23479522D01*
X53352192Y23479522D02*
X53318859Y23327141D01*
X53318859Y23327141D02*
X53285526Y23250951D01*
X53285526Y23250951D02*
X53218859Y23174760D01*
X53218859Y23174760D02*
X53118859Y23136665D01*
X53118859Y23136665D02*
X52952192Y23136665D01*
X53785526Y23936665D02*
X53852192Y23936665D01*
X53852192Y23936665D02*
X53918859Y23898570D01*
X53918859Y23898570D02*
X53952192Y23860475D01*
X53952192Y23860475D02*
X53985526Y23784284D01*
X53985526Y23784284D02*
X54018859Y23631903D01*
X54018859Y23631903D02*
X54018859Y23441427D01*
X54018859Y23441427D02*
X53985526Y23289046D01*
X53985526Y23289046D02*
X53952192Y23212856D01*
X53952192Y23212856D02*
X53918859Y23174760D01*
X53918859Y23174760D02*
X53852192Y23136665D01*
X53852192Y23136665D02*
X53785526Y23136665D01*
X53785526Y23136665D02*
X53718859Y23174760D01*
X53718859Y23174760D02*
X53685526Y23212856D01*
X53685526Y23212856D02*
X53652192Y23289046D01*
X53652192Y23289046D02*
X53618859Y23441427D01*
X53618859Y23441427D02*
X53618859Y23631903D01*
X53618859Y23631903D02*
X53652192Y23784284D01*
X53652192Y23784284D02*
X53685526Y23860475D01*
X53685526Y23860475D02*
X53718859Y23898570D01*
X53718859Y23898570D02*
X53785526Y23936665D01*
X54852192Y23136665D02*
X54852192Y23936665D01*
X54852192Y23936665D02*
X55018859Y23936665D01*
X55018859Y23936665D02*
X55118859Y23898570D01*
X55118859Y23898570D02*
X55185526Y23822380D01*
X55185526Y23822380D02*
X55218859Y23746189D01*
X55218859Y23746189D02*
X55252192Y23593808D01*
X55252192Y23593808D02*
X55252192Y23479522D01*
X55252192Y23479522D02*
X55218859Y23327141D01*
X55218859Y23327141D02*
X55185526Y23250951D01*
X55185526Y23250951D02*
X55118859Y23174760D01*
X55118859Y23174760D02*
X55018859Y23136665D01*
X55018859Y23136665D02*
X54852192Y23136665D01*
X55552192Y23136665D02*
X55552192Y23936665D01*
X56018859Y23936665D02*
X56152192Y23936665D01*
X56152192Y23936665D02*
X56218859Y23898570D01*
X56218859Y23898570D02*
X56285525Y23822380D01*
X56285525Y23822380D02*
X56318859Y23669999D01*
X56318859Y23669999D02*
X56318859Y23403332D01*
X56318859Y23403332D02*
X56285525Y23250951D01*
X56285525Y23250951D02*
X56218859Y23174760D01*
X56218859Y23174760D02*
X56152192Y23136665D01*
X56152192Y23136665D02*
X56018859Y23136665D01*
X56018859Y23136665D02*
X55952192Y23174760D01*
X55952192Y23174760D02*
X55885525Y23250951D01*
X55885525Y23250951D02*
X55852192Y23403332D01*
X55852192Y23403332D02*
X55852192Y23669999D01*
X55852192Y23669999D02*
X55885525Y23822380D01*
X55885525Y23822380D02*
X55952192Y23898570D01*
X55952192Y23898570D02*
X56018859Y23936665D01*
X56585525Y23365237D02*
X56918858Y23365237D01*
X56518858Y23136665D02*
X56752192Y23936665D01*
X56752192Y23936665D02*
X56985525Y23136665D01*
X57352192Y23936665D02*
X57418858Y23936665D01*
X57418858Y23936665D02*
X57485525Y23898570D01*
X57485525Y23898570D02*
X57518858Y23860475D01*
X57518858Y23860475D02*
X57552192Y23784284D01*
X57552192Y23784284D02*
X57585525Y23631903D01*
X57585525Y23631903D02*
X57585525Y23441427D01*
X57585525Y23441427D02*
X57552192Y23289046D01*
X57552192Y23289046D02*
X57518858Y23212856D01*
X57518858Y23212856D02*
X57485525Y23174760D01*
X57485525Y23174760D02*
X57418858Y23136665D01*
X57418858Y23136665D02*
X57352192Y23136665D01*
X57352192Y23136665D02*
X57285525Y23174760D01*
X57285525Y23174760D02*
X57252192Y23212856D01*
X57252192Y23212856D02*
X57218858Y23289046D01*
X57218858Y23289046D02*
X57185525Y23441427D01*
X57185525Y23441427D02*
X57185525Y23631903D01*
X57185525Y23631903D02*
X57218858Y23784284D01*
X57218858Y23784284D02*
X57252192Y23860475D01*
X57252192Y23860475D02*
X57285525Y23898570D01*
X57285525Y23898570D02*
X57352192Y23936665D01*
D15*
X33893333Y45412368D02*
X34205714Y45412368D01*
X34010476Y44745701D02*
X34010476Y45602844D01*
X34010476Y45602844D02*
X34049523Y45698082D01*
X34049523Y45698082D02*
X34127618Y45745701D01*
X34127618Y45745701D02*
X34205714Y45745701D01*
X34596189Y44745701D02*
X34518094Y44793320D01*
X34518094Y44793320D02*
X34479047Y44840940D01*
X34479047Y44840940D02*
X34439999Y44936178D01*
X34439999Y44936178D02*
X34439999Y45221892D01*
X34439999Y45221892D02*
X34479047Y45317130D01*
X34479047Y45317130D02*
X34518094Y45364749D01*
X34518094Y45364749D02*
X34596189Y45412368D01*
X34596189Y45412368D02*
X34713332Y45412368D01*
X34713332Y45412368D02*
X34791428Y45364749D01*
X34791428Y45364749D02*
X34830475Y45317130D01*
X34830475Y45317130D02*
X34869523Y45221892D01*
X34869523Y45221892D02*
X34869523Y44936178D01*
X34869523Y44936178D02*
X34830475Y44840940D01*
X34830475Y44840940D02*
X34791428Y44793320D01*
X34791428Y44793320D02*
X34713332Y44745701D01*
X34713332Y44745701D02*
X34596189Y44745701D01*
X35220952Y44745701D02*
X35220952Y45412368D01*
X35220952Y45221892D02*
X35259999Y45317130D01*
X35259999Y45317130D02*
X35299047Y45364749D01*
X35299047Y45364749D02*
X35377142Y45412368D01*
X35377142Y45412368D02*
X35455237Y45412368D01*
X36743809Y44745701D02*
X36353333Y44745701D01*
X36353333Y44745701D02*
X36353333Y45745701D01*
X37017143Y44745701D02*
X37017143Y45412368D01*
X37017143Y45745701D02*
X36978095Y45698082D01*
X36978095Y45698082D02*
X37017143Y45650463D01*
X37017143Y45650463D02*
X37056190Y45698082D01*
X37056190Y45698082D02*
X37017143Y45745701D01*
X37017143Y45745701D02*
X37017143Y45650463D01*
X37524761Y44745701D02*
X37446666Y44793320D01*
X37446666Y44793320D02*
X37407619Y44888559D01*
X37407619Y44888559D02*
X37407619Y45745701D01*
X37759047Y45412368D02*
X37954285Y44745701D01*
X38149524Y45412368D02*
X37954285Y44745701D01*
X37954285Y44745701D02*
X37876190Y44507606D01*
X37876190Y44507606D02*
X37837143Y44459987D01*
X37837143Y44459987D02*
X37759047Y44412368D01*
X38891428Y45698082D02*
X38813333Y45745701D01*
X38813333Y45745701D02*
X38696190Y45745701D01*
X38696190Y45745701D02*
X38579047Y45698082D01*
X38579047Y45698082D02*
X38500952Y45602844D01*
X38500952Y45602844D02*
X38461905Y45507606D01*
X38461905Y45507606D02*
X38422857Y45317130D01*
X38422857Y45317130D02*
X38422857Y45174273D01*
X38422857Y45174273D02*
X38461905Y44983797D01*
X38461905Y44983797D02*
X38500952Y44888559D01*
X38500952Y44888559D02*
X38579047Y44793320D01*
X38579047Y44793320D02*
X38696190Y44745701D01*
X38696190Y44745701D02*
X38774286Y44745701D01*
X38774286Y44745701D02*
X38891428Y44793320D01*
X38891428Y44793320D02*
X38930476Y44840940D01*
X38930476Y44840940D02*
X38930476Y45174273D01*
X38930476Y45174273D02*
X38774286Y45174273D01*
X39438095Y45745701D02*
X39594286Y45745701D01*
X39594286Y45745701D02*
X39672381Y45698082D01*
X39672381Y45698082D02*
X39750476Y45602844D01*
X39750476Y45602844D02*
X39789524Y45412368D01*
X39789524Y45412368D02*
X39789524Y45079035D01*
X39789524Y45079035D02*
X39750476Y44888559D01*
X39750476Y44888559D02*
X39672381Y44793320D01*
X39672381Y44793320D02*
X39594286Y44745701D01*
X39594286Y44745701D02*
X39438095Y44745701D01*
X39438095Y44745701D02*
X39360000Y44793320D01*
X39360000Y44793320D02*
X39281905Y44888559D01*
X39281905Y44888559D02*
X39242857Y45079035D01*
X39242857Y45079035D02*
X39242857Y45412368D01*
X39242857Y45412368D02*
X39281905Y45602844D01*
X39281905Y45602844D02*
X39360000Y45698082D01*
X39360000Y45698082D02*
X39438095Y45745701D01*
X40648572Y45745701D02*
X41117143Y45745701D01*
X40882857Y44745701D02*
X40882857Y45745701D01*
X41390477Y45126654D02*
X42015239Y45126654D01*
X42405715Y45269511D02*
X42679048Y45269511D01*
X42796191Y44745701D02*
X42405715Y44745701D01*
X42405715Y44745701D02*
X42405715Y45745701D01*
X42405715Y45745701D02*
X42796191Y45745701D01*
X43030477Y45745701D02*
X43499048Y45745701D01*
X43264762Y44745701D02*
X43264762Y45745701D01*
X43772382Y44745701D02*
X43772382Y45745701D01*
X43772382Y45269511D02*
X44240953Y45269511D01*
X44240953Y44745701D02*
X44240953Y45745701D01*
X44631430Y45126654D02*
X45256192Y45126654D01*
X45646668Y45269511D02*
X45920001Y45269511D01*
X46037144Y44745701D02*
X45646668Y44745701D01*
X45646668Y44745701D02*
X45646668Y45745701D01*
X45646668Y45745701D02*
X46037144Y45745701D01*
X46505715Y44745701D02*
X46427620Y44793320D01*
X46427620Y44793320D02*
X46388573Y44888559D01*
X46388573Y44888559D02*
X46388573Y45745701D01*
X46818097Y44745701D02*
X46818097Y45412368D01*
X46818097Y45745701D02*
X46779049Y45698082D01*
X46779049Y45698082D02*
X46818097Y45650463D01*
X46818097Y45650463D02*
X46857144Y45698082D01*
X46857144Y45698082D02*
X46818097Y45745701D01*
X46818097Y45745701D02*
X46818097Y45650463D01*
X47091430Y45412368D02*
X47403811Y45412368D01*
X47208573Y45745701D02*
X47208573Y44888559D01*
X47208573Y44888559D02*
X47247620Y44793320D01*
X47247620Y44793320D02*
X47325715Y44745701D01*
X47325715Y44745701D02*
X47403811Y44745701D01*
X47989525Y44793320D02*
X47911429Y44745701D01*
X47911429Y44745701D02*
X47755239Y44745701D01*
X47755239Y44745701D02*
X47677144Y44793320D01*
X47677144Y44793320D02*
X47638096Y44888559D01*
X47638096Y44888559D02*
X47638096Y45269511D01*
X47638096Y45269511D02*
X47677144Y45364749D01*
X47677144Y45364749D02*
X47755239Y45412368D01*
X47755239Y45412368D02*
X47911429Y45412368D01*
X47911429Y45412368D02*
X47989525Y45364749D01*
X47989525Y45364749D02*
X48028572Y45269511D01*
X48028572Y45269511D02*
X48028572Y45174273D01*
X48028572Y45174273D02*
X47638096Y45079035D01*
D16*
X62201885Y31928572D02*
X62201885Y32404762D01*
X62544742Y31833334D02*
X61344742Y32166667D01*
X61344742Y32166667D02*
X62544742Y32500000D01*
X62544742Y32833334D02*
X61344742Y32833334D01*
X61344742Y32833334D02*
X62544742Y33404762D01*
X62544742Y33404762D02*
X61344742Y33404762D01*
X61344742Y33738096D02*
X61344742Y34309524D01*
X62544742Y34023810D02*
X61344742Y34023810D01*
X61916171Y34642858D02*
X61916171Y34976191D01*
X62544742Y35119048D02*
X62544742Y34642858D01*
X62544742Y34642858D02*
X61344742Y34642858D01*
X61344742Y34642858D02*
X61344742Y35119048D01*
X62544742Y35547620D02*
X61344742Y35547620D01*
X61344742Y35547620D02*
X62544742Y36119048D01*
X62544742Y36119048D02*
X61344742Y36119048D01*
X62544742Y36595239D02*
X61344742Y36595239D01*
X61344742Y36595239D02*
X62544742Y37166667D01*
X62544742Y37166667D02*
X61344742Y37166667D01*
X62201885Y37595239D02*
X62201885Y38071429D01*
X62544742Y37500001D02*
X61344742Y37833334D01*
X61344742Y37833334D02*
X62544742Y38166667D01*
D12*
X8270676Y31712352D02*
X8520676Y31712352D01*
X8627819Y31240923D02*
X8270676Y31240923D01*
X8270676Y31240923D02*
X8270676Y32140923D01*
X8270676Y32140923D02*
X8627819Y32140923D01*
X8949247Y31240923D02*
X8949247Y32140923D01*
X8949247Y32140923D02*
X9377818Y31240923D01*
X9377818Y31240923D02*
X9377818Y32140923D01*
X9734961Y31240923D02*
X9734961Y32140923D01*
X9734961Y32140923D02*
X9913532Y32140923D01*
X9913532Y32140923D02*
X10020675Y32098066D01*
X10020675Y32098066D02*
X10092104Y32012352D01*
X10092104Y32012352D02*
X10127818Y31926638D01*
X10127818Y31926638D02*
X10163532Y31755209D01*
X10163532Y31755209D02*
X10163532Y31626638D01*
X10163532Y31626638D02*
X10127818Y31455209D01*
X10127818Y31455209D02*
X10092104Y31369495D01*
X10092104Y31369495D02*
X10020675Y31283780D01*
X10020675Y31283780D02*
X9913532Y31240923D01*
X9913532Y31240923D02*
X9734961Y31240923D01*
X11199247Y32140923D02*
X11342104Y32140923D01*
X11342104Y32140923D02*
X11413533Y32098066D01*
X11413533Y32098066D02*
X11484961Y32012352D01*
X11484961Y32012352D02*
X11520676Y31840923D01*
X11520676Y31840923D02*
X11520676Y31540923D01*
X11520676Y31540923D02*
X11484961Y31369495D01*
X11484961Y31369495D02*
X11413533Y31283780D01*
X11413533Y31283780D02*
X11342104Y31240923D01*
X11342104Y31240923D02*
X11199247Y31240923D01*
X11199247Y31240923D02*
X11127819Y31283780D01*
X11127819Y31283780D02*
X11056390Y31369495D01*
X11056390Y31369495D02*
X11020676Y31540923D01*
X11020676Y31540923D02*
X11020676Y31840923D01*
X11020676Y31840923D02*
X11056390Y32012352D01*
X11056390Y32012352D02*
X11127819Y32098066D01*
X11127819Y32098066D02*
X11199247Y32140923D01*
X12092104Y31712352D02*
X11842104Y31712352D01*
X11842104Y31240923D02*
X11842104Y32140923D01*
X11842104Y32140923D02*
X12199247Y32140923D01*
X13306390Y31712352D02*
X13413533Y31669495D01*
X13413533Y31669495D02*
X13449247Y31626638D01*
X13449247Y31626638D02*
X13484961Y31540923D01*
X13484961Y31540923D02*
X13484961Y31412352D01*
X13484961Y31412352D02*
X13449247Y31326638D01*
X13449247Y31326638D02*
X13413533Y31283780D01*
X13413533Y31283780D02*
X13342104Y31240923D01*
X13342104Y31240923D02*
X13056390Y31240923D01*
X13056390Y31240923D02*
X13056390Y32140923D01*
X13056390Y32140923D02*
X13306390Y32140923D01*
X13306390Y32140923D02*
X13377819Y32098066D01*
X13377819Y32098066D02*
X13413533Y32055209D01*
X13413533Y32055209D02*
X13449247Y31969495D01*
X13449247Y31969495D02*
X13449247Y31883780D01*
X13449247Y31883780D02*
X13413533Y31798066D01*
X13413533Y31798066D02*
X13377819Y31755209D01*
X13377819Y31755209D02*
X13306390Y31712352D01*
X13306390Y31712352D02*
X13056390Y31712352D01*
X13806390Y32140923D02*
X13806390Y31412352D01*
X13806390Y31412352D02*
X13842104Y31326638D01*
X13842104Y31326638D02*
X13877819Y31283780D01*
X13877819Y31283780D02*
X13949247Y31240923D01*
X13949247Y31240923D02*
X14092104Y31240923D01*
X14092104Y31240923D02*
X14163533Y31283780D01*
X14163533Y31283780D02*
X14199247Y31326638D01*
X14199247Y31326638D02*
X14234961Y31412352D01*
X14234961Y31412352D02*
X14234961Y32140923D01*
X14556390Y31283780D02*
X14663533Y31240923D01*
X14663533Y31240923D02*
X14842104Y31240923D01*
X14842104Y31240923D02*
X14913533Y31283780D01*
X14913533Y31283780D02*
X14949247Y31326638D01*
X14949247Y31326638D02*
X14984961Y31412352D01*
X14984961Y31412352D02*
X14984961Y31498066D01*
X14984961Y31498066D02*
X14949247Y31583780D01*
X14949247Y31583780D02*
X14913533Y31626638D01*
X14913533Y31626638D02*
X14842104Y31669495D01*
X14842104Y31669495D02*
X14699247Y31712352D01*
X14699247Y31712352D02*
X14627818Y31755209D01*
X14627818Y31755209D02*
X14592104Y31798066D01*
X14592104Y31798066D02*
X14556390Y31883780D01*
X14556390Y31883780D02*
X14556390Y31969495D01*
X14556390Y31969495D02*
X14592104Y32055209D01*
X14592104Y32055209D02*
X14627818Y32098066D01*
X14627818Y32098066D02*
X14699247Y32140923D01*
X14699247Y32140923D02*
X14877818Y32140923D01*
X14877818Y32140923D02*
X14984961Y32098066D01*
X15877819Y31326638D02*
X15913533Y31283780D01*
X15913533Y31283780D02*
X15877819Y31240923D01*
X15877819Y31240923D02*
X15842105Y31283780D01*
X15842105Y31283780D02*
X15877819Y31326638D01*
X15877819Y31326638D02*
X15877819Y31240923D01*
X16234962Y31326638D02*
X16270676Y31283780D01*
X16270676Y31283780D02*
X16234962Y31240923D01*
X16234962Y31240923D02*
X16199248Y31283780D01*
X16199248Y31283780D02*
X16234962Y31326638D01*
X16234962Y31326638D02*
X16234962Y31240923D01*
X16592105Y31326638D02*
X16627819Y31283780D01*
X16627819Y31283780D02*
X16592105Y31240923D01*
X16592105Y31240923D02*
X16556391Y31283780D01*
X16556391Y31283780D02*
X16592105Y31326638D01*
X16592105Y31326638D02*
X16592105Y31240923D01*
X16949248Y31326638D02*
X16984962Y31283780D01*
X16984962Y31283780D02*
X16949248Y31240923D01*
X16949248Y31240923D02*
X16913534Y31283780D01*
X16913534Y31283780D02*
X16949248Y31326638D01*
X16949248Y31326638D02*
X16949248Y31240923D01*
X17306391Y31326638D02*
X17342105Y31283780D01*
X17342105Y31283780D02*
X17306391Y31240923D01*
X17306391Y31240923D02*
X17270677Y31283780D01*
X17270677Y31283780D02*
X17306391Y31326638D01*
X17306391Y31326638D02*
X17306391Y31240923D01*
X17663534Y31326638D02*
X17699248Y31283780D01*
X17699248Y31283780D02*
X17663534Y31240923D01*
X17663534Y31240923D02*
X17627820Y31283780D01*
X17627820Y31283780D02*
X17663534Y31326638D01*
X17663534Y31326638D02*
X17663534Y31240923D01*
X18020677Y31326638D02*
X18056391Y31283780D01*
X18056391Y31283780D02*
X18020677Y31240923D01*
X18020677Y31240923D02*
X17984963Y31283780D01*
X17984963Y31283780D02*
X18020677Y31326638D01*
X18020677Y31326638D02*
X18020677Y31240923D01*
X19270678Y31840923D02*
X19270678Y31240923D01*
X19092106Y32183780D02*
X18913535Y31540923D01*
X18913535Y31540923D02*
X19377820Y31540923D01*
X19699249Y31240923D02*
X19842106Y31240923D01*
X19842106Y31240923D02*
X19913535Y31283780D01*
X19913535Y31283780D02*
X19949249Y31326638D01*
X19949249Y31326638D02*
X20020678Y31455209D01*
X20020678Y31455209D02*
X20056392Y31626638D01*
X20056392Y31626638D02*
X20056392Y31969495D01*
X20056392Y31969495D02*
X20020678Y32055209D01*
X20020678Y32055209D02*
X19984964Y32098066D01*
X19984964Y32098066D02*
X19913535Y32140923D01*
X19913535Y32140923D02*
X19770678Y32140923D01*
X19770678Y32140923D02*
X19699249Y32098066D01*
X19699249Y32098066D02*
X19663535Y32055209D01*
X19663535Y32055209D02*
X19627821Y31969495D01*
X19627821Y31969495D02*
X19627821Y31755209D01*
X19627821Y31755209D02*
X19663535Y31669495D01*
X19663535Y31669495D02*
X19699249Y31626638D01*
X19699249Y31626638D02*
X19770678Y31583780D01*
X19770678Y31583780D02*
X19913535Y31583780D01*
X19913535Y31583780D02*
X19984964Y31626638D01*
X19984964Y31626638D02*
X20020678Y31669495D01*
X20020678Y31669495D02*
X20056392Y31755209D01*
X20806392Y31240923D02*
X20556392Y31669495D01*
X20377821Y31240923D02*
X20377821Y32140923D01*
X20377821Y32140923D02*
X20663535Y32140923D01*
X20663535Y32140923D02*
X20734964Y32098066D01*
X20734964Y32098066D02*
X20770678Y32055209D01*
X20770678Y32055209D02*
X20806392Y31969495D01*
X20806392Y31969495D02*
X20806392Y31840923D01*
X20806392Y31840923D02*
X20770678Y31755209D01*
X20770678Y31755209D02*
X20734964Y31712352D01*
X20734964Y31712352D02*
X20663535Y31669495D01*
X20663535Y31669495D02*
X20377821Y31669495D01*
X21163535Y31240923D02*
X21306392Y31240923D01*
X21306392Y31240923D02*
X21377821Y31283780D01*
X21377821Y31283780D02*
X21413535Y31326638D01*
X21413535Y31326638D02*
X21484964Y31455209D01*
X21484964Y31455209D02*
X21520678Y31626638D01*
X21520678Y31626638D02*
X21520678Y31969495D01*
X21520678Y31969495D02*
X21484964Y32055209D01*
X21484964Y32055209D02*
X21449250Y32098066D01*
X21449250Y32098066D02*
X21377821Y32140923D01*
X21377821Y32140923D02*
X21234964Y32140923D01*
X21234964Y32140923D02*
X21163535Y32098066D01*
X21163535Y32098066D02*
X21127821Y32055209D01*
X21127821Y32055209D02*
X21092107Y31969495D01*
X21092107Y31969495D02*
X21092107Y31755209D01*
X21092107Y31755209D02*
X21127821Y31669495D01*
X21127821Y31669495D02*
X21163535Y31626638D01*
X21163535Y31626638D02*
X21234964Y31583780D01*
X21234964Y31583780D02*
X21377821Y31583780D01*
X21377821Y31583780D02*
X21449250Y31626638D01*
X21449250Y31626638D02*
X21484964Y31669495D01*
X21484964Y31669495D02*
X21520678Y31755209D01*
X23377822Y31240923D02*
X22949251Y31240923D01*
X23163536Y31240923D02*
X23163536Y32140923D01*
X23163536Y32140923D02*
X23092108Y32012352D01*
X23092108Y32012352D02*
X23020679Y31926638D01*
X23020679Y31926638D02*
X22949251Y31883780D01*
X23663537Y31240923D02*
X24234965Y32140923D01*
X23770680Y32140923D02*
X23842108Y32098066D01*
X23842108Y32098066D02*
X23877822Y32012352D01*
X23877822Y32012352D02*
X23842108Y31926638D01*
X23842108Y31926638D02*
X23770680Y31883780D01*
X23770680Y31883780D02*
X23699251Y31926638D01*
X23699251Y31926638D02*
X23663537Y32012352D01*
X23663537Y32012352D02*
X23699251Y32098066D01*
X23699251Y32098066D02*
X23770680Y32140923D01*
X24199251Y31283780D02*
X24234965Y31369495D01*
X24234965Y31369495D02*
X24199251Y31455209D01*
X24199251Y31455209D02*
X24127822Y31498066D01*
X24127822Y31498066D02*
X24056394Y31455209D01*
X24056394Y31455209D02*
X24020680Y31369495D01*
X24020680Y31369495D02*
X24056394Y31283780D01*
X24056394Y31283780D02*
X24127822Y31240923D01*
X24127822Y31240923D02*
X24199251Y31283780D01*
X26092109Y31240923D02*
X25663538Y31240923D01*
X25877823Y31240923D02*
X25877823Y32140923D01*
X25877823Y32140923D02*
X25806395Y32012352D01*
X25806395Y32012352D02*
X25734966Y31926638D01*
X25734966Y31926638D02*
X25663538Y31883780D01*
X26342109Y32140923D02*
X26520681Y31240923D01*
X26520681Y31240923D02*
X26663538Y31883780D01*
X26663538Y31883780D02*
X26806395Y31240923D01*
X26806395Y31240923D02*
X26984967Y32140923D01*
X8699247Y28540923D02*
X8449247Y28969495D01*
X8270676Y28540923D02*
X8270676Y29440923D01*
X8270676Y29440923D02*
X8556390Y29440923D01*
X8556390Y29440923D02*
X8627819Y29398066D01*
X8627819Y29398066D02*
X8663533Y29355209D01*
X8663533Y29355209D02*
X8699247Y29269495D01*
X8699247Y29269495D02*
X8699247Y29140923D01*
X8699247Y29140923D02*
X8663533Y29055209D01*
X8663533Y29055209D02*
X8627819Y29012352D01*
X8627819Y29012352D02*
X8556390Y28969495D01*
X8556390Y28969495D02*
X8270676Y28969495D01*
X8949247Y29440923D02*
X9413533Y29440923D01*
X9413533Y29440923D02*
X9163533Y29098066D01*
X9163533Y29098066D02*
X9270676Y29098066D01*
X9270676Y29098066D02*
X9342105Y29055209D01*
X9342105Y29055209D02*
X9377819Y29012352D01*
X9377819Y29012352D02*
X9413533Y28926638D01*
X9413533Y28926638D02*
X9413533Y28712352D01*
X9413533Y28712352D02*
X9377819Y28626638D01*
X9377819Y28626638D02*
X9342105Y28583780D01*
X9342105Y28583780D02*
X9270676Y28540923D01*
X9270676Y28540923D02*
X9056390Y28540923D01*
X9056390Y28540923D02*
X8984962Y28583780D01*
X8984962Y28583780D02*
X8949247Y28626638D01*
X10270676Y29483780D02*
X9627819Y28326638D01*
X10949247Y28626638D02*
X10913533Y28583780D01*
X10913533Y28583780D02*
X10806390Y28540923D01*
X10806390Y28540923D02*
X10734962Y28540923D01*
X10734962Y28540923D02*
X10627819Y28583780D01*
X10627819Y28583780D02*
X10556390Y28669495D01*
X10556390Y28669495D02*
X10520676Y28755209D01*
X10520676Y28755209D02*
X10484962Y28926638D01*
X10484962Y28926638D02*
X10484962Y29055209D01*
X10484962Y29055209D02*
X10520676Y29226638D01*
X10520676Y29226638D02*
X10556390Y29312352D01*
X10556390Y29312352D02*
X10627819Y29398066D01*
X10627819Y29398066D02*
X10734962Y29440923D01*
X10734962Y29440923D02*
X10806390Y29440923D01*
X10806390Y29440923D02*
X10913533Y29398066D01*
X10913533Y29398066D02*
X10949247Y29355209D01*
X11199247Y29440923D02*
X11663533Y29440923D01*
X11663533Y29440923D02*
X11413533Y29098066D01*
X11413533Y29098066D02*
X11520676Y29098066D01*
X11520676Y29098066D02*
X11592105Y29055209D01*
X11592105Y29055209D02*
X11627819Y29012352D01*
X11627819Y29012352D02*
X11663533Y28926638D01*
X11663533Y28926638D02*
X11663533Y28712352D01*
X11663533Y28712352D02*
X11627819Y28626638D01*
X11627819Y28626638D02*
X11592105Y28583780D01*
X11592105Y28583780D02*
X11520676Y28540923D01*
X11520676Y28540923D02*
X11306390Y28540923D01*
X11306390Y28540923D02*
X11234962Y28583780D01*
X11234962Y28583780D02*
X11199247Y28626638D01*
X12877820Y28583780D02*
X12806391Y28540923D01*
X12806391Y28540923D02*
X12663534Y28540923D01*
X12663534Y28540923D02*
X12592105Y28583780D01*
X12592105Y28583780D02*
X12556391Y28626638D01*
X12556391Y28626638D02*
X12520677Y28712352D01*
X12520677Y28712352D02*
X12520677Y28969495D01*
X12520677Y28969495D02*
X12556391Y29055209D01*
X12556391Y29055209D02*
X12592105Y29098066D01*
X12592105Y29098066D02*
X12663534Y29140923D01*
X12663534Y29140923D02*
X12806391Y29140923D01*
X12806391Y29140923D02*
X12877820Y29098066D01*
X13306391Y28540923D02*
X13234962Y28583780D01*
X13234962Y28583780D02*
X13199248Y28626638D01*
X13199248Y28626638D02*
X13163534Y28712352D01*
X13163534Y28712352D02*
X13163534Y28969495D01*
X13163534Y28969495D02*
X13199248Y29055209D01*
X13199248Y29055209D02*
X13234962Y29098066D01*
X13234962Y29098066D02*
X13306391Y29140923D01*
X13306391Y29140923D02*
X13413534Y29140923D01*
X13413534Y29140923D02*
X13484962Y29098066D01*
X13484962Y29098066D02*
X13520677Y29055209D01*
X13520677Y29055209D02*
X13556391Y28969495D01*
X13556391Y28969495D02*
X13556391Y28712352D01*
X13556391Y28712352D02*
X13520677Y28626638D01*
X13520677Y28626638D02*
X13484962Y28583780D01*
X13484962Y28583780D02*
X13413534Y28540923D01*
X13413534Y28540923D02*
X13306391Y28540923D01*
X13877819Y28540923D02*
X13877819Y29140923D01*
X13877819Y29055209D02*
X13913533Y29098066D01*
X13913533Y29098066D02*
X13984962Y29140923D01*
X13984962Y29140923D02*
X14092105Y29140923D01*
X14092105Y29140923D02*
X14163533Y29098066D01*
X14163533Y29098066D02*
X14199248Y29012352D01*
X14199248Y29012352D02*
X14199248Y28540923D01*
X14199248Y29012352D02*
X14234962Y29098066D01*
X14234962Y29098066D02*
X14306390Y29140923D01*
X14306390Y29140923D02*
X14413533Y29140923D01*
X14413533Y29140923D02*
X14484962Y29098066D01*
X14484962Y29098066D02*
X14520676Y29012352D01*
X14520676Y29012352D02*
X14520676Y28540923D01*
X14877819Y28540923D02*
X14877819Y29140923D01*
X14877819Y29055209D02*
X14913533Y29098066D01*
X14913533Y29098066D02*
X14984962Y29140923D01*
X14984962Y29140923D02*
X15092105Y29140923D01*
X15092105Y29140923D02*
X15163533Y29098066D01*
X15163533Y29098066D02*
X15199248Y29012352D01*
X15199248Y29012352D02*
X15199248Y28540923D01*
X15199248Y29012352D02*
X15234962Y29098066D01*
X15234962Y29098066D02*
X15306390Y29140923D01*
X15306390Y29140923D02*
X15413533Y29140923D01*
X15413533Y29140923D02*
X15484962Y29098066D01*
X15484962Y29098066D02*
X15520676Y29012352D01*
X15520676Y29012352D02*
X15520676Y28540923D01*
X15984962Y28540923D02*
X15913533Y28583780D01*
X15913533Y28583780D02*
X15877819Y28626638D01*
X15877819Y28626638D02*
X15842105Y28712352D01*
X15842105Y28712352D02*
X15842105Y28969495D01*
X15842105Y28969495D02*
X15877819Y29055209D01*
X15877819Y29055209D02*
X15913533Y29098066D01*
X15913533Y29098066D02*
X15984962Y29140923D01*
X15984962Y29140923D02*
X16092105Y29140923D01*
X16092105Y29140923D02*
X16163533Y29098066D01*
X16163533Y29098066D02*
X16199248Y29055209D01*
X16199248Y29055209D02*
X16234962Y28969495D01*
X16234962Y28969495D02*
X16234962Y28712352D01*
X16234962Y28712352D02*
X16199248Y28626638D01*
X16199248Y28626638D02*
X16163533Y28583780D01*
X16163533Y28583780D02*
X16092105Y28540923D01*
X16092105Y28540923D02*
X15984962Y28540923D01*
X16556390Y29140923D02*
X16556390Y28540923D01*
X16556390Y29055209D02*
X16592104Y29098066D01*
X16592104Y29098066D02*
X16663533Y29140923D01*
X16663533Y29140923D02*
X16770676Y29140923D01*
X16770676Y29140923D02*
X16842104Y29098066D01*
X16842104Y29098066D02*
X16877819Y29012352D01*
X16877819Y29012352D02*
X16877819Y28540923D01*
X17806390Y28540923D02*
X17806390Y29140923D01*
X17806390Y29055209D02*
X17842104Y29098066D01*
X17842104Y29098066D02*
X17913533Y29140923D01*
X17913533Y29140923D02*
X18020676Y29140923D01*
X18020676Y29140923D02*
X18092104Y29098066D01*
X18092104Y29098066D02*
X18127819Y29012352D01*
X18127819Y29012352D02*
X18127819Y28540923D01*
X18127819Y29012352D02*
X18163533Y29098066D01*
X18163533Y29098066D02*
X18234961Y29140923D01*
X18234961Y29140923D02*
X18342104Y29140923D01*
X18342104Y29140923D02*
X18413533Y29098066D01*
X18413533Y29098066D02*
X18449247Y29012352D01*
X18449247Y29012352D02*
X18449247Y28540923D01*
X18913533Y28540923D02*
X18842104Y28583780D01*
X18842104Y28583780D02*
X18806390Y28626638D01*
X18806390Y28626638D02*
X18770676Y28712352D01*
X18770676Y28712352D02*
X18770676Y28969495D01*
X18770676Y28969495D02*
X18806390Y29055209D01*
X18806390Y29055209D02*
X18842104Y29098066D01*
X18842104Y29098066D02*
X18913533Y29140923D01*
X18913533Y29140923D02*
X19020676Y29140923D01*
X19020676Y29140923D02*
X19092104Y29098066D01*
X19092104Y29098066D02*
X19127819Y29055209D01*
X19127819Y29055209D02*
X19163533Y28969495D01*
X19163533Y28969495D02*
X19163533Y28712352D01*
X19163533Y28712352D02*
X19127819Y28626638D01*
X19127819Y28626638D02*
X19092104Y28583780D01*
X19092104Y28583780D02*
X19020676Y28540923D01*
X19020676Y28540923D02*
X18913533Y28540923D01*
X19806390Y28540923D02*
X19806390Y29440923D01*
X19806390Y28583780D02*
X19734961Y28540923D01*
X19734961Y28540923D02*
X19592104Y28540923D01*
X19592104Y28540923D02*
X19520675Y28583780D01*
X19520675Y28583780D02*
X19484961Y28626638D01*
X19484961Y28626638D02*
X19449247Y28712352D01*
X19449247Y28712352D02*
X19449247Y28969495D01*
X19449247Y28969495D02*
X19484961Y29055209D01*
X19484961Y29055209D02*
X19520675Y29098066D01*
X19520675Y29098066D02*
X19592104Y29140923D01*
X19592104Y29140923D02*
X19734961Y29140923D01*
X19734961Y29140923D02*
X19806390Y29098066D01*
X20449246Y28583780D02*
X20377818Y28540923D01*
X20377818Y28540923D02*
X20234961Y28540923D01*
X20234961Y28540923D02*
X20163532Y28583780D01*
X20163532Y28583780D02*
X20127818Y28669495D01*
X20127818Y28669495D02*
X20127818Y29012352D01*
X20127818Y29012352D02*
X20163532Y29098066D01*
X20163532Y29098066D02*
X20234961Y29140923D01*
X20234961Y29140923D02*
X20377818Y29140923D01*
X20377818Y29140923D02*
X20449246Y29098066D01*
X20449246Y29098066D02*
X20484961Y29012352D01*
X20484961Y29012352D02*
X20484961Y28926638D01*
X20484961Y28926638D02*
X20127818Y28840923D01*
X20806389Y28626638D02*
X20842103Y28583780D01*
X20842103Y28583780D02*
X20806389Y28540923D01*
X20806389Y28540923D02*
X20770675Y28583780D01*
X20770675Y28583780D02*
X20806389Y28626638D01*
X20806389Y28626638D02*
X20806389Y28540923D01*
X20806389Y29098066D02*
X20842103Y29055209D01*
X20842103Y29055209D02*
X20806389Y29012352D01*
X20806389Y29012352D02*
X20770675Y29055209D01*
X20770675Y29055209D02*
X20806389Y29098066D01*
X20806389Y29098066D02*
X20806389Y29012352D01*
X21627818Y29140923D02*
X21913532Y29140923D01*
X21734961Y28540923D02*
X21734961Y29312352D01*
X21734961Y29312352D02*
X21770675Y29398066D01*
X21770675Y29398066D02*
X21842104Y29440923D01*
X21842104Y29440923D02*
X21913532Y29440923D01*
X22163532Y28540923D02*
X22163532Y29140923D01*
X22163532Y29440923D02*
X22127818Y29398066D01*
X22127818Y29398066D02*
X22163532Y29355209D01*
X22163532Y29355209D02*
X22199246Y29398066D01*
X22199246Y29398066D02*
X22163532Y29440923D01*
X22163532Y29440923D02*
X22163532Y29355209D01*
X22413532Y29140923D02*
X22699246Y29140923D01*
X22520675Y29440923D02*
X22520675Y28669495D01*
X22520675Y28669495D02*
X22556389Y28583780D01*
X22556389Y28583780D02*
X22627818Y28540923D01*
X22627818Y28540923D02*
X22699246Y28540923D01*
X22842103Y29140923D02*
X23127817Y29140923D01*
X22949246Y29440923D02*
X22949246Y28669495D01*
X22949246Y28669495D02*
X22984960Y28583780D01*
X22984960Y28583780D02*
X23056389Y28540923D01*
X23056389Y28540923D02*
X23127817Y28540923D01*
X23663531Y28583780D02*
X23592103Y28540923D01*
X23592103Y28540923D02*
X23449246Y28540923D01*
X23449246Y28540923D02*
X23377817Y28583780D01*
X23377817Y28583780D02*
X23342103Y28669495D01*
X23342103Y28669495D02*
X23342103Y29012352D01*
X23342103Y29012352D02*
X23377817Y29098066D01*
X23377817Y29098066D02*
X23449246Y29140923D01*
X23449246Y29140923D02*
X23592103Y29140923D01*
X23592103Y29140923D02*
X23663531Y29098066D01*
X23663531Y29098066D02*
X23699246Y29012352D01*
X23699246Y29012352D02*
X23699246Y28926638D01*
X23699246Y28926638D02*
X23342103Y28840923D01*
X24342103Y28540923D02*
X24342103Y29440923D01*
X24342103Y28583780D02*
X24270674Y28540923D01*
X24270674Y28540923D02*
X24127817Y28540923D01*
X24127817Y28540923D02*
X24056388Y28583780D01*
X24056388Y28583780D02*
X24020674Y28626638D01*
X24020674Y28626638D02*
X23984960Y28712352D01*
X23984960Y28712352D02*
X23984960Y28969495D01*
X23984960Y28969495D02*
X24020674Y29055209D01*
X24020674Y29055209D02*
X24056388Y29098066D01*
X24056388Y29098066D02*
X24127817Y29140923D01*
X24127817Y29140923D02*
X24270674Y29140923D01*
X24270674Y29140923D02*
X24342103Y29098066D01*
D11*
X52085526Y25136665D02*
X51752192Y25136665D01*
X51752192Y25136665D02*
X51752192Y25936665D01*
X52318859Y25555713D02*
X52552193Y25555713D01*
X52652193Y25136665D02*
X52318859Y25136665D01*
X52318859Y25136665D02*
X52318859Y25936665D01*
X52318859Y25936665D02*
X52652193Y25936665D01*
X52952192Y25136665D02*
X52952192Y25936665D01*
X52952192Y25936665D02*
X53118859Y25936665D01*
X53118859Y25936665D02*
X53218859Y25898570D01*
X53218859Y25898570D02*
X53285526Y25822380D01*
X53285526Y25822380D02*
X53318859Y25746189D01*
X53318859Y25746189D02*
X53352192Y25593808D01*
X53352192Y25593808D02*
X53352192Y25479522D01*
X53352192Y25479522D02*
X53318859Y25327141D01*
X53318859Y25327141D02*
X53285526Y25250951D01*
X53285526Y25250951D02*
X53218859Y25174760D01*
X53218859Y25174760D02*
X53118859Y25136665D01*
X53118859Y25136665D02*
X52952192Y25136665D01*
X54018859Y25136665D02*
X53618859Y25136665D01*
X53818859Y25136665D02*
X53818859Y25936665D01*
X53818859Y25936665D02*
X53752192Y25822380D01*
X53752192Y25822380D02*
X53685526Y25746189D01*
X53685526Y25746189D02*
X53618859Y25708094D01*
X54852192Y25136665D02*
X54852192Y25936665D01*
X54852192Y25936665D02*
X55018859Y25936665D01*
X55018859Y25936665D02*
X55118859Y25898570D01*
X55118859Y25898570D02*
X55185526Y25822380D01*
X55185526Y25822380D02*
X55218859Y25746189D01*
X55218859Y25746189D02*
X55252192Y25593808D01*
X55252192Y25593808D02*
X55252192Y25479522D01*
X55252192Y25479522D02*
X55218859Y25327141D01*
X55218859Y25327141D02*
X55185526Y25250951D01*
X55185526Y25250951D02*
X55118859Y25174760D01*
X55118859Y25174760D02*
X55018859Y25136665D01*
X55018859Y25136665D02*
X54852192Y25136665D01*
X55552192Y25136665D02*
X55552192Y25936665D01*
X56018859Y25936665D02*
X56152192Y25936665D01*
X56152192Y25936665D02*
X56218859Y25898570D01*
X56218859Y25898570D02*
X56285525Y25822380D01*
X56285525Y25822380D02*
X56318859Y25669999D01*
X56318859Y25669999D02*
X56318859Y25403332D01*
X56318859Y25403332D02*
X56285525Y25250951D01*
X56285525Y25250951D02*
X56218859Y25174760D01*
X56218859Y25174760D02*
X56152192Y25136665D01*
X56152192Y25136665D02*
X56018859Y25136665D01*
X56018859Y25136665D02*
X55952192Y25174760D01*
X55952192Y25174760D02*
X55885525Y25250951D01*
X55885525Y25250951D02*
X55852192Y25403332D01*
X55852192Y25403332D02*
X55852192Y25669999D01*
X55852192Y25669999D02*
X55885525Y25822380D01*
X55885525Y25822380D02*
X55952192Y25898570D01*
X55952192Y25898570D02*
X56018859Y25936665D01*
X56585525Y25365237D02*
X56918858Y25365237D01*
X56518858Y25136665D02*
X56752192Y25936665D01*
X56752192Y25936665D02*
X56985525Y25136665D01*
X57585525Y25136665D02*
X57185525Y25136665D01*
X57385525Y25136665D02*
X57385525Y25936665D01*
X57385525Y25936665D02*
X57318858Y25822380D01*
X57318858Y25822380D02*
X57252192Y25746189D01*
X57252192Y25746189D02*
X57185525Y25708094D01*
D13*
X26780714Y38310036D02*
X26780714Y39610036D01*
X26780714Y39610036D02*
X27409286Y38310036D01*
X27409286Y38310036D02*
X27409286Y39610036D01*
D11*
X5986284Y37969999D02*
X6111236Y37436665D01*
X6111236Y37436665D02*
X6236189Y37817618D01*
X6236189Y37817618D02*
X6361141Y37436665D01*
X6361141Y37436665D02*
X6486093Y37969999D01*
X6735998Y37436665D02*
X6735998Y37969999D01*
X6735998Y38236665D02*
X6704760Y38198570D01*
X6704760Y38198570D02*
X6735998Y38160475D01*
X6735998Y38160475D02*
X6767236Y38198570D01*
X6767236Y38198570D02*
X6735998Y38236665D01*
X6735998Y38236665D02*
X6735998Y38160475D01*
X7048379Y37436665D02*
X7048379Y37969999D01*
X7048379Y37817618D02*
X7079617Y37893808D01*
X7079617Y37893808D02*
X7110855Y37931903D01*
X7110855Y37931903D02*
X7173331Y37969999D01*
X7173331Y37969999D02*
X7235808Y37969999D01*
X7704379Y37474760D02*
X7641903Y37436665D01*
X7641903Y37436665D02*
X7516950Y37436665D01*
X7516950Y37436665D02*
X7454474Y37474760D01*
X7454474Y37474760D02*
X7423236Y37550951D01*
X7423236Y37550951D02*
X7423236Y37855713D01*
X7423236Y37855713D02*
X7454474Y37931903D01*
X7454474Y37931903D02*
X7516950Y37969999D01*
X7516950Y37969999D02*
X7641903Y37969999D01*
X7641903Y37969999D02*
X7704379Y37931903D01*
X7704379Y37931903D02*
X7735617Y37855713D01*
X7735617Y37855713D02*
X7735617Y37779522D01*
X7735617Y37779522D02*
X7423236Y37703332D01*
X8516570Y37436665D02*
X8516570Y38236665D01*
X8516570Y38236665D02*
X8766475Y38236665D01*
X8766475Y38236665D02*
X8828951Y38198570D01*
X8828951Y38198570D02*
X8860189Y38160475D01*
X8860189Y38160475D02*
X8891427Y38084284D01*
X8891427Y38084284D02*
X8891427Y37969999D01*
X8891427Y37969999D02*
X8860189Y37893808D01*
X8860189Y37893808D02*
X8828951Y37855713D01*
X8828951Y37855713D02*
X8766475Y37817618D01*
X8766475Y37817618D02*
X8516570Y37817618D01*
X9578666Y37969999D02*
X9828570Y37969999D01*
X9672380Y38236665D02*
X9672380Y37550951D01*
X9672380Y37550951D02*
X9703618Y37474760D01*
X9703618Y37474760D02*
X9766094Y37436665D01*
X9766094Y37436665D02*
X9828570Y37436665D01*
X10140951Y37436665D02*
X10078475Y37474760D01*
X10078475Y37474760D02*
X10047237Y37512856D01*
X10047237Y37512856D02*
X10015999Y37589046D01*
X10015999Y37589046D02*
X10015999Y37817618D01*
X10015999Y37817618D02*
X10047237Y37893808D01*
X10047237Y37893808D02*
X10078475Y37931903D01*
X10078475Y37931903D02*
X10140951Y37969999D01*
X10140951Y37969999D02*
X10234666Y37969999D01*
X10234666Y37969999D02*
X10297142Y37931903D01*
X10297142Y37931903D02*
X10328380Y37893808D01*
X10328380Y37893808D02*
X10359618Y37817618D01*
X10359618Y37817618D02*
X10359618Y37589046D01*
X10359618Y37589046D02*
X10328380Y37512856D01*
X10328380Y37512856D02*
X10297142Y37474760D01*
X10297142Y37474760D02*
X10234666Y37436665D01*
X10234666Y37436665D02*
X10140951Y37436665D01*
X11140571Y37436665D02*
X11140571Y38236665D01*
X11140571Y38236665D02*
X11390476Y38236665D01*
X11390476Y38236665D02*
X11452952Y38198570D01*
X11452952Y38198570D02*
X11484190Y38160475D01*
X11484190Y38160475D02*
X11515428Y38084284D01*
X11515428Y38084284D02*
X11515428Y37969999D01*
X11515428Y37969999D02*
X11484190Y37893808D01*
X11484190Y37893808D02*
X11452952Y37855713D01*
X11452952Y37855713D02*
X11390476Y37817618D01*
X11390476Y37817618D02*
X11140571Y37817618D01*
X11827809Y37474760D02*
X11827809Y37436665D01*
X11827809Y37436665D02*
X11796571Y37360475D01*
X11796571Y37360475D02*
X11765333Y37322380D01*
X12608762Y37436665D02*
X12608762Y38236665D01*
X12608762Y38236665D02*
X12983619Y37436665D01*
X12983619Y37436665D02*
X12983619Y38236665D01*
X13702096Y37969999D02*
X13952000Y37969999D01*
X13795810Y38236665D02*
X13795810Y37550951D01*
X13795810Y37550951D02*
X13827048Y37474760D01*
X13827048Y37474760D02*
X13889524Y37436665D01*
X13889524Y37436665D02*
X13952000Y37436665D01*
X14264381Y37436665D02*
X14201905Y37474760D01*
X14201905Y37474760D02*
X14170667Y37512856D01*
X14170667Y37512856D02*
X14139429Y37589046D01*
X14139429Y37589046D02*
X14139429Y37817618D01*
X14139429Y37817618D02*
X14170667Y37893808D01*
X14170667Y37893808D02*
X14201905Y37931903D01*
X14201905Y37931903D02*
X14264381Y37969999D01*
X14264381Y37969999D02*
X14358096Y37969999D01*
X14358096Y37969999D02*
X14420572Y37931903D01*
X14420572Y37931903D02*
X14451810Y37893808D01*
X14451810Y37893808D02*
X14483048Y37817618D01*
X14483048Y37817618D02*
X14483048Y37589046D01*
X14483048Y37589046D02*
X14451810Y37512856D01*
X14451810Y37512856D02*
X14420572Y37474760D01*
X14420572Y37474760D02*
X14358096Y37436665D01*
X14358096Y37436665D02*
X14264381Y37436665D01*
X15264001Y37436665D02*
X15264001Y38236665D01*
X15264001Y38236665D02*
X15638858Y37436665D01*
X15638858Y37436665D02*
X15638858Y38236665D01*
X15951239Y37512856D02*
X15982477Y37474760D01*
X15982477Y37474760D02*
X15951239Y37436665D01*
X15951239Y37436665D02*
X15920001Y37474760D01*
X15920001Y37474760D02*
X15951239Y37512856D01*
X15951239Y37512856D02*
X15951239Y37436665D01*
D17*
X34374807Y29816667D02*
X34374807Y29583334D01*
X34793855Y29583334D02*
X33993855Y29583334D01*
X33993855Y29583334D02*
X33993855Y29916667D01*
X34374807Y30416667D02*
X34412902Y30516667D01*
X34412902Y30516667D02*
X34450998Y30550001D01*
X34450998Y30550001D02*
X34527188Y30583334D01*
X34527188Y30583334D02*
X34641474Y30583334D01*
X34641474Y30583334D02*
X34717664Y30550001D01*
X34717664Y30550001D02*
X34755760Y30516667D01*
X34755760Y30516667D02*
X34793855Y30450001D01*
X34793855Y30450001D02*
X34793855Y30183334D01*
X34793855Y30183334D02*
X33993855Y30183334D01*
X33993855Y30183334D02*
X33993855Y30416667D01*
X33993855Y30416667D02*
X34031950Y30483334D01*
X34031950Y30483334D02*
X34070045Y30516667D01*
X34070045Y30516667D02*
X34146236Y30550001D01*
X34146236Y30550001D02*
X34222426Y30550001D01*
X34222426Y30550001D02*
X34298617Y30516667D01*
X34298617Y30516667D02*
X34336712Y30483334D01*
X34336712Y30483334D02*
X34374807Y30416667D01*
X34374807Y30416667D02*
X34374807Y30183334D01*
X34793855Y31250001D02*
X34793855Y30850001D01*
X34793855Y31050001D02*
X33993855Y31050001D01*
X33993855Y31050001D02*
X34108140Y30983334D01*
X34108140Y30983334D02*
X34184331Y30916667D01*
X34184331Y30916667D02*
X34222426Y30850001D01*
X31149999Y24682336D02*
X31116666Y24644240D01*
X31116666Y24644240D02*
X31016666Y24606145D01*
X31016666Y24606145D02*
X30949999Y24606145D01*
X30949999Y24606145D02*
X30849999Y24644240D01*
X30849999Y24644240D02*
X30783333Y24720431D01*
X30783333Y24720431D02*
X30749999Y24796621D01*
X30749999Y24796621D02*
X30716666Y24949002D01*
X30716666Y24949002D02*
X30716666Y25063288D01*
X30716666Y25063288D02*
X30749999Y25215669D01*
X30749999Y25215669D02*
X30783333Y25291860D01*
X30783333Y25291860D02*
X30849999Y25368050D01*
X30849999Y25368050D02*
X30949999Y25406145D01*
X30949999Y25406145D02*
X31016666Y25406145D01*
X31016666Y25406145D02*
X31116666Y25368050D01*
X31116666Y25368050D02*
X31149999Y25329955D01*
X31816666Y24606145D02*
X31416666Y24606145D01*
X31616666Y24606145D02*
X31616666Y25406145D01*
X31616666Y25406145D02*
X31549999Y25291860D01*
X31549999Y25291860D02*
X31483333Y25215669D01*
X31483333Y25215669D02*
X31416666Y25177574D01*
X32083333Y25329955D02*
X32116666Y25368050D01*
X32116666Y25368050D02*
X32183333Y25406145D01*
X32183333Y25406145D02*
X32350000Y25406145D01*
X32350000Y25406145D02*
X32416666Y25368050D01*
X32416666Y25368050D02*
X32450000Y25329955D01*
X32450000Y25329955D02*
X32483333Y25253764D01*
X32483333Y25253764D02*
X32483333Y25177574D01*
X32483333Y25177574D02*
X32450000Y25063288D01*
X32450000Y25063288D02*
X32050000Y24606145D01*
X32050000Y24606145D02*
X32483333Y24606145D01*
X30783333Y38286145D02*
X30550000Y38667098D01*
X30383333Y38286145D02*
X30383333Y39086145D01*
X30383333Y39086145D02*
X30650000Y39086145D01*
X30650000Y39086145D02*
X30716667Y39048050D01*
X30716667Y39048050D02*
X30750000Y39009955D01*
X30750000Y39009955D02*
X30783333Y38933764D01*
X30783333Y38933764D02*
X30783333Y38819479D01*
X30783333Y38819479D02*
X30750000Y38743288D01*
X30750000Y38743288D02*
X30716667Y38705193D01*
X30716667Y38705193D02*
X30650000Y38667098D01*
X30650000Y38667098D02*
X30383333Y38667098D01*
X31016667Y39086145D02*
X31450000Y39086145D01*
X31450000Y39086145D02*
X31216667Y38781383D01*
X31216667Y38781383D02*
X31316667Y38781383D01*
X31316667Y38781383D02*
X31383333Y38743288D01*
X31383333Y38743288D02*
X31416667Y38705193D01*
X31416667Y38705193D02*
X31450000Y38629002D01*
X31450000Y38629002D02*
X31450000Y38438526D01*
X31450000Y38438526D02*
X31416667Y38362336D01*
X31416667Y38362336D02*
X31383333Y38324240D01*
X31383333Y38324240D02*
X31316667Y38286145D01*
X31316667Y38286145D02*
X31116667Y38286145D01*
X31116667Y38286145D02*
X31050000Y38324240D01*
X31050000Y38324240D02*
X31016667Y38362336D01*
X31149999Y26282336D02*
X31116666Y26244240D01*
X31116666Y26244240D02*
X31016666Y26206145D01*
X31016666Y26206145D02*
X30949999Y26206145D01*
X30949999Y26206145D02*
X30849999Y26244240D01*
X30849999Y26244240D02*
X30783333Y26320431D01*
X30783333Y26320431D02*
X30749999Y26396621D01*
X30749999Y26396621D02*
X30716666Y26549002D01*
X30716666Y26549002D02*
X30716666Y26663288D01*
X30716666Y26663288D02*
X30749999Y26815669D01*
X30749999Y26815669D02*
X30783333Y26891860D01*
X30783333Y26891860D02*
X30849999Y26968050D01*
X30849999Y26968050D02*
X30949999Y27006145D01*
X30949999Y27006145D02*
X31016666Y27006145D01*
X31016666Y27006145D02*
X31116666Y26968050D01*
X31116666Y26968050D02*
X31149999Y26929955D01*
X31816666Y26206145D02*
X31416666Y26206145D01*
X31616666Y26206145D02*
X31616666Y27006145D01*
X31616666Y27006145D02*
X31549999Y26891860D01*
X31549999Y26891860D02*
X31483333Y26815669D01*
X31483333Y26815669D02*
X31416666Y26777574D01*
X32483333Y26206145D02*
X32083333Y26206145D01*
X32283333Y26206145D02*
X32283333Y27006145D01*
X32283333Y27006145D02*
X32216666Y26891860D01*
X32216666Y26891860D02*
X32150000Y26815669D01*
X32150000Y26815669D02*
X32083333Y26777574D01*
X15883333Y19392336D02*
X15850000Y19354240D01*
X15850000Y19354240D02*
X15750000Y19316145D01*
X15750000Y19316145D02*
X15683333Y19316145D01*
X15683333Y19316145D02*
X15583333Y19354240D01*
X15583333Y19354240D02*
X15516667Y19430431D01*
X15516667Y19430431D02*
X15483333Y19506621D01*
X15483333Y19506621D02*
X15450000Y19659002D01*
X15450000Y19659002D02*
X15450000Y19773288D01*
X15450000Y19773288D02*
X15483333Y19925669D01*
X15483333Y19925669D02*
X15516667Y20001860D01*
X15516667Y20001860D02*
X15583333Y20078050D01*
X15583333Y20078050D02*
X15683333Y20116145D01*
X15683333Y20116145D02*
X15750000Y20116145D01*
X15750000Y20116145D02*
X15850000Y20078050D01*
X15850000Y20078050D02*
X15883333Y20039955D01*
X16483333Y20116145D02*
X16350000Y20116145D01*
X16350000Y20116145D02*
X16283333Y20078050D01*
X16283333Y20078050D02*
X16250000Y20039955D01*
X16250000Y20039955D02*
X16183333Y19925669D01*
X16183333Y19925669D02*
X16150000Y19773288D01*
X16150000Y19773288D02*
X16150000Y19468526D01*
X16150000Y19468526D02*
X16183333Y19392336D01*
X16183333Y19392336D02*
X16216667Y19354240D01*
X16216667Y19354240D02*
X16283333Y19316145D01*
X16283333Y19316145D02*
X16416667Y19316145D01*
X16416667Y19316145D02*
X16483333Y19354240D01*
X16483333Y19354240D02*
X16516667Y19392336D01*
X16516667Y19392336D02*
X16550000Y19468526D01*
X16550000Y19468526D02*
X16550000Y19659002D01*
X16550000Y19659002D02*
X16516667Y19735193D01*
X16516667Y19735193D02*
X16483333Y19773288D01*
X16483333Y19773288D02*
X16416667Y19811383D01*
X16416667Y19811383D02*
X16283333Y19811383D01*
X16283333Y19811383D02*
X16216667Y19773288D01*
X16216667Y19773288D02*
X16183333Y19735193D01*
X16183333Y19735193D02*
X16150000Y19659002D01*
X35283333Y22142336D02*
X35250000Y22104240D01*
X35250000Y22104240D02*
X35150000Y22066145D01*
X35150000Y22066145D02*
X35083333Y22066145D01*
X35083333Y22066145D02*
X34983333Y22104240D01*
X34983333Y22104240D02*
X34916667Y22180431D01*
X34916667Y22180431D02*
X34883333Y22256621D01*
X34883333Y22256621D02*
X34850000Y22409002D01*
X34850000Y22409002D02*
X34850000Y22523288D01*
X34850000Y22523288D02*
X34883333Y22675669D01*
X34883333Y22675669D02*
X34916667Y22751860D01*
X34916667Y22751860D02*
X34983333Y22828050D01*
X34983333Y22828050D02*
X35083333Y22866145D01*
X35083333Y22866145D02*
X35150000Y22866145D01*
X35150000Y22866145D02*
X35250000Y22828050D01*
X35250000Y22828050D02*
X35283333Y22789955D01*
X35916667Y22866145D02*
X35583333Y22866145D01*
X35583333Y22866145D02*
X35550000Y22485193D01*
X35550000Y22485193D02*
X35583333Y22523288D01*
X35583333Y22523288D02*
X35650000Y22561383D01*
X35650000Y22561383D02*
X35816667Y22561383D01*
X35816667Y22561383D02*
X35883333Y22523288D01*
X35883333Y22523288D02*
X35916667Y22485193D01*
X35916667Y22485193D02*
X35950000Y22409002D01*
X35950000Y22409002D02*
X35950000Y22218526D01*
X35950000Y22218526D02*
X35916667Y22142336D01*
X35916667Y22142336D02*
X35883333Y22104240D01*
X35883333Y22104240D02*
X35816667Y22066145D01*
X35816667Y22066145D02*
X35650000Y22066145D01*
X35650000Y22066145D02*
X35583333Y22104240D01*
X35583333Y22104240D02*
X35550000Y22142336D01*
X24883333Y35656145D02*
X24650000Y36037098D01*
X24483333Y35656145D02*
X24483333Y36456145D01*
X24483333Y36456145D02*
X24750000Y36456145D01*
X24750000Y36456145D02*
X24816667Y36418050D01*
X24816667Y36418050D02*
X24850000Y36379955D01*
X24850000Y36379955D02*
X24883333Y36303764D01*
X24883333Y36303764D02*
X24883333Y36189479D01*
X24883333Y36189479D02*
X24850000Y36113288D01*
X24850000Y36113288D02*
X24816667Y36075193D01*
X24816667Y36075193D02*
X24750000Y36037098D01*
X24750000Y36037098D02*
X24483333Y36037098D01*
X25150000Y36379955D02*
X25183333Y36418050D01*
X25183333Y36418050D02*
X25250000Y36456145D01*
X25250000Y36456145D02*
X25416667Y36456145D01*
X25416667Y36456145D02*
X25483333Y36418050D01*
X25483333Y36418050D02*
X25516667Y36379955D01*
X25516667Y36379955D02*
X25550000Y36303764D01*
X25550000Y36303764D02*
X25550000Y36227574D01*
X25550000Y36227574D02*
X25516667Y36113288D01*
X25516667Y36113288D02*
X25116667Y35656145D01*
X25116667Y35656145D02*
X25550000Y35656145D01*
X28107664Y30683334D02*
X28145760Y30650001D01*
X28145760Y30650001D02*
X28183855Y30550001D01*
X28183855Y30550001D02*
X28183855Y30483334D01*
X28183855Y30483334D02*
X28145760Y30383334D01*
X28145760Y30383334D02*
X28069569Y30316667D01*
X28069569Y30316667D02*
X27993379Y30283334D01*
X27993379Y30283334D02*
X27840998Y30250001D01*
X27840998Y30250001D02*
X27726712Y30250001D01*
X27726712Y30250001D02*
X27574331Y30283334D01*
X27574331Y30283334D02*
X27498140Y30316667D01*
X27498140Y30316667D02*
X27421950Y30383334D01*
X27421950Y30383334D02*
X27383855Y30483334D01*
X27383855Y30483334D02*
X27383855Y30550001D01*
X27383855Y30550001D02*
X27421950Y30650001D01*
X27421950Y30650001D02*
X27460045Y30683334D01*
X28183855Y31350001D02*
X28183855Y30950001D01*
X28183855Y31150001D02*
X27383855Y31150001D01*
X27383855Y31150001D02*
X27498140Y31083334D01*
X27498140Y31083334D02*
X27574331Y31016667D01*
X27574331Y31016667D02*
X27612426Y30950001D01*
D10*
X166650819Y-88323332D02*
X167365104Y-88323332D01*
X167365104Y-88323332D02*
X167507961Y-88363809D01*
X167507961Y-88363809D02*
X167603200Y-88444761D01*
X167603200Y-88444761D02*
X167650819Y-88566190D01*
X167650819Y-88566190D02*
X167650819Y-88647142D01*
X167650819Y-87473332D02*
X167650819Y-87959047D01*
X167650819Y-87716190D02*
X166650819Y-87716190D01*
X166650819Y-87716190D02*
X166793676Y-87797142D01*
X166793676Y-87797142D02*
X166888914Y-87878094D01*
X166888914Y-87878094D02*
X166936533Y-87959047D01*
D17*
X45374807Y28916667D02*
X45374807Y28683334D01*
X45793855Y28683334D02*
X44993855Y28683334D01*
X44993855Y28683334D02*
X44993855Y29016667D01*
X45374807Y29516667D02*
X45412902Y29616667D01*
X45412902Y29616667D02*
X45450998Y29650001D01*
X45450998Y29650001D02*
X45527188Y29683334D01*
X45527188Y29683334D02*
X45641474Y29683334D01*
X45641474Y29683334D02*
X45717664Y29650001D01*
X45717664Y29650001D02*
X45755760Y29616667D01*
X45755760Y29616667D02*
X45793855Y29550001D01*
X45793855Y29550001D02*
X45793855Y29283334D01*
X45793855Y29283334D02*
X44993855Y29283334D01*
X44993855Y29283334D02*
X44993855Y29516667D01*
X44993855Y29516667D02*
X45031950Y29583334D01*
X45031950Y29583334D02*
X45070045Y29616667D01*
X45070045Y29616667D02*
X45146236Y29650001D01*
X45146236Y29650001D02*
X45222426Y29650001D01*
X45222426Y29650001D02*
X45298617Y29616667D01*
X45298617Y29616667D02*
X45336712Y29583334D01*
X45336712Y29583334D02*
X45374807Y29516667D01*
X45374807Y29516667D02*
X45374807Y29283334D01*
X45070045Y29950001D02*
X45031950Y29983334D01*
X45031950Y29983334D02*
X44993855Y30050001D01*
X44993855Y30050001D02*
X44993855Y30216667D01*
X44993855Y30216667D02*
X45031950Y30283334D01*
X45031950Y30283334D02*
X45070045Y30316667D01*
X45070045Y30316667D02*
X45146236Y30350001D01*
X45146236Y30350001D02*
X45222426Y30350001D01*
X45222426Y30350001D02*
X45336712Y30316667D01*
X45336712Y30316667D02*
X45793855Y29916667D01*
X45793855Y29916667D02*
X45793855Y30350001D01*
X39933855Y26683334D02*
X39552902Y26450001D01*
X39933855Y26283334D02*
X39133855Y26283334D01*
X39133855Y26283334D02*
X39133855Y26550001D01*
X39133855Y26550001D02*
X39171950Y26616667D01*
X39171950Y26616667D02*
X39210045Y26650001D01*
X39210045Y26650001D02*
X39286236Y26683334D01*
X39286236Y26683334D02*
X39400521Y26683334D01*
X39400521Y26683334D02*
X39476712Y26650001D01*
X39476712Y26650001D02*
X39514807Y26616667D01*
X39514807Y26616667D02*
X39552902Y26550001D01*
X39552902Y26550001D02*
X39552902Y26283334D01*
X39133855Y26916667D02*
X39133855Y27383334D01*
X39133855Y27383334D02*
X39933855Y27083334D01*
X27113855Y26483333D02*
X27113855Y26150000D01*
X27113855Y26150000D02*
X26313855Y26150000D01*
X27113855Y27083334D02*
X27113855Y26683334D01*
X27113855Y26883334D02*
X26313855Y26883334D01*
X26313855Y26883334D02*
X26428140Y26816667D01*
X26428140Y26816667D02*
X26504331Y26750000D01*
X26504331Y26750000D02*
X26542426Y26683334D01*
X44883333Y10642336D02*
X44850000Y10604240D01*
X44850000Y10604240D02*
X44750000Y10566145D01*
X44750000Y10566145D02*
X44683333Y10566145D01*
X44683333Y10566145D02*
X44583333Y10604240D01*
X44583333Y10604240D02*
X44516667Y10680431D01*
X44516667Y10680431D02*
X44483333Y10756621D01*
X44483333Y10756621D02*
X44450000Y10909002D01*
X44450000Y10909002D02*
X44450000Y11023288D01*
X44450000Y11023288D02*
X44483333Y11175669D01*
X44483333Y11175669D02*
X44516667Y11251860D01*
X44516667Y11251860D02*
X44583333Y11328050D01*
X44583333Y11328050D02*
X44683333Y11366145D01*
X44683333Y11366145D02*
X44750000Y11366145D01*
X44750000Y11366145D02*
X44850000Y11328050D01*
X44850000Y11328050D02*
X44883333Y11289955D01*
X45216667Y10566145D02*
X45350000Y10566145D01*
X45350000Y10566145D02*
X45416667Y10604240D01*
X45416667Y10604240D02*
X45450000Y10642336D01*
X45450000Y10642336D02*
X45516667Y10756621D01*
X45516667Y10756621D02*
X45550000Y10909002D01*
X45550000Y10909002D02*
X45550000Y11213764D01*
X45550000Y11213764D02*
X45516667Y11289955D01*
X45516667Y11289955D02*
X45483333Y11328050D01*
X45483333Y11328050D02*
X45416667Y11366145D01*
X45416667Y11366145D02*
X45283333Y11366145D01*
X45283333Y11366145D02*
X45216667Y11328050D01*
X45216667Y11328050D02*
X45183333Y11289955D01*
X45183333Y11289955D02*
X45150000Y11213764D01*
X45150000Y11213764D02*
X45150000Y11023288D01*
X45150000Y11023288D02*
X45183333Y10947098D01*
X45183333Y10947098D02*
X45216667Y10909002D01*
X45216667Y10909002D02*
X45283333Y10870907D01*
X45283333Y10870907D02*
X45416667Y10870907D01*
X45416667Y10870907D02*
X45483333Y10909002D01*
X45483333Y10909002D02*
X45516667Y10947098D01*
X45516667Y10947098D02*
X45550000Y11023288D01*
X36566667Y28617098D02*
X36566667Y28236145D01*
X36333333Y29036145D02*
X36566667Y28617098D01*
X36566667Y28617098D02*
X36800000Y29036145D01*
X37400000Y28236145D02*
X37000000Y28236145D01*
X37200000Y28236145D02*
X37200000Y29036145D01*
X37200000Y29036145D02*
X37133333Y28921860D01*
X37133333Y28921860D02*
X37066667Y28845669D01*
X37066667Y28845669D02*
X37000000Y28807574D01*
X31883333Y32016145D02*
X31650000Y32397098D01*
X31483333Y32016145D02*
X31483333Y32816145D01*
X31483333Y32816145D02*
X31750000Y32816145D01*
X31750000Y32816145D02*
X31816667Y32778050D01*
X31816667Y32778050D02*
X31850000Y32739955D01*
X31850000Y32739955D02*
X31883333Y32663764D01*
X31883333Y32663764D02*
X31883333Y32549479D01*
X31883333Y32549479D02*
X31850000Y32473288D01*
X31850000Y32473288D02*
X31816667Y32435193D01*
X31816667Y32435193D02*
X31750000Y32397098D01*
X31750000Y32397098D02*
X31483333Y32397098D01*
X32550000Y32016145D02*
X32150000Y32016145D01*
X32350000Y32016145D02*
X32350000Y32816145D01*
X32350000Y32816145D02*
X32283333Y32701860D01*
X32283333Y32701860D02*
X32216667Y32625669D01*
X32216667Y32625669D02*
X32150000Y32587574D01*
X17416667Y13485193D02*
X17183333Y13485193D01*
X17183333Y13066145D02*
X17183333Y13866145D01*
X17183333Y13866145D02*
X17516667Y13866145D01*
X18016667Y13485193D02*
X18116667Y13447098D01*
X18116667Y13447098D02*
X18150000Y13409002D01*
X18150000Y13409002D02*
X18183333Y13332812D01*
X18183333Y13332812D02*
X18183333Y13218526D01*
X18183333Y13218526D02*
X18150000Y13142336D01*
X18150000Y13142336D02*
X18116667Y13104240D01*
X18116667Y13104240D02*
X18050000Y13066145D01*
X18050000Y13066145D02*
X17783333Y13066145D01*
X17783333Y13066145D02*
X17783333Y13866145D01*
X17783333Y13866145D02*
X18016667Y13866145D01*
X18016667Y13866145D02*
X18083333Y13828050D01*
X18083333Y13828050D02*
X18116667Y13789955D01*
X18116667Y13789955D02*
X18150000Y13713764D01*
X18150000Y13713764D02*
X18150000Y13637574D01*
X18150000Y13637574D02*
X18116667Y13561383D01*
X18116667Y13561383D02*
X18083333Y13523288D01*
X18083333Y13523288D02*
X18016667Y13485193D01*
X18016667Y13485193D02*
X17783333Y13485193D01*
X18416667Y13866145D02*
X18850000Y13866145D01*
X18850000Y13866145D02*
X18616667Y13561383D01*
X18616667Y13561383D02*
X18716667Y13561383D01*
X18716667Y13561383D02*
X18783333Y13523288D01*
X18783333Y13523288D02*
X18816667Y13485193D01*
X18816667Y13485193D02*
X18850000Y13409002D01*
X18850000Y13409002D02*
X18850000Y13218526D01*
X18850000Y13218526D02*
X18816667Y13142336D01*
X18816667Y13142336D02*
X18783333Y13104240D01*
X18783333Y13104240D02*
X18716667Y13066145D01*
X18716667Y13066145D02*
X18516667Y13066145D01*
X18516667Y13066145D02*
X18450000Y13104240D01*
X18450000Y13104240D02*
X18416667Y13142336D01*
X43483333Y22566145D02*
X43483333Y23366145D01*
X43483333Y23366145D02*
X43650000Y23366145D01*
X43650000Y23366145D02*
X43750000Y23328050D01*
X43750000Y23328050D02*
X43816667Y23251860D01*
X43816667Y23251860D02*
X43850000Y23175669D01*
X43850000Y23175669D02*
X43883333Y23023288D01*
X43883333Y23023288D02*
X43883333Y22909002D01*
X43883333Y22909002D02*
X43850000Y22756621D01*
X43850000Y22756621D02*
X43816667Y22680431D01*
X43816667Y22680431D02*
X43750000Y22604240D01*
X43750000Y22604240D02*
X43650000Y22566145D01*
X43650000Y22566145D02*
X43483333Y22566145D01*
X44150000Y23289955D02*
X44183333Y23328050D01*
X44183333Y23328050D02*
X44250000Y23366145D01*
X44250000Y23366145D02*
X44416667Y23366145D01*
X44416667Y23366145D02*
X44483333Y23328050D01*
X44483333Y23328050D02*
X44516667Y23289955D01*
X44516667Y23289955D02*
X44550000Y23213764D01*
X44550000Y23213764D02*
X44550000Y23137574D01*
X44550000Y23137574D02*
X44516667Y23023288D01*
X44516667Y23023288D02*
X44116667Y22566145D01*
X44116667Y22566145D02*
X44550000Y22566145D01*
X28483333Y10606145D02*
X28250000Y10987098D01*
X28083333Y10606145D02*
X28083333Y11406145D01*
X28083333Y11406145D02*
X28350000Y11406145D01*
X28350000Y11406145D02*
X28416667Y11368050D01*
X28416667Y11368050D02*
X28450000Y11329955D01*
X28450000Y11329955D02*
X28483333Y11253764D01*
X28483333Y11253764D02*
X28483333Y11139479D01*
X28483333Y11139479D02*
X28450000Y11063288D01*
X28450000Y11063288D02*
X28416667Y11025193D01*
X28416667Y11025193D02*
X28350000Y10987098D01*
X28350000Y10987098D02*
X28083333Y10987098D01*
X29083333Y11406145D02*
X28950000Y11406145D01*
X28950000Y11406145D02*
X28883333Y11368050D01*
X28883333Y11368050D02*
X28850000Y11329955D01*
X28850000Y11329955D02*
X28783333Y11215669D01*
X28783333Y11215669D02*
X28750000Y11063288D01*
X28750000Y11063288D02*
X28750000Y10758526D01*
X28750000Y10758526D02*
X28783333Y10682336D01*
X28783333Y10682336D02*
X28816667Y10644240D01*
X28816667Y10644240D02*
X28883333Y10606145D01*
X28883333Y10606145D02*
X29016667Y10606145D01*
X29016667Y10606145D02*
X29083333Y10644240D01*
X29083333Y10644240D02*
X29116667Y10682336D01*
X29116667Y10682336D02*
X29150000Y10758526D01*
X29150000Y10758526D02*
X29150000Y10949002D01*
X29150000Y10949002D02*
X29116667Y11025193D01*
X29116667Y11025193D02*
X29083333Y11063288D01*
X29083333Y11063288D02*
X29016667Y11101383D01*
X29016667Y11101383D02*
X28883333Y11101383D01*
X28883333Y11101383D02*
X28816667Y11063288D01*
X28816667Y11063288D02*
X28783333Y11025193D01*
X28783333Y11025193D02*
X28750000Y10949002D01*
X47049999Y27142336D02*
X47016666Y27104240D01*
X47016666Y27104240D02*
X46916666Y27066145D01*
X46916666Y27066145D02*
X46849999Y27066145D01*
X46849999Y27066145D02*
X46749999Y27104240D01*
X46749999Y27104240D02*
X46683333Y27180431D01*
X46683333Y27180431D02*
X46649999Y27256621D01*
X46649999Y27256621D02*
X46616666Y27409002D01*
X46616666Y27409002D02*
X46616666Y27523288D01*
X46616666Y27523288D02*
X46649999Y27675669D01*
X46649999Y27675669D02*
X46683333Y27751860D01*
X46683333Y27751860D02*
X46749999Y27828050D01*
X46749999Y27828050D02*
X46849999Y27866145D01*
X46849999Y27866145D02*
X46916666Y27866145D01*
X46916666Y27866145D02*
X47016666Y27828050D01*
X47016666Y27828050D02*
X47049999Y27789955D01*
X47716666Y27066145D02*
X47316666Y27066145D01*
X47516666Y27066145D02*
X47516666Y27866145D01*
X47516666Y27866145D02*
X47449999Y27751860D01*
X47449999Y27751860D02*
X47383333Y27675669D01*
X47383333Y27675669D02*
X47316666Y27637574D01*
X48316666Y27599479D02*
X48316666Y27066145D01*
X48150000Y27904240D02*
X47983333Y27332812D01*
X47983333Y27332812D02*
X48416666Y27332812D01*
X49883333Y10606145D02*
X49650000Y10987098D01*
X49483333Y10606145D02*
X49483333Y11406145D01*
X49483333Y11406145D02*
X49750000Y11406145D01*
X49750000Y11406145D02*
X49816667Y11368050D01*
X49816667Y11368050D02*
X49850000Y11329955D01*
X49850000Y11329955D02*
X49883333Y11253764D01*
X49883333Y11253764D02*
X49883333Y11139479D01*
X49883333Y11139479D02*
X49850000Y11063288D01*
X49850000Y11063288D02*
X49816667Y11025193D01*
X49816667Y11025193D02*
X49750000Y10987098D01*
X49750000Y10987098D02*
X49483333Y10987098D01*
X50516667Y11406145D02*
X50183333Y11406145D01*
X50183333Y11406145D02*
X50150000Y11025193D01*
X50150000Y11025193D02*
X50183333Y11063288D01*
X50183333Y11063288D02*
X50250000Y11101383D01*
X50250000Y11101383D02*
X50416667Y11101383D01*
X50416667Y11101383D02*
X50483333Y11063288D01*
X50483333Y11063288D02*
X50516667Y11025193D01*
X50516667Y11025193D02*
X50550000Y10949002D01*
X50550000Y10949002D02*
X50550000Y10758526D01*
X50550000Y10758526D02*
X50516667Y10682336D01*
X50516667Y10682336D02*
X50483333Y10644240D01*
X50483333Y10644240D02*
X50416667Y10606145D01*
X50416667Y10606145D02*
X50250000Y10606145D01*
X50250000Y10606145D02*
X50183333Y10644240D01*
X50183333Y10644240D02*
X50150000Y10682336D01*
X24201666Y37712336D02*
X24168333Y37674240D01*
X24168333Y37674240D02*
X24068333Y37636145D01*
X24068333Y37636145D02*
X24001666Y37636145D01*
X24001666Y37636145D02*
X23901666Y37674240D01*
X23901666Y37674240D02*
X23835000Y37750431D01*
X23835000Y37750431D02*
X23801666Y37826621D01*
X23801666Y37826621D02*
X23768333Y37979002D01*
X23768333Y37979002D02*
X23768333Y38093288D01*
X23768333Y38093288D02*
X23801666Y38245669D01*
X23801666Y38245669D02*
X23835000Y38321860D01*
X23835000Y38321860D02*
X23901666Y38398050D01*
X23901666Y38398050D02*
X24001666Y38436145D01*
X24001666Y38436145D02*
X24068333Y38436145D01*
X24068333Y38436145D02*
X24168333Y38398050D01*
X24168333Y38398050D02*
X24201666Y38359955D01*
X24501666Y37636145D02*
X24501666Y38436145D01*
X24501666Y38436145D02*
X24901666Y37636145D01*
X24901666Y37636145D02*
X24901666Y38436145D01*
X25601666Y37636145D02*
X25201666Y37636145D01*
X25401666Y37636145D02*
X25401666Y38436145D01*
X25401666Y38436145D02*
X25334999Y38321860D01*
X25334999Y38321860D02*
X25268333Y38245669D01*
X25268333Y38245669D02*
X25201666Y38207574D01*
X36266666Y38456145D02*
X36266666Y39256145D01*
X36266666Y39256145D02*
X36500000Y38684717D01*
X36500000Y38684717D02*
X36733333Y39256145D01*
X36733333Y39256145D02*
X36733333Y38456145D01*
X37200000Y39256145D02*
X37333333Y39256145D01*
X37333333Y39256145D02*
X37400000Y39218050D01*
X37400000Y39218050D02*
X37466666Y39141860D01*
X37466666Y39141860D02*
X37500000Y38989479D01*
X37500000Y38989479D02*
X37500000Y38722812D01*
X37500000Y38722812D02*
X37466666Y38570431D01*
X37466666Y38570431D02*
X37400000Y38494240D01*
X37400000Y38494240D02*
X37333333Y38456145D01*
X37333333Y38456145D02*
X37200000Y38456145D01*
X37200000Y38456145D02*
X37133333Y38494240D01*
X37133333Y38494240D02*
X37066666Y38570431D01*
X37066666Y38570431D02*
X37033333Y38722812D01*
X37033333Y38722812D02*
X37033333Y38989479D01*
X37033333Y38989479D02*
X37066666Y39141860D01*
X37066666Y39141860D02*
X37133333Y39218050D01*
X37133333Y39218050D02*
X37200000Y39256145D01*
X37699999Y39256145D02*
X37933333Y38456145D01*
X37933333Y38456145D02*
X38166666Y39256145D01*
X38766666Y38456145D02*
X38366666Y38456145D01*
X38566666Y38456145D02*
X38566666Y39256145D01*
X38566666Y39256145D02*
X38499999Y39141860D01*
X38499999Y39141860D02*
X38433333Y39065669D01*
X38433333Y39065669D02*
X38366666Y39027574D01*
X29466666Y24236145D02*
X29466666Y23588526D01*
X29466666Y23588526D02*
X29500000Y23512336D01*
X29500000Y23512336D02*
X29533333Y23474240D01*
X29533333Y23474240D02*
X29600000Y23436145D01*
X29600000Y23436145D02*
X29733333Y23436145D01*
X29733333Y23436145D02*
X29800000Y23474240D01*
X29800000Y23474240D02*
X29833333Y23512336D01*
X29833333Y23512336D02*
X29866666Y23588526D01*
X29866666Y23588526D02*
X29866666Y24236145D01*
X30566666Y23436145D02*
X30166666Y23436145D01*
X30366666Y23436145D02*
X30366666Y24236145D01*
X30366666Y24236145D02*
X30299999Y24121860D01*
X30299999Y24121860D02*
X30233333Y24045669D01*
X30233333Y24045669D02*
X30166666Y24007574D01*
X43483333Y20066145D02*
X43483333Y20866145D01*
X43483333Y20866145D02*
X43650000Y20866145D01*
X43650000Y20866145D02*
X43750000Y20828050D01*
X43750000Y20828050D02*
X43816667Y20751860D01*
X43816667Y20751860D02*
X43850000Y20675669D01*
X43850000Y20675669D02*
X43883333Y20523288D01*
X43883333Y20523288D02*
X43883333Y20409002D01*
X43883333Y20409002D02*
X43850000Y20256621D01*
X43850000Y20256621D02*
X43816667Y20180431D01*
X43816667Y20180431D02*
X43750000Y20104240D01*
X43750000Y20104240D02*
X43650000Y20066145D01*
X43650000Y20066145D02*
X43483333Y20066145D01*
X44550000Y20066145D02*
X44150000Y20066145D01*
X44350000Y20066145D02*
X44350000Y20866145D01*
X44350000Y20866145D02*
X44283333Y20751860D01*
X44283333Y20751860D02*
X44216667Y20675669D01*
X44216667Y20675669D02*
X44150000Y20637574D01*
X47049999Y28742336D02*
X47016666Y28704240D01*
X47016666Y28704240D02*
X46916666Y28666145D01*
X46916666Y28666145D02*
X46849999Y28666145D01*
X46849999Y28666145D02*
X46749999Y28704240D01*
X46749999Y28704240D02*
X46683333Y28780431D01*
X46683333Y28780431D02*
X46649999Y28856621D01*
X46649999Y28856621D02*
X46616666Y29009002D01*
X46616666Y29009002D02*
X46616666Y29123288D01*
X46616666Y29123288D02*
X46649999Y29275669D01*
X46649999Y29275669D02*
X46683333Y29351860D01*
X46683333Y29351860D02*
X46749999Y29428050D01*
X46749999Y29428050D02*
X46849999Y29466145D01*
X46849999Y29466145D02*
X46916666Y29466145D01*
X46916666Y29466145D02*
X47016666Y29428050D01*
X47016666Y29428050D02*
X47049999Y29389955D01*
X47716666Y28666145D02*
X47316666Y28666145D01*
X47516666Y28666145D02*
X47516666Y29466145D01*
X47516666Y29466145D02*
X47449999Y29351860D01*
X47449999Y29351860D02*
X47383333Y29275669D01*
X47383333Y29275669D02*
X47316666Y29237574D01*
X47950000Y29466145D02*
X48383333Y29466145D01*
X48383333Y29466145D02*
X48150000Y29161383D01*
X48150000Y29161383D02*
X48250000Y29161383D01*
X48250000Y29161383D02*
X48316666Y29123288D01*
X48316666Y29123288D02*
X48350000Y29085193D01*
X48350000Y29085193D02*
X48383333Y29009002D01*
X48383333Y29009002D02*
X48383333Y28818526D01*
X48383333Y28818526D02*
X48350000Y28742336D01*
X48350000Y28742336D02*
X48316666Y28704240D01*
X48316666Y28704240D02*
X48250000Y28666145D01*
X48250000Y28666145D02*
X48050000Y28666145D01*
X48050000Y28666145D02*
X47983333Y28704240D01*
X47983333Y28704240D02*
X47950000Y28742336D01*
X25983333Y35032336D02*
X25950000Y34994240D01*
X25950000Y34994240D02*
X25850000Y34956145D01*
X25850000Y34956145D02*
X25783333Y34956145D01*
X25783333Y34956145D02*
X25683333Y34994240D01*
X25683333Y34994240D02*
X25616667Y35070431D01*
X25616667Y35070431D02*
X25583333Y35146621D01*
X25583333Y35146621D02*
X25550000Y35299002D01*
X25550000Y35299002D02*
X25550000Y35413288D01*
X25550000Y35413288D02*
X25583333Y35565669D01*
X25583333Y35565669D02*
X25616667Y35641860D01*
X25616667Y35641860D02*
X25683333Y35718050D01*
X25683333Y35718050D02*
X25783333Y35756145D01*
X25783333Y35756145D02*
X25850000Y35756145D01*
X25850000Y35756145D02*
X25950000Y35718050D01*
X25950000Y35718050D02*
X25983333Y35679955D01*
X26216667Y35756145D02*
X26650000Y35756145D01*
X26650000Y35756145D02*
X26416667Y35451383D01*
X26416667Y35451383D02*
X26516667Y35451383D01*
X26516667Y35451383D02*
X26583333Y35413288D01*
X26583333Y35413288D02*
X26616667Y35375193D01*
X26616667Y35375193D02*
X26650000Y35299002D01*
X26650000Y35299002D02*
X26650000Y35108526D01*
X26650000Y35108526D02*
X26616667Y35032336D01*
X26616667Y35032336D02*
X26583333Y34994240D01*
X26583333Y34994240D02*
X26516667Y34956145D01*
X26516667Y34956145D02*
X26316667Y34956145D01*
X26316667Y34956145D02*
X26250000Y34994240D01*
X26250000Y34994240D02*
X26216667Y35032336D01*
X19766666Y34816145D02*
X19766666Y35616145D01*
X19766666Y35616145D02*
X20000000Y35044717D01*
X20000000Y35044717D02*
X20233333Y35616145D01*
X20233333Y35616145D02*
X20233333Y34816145D01*
X20700000Y35616145D02*
X20833333Y35616145D01*
X20833333Y35616145D02*
X20900000Y35578050D01*
X20900000Y35578050D02*
X20966666Y35501860D01*
X20966666Y35501860D02*
X21000000Y35349479D01*
X21000000Y35349479D02*
X21000000Y35082812D01*
X21000000Y35082812D02*
X20966666Y34930431D01*
X20966666Y34930431D02*
X20900000Y34854240D01*
X20900000Y34854240D02*
X20833333Y34816145D01*
X20833333Y34816145D02*
X20700000Y34816145D01*
X20700000Y34816145D02*
X20633333Y34854240D01*
X20633333Y34854240D02*
X20566666Y34930431D01*
X20566666Y34930431D02*
X20533333Y35082812D01*
X20533333Y35082812D02*
X20533333Y35349479D01*
X20533333Y35349479D02*
X20566666Y35501860D01*
X20566666Y35501860D02*
X20633333Y35578050D01*
X20633333Y35578050D02*
X20700000Y35616145D01*
X21199999Y35616145D02*
X21433333Y34816145D01*
X21433333Y34816145D02*
X21666666Y35616145D01*
X21866666Y35539955D02*
X21899999Y35578050D01*
X21899999Y35578050D02*
X21966666Y35616145D01*
X21966666Y35616145D02*
X22133333Y35616145D01*
X22133333Y35616145D02*
X22199999Y35578050D01*
X22199999Y35578050D02*
X22233333Y35539955D01*
X22233333Y35539955D02*
X22266666Y35463764D01*
X22266666Y35463764D02*
X22266666Y35387574D01*
X22266666Y35387574D02*
X22233333Y35273288D01*
X22233333Y35273288D02*
X21833333Y34816145D01*
X21833333Y34816145D02*
X22266666Y34816145D01*
X47383333Y19706145D02*
X47150000Y20087098D01*
X46983333Y19706145D02*
X46983333Y20506145D01*
X46983333Y20506145D02*
X47250000Y20506145D01*
X47250000Y20506145D02*
X47316667Y20468050D01*
X47316667Y20468050D02*
X47350000Y20429955D01*
X47350000Y20429955D02*
X47383333Y20353764D01*
X47383333Y20353764D02*
X47383333Y20239479D01*
X47383333Y20239479D02*
X47350000Y20163288D01*
X47350000Y20163288D02*
X47316667Y20125193D01*
X47316667Y20125193D02*
X47250000Y20087098D01*
X47250000Y20087098D02*
X46983333Y20087098D01*
X47716667Y19706145D02*
X47850000Y19706145D01*
X47850000Y19706145D02*
X47916667Y19744240D01*
X47916667Y19744240D02*
X47950000Y19782336D01*
X47950000Y19782336D02*
X48016667Y19896621D01*
X48016667Y19896621D02*
X48050000Y20049002D01*
X48050000Y20049002D02*
X48050000Y20353764D01*
X48050000Y20353764D02*
X48016667Y20429955D01*
X48016667Y20429955D02*
X47983333Y20468050D01*
X47983333Y20468050D02*
X47916667Y20506145D01*
X47916667Y20506145D02*
X47783333Y20506145D01*
X47783333Y20506145D02*
X47716667Y20468050D01*
X47716667Y20468050D02*
X47683333Y20429955D01*
X47683333Y20429955D02*
X47650000Y20353764D01*
X47650000Y20353764D02*
X47650000Y20163288D01*
X47650000Y20163288D02*
X47683333Y20087098D01*
X47683333Y20087098D02*
X47716667Y20049002D01*
X47716667Y20049002D02*
X47783333Y20010907D01*
X47783333Y20010907D02*
X47916667Y20010907D01*
X47916667Y20010907D02*
X47983333Y20049002D01*
X47983333Y20049002D02*
X48016667Y20087098D01*
X48016667Y20087098D02*
X48050000Y20163288D01*
X19683333Y14742336D02*
X19650000Y14704240D01*
X19650000Y14704240D02*
X19550000Y14666145D01*
X19550000Y14666145D02*
X19483333Y14666145D01*
X19483333Y14666145D02*
X19383333Y14704240D01*
X19383333Y14704240D02*
X19316667Y14780431D01*
X19316667Y14780431D02*
X19283333Y14856621D01*
X19283333Y14856621D02*
X19250000Y15009002D01*
X19250000Y15009002D02*
X19250000Y15123288D01*
X19250000Y15123288D02*
X19283333Y15275669D01*
X19283333Y15275669D02*
X19316667Y15351860D01*
X19316667Y15351860D02*
X19383333Y15428050D01*
X19383333Y15428050D02*
X19483333Y15466145D01*
X19483333Y15466145D02*
X19550000Y15466145D01*
X19550000Y15466145D02*
X19650000Y15428050D01*
X19650000Y15428050D02*
X19683333Y15389955D01*
X19916667Y15466145D02*
X20383333Y15466145D01*
X20383333Y15466145D02*
X20083333Y14666145D01*
X26107664Y30683334D02*
X26145760Y30650001D01*
X26145760Y30650001D02*
X26183855Y30550001D01*
X26183855Y30550001D02*
X26183855Y30483334D01*
X26183855Y30483334D02*
X26145760Y30383334D01*
X26145760Y30383334D02*
X26069569Y30316667D01*
X26069569Y30316667D02*
X25993379Y30283334D01*
X25993379Y30283334D02*
X25840998Y30250001D01*
X25840998Y30250001D02*
X25726712Y30250001D01*
X25726712Y30250001D02*
X25574331Y30283334D01*
X25574331Y30283334D02*
X25498140Y30316667D01*
X25498140Y30316667D02*
X25421950Y30383334D01*
X25421950Y30383334D02*
X25383855Y30483334D01*
X25383855Y30483334D02*
X25383855Y30550001D01*
X25383855Y30550001D02*
X25421950Y30650001D01*
X25421950Y30650001D02*
X25460045Y30683334D01*
X25460045Y30950001D02*
X25421950Y30983334D01*
X25421950Y30983334D02*
X25383855Y31050001D01*
X25383855Y31050001D02*
X25383855Y31216667D01*
X25383855Y31216667D02*
X25421950Y31283334D01*
X25421950Y31283334D02*
X25460045Y31316667D01*
X25460045Y31316667D02*
X25536236Y31350001D01*
X25536236Y31350001D02*
X25612426Y31350001D01*
X25612426Y31350001D02*
X25726712Y31316667D01*
X25726712Y31316667D02*
X26183855Y30916667D01*
X26183855Y30916667D02*
X26183855Y31350001D01*
X34507664Y28950000D02*
X34545760Y28916667D01*
X34545760Y28916667D02*
X34583855Y28816667D01*
X34583855Y28816667D02*
X34583855Y28750000D01*
X34583855Y28750000D02*
X34545760Y28650000D01*
X34545760Y28650000D02*
X34469569Y28583333D01*
X34469569Y28583333D02*
X34393379Y28550000D01*
X34393379Y28550000D02*
X34240998Y28516667D01*
X34240998Y28516667D02*
X34126712Y28516667D01*
X34126712Y28516667D02*
X33974331Y28550000D01*
X33974331Y28550000D02*
X33898140Y28583333D01*
X33898140Y28583333D02*
X33821950Y28650000D01*
X33821950Y28650000D02*
X33783855Y28750000D01*
X33783855Y28750000D02*
X33783855Y28816667D01*
X33783855Y28816667D02*
X33821950Y28916667D01*
X33821950Y28916667D02*
X33860045Y28950000D01*
X34583855Y29616667D02*
X34583855Y29216667D01*
X34583855Y29416667D02*
X33783855Y29416667D01*
X33783855Y29416667D02*
X33898140Y29350000D01*
X33898140Y29350000D02*
X33974331Y29283333D01*
X33974331Y29283333D02*
X34012426Y29216667D01*
X33783855Y30250000D02*
X33783855Y29916667D01*
X33783855Y29916667D02*
X34164807Y29883334D01*
X34164807Y29883334D02*
X34126712Y29916667D01*
X34126712Y29916667D02*
X34088617Y29983334D01*
X34088617Y29983334D02*
X34088617Y30150000D01*
X34088617Y30150000D02*
X34126712Y30216667D01*
X34126712Y30216667D02*
X34164807Y30250000D01*
X34164807Y30250000D02*
X34240998Y30283334D01*
X34240998Y30283334D02*
X34431474Y30283334D01*
X34431474Y30283334D02*
X34507664Y30250000D01*
X34507664Y30250000D02*
X34545760Y30216667D01*
X34545760Y30216667D02*
X34583855Y30150000D01*
X34583855Y30150000D02*
X34583855Y29983334D01*
X34583855Y29983334D02*
X34545760Y29916667D01*
X34545760Y29916667D02*
X34507664Y29883334D01*
X41549999Y7782336D02*
X41516666Y7744240D01*
X41516666Y7744240D02*
X41416666Y7706145D01*
X41416666Y7706145D02*
X41349999Y7706145D01*
X41349999Y7706145D02*
X41249999Y7744240D01*
X41249999Y7744240D02*
X41183333Y7820431D01*
X41183333Y7820431D02*
X41149999Y7896621D01*
X41149999Y7896621D02*
X41116666Y8049002D01*
X41116666Y8049002D02*
X41116666Y8163288D01*
X41116666Y8163288D02*
X41149999Y8315669D01*
X41149999Y8315669D02*
X41183333Y8391860D01*
X41183333Y8391860D02*
X41249999Y8468050D01*
X41249999Y8468050D02*
X41349999Y8506145D01*
X41349999Y8506145D02*
X41416666Y8506145D01*
X41416666Y8506145D02*
X41516666Y8468050D01*
X41516666Y8468050D02*
X41549999Y8429955D01*
X42216666Y7706145D02*
X41816666Y7706145D01*
X42016666Y7706145D02*
X42016666Y8506145D01*
X42016666Y8506145D02*
X41949999Y8391860D01*
X41949999Y8391860D02*
X41883333Y8315669D01*
X41883333Y8315669D02*
X41816666Y8277574D01*
X42650000Y8506145D02*
X42716666Y8506145D01*
X42716666Y8506145D02*
X42783333Y8468050D01*
X42783333Y8468050D02*
X42816666Y8429955D01*
X42816666Y8429955D02*
X42850000Y8353764D01*
X42850000Y8353764D02*
X42883333Y8201383D01*
X42883333Y8201383D02*
X42883333Y8010907D01*
X42883333Y8010907D02*
X42850000Y7858526D01*
X42850000Y7858526D02*
X42816666Y7782336D01*
X42816666Y7782336D02*
X42783333Y7744240D01*
X42783333Y7744240D02*
X42716666Y7706145D01*
X42716666Y7706145D02*
X42650000Y7706145D01*
X42650000Y7706145D02*
X42583333Y7744240D01*
X42583333Y7744240D02*
X42550000Y7782336D01*
X42550000Y7782336D02*
X42516666Y7858526D01*
X42516666Y7858526D02*
X42483333Y8010907D01*
X42483333Y8010907D02*
X42483333Y8201383D01*
X42483333Y8201383D02*
X42516666Y8353764D01*
X42516666Y8353764D02*
X42550000Y8429955D01*
X42550000Y8429955D02*
X42583333Y8468050D01*
X42583333Y8468050D02*
X42650000Y8506145D01*
X20383333Y17142336D02*
X20350000Y17104240D01*
X20350000Y17104240D02*
X20250000Y17066145D01*
X20250000Y17066145D02*
X20183333Y17066145D01*
X20183333Y17066145D02*
X20083333Y17104240D01*
X20083333Y17104240D02*
X20016667Y17180431D01*
X20016667Y17180431D02*
X19983333Y17256621D01*
X19983333Y17256621D02*
X19950000Y17409002D01*
X19950000Y17409002D02*
X19950000Y17523288D01*
X19950000Y17523288D02*
X19983333Y17675669D01*
X19983333Y17675669D02*
X20016667Y17751860D01*
X20016667Y17751860D02*
X20083333Y17828050D01*
X20083333Y17828050D02*
X20183333Y17866145D01*
X20183333Y17866145D02*
X20250000Y17866145D01*
X20250000Y17866145D02*
X20350000Y17828050D01*
X20350000Y17828050D02*
X20383333Y17789955D01*
X20783333Y17523288D02*
X20716667Y17561383D01*
X20716667Y17561383D02*
X20683333Y17599479D01*
X20683333Y17599479D02*
X20650000Y17675669D01*
X20650000Y17675669D02*
X20650000Y17713764D01*
X20650000Y17713764D02*
X20683333Y17789955D01*
X20683333Y17789955D02*
X20716667Y17828050D01*
X20716667Y17828050D02*
X20783333Y17866145D01*
X20783333Y17866145D02*
X20916667Y17866145D01*
X20916667Y17866145D02*
X20983333Y17828050D01*
X20983333Y17828050D02*
X21016667Y17789955D01*
X21016667Y17789955D02*
X21050000Y17713764D01*
X21050000Y17713764D02*
X21050000Y17675669D01*
X21050000Y17675669D02*
X21016667Y17599479D01*
X21016667Y17599479D02*
X20983333Y17561383D01*
X20983333Y17561383D02*
X20916667Y17523288D01*
X20916667Y17523288D02*
X20783333Y17523288D01*
X20783333Y17523288D02*
X20716667Y17485193D01*
X20716667Y17485193D02*
X20683333Y17447098D01*
X20683333Y17447098D02*
X20650000Y17370907D01*
X20650000Y17370907D02*
X20650000Y17218526D01*
X20650000Y17218526D02*
X20683333Y17142336D01*
X20683333Y17142336D02*
X20716667Y17104240D01*
X20716667Y17104240D02*
X20783333Y17066145D01*
X20783333Y17066145D02*
X20916667Y17066145D01*
X20916667Y17066145D02*
X20983333Y17104240D01*
X20983333Y17104240D02*
X21016667Y17142336D01*
X21016667Y17142336D02*
X21050000Y17218526D01*
X21050000Y17218526D02*
X21050000Y17370907D01*
X21050000Y17370907D02*
X21016667Y17447098D01*
X21016667Y17447098D02*
X20983333Y17485193D01*
X20983333Y17485193D02*
X20916667Y17523288D01*
X23883333Y16066145D02*
X23650000Y16447098D01*
X23483333Y16066145D02*
X23483333Y16866145D01*
X23483333Y16866145D02*
X23750000Y16866145D01*
X23750000Y16866145D02*
X23816667Y16828050D01*
X23816667Y16828050D02*
X23850000Y16789955D01*
X23850000Y16789955D02*
X23883333Y16713764D01*
X23883333Y16713764D02*
X23883333Y16599479D01*
X23883333Y16599479D02*
X23850000Y16523288D01*
X23850000Y16523288D02*
X23816667Y16485193D01*
X23816667Y16485193D02*
X23750000Y16447098D01*
X23750000Y16447098D02*
X23483333Y16447098D01*
X24483333Y16599479D02*
X24483333Y16066145D01*
X24316667Y16904240D02*
X24150000Y16332812D01*
X24150000Y16332812D02*
X24583333Y16332812D01*
X39383333Y21942336D02*
X39350000Y21904240D01*
X39350000Y21904240D02*
X39250000Y21866145D01*
X39250000Y21866145D02*
X39183333Y21866145D01*
X39183333Y21866145D02*
X39083333Y21904240D01*
X39083333Y21904240D02*
X39016667Y21980431D01*
X39016667Y21980431D02*
X38983333Y22056621D01*
X38983333Y22056621D02*
X38950000Y22209002D01*
X38950000Y22209002D02*
X38950000Y22323288D01*
X38950000Y22323288D02*
X38983333Y22475669D01*
X38983333Y22475669D02*
X39016667Y22551860D01*
X39016667Y22551860D02*
X39083333Y22628050D01*
X39083333Y22628050D02*
X39183333Y22666145D01*
X39183333Y22666145D02*
X39250000Y22666145D01*
X39250000Y22666145D02*
X39350000Y22628050D01*
X39350000Y22628050D02*
X39383333Y22589955D01*
X39983333Y22399479D02*
X39983333Y21866145D01*
X39816667Y22704240D02*
X39650000Y22132812D01*
X39650000Y22132812D02*
X40083333Y22132812D01*
X47383333Y17206145D02*
X47150000Y17587098D01*
X46983333Y17206145D02*
X46983333Y18006145D01*
X46983333Y18006145D02*
X47250000Y18006145D01*
X47250000Y18006145D02*
X47316667Y17968050D01*
X47316667Y17968050D02*
X47350000Y17929955D01*
X47350000Y17929955D02*
X47383333Y17853764D01*
X47383333Y17853764D02*
X47383333Y17739479D01*
X47383333Y17739479D02*
X47350000Y17663288D01*
X47350000Y17663288D02*
X47316667Y17625193D01*
X47316667Y17625193D02*
X47250000Y17587098D01*
X47250000Y17587098D02*
X46983333Y17587098D01*
X47783333Y17663288D02*
X47716667Y17701383D01*
X47716667Y17701383D02*
X47683333Y17739479D01*
X47683333Y17739479D02*
X47650000Y17815669D01*
X47650000Y17815669D02*
X47650000Y17853764D01*
X47650000Y17853764D02*
X47683333Y17929955D01*
X47683333Y17929955D02*
X47716667Y17968050D01*
X47716667Y17968050D02*
X47783333Y18006145D01*
X47783333Y18006145D02*
X47916667Y18006145D01*
X47916667Y18006145D02*
X47983333Y17968050D01*
X47983333Y17968050D02*
X48016667Y17929955D01*
X48016667Y17929955D02*
X48050000Y17853764D01*
X48050000Y17853764D02*
X48050000Y17815669D01*
X48050000Y17815669D02*
X48016667Y17739479D01*
X48016667Y17739479D02*
X47983333Y17701383D01*
X47983333Y17701383D02*
X47916667Y17663288D01*
X47916667Y17663288D02*
X47783333Y17663288D01*
X47783333Y17663288D02*
X47716667Y17625193D01*
X47716667Y17625193D02*
X47683333Y17587098D01*
X47683333Y17587098D02*
X47650000Y17510907D01*
X47650000Y17510907D02*
X47650000Y17358526D01*
X47650000Y17358526D02*
X47683333Y17282336D01*
X47683333Y17282336D02*
X47716667Y17244240D01*
X47716667Y17244240D02*
X47783333Y17206145D01*
X47783333Y17206145D02*
X47916667Y17206145D01*
X47916667Y17206145D02*
X47983333Y17244240D01*
X47983333Y17244240D02*
X48016667Y17282336D01*
X48016667Y17282336D02*
X48050000Y17358526D01*
X48050000Y17358526D02*
X48050000Y17510907D01*
X48050000Y17510907D02*
X48016667Y17587098D01*
X48016667Y17587098D02*
X47983333Y17625193D01*
X47983333Y17625193D02*
X47916667Y17663288D01*
X37007664Y28950000D02*
X37045760Y28916667D01*
X37045760Y28916667D02*
X37083855Y28816667D01*
X37083855Y28816667D02*
X37083855Y28750000D01*
X37083855Y28750000D02*
X37045760Y28650000D01*
X37045760Y28650000D02*
X36969569Y28583333D01*
X36969569Y28583333D02*
X36893379Y28550000D01*
X36893379Y28550000D02*
X36740998Y28516667D01*
X36740998Y28516667D02*
X36626712Y28516667D01*
X36626712Y28516667D02*
X36474331Y28550000D01*
X36474331Y28550000D02*
X36398140Y28583333D01*
X36398140Y28583333D02*
X36321950Y28650000D01*
X36321950Y28650000D02*
X36283855Y28750000D01*
X36283855Y28750000D02*
X36283855Y28816667D01*
X36283855Y28816667D02*
X36321950Y28916667D01*
X36321950Y28916667D02*
X36360045Y28950000D01*
X37083855Y29616667D02*
X37083855Y29216667D01*
X37083855Y29416667D02*
X36283855Y29416667D01*
X36283855Y29416667D02*
X36398140Y29350000D01*
X36398140Y29350000D02*
X36474331Y29283333D01*
X36474331Y29283333D02*
X36512426Y29216667D01*
X36283855Y30216667D02*
X36283855Y30083334D01*
X36283855Y30083334D02*
X36321950Y30016667D01*
X36321950Y30016667D02*
X36360045Y29983334D01*
X36360045Y29983334D02*
X36474331Y29916667D01*
X36474331Y29916667D02*
X36626712Y29883334D01*
X36626712Y29883334D02*
X36931474Y29883334D01*
X36931474Y29883334D02*
X37007664Y29916667D01*
X37007664Y29916667D02*
X37045760Y29950000D01*
X37045760Y29950000D02*
X37083855Y30016667D01*
X37083855Y30016667D02*
X37083855Y30150000D01*
X37083855Y30150000D02*
X37045760Y30216667D01*
X37045760Y30216667D02*
X37007664Y30250000D01*
X37007664Y30250000D02*
X36931474Y30283334D01*
X36931474Y30283334D02*
X36740998Y30283334D01*
X36740998Y30283334D02*
X36664807Y30250000D01*
X36664807Y30250000D02*
X36626712Y30216667D01*
X36626712Y30216667D02*
X36588617Y30150000D01*
X36588617Y30150000D02*
X36588617Y30016667D01*
X36588617Y30016667D02*
X36626712Y29950000D01*
X36626712Y29950000D02*
X36664807Y29916667D01*
X36664807Y29916667D02*
X36740998Y29883334D01*
%TO.C,FB1*%
X33510000Y30562779D02*
X33510000Y30237221D01*
X32490000Y30562779D02*
X32490000Y30237221D01*
%TO.C,C12*%
X31740580Y25890000D02*
X31459420Y25890000D01*
X31740580Y26910000D02*
X31459420Y26910000D01*
%TO.C,R3*%
X30672936Y37735000D02*
X31127064Y37735000D01*
X30672936Y36265000D02*
X31127064Y36265000D01*
%TO.C,C11*%
X31740580Y27490000D02*
X31459420Y27490000D01*
X31740580Y28510000D02*
X31459420Y28510000D01*
%TO.C,C6*%
X15738748Y18735000D02*
X16261252Y18735000D01*
X15738748Y17265000D02*
X16261252Y17265000D01*
%TO.C,C5*%
X35259420Y21510000D02*
X35540580Y21510000D01*
X35259420Y20490000D02*
X35540580Y20490000D01*
%TO.C,R2*%
X24272936Y35110000D02*
X25727064Y35110000D01*
X24272936Y33290000D02*
X25727064Y33290000D01*
%TO.C,C1*%
X28765000Y30538748D02*
X28765000Y31061252D01*
X30235000Y30538748D02*
X30235000Y31061252D01*
%TO.C,J1*%
X6866000Y2030000D02*
X6866000Y3360000D01*
X8196000Y2030000D02*
X6866000Y2030000D01*
X9466000Y2030000D02*
X57786000Y2030000D01*
X9466000Y2030000D02*
X9466000Y4630000D01*
X57786000Y2030000D02*
X57786000Y7230000D01*
X6866000Y4630000D02*
X6866000Y7230000D01*
X9466000Y4630000D02*
X6866000Y4630000D01*
X6866000Y7230000D02*
X57786000Y7230000D01*
%TO.C,FB2*%
X44510000Y29662779D02*
X44510000Y29337221D01*
X43490000Y29662779D02*
X43490000Y29337221D01*
%TO.C,R7*%
X40477500Y26562742D02*
X40477500Y27037258D01*
X41522500Y26562742D02*
X41522500Y27037258D01*
D18*
%TO.C,L1*%
X27450000Y24550000D02*
X27450000Y27950000D01*
X29550000Y25250000D02*
X29550000Y27950000D01*
D17*
%TO.C,C9*%
X44859420Y10010000D02*
X45140580Y10010000D01*
X44859420Y8990000D02*
X45140580Y8990000D01*
%TO.C,Y1*%
X36225000Y27475000D02*
X37575000Y27475000D01*
X36225000Y25725000D02*
X37575000Y25725000D01*
%TO.C,R1*%
X32727064Y33290000D02*
X31272936Y33290000D01*
X32727064Y35110000D02*
X31272936Y35110000D01*
%TO.C,FB3*%
X17837221Y12510000D02*
X18162779Y12510000D01*
X17837221Y11490000D02*
X18162779Y11490000D01*
%TO.C,D2*%
X42515000Y22235000D02*
X42515000Y20765000D01*
X42515000Y20765000D02*
X44800000Y20765000D01*
X44800000Y22235000D02*
X42515000Y22235000D01*
%TO.C,R6*%
X28837258Y11877500D02*
X28362742Y11877500D01*
X28837258Y12922500D02*
X28362742Y12922500D01*
%TO.C,C14*%
X47359420Y26510000D02*
X47640580Y26510000D01*
X47359420Y25490000D02*
X47640580Y25490000D01*
%TO.C,R5*%
X50237258Y11877500D02*
X49762742Y11877500D01*
X50237258Y12922500D02*
X49762742Y12922500D01*
%TO.C,CN1*%
X33115000Y39690000D02*
X33115000Y49110000D01*
X33115000Y39690000D02*
X31455000Y39690000D01*
X33115000Y45800000D02*
X16265000Y45800000D01*
X33115000Y49110000D02*
X16265000Y49110000D01*
X30705000Y38400000D02*
X30105000Y38400000D01*
X30405000Y39000000D02*
X30705000Y38400000D01*
X30105000Y38400000D02*
X30405000Y39000000D01*
X29355000Y39690000D02*
X27645000Y39690000D01*
X25545000Y39690000D02*
X23835000Y39690000D01*
X21735000Y39690000D02*
X20025000Y39690000D01*
X16265000Y39690000D02*
X17925000Y39690000D01*
X16265000Y49110000D02*
X16265000Y39690000D01*
%TO.C,MOV1*%
X36772936Y37910000D02*
X38227064Y37910000D01*
X36772936Y36090000D02*
X38227064Y36090000D01*
%TO.C,U1*%
X27390000Y22135000D02*
X27390000Y22370000D01*
X27390000Y17390000D02*
X27390000Y17865000D01*
X27865000Y22610000D02*
X27690000Y22610000D01*
X27865000Y17390000D02*
X27390000Y17390000D01*
X32135000Y22610000D02*
X32610000Y22610000D01*
X32135000Y17390000D02*
X32610000Y17390000D01*
X32610000Y22610000D02*
X32610000Y22135000D01*
X32610000Y17390000D02*
X32610000Y17865000D01*
X27390000Y22610000D02*
X27150000Y22940000D01*
X27630000Y22940000D01*
X27390000Y22610000D01*
G36*
X27390000Y22610000D02*
G01*
X27150000Y22940000D01*
X27630000Y22940000D01*
X27390000Y22610000D01*
G37*
%TO.C,D1*%
X42515000Y19735000D02*
X42515000Y18265000D01*
X42515000Y18265000D02*
X44800000Y18265000D01*
X44800000Y19735000D02*
X42515000Y19735000D01*
%TO.C,C13*%
X47359420Y28110000D02*
X47640580Y28110000D01*
X47359420Y27090000D02*
X47640580Y27090000D01*
%TO.C,C3*%
X26361252Y36265000D02*
X25838748Y36265000D01*
X26361252Y37735000D02*
X25838748Y37735000D01*
%TO.C,MOV2*%
X21727064Y36090000D02*
X20272936Y36090000D01*
X21727064Y37910000D02*
X20272936Y37910000D01*
%TO.C,R9*%
X47737258Y20977500D02*
X47262742Y20977500D01*
X47737258Y22022500D02*
X47262742Y22022500D01*
%TO.C,C7*%
X19659420Y14110000D02*
X19940580Y14110000D01*
X19659420Y13090000D02*
X19940580Y13090000D01*
%TO.C,C2*%
X26765000Y30538748D02*
X26765000Y31061252D01*
X28235000Y30538748D02*
X28235000Y31061252D01*
%TO.C,C15*%
X35140000Y29259420D02*
X35140000Y29540580D01*
X36160000Y29259420D02*
X36160000Y29540580D01*
%TO.C,C10*%
X42140580Y8990000D02*
X41859420Y8990000D01*
X42140580Y10010000D02*
X41859420Y10010000D01*
%TO.C,C8*%
X20359420Y16510000D02*
X20640580Y16510000D01*
X20359420Y15490000D02*
X20640580Y15490000D01*
%TO.C,R4*%
X23762742Y15522500D02*
X24237258Y15522500D01*
X23762742Y14477500D02*
X24237258Y14477500D01*
%TO.C,C4*%
X39238748Y21285000D02*
X39761252Y21285000D01*
X39238748Y19815000D02*
X39761252Y19815000D01*
%TO.C,R8*%
X47737258Y18477500D02*
X47262742Y18477500D01*
X47737258Y19522500D02*
X47262742Y19522500D01*
%TO.C,C16*%
X37640000Y29259420D02*
X37640000Y29540580D01*
X38660000Y29259420D02*
X38660000Y29540580D01*
%TD*%
M02*
