%TF.GenerationSoftware,KiCad,Pcbnew,7.0.11+dfsg-1build4*%
%TF.CreationDate,2026-09-22T19:18:01+09:00*%
%TF.ProjectId,t1s_hat,7431735f-6861-4742-9e6b-696361645f70,rev?*%
%TF.SameCoordinates,Original*%
%TF.FileFunction,Legend,Top*%
%TF.FilePolarity,Positive*%
%FSLAX46Y46*%
G04 Gerber Fmt 4.6, Leading zero omitted, Abs format (unit mm)*
G04 Created by KiCad (PCBNEW 7.0.11+dfsg-1build4) date 2026-09-22 19:18:01*
%MOMM*%
%LPD*%
G01*
G04 APERTURE LIST*
%ADD10C,0.150000*%
%ADD11C,0.425000*%
%ADD12C,0.140000*%
%ADD13C,0.200000*%
%ADD14C,0.130000*%
%ADD15C,0.220000*%
%ADD16C,0.120000*%
G04 APERTURE END LIST*
D10*
X58000000Y44000000D02*
X65900000Y44000000D01*
D11*
X6208500Y3360000D02*
G75*
G03*
X5783500Y3360000I-212500J0D01*
G01*
X5783500Y3360000D02*
G75*
G03*
X6208500Y3360000I212500J0D01*
G01*
D10*
X58000000Y22000000D02*
X58000000Y44000000D01*
X58000000Y22000000D02*
X65900000Y22000000D01*
D12*
X3158771Y30990923D02*
X2925438Y31419495D01*
X2758771Y30990923D02*
X2758771Y31890923D01*
X2758771Y31890923D02*
X3025438Y31890923D01*
X3025438Y31890923D02*
X3092105Y31848066D01*
X3092105Y31848066D02*
X3125438Y31805209D01*
X3125438Y31805209D02*
X3158771Y31719495D01*
X3158771Y31719495D02*
X3158771Y31590923D01*
X3158771Y31590923D02*
X3125438Y31505209D01*
X3125438Y31505209D02*
X3092105Y31462352D01*
X3092105Y31462352D02*
X3025438Y31419495D01*
X3025438Y31419495D02*
X2758771Y31419495D01*
X3825438Y30990923D02*
X3425438Y30990923D01*
X3625438Y30990923D02*
X3625438Y31890923D01*
X3625438Y31890923D02*
X3558771Y31762352D01*
X3558771Y31762352D02*
X3492105Y31676638D01*
X3492105Y31676638D02*
X3425438Y31633780D01*
X5058771Y30990923D02*
X4825438Y31419495D01*
X4658771Y30990923D02*
X4658771Y31890923D01*
X4658771Y31890923D02*
X4925438Y31890923D01*
X4925438Y31890923D02*
X4992105Y31848066D01*
X4992105Y31848066D02*
X5025438Y31805209D01*
X5025438Y31805209D02*
X5058771Y31719495D01*
X5058771Y31719495D02*
X5058771Y31590923D01*
X5058771Y31590923D02*
X5025438Y31505209D01*
X5025438Y31505209D02*
X4992105Y31462352D01*
X4992105Y31462352D02*
X4925438Y31419495D01*
X4925438Y31419495D02*
X4658771Y31419495D01*
X5325438Y31805209D02*
X5358771Y31848066D01*
X5358771Y31848066D02*
X5425438Y31890923D01*
X5425438Y31890923D02*
X5592105Y31890923D01*
X5592105Y31890923D02*
X5658771Y31848066D01*
X5658771Y31848066D02*
X5692105Y31805209D01*
X5692105Y31805209D02*
X5725438Y31719495D01*
X5725438Y31719495D02*
X5725438Y31633780D01*
X5725438Y31633780D02*
X5692105Y31505209D01*
X5692105Y31505209D02*
X5292105Y30990923D01*
X5292105Y30990923D02*
X5725438Y30990923D01*
X6558771Y31462352D02*
X7092105Y31462352D01*
X7092105Y31205209D02*
X6558771Y31205209D01*
X7858771Y31890923D02*
X8258771Y31890923D01*
X8058771Y30990923D02*
X8058771Y31890923D01*
X8492104Y31462352D02*
X8725438Y31462352D01*
X8825438Y30990923D02*
X8492104Y30990923D01*
X8492104Y30990923D02*
X8492104Y31890923D01*
X8492104Y31890923D02*
X8825438Y31890923D01*
X9525437Y30990923D02*
X9292104Y31419495D01*
X9125437Y30990923D02*
X9125437Y31890923D01*
X9125437Y31890923D02*
X9392104Y31890923D01*
X9392104Y31890923D02*
X9458771Y31848066D01*
X9458771Y31848066D02*
X9492104Y31805209D01*
X9492104Y31805209D02*
X9525437Y31719495D01*
X9525437Y31719495D02*
X9525437Y31590923D01*
X9525437Y31590923D02*
X9492104Y31505209D01*
X9492104Y31505209D02*
X9458771Y31462352D01*
X9458771Y31462352D02*
X9392104Y31419495D01*
X9392104Y31419495D02*
X9125437Y31419495D01*
X9825437Y30990923D02*
X9825437Y31890923D01*
X9825437Y31890923D02*
X10058771Y31248066D01*
X10058771Y31248066D02*
X10292104Y31890923D01*
X10292104Y31890923D02*
X10292104Y30990923D01*
X10625437Y30990923D02*
X10625437Y31890923D01*
X10958770Y30990923D02*
X10958770Y31890923D01*
X10958770Y31890923D02*
X11358770Y30990923D01*
X11358770Y30990923D02*
X11358770Y31890923D01*
X11658770Y31248066D02*
X11992103Y31248066D01*
X11592103Y30990923D02*
X11825437Y31890923D01*
X11825437Y31890923D02*
X12058770Y30990923D01*
X12192103Y31890923D02*
X12592103Y31890923D01*
X12392103Y30990923D02*
X12392103Y31890923D01*
X12825436Y30990923D02*
X12825436Y31890923D01*
X13292103Y31890923D02*
X13425436Y31890923D01*
X13425436Y31890923D02*
X13492103Y31848066D01*
X13492103Y31848066D02*
X13558769Y31762352D01*
X13558769Y31762352D02*
X13592103Y31590923D01*
X13592103Y31590923D02*
X13592103Y31290923D01*
X13592103Y31290923D02*
X13558769Y31119495D01*
X13558769Y31119495D02*
X13492103Y31033780D01*
X13492103Y31033780D02*
X13425436Y30990923D01*
X13425436Y30990923D02*
X13292103Y30990923D01*
X13292103Y30990923D02*
X13225436Y31033780D01*
X13225436Y31033780D02*
X13158769Y31119495D01*
X13158769Y31119495D02*
X13125436Y31290923D01*
X13125436Y31290923D02*
X13125436Y31590923D01*
X13125436Y31590923D02*
X13158769Y31762352D01*
X13158769Y31762352D02*
X13225436Y31848066D01*
X13225436Y31848066D02*
X13292103Y31890923D01*
X13892102Y30990923D02*
X13892102Y31890923D01*
X13892102Y31890923D02*
X14292102Y30990923D01*
X14292102Y30990923D02*
X14292102Y31890923D01*
X15358768Y30648066D02*
X15325435Y30690923D01*
X15325435Y30690923D02*
X15258768Y30819495D01*
X15258768Y30819495D02*
X15225435Y30905209D01*
X15225435Y30905209D02*
X15192102Y31033780D01*
X15192102Y31033780D02*
X15158768Y31248066D01*
X15158768Y31248066D02*
X15158768Y31419495D01*
X15158768Y31419495D02*
X15192102Y31633780D01*
X15192102Y31633780D02*
X15225435Y31762352D01*
X15225435Y31762352D02*
X15258768Y31848066D01*
X15258768Y31848066D02*
X15325435Y31976638D01*
X15325435Y31976638D02*
X15358768Y32019495D01*
X15625435Y30990923D02*
X15625435Y31890923D01*
X15625435Y31890923D02*
X15792102Y31890923D01*
X15792102Y31890923D02*
X15892102Y31848066D01*
X15892102Y31848066D02*
X15958769Y31762352D01*
X15958769Y31762352D02*
X15992102Y31676638D01*
X15992102Y31676638D02*
X16025435Y31505209D01*
X16025435Y31505209D02*
X16025435Y31376638D01*
X16025435Y31376638D02*
X15992102Y31205209D01*
X15992102Y31205209D02*
X15958769Y31119495D01*
X15958769Y31119495D02*
X15892102Y31033780D01*
X15892102Y31033780D02*
X15792102Y30990923D01*
X15792102Y30990923D02*
X15625435Y30990923D01*
X16325435Y30990923D02*
X16325435Y31890923D01*
X16325435Y31890923D02*
X16725435Y30990923D01*
X16725435Y30990923D02*
X16725435Y31890923D01*
X17058768Y30990923D02*
X17058768Y31890923D01*
X17058768Y31890923D02*
X17325435Y31890923D01*
X17325435Y31890923D02*
X17392102Y31848066D01*
X17392102Y31848066D02*
X17425435Y31805209D01*
X17425435Y31805209D02*
X17458768Y31719495D01*
X17458768Y31719495D02*
X17458768Y31590923D01*
X17458768Y31590923D02*
X17425435Y31505209D01*
X17425435Y31505209D02*
X17392102Y31462352D01*
X17392102Y31462352D02*
X17325435Y31419495D01*
X17325435Y31419495D02*
X17058768Y31419495D01*
X17692102Y30648066D02*
X17725435Y30690923D01*
X17725435Y30690923D02*
X17792102Y30819495D01*
X17792102Y30819495D02*
X17825435Y30905209D01*
X17825435Y30905209D02*
X17858768Y31033780D01*
X17858768Y31033780D02*
X17892102Y31248066D01*
X17892102Y31248066D02*
X17892102Y31419495D01*
X17892102Y31419495D02*
X17858768Y31633780D01*
X17858768Y31633780D02*
X17825435Y31762352D01*
X17825435Y31762352D02*
X17792102Y31848066D01*
X17792102Y31848066D02*
X17725435Y31976638D01*
X17725435Y31976638D02*
X17692102Y32019495D01*
X2694962Y39490923D02*
X2832105Y38890923D01*
X2832105Y38890923D02*
X2969247Y39319495D01*
X2969247Y39319495D02*
X3106390Y38890923D01*
X3106390Y38890923D02*
X3243533Y39490923D01*
X3517819Y38890923D02*
X3517819Y39490923D01*
X3517819Y39790923D02*
X3483533Y39748066D01*
X3483533Y39748066D02*
X3517819Y39705209D01*
X3517819Y39705209D02*
X3552105Y39748066D01*
X3552105Y39748066D02*
X3517819Y39790923D01*
X3517819Y39790923D02*
X3517819Y39705209D01*
X3860676Y38890923D02*
X3860676Y39490923D01*
X3860676Y39319495D02*
X3894962Y39405209D01*
X3894962Y39405209D02*
X3929248Y39448066D01*
X3929248Y39448066D02*
X3997819Y39490923D01*
X3997819Y39490923D02*
X4066390Y39490923D01*
X4580676Y38933780D02*
X4512104Y38890923D01*
X4512104Y38890923D02*
X4374962Y38890923D01*
X4374962Y38890923D02*
X4306390Y38933780D01*
X4306390Y38933780D02*
X4272104Y39019495D01*
X4272104Y39019495D02*
X4272104Y39362352D01*
X4272104Y39362352D02*
X4306390Y39448066D01*
X4306390Y39448066D02*
X4374962Y39490923D01*
X4374962Y39490923D02*
X4512104Y39490923D01*
X4512104Y39490923D02*
X4580676Y39448066D01*
X4580676Y39448066D02*
X4614962Y39362352D01*
X4614962Y39362352D02*
X4614962Y39276638D01*
X4614962Y39276638D02*
X4272104Y39190923D01*
X5472104Y38890923D02*
X5472104Y39790923D01*
X5472104Y39790923D02*
X5746390Y39790923D01*
X5746390Y39790923D02*
X5814961Y39748066D01*
X5814961Y39748066D02*
X5849247Y39705209D01*
X5849247Y39705209D02*
X5883533Y39619495D01*
X5883533Y39619495D02*
X5883533Y39490923D01*
X5883533Y39490923D02*
X5849247Y39405209D01*
X5849247Y39405209D02*
X5814961Y39362352D01*
X5814961Y39362352D02*
X5746390Y39319495D01*
X5746390Y39319495D02*
X5472104Y39319495D01*
X6192104Y39233780D02*
X6740676Y39233780D01*
X7083533Y38890923D02*
X7083533Y39790923D01*
X7083533Y39790923D02*
X7357819Y39790923D01*
X7357819Y39790923D02*
X7426390Y39748066D01*
X7426390Y39748066D02*
X7460676Y39705209D01*
X7460676Y39705209D02*
X7494962Y39619495D01*
X7494962Y39619495D02*
X7494962Y39490923D01*
X7494962Y39490923D02*
X7460676Y39405209D01*
X7460676Y39405209D02*
X7426390Y39362352D01*
X7426390Y39362352D02*
X7357819Y39319495D01*
X7357819Y39319495D02*
X7083533Y39319495D01*
X7837819Y38933780D02*
X7837819Y38890923D01*
X7837819Y38890923D02*
X7803533Y38805209D01*
X7803533Y38805209D02*
X7769247Y38762352D01*
X8694961Y38890923D02*
X8694961Y39790923D01*
X8694961Y39790923D02*
X9106390Y38890923D01*
X9106390Y38890923D02*
X9106390Y39790923D01*
X9449247Y39233780D02*
X9997819Y39233780D01*
X10340676Y38890923D02*
X10340676Y39790923D01*
X10340676Y39790923D02*
X10752105Y38890923D01*
X10752105Y38890923D02*
X10752105Y39790923D01*
X2729247Y40133780D02*
X2797819Y40090923D01*
X2797819Y40090923D02*
X2934962Y40090923D01*
X2934962Y40090923D02*
X3003533Y40133780D01*
X3003533Y40133780D02*
X3037819Y40219495D01*
X3037819Y40219495D02*
X3037819Y40262352D01*
X3037819Y40262352D02*
X3003533Y40348066D01*
X3003533Y40348066D02*
X2934962Y40390923D01*
X2934962Y40390923D02*
X2832105Y40390923D01*
X2832105Y40390923D02*
X2763533Y40433780D01*
X2763533Y40433780D02*
X2729247Y40519495D01*
X2729247Y40519495D02*
X2729247Y40562352D01*
X2729247Y40562352D02*
X2763533Y40648066D01*
X2763533Y40648066D02*
X2832105Y40690923D01*
X2832105Y40690923D02*
X2934962Y40690923D01*
X2934962Y40690923D02*
X3003533Y40648066D01*
X3654962Y40090923D02*
X3654962Y40562352D01*
X3654962Y40562352D02*
X3620676Y40648066D01*
X3620676Y40648066D02*
X3552104Y40690923D01*
X3552104Y40690923D02*
X3414962Y40690923D01*
X3414962Y40690923D02*
X3346390Y40648066D01*
X3654962Y40133780D02*
X3586390Y40090923D01*
X3586390Y40090923D02*
X3414962Y40090923D01*
X3414962Y40090923D02*
X3346390Y40133780D01*
X3346390Y40133780D02*
X3312104Y40219495D01*
X3312104Y40219495D02*
X3312104Y40305209D01*
X3312104Y40305209D02*
X3346390Y40390923D01*
X3346390Y40390923D02*
X3414962Y40433780D01*
X3414962Y40433780D02*
X3586390Y40433780D01*
X3586390Y40433780D02*
X3654962Y40476638D01*
X3997819Y40090923D02*
X3997819Y40690923D01*
X3997819Y40605209D02*
X4032105Y40648066D01*
X4032105Y40648066D02*
X4100676Y40690923D01*
X4100676Y40690923D02*
X4203533Y40690923D01*
X4203533Y40690923D02*
X4272105Y40648066D01*
X4272105Y40648066D02*
X4306391Y40562352D01*
X4306391Y40562352D02*
X4306391Y40090923D01*
X4306391Y40562352D02*
X4340676Y40648066D01*
X4340676Y40648066D02*
X4409248Y40690923D01*
X4409248Y40690923D02*
X4512105Y40690923D01*
X4512105Y40690923D02*
X4580676Y40648066D01*
X4580676Y40648066D02*
X4614962Y40562352D01*
X4614962Y40562352D02*
X4614962Y40090923D01*
X5232105Y40133780D02*
X5163533Y40090923D01*
X5163533Y40090923D02*
X5026391Y40090923D01*
X5026391Y40090923D02*
X4957819Y40133780D01*
X4957819Y40133780D02*
X4923533Y40219495D01*
X4923533Y40219495D02*
X4923533Y40562352D01*
X4923533Y40562352D02*
X4957819Y40648066D01*
X4957819Y40648066D02*
X5026391Y40690923D01*
X5026391Y40690923D02*
X5163533Y40690923D01*
X5163533Y40690923D02*
X5232105Y40648066D01*
X5232105Y40648066D02*
X5266391Y40562352D01*
X5266391Y40562352D02*
X5266391Y40476638D01*
X5266391Y40476638D02*
X4923533Y40390923D01*
X6123533Y40690923D02*
X6123533Y39790923D01*
X6123533Y40648066D02*
X6192105Y40690923D01*
X6192105Y40690923D02*
X6329247Y40690923D01*
X6329247Y40690923D02*
X6397819Y40648066D01*
X6397819Y40648066D02*
X6432105Y40605209D01*
X6432105Y40605209D02*
X6466390Y40519495D01*
X6466390Y40519495D02*
X6466390Y40262352D01*
X6466390Y40262352D02*
X6432105Y40176638D01*
X6432105Y40176638D02*
X6397819Y40133780D01*
X6397819Y40133780D02*
X6329247Y40090923D01*
X6329247Y40090923D02*
X6192105Y40090923D01*
X6192105Y40090923D02*
X6123533Y40133780D01*
X7083534Y40090923D02*
X7083534Y40562352D01*
X7083534Y40562352D02*
X7049248Y40648066D01*
X7049248Y40648066D02*
X6980676Y40690923D01*
X6980676Y40690923D02*
X6843534Y40690923D01*
X6843534Y40690923D02*
X6774962Y40648066D01*
X7083534Y40133780D02*
X7014962Y40090923D01*
X7014962Y40090923D02*
X6843534Y40090923D01*
X6843534Y40090923D02*
X6774962Y40133780D01*
X6774962Y40133780D02*
X6740676Y40219495D01*
X6740676Y40219495D02*
X6740676Y40305209D01*
X6740676Y40305209D02*
X6774962Y40390923D01*
X6774962Y40390923D02*
X6843534Y40433780D01*
X6843534Y40433780D02*
X7014962Y40433780D01*
X7014962Y40433780D02*
X7083534Y40476638D01*
X7426391Y40090923D02*
X7426391Y40690923D01*
X7426391Y40990923D02*
X7392105Y40948066D01*
X7392105Y40948066D02*
X7426391Y40905209D01*
X7426391Y40905209D02*
X7460677Y40948066D01*
X7460677Y40948066D02*
X7426391Y40990923D01*
X7426391Y40990923D02*
X7426391Y40905209D01*
X7769248Y40090923D02*
X7769248Y40690923D01*
X7769248Y40519495D02*
X7803534Y40605209D01*
X7803534Y40605209D02*
X7837820Y40648066D01*
X7837820Y40648066D02*
X7906391Y40690923D01*
X7906391Y40690923D02*
X7974962Y40690923D01*
X3158771Y36976638D02*
X3125438Y36933780D01*
X3125438Y36933780D02*
X3025438Y36890923D01*
X3025438Y36890923D02*
X2958771Y36890923D01*
X2958771Y36890923D02*
X2858771Y36933780D01*
X2858771Y36933780D02*
X2792105Y37019495D01*
X2792105Y37019495D02*
X2758771Y37105209D01*
X2758771Y37105209D02*
X2725438Y37276638D01*
X2725438Y37276638D02*
X2725438Y37405209D01*
X2725438Y37405209D02*
X2758771Y37576638D01*
X2758771Y37576638D02*
X2792105Y37662352D01*
X2792105Y37662352D02*
X2858771Y37748066D01*
X2858771Y37748066D02*
X2958771Y37790923D01*
X2958771Y37790923D02*
X3025438Y37790923D01*
X3025438Y37790923D02*
X3125438Y37748066D01*
X3125438Y37748066D02*
X3158771Y37705209D01*
X3458771Y36890923D02*
X3458771Y37790923D01*
X3458771Y37790923D02*
X3858771Y36890923D01*
X3858771Y36890923D02*
X3858771Y37790923D01*
X4558771Y36890923D02*
X4158771Y36890923D01*
X4358771Y36890923D02*
X4358771Y37790923D01*
X4358771Y37790923D02*
X4292104Y37662352D01*
X4292104Y37662352D02*
X4225438Y37576638D01*
X4225438Y37576638D02*
X4158771Y37533780D01*
X6292104Y36890923D02*
X5892104Y36890923D01*
X6092104Y36890923D02*
X6092104Y37790923D01*
X6092104Y37790923D02*
X6025437Y37662352D01*
X6025437Y37662352D02*
X5958771Y37576638D01*
X5958771Y37576638D02*
X5892104Y37533780D01*
X6592104Y37362352D02*
X7125438Y37362352D01*
X7125438Y37105209D02*
X6592104Y37105209D01*
X7458771Y36890923D02*
X7458771Y37790923D01*
X7458771Y37790923D02*
X7725438Y37790923D01*
X7725438Y37790923D02*
X7792105Y37748066D01*
X7792105Y37748066D02*
X7825438Y37705209D01*
X7825438Y37705209D02*
X7858771Y37619495D01*
X7858771Y37619495D02*
X7858771Y37490923D01*
X7858771Y37490923D02*
X7825438Y37405209D01*
X7825438Y37405209D02*
X7792105Y37362352D01*
X7792105Y37362352D02*
X7725438Y37319495D01*
X7725438Y37319495D02*
X7458771Y37319495D01*
X8658771Y37705209D02*
X8692104Y37748066D01*
X8692104Y37748066D02*
X8758771Y37790923D01*
X8758771Y37790923D02*
X8925438Y37790923D01*
X8925438Y37790923D02*
X8992104Y37748066D01*
X8992104Y37748066D02*
X9025438Y37705209D01*
X9025438Y37705209D02*
X9058771Y37619495D01*
X9058771Y37619495D02*
X9058771Y37533780D01*
X9058771Y37533780D02*
X9025438Y37405209D01*
X9025438Y37405209D02*
X8625438Y36890923D01*
X8625438Y36890923D02*
X9058771Y36890923D01*
X9358771Y37362352D02*
X9892105Y37362352D01*
X9892105Y37105209D02*
X9358771Y37105209D01*
X10225438Y36890923D02*
X10225438Y37790923D01*
X10225438Y37790923D02*
X10625438Y36890923D01*
X10625438Y36890923D02*
X10625438Y37790923D01*
X11425438Y37790923D02*
X11858771Y37790923D01*
X11858771Y37790923D02*
X11625438Y37448066D01*
X11625438Y37448066D02*
X11725438Y37448066D01*
X11725438Y37448066D02*
X11792104Y37405209D01*
X11792104Y37405209D02*
X11825438Y37362352D01*
X11825438Y37362352D02*
X11858771Y37276638D01*
X11858771Y37276638D02*
X11858771Y37062352D01*
X11858771Y37062352D02*
X11825438Y36976638D01*
X11825438Y36976638D02*
X11792104Y36933780D01*
X11792104Y36933780D02*
X11725438Y36890923D01*
X11725438Y36890923D02*
X11525438Y36890923D01*
X11525438Y36890923D02*
X11458771Y36933780D01*
X11458771Y36933780D02*
X11425438Y36976638D01*
X12158771Y37362352D02*
X12692105Y37362352D01*
X12692105Y37105209D02*
X12158771Y37105209D01*
X13025438Y36890923D02*
X13025438Y37790923D01*
X13025438Y37790923D02*
X13425438Y36890923D01*
X13425438Y36890923D02*
X13425438Y37790923D01*
X14592104Y37490923D02*
X14592104Y36890923D01*
X14425438Y37833780D02*
X14258771Y37190923D01*
X14258771Y37190923D02*
X14692104Y37190923D01*
X14958771Y37362352D02*
X15492105Y37362352D01*
X15492105Y37105209D02*
X14958771Y37105209D01*
X15825438Y36890923D02*
X15825438Y37790923D01*
X15825438Y37790923D02*
X16092105Y37790923D01*
X16092105Y37790923D02*
X16158772Y37748066D01*
X16158772Y37748066D02*
X16192105Y37705209D01*
X16192105Y37705209D02*
X16225438Y37619495D01*
X16225438Y37619495D02*
X16225438Y37490923D01*
X16225438Y37490923D02*
X16192105Y37405209D01*
X16192105Y37405209D02*
X16158772Y37362352D01*
X16158772Y37362352D02*
X16092105Y37319495D01*
X16092105Y37319495D02*
X15825438Y37319495D01*
D13*
X62201885Y31928572D02*
X62201885Y32404762D01*
X62544742Y31833334D02*
X61344742Y32166667D01*
X61344742Y32166667D02*
X62544742Y32500000D01*
X62544742Y32833334D02*
X61344742Y32833334D01*
X61344742Y32833334D02*
X62544742Y33404762D01*
X62544742Y33404762D02*
X61344742Y33404762D01*
X61344742Y33738096D02*
X61344742Y34309524D01*
X62544742Y34023810D02*
X61344742Y34023810D01*
X61916171Y34642858D02*
X61916171Y34976191D01*
X62544742Y35119048D02*
X62544742Y34642858D01*
X62544742Y34642858D02*
X61344742Y34642858D01*
X61344742Y34642858D02*
X61344742Y35119048D01*
X62544742Y35547620D02*
X61344742Y35547620D01*
X61344742Y35547620D02*
X62544742Y36119048D01*
X62544742Y36119048D02*
X61344742Y36119048D01*
X62544742Y36595239D02*
X61344742Y36595239D01*
X61344742Y36595239D02*
X62544742Y37166667D01*
X62544742Y37166667D02*
X61344742Y37166667D01*
X62201885Y37595239D02*
X62201885Y38071429D01*
X62544742Y37500001D02*
X61344742Y37833334D01*
X61344742Y37833334D02*
X62544742Y38166667D01*
D14*
X52085526Y23136665D02*
X51752192Y23136665D01*
X51752192Y23136665D02*
X51752192Y23936665D01*
X52318859Y23555713D02*
X52552193Y23555713D01*
X52652193Y23136665D02*
X52318859Y23136665D01*
X52318859Y23136665D02*
X52318859Y23936665D01*
X52318859Y23936665D02*
X52652193Y23936665D01*
X52952192Y23136665D02*
X52952192Y23936665D01*
X52952192Y23936665D02*
X53118859Y23936665D01*
X53118859Y23936665D02*
X53218859Y23898570D01*
X53218859Y23898570D02*
X53285526Y23822380D01*
X53285526Y23822380D02*
X53318859Y23746189D01*
X53318859Y23746189D02*
X53352192Y23593808D01*
X53352192Y23593808D02*
X53352192Y23479522D01*
X53352192Y23479522D02*
X53318859Y23327141D01*
X53318859Y23327141D02*
X53285526Y23250951D01*
X53285526Y23250951D02*
X53218859Y23174760D01*
X53218859Y23174760D02*
X53118859Y23136665D01*
X53118859Y23136665D02*
X52952192Y23136665D01*
X53785526Y23936665D02*
X53852192Y23936665D01*
X53852192Y23936665D02*
X53918859Y23898570D01*
X53918859Y23898570D02*
X53952192Y23860475D01*
X53952192Y23860475D02*
X53985526Y23784284D01*
X53985526Y23784284D02*
X54018859Y23631903D01*
X54018859Y23631903D02*
X54018859Y23441427D01*
X54018859Y23441427D02*
X53985526Y23289046D01*
X53985526Y23289046D02*
X53952192Y23212856D01*
X53952192Y23212856D02*
X53918859Y23174760D01*
X53918859Y23174760D02*
X53852192Y23136665D01*
X53852192Y23136665D02*
X53785526Y23136665D01*
X53785526Y23136665D02*
X53718859Y23174760D01*
X53718859Y23174760D02*
X53685526Y23212856D01*
X53685526Y23212856D02*
X53652192Y23289046D01*
X53652192Y23289046D02*
X53618859Y23441427D01*
X53618859Y23441427D02*
X53618859Y23631903D01*
X53618859Y23631903D02*
X53652192Y23784284D01*
X53652192Y23784284D02*
X53685526Y23860475D01*
X53685526Y23860475D02*
X53718859Y23898570D01*
X53718859Y23898570D02*
X53785526Y23936665D01*
X54852192Y23136665D02*
X54852192Y23936665D01*
X54852192Y23936665D02*
X55018859Y23936665D01*
X55018859Y23936665D02*
X55118859Y23898570D01*
X55118859Y23898570D02*
X55185526Y23822380D01*
X55185526Y23822380D02*
X55218859Y23746189D01*
X55218859Y23746189D02*
X55252192Y23593808D01*
X55252192Y23593808D02*
X55252192Y23479522D01*
X55252192Y23479522D02*
X55218859Y23327141D01*
X55218859Y23327141D02*
X55185526Y23250951D01*
X55185526Y23250951D02*
X55118859Y23174760D01*
X55118859Y23174760D02*
X55018859Y23136665D01*
X55018859Y23136665D02*
X54852192Y23136665D01*
X55552192Y23136665D02*
X55552192Y23936665D01*
X56018859Y23936665D02*
X56152192Y23936665D01*
X56152192Y23936665D02*
X56218859Y23898570D01*
X56218859Y23898570D02*
X56285525Y23822380D01*
X56285525Y23822380D02*
X56318859Y23669999D01*
X56318859Y23669999D02*
X56318859Y23403332D01*
X56318859Y23403332D02*
X56285525Y23250951D01*
X56285525Y23250951D02*
X56218859Y23174760D01*
X56218859Y23174760D02*
X56152192Y23136665D01*
X56152192Y23136665D02*
X56018859Y23136665D01*
X56018859Y23136665D02*
X55952192Y23174760D01*
X55952192Y23174760D02*
X55885525Y23250951D01*
X55885525Y23250951D02*
X55852192Y23403332D01*
X55852192Y23403332D02*
X55852192Y23669999D01*
X55852192Y23669999D02*
X55885525Y23822380D01*
X55885525Y23822380D02*
X55952192Y23898570D01*
X55952192Y23898570D02*
X56018859Y23936665D01*
X56585525Y23365237D02*
X56918858Y23365237D01*
X56518858Y23136665D02*
X56752192Y23936665D01*
X56752192Y23936665D02*
X56985525Y23136665D01*
X57352192Y23936665D02*
X57418858Y23936665D01*
X57418858Y23936665D02*
X57485525Y23898570D01*
X57485525Y23898570D02*
X57518858Y23860475D01*
X57518858Y23860475D02*
X57552192Y23784284D01*
X57552192Y23784284D02*
X57585525Y23631903D01*
X57585525Y23631903D02*
X57585525Y23441427D01*
X57585525Y23441427D02*
X57552192Y23289046D01*
X57552192Y23289046D02*
X57518858Y23212856D01*
X57518858Y23212856D02*
X57485525Y23174760D01*
X57485525Y23174760D02*
X57418858Y23136665D01*
X57418858Y23136665D02*
X57352192Y23136665D01*
X57352192Y23136665D02*
X57285525Y23174760D01*
X57285525Y23174760D02*
X57252192Y23212856D01*
X57252192Y23212856D02*
X57218858Y23289046D01*
X57218858Y23289046D02*
X57185525Y23441427D01*
X57185525Y23441427D02*
X57185525Y23631903D01*
X57185525Y23631903D02*
X57218858Y23784284D01*
X57218858Y23784284D02*
X57252192Y23860475D01*
X57252192Y23860475D02*
X57285525Y23898570D01*
X57285525Y23898570D02*
X57352192Y23936665D01*
D12*
X2758771Y27890923D02*
X2758771Y28790923D01*
X2758771Y28790923D02*
X2925438Y28790923D01*
X2925438Y28790923D02*
X3025438Y28748066D01*
X3025438Y28748066D02*
X3092105Y28662352D01*
X3092105Y28662352D02*
X3125438Y28576638D01*
X3125438Y28576638D02*
X3158771Y28405209D01*
X3158771Y28405209D02*
X3158771Y28276638D01*
X3158771Y28276638D02*
X3125438Y28105209D01*
X3125438Y28105209D02*
X3092105Y28019495D01*
X3092105Y28019495D02*
X3025438Y27933780D01*
X3025438Y27933780D02*
X2925438Y27890923D01*
X2925438Y27890923D02*
X2758771Y27890923D01*
X3858771Y27890923D02*
X3625438Y28319495D01*
X3458771Y27890923D02*
X3458771Y28790923D01*
X3458771Y28790923D02*
X3725438Y28790923D01*
X3725438Y28790923D02*
X3792105Y28748066D01*
X3792105Y28748066D02*
X3825438Y28705209D01*
X3825438Y28705209D02*
X3858771Y28619495D01*
X3858771Y28619495D02*
X3858771Y28490923D01*
X3858771Y28490923D02*
X3825438Y28405209D01*
X3825438Y28405209D02*
X3792105Y28362352D01*
X3792105Y28362352D02*
X3725438Y28319495D01*
X3725438Y28319495D02*
X3458771Y28319495D01*
X4292105Y28790923D02*
X4425438Y28790923D01*
X4425438Y28790923D02*
X4492105Y28748066D01*
X4492105Y28748066D02*
X4558771Y28662352D01*
X4558771Y28662352D02*
X4592105Y28490923D01*
X4592105Y28490923D02*
X4592105Y28190923D01*
X4592105Y28190923D02*
X4558771Y28019495D01*
X4558771Y28019495D02*
X4492105Y27933780D01*
X4492105Y27933780D02*
X4425438Y27890923D01*
X4425438Y27890923D02*
X4292105Y27890923D01*
X4292105Y27890923D02*
X4225438Y27933780D01*
X4225438Y27933780D02*
X4158771Y28019495D01*
X4158771Y28019495D02*
X4125438Y28190923D01*
X4125438Y28190923D02*
X4125438Y28490923D01*
X4125438Y28490923D02*
X4158771Y28662352D01*
X4158771Y28662352D02*
X4225438Y28748066D01*
X4225438Y28748066D02*
X4292105Y28790923D01*
X4892104Y27890923D02*
X4892104Y28790923D01*
X4892104Y28790923D02*
X5158771Y28790923D01*
X5158771Y28790923D02*
X5225438Y28748066D01*
X5225438Y28748066D02*
X5258771Y28705209D01*
X5258771Y28705209D02*
X5292104Y28619495D01*
X5292104Y28619495D02*
X5292104Y28490923D01*
X5292104Y28490923D02*
X5258771Y28405209D01*
X5258771Y28405209D02*
X5225438Y28362352D01*
X5225438Y28362352D02*
X5158771Y28319495D01*
X5158771Y28319495D02*
X4892104Y28319495D01*
X6125437Y27890923D02*
X6125437Y28790923D01*
X6125437Y28790923D02*
X6525437Y27890923D01*
X6525437Y27890923D02*
X6525437Y28790923D01*
X6992104Y28790923D02*
X7125437Y28790923D01*
X7125437Y28790923D02*
X7192104Y28748066D01*
X7192104Y28748066D02*
X7258770Y28662352D01*
X7258770Y28662352D02*
X7292104Y28490923D01*
X7292104Y28490923D02*
X7292104Y28190923D01*
X7292104Y28190923D02*
X7258770Y28019495D01*
X7258770Y28019495D02*
X7192104Y27933780D01*
X7192104Y27933780D02*
X7125437Y27890923D01*
X7125437Y27890923D02*
X6992104Y27890923D01*
X6992104Y27890923D02*
X6925437Y27933780D01*
X6925437Y27933780D02*
X6858770Y28019495D01*
X6858770Y28019495D02*
X6825437Y28190923D01*
X6825437Y28190923D02*
X6825437Y28490923D01*
X6825437Y28490923D02*
X6858770Y28662352D01*
X6858770Y28662352D02*
X6925437Y28748066D01*
X6925437Y28748066D02*
X6992104Y28790923D01*
X7592103Y27890923D02*
X7592103Y28790923D01*
X7592103Y28790923D02*
X7758770Y28790923D01*
X7758770Y28790923D02*
X7858770Y28748066D01*
X7858770Y28748066D02*
X7925437Y28662352D01*
X7925437Y28662352D02*
X7958770Y28576638D01*
X7958770Y28576638D02*
X7992103Y28405209D01*
X7992103Y28405209D02*
X7992103Y28276638D01*
X7992103Y28276638D02*
X7958770Y28105209D01*
X7958770Y28105209D02*
X7925437Y28019495D01*
X7925437Y28019495D02*
X7858770Y27933780D01*
X7858770Y27933780D02*
X7758770Y27890923D01*
X7758770Y27890923D02*
X7592103Y27890923D01*
X8292103Y28362352D02*
X8525437Y28362352D01*
X8625437Y27890923D02*
X8292103Y27890923D01*
X8292103Y27890923D02*
X8292103Y28790923D01*
X8292103Y28790923D02*
X8625437Y28790923D01*
X9458769Y27976638D02*
X9492103Y27933780D01*
X9492103Y27933780D02*
X9458769Y27890923D01*
X9458769Y27890923D02*
X9425436Y27933780D01*
X9425436Y27933780D02*
X9458769Y27976638D01*
X9458769Y27976638D02*
X9458769Y27890923D01*
X9792102Y27976638D02*
X9825436Y27933780D01*
X9825436Y27933780D02*
X9792102Y27890923D01*
X9792102Y27890923D02*
X9758769Y27933780D01*
X9758769Y27933780D02*
X9792102Y27976638D01*
X9792102Y27976638D02*
X9792102Y27890923D01*
X10125435Y27976638D02*
X10158769Y27933780D01*
X10158769Y27933780D02*
X10125435Y27890923D01*
X10125435Y27890923D02*
X10092102Y27933780D01*
X10092102Y27933780D02*
X10125435Y27976638D01*
X10125435Y27976638D02*
X10125435Y27890923D01*
X10458768Y27976638D02*
X10492102Y27933780D01*
X10492102Y27933780D02*
X10458768Y27890923D01*
X10458768Y27890923D02*
X10425435Y27933780D01*
X10425435Y27933780D02*
X10458768Y27976638D01*
X10458768Y27976638D02*
X10458768Y27890923D01*
X11692101Y27890923D02*
X11292101Y27890923D01*
X11492101Y27890923D02*
X11492101Y28790923D01*
X11492101Y28790923D02*
X11425434Y28662352D01*
X11425434Y28662352D02*
X11358768Y28576638D01*
X11358768Y28576638D02*
X11292101Y28533780D01*
X11992101Y27890923D02*
X11992101Y28790923D01*
X12392101Y27890923D02*
X12092101Y28405209D01*
X12392101Y28790923D02*
X11992101Y28276638D01*
X13025435Y28790923D02*
X12692101Y28790923D01*
X12692101Y28790923D02*
X12658768Y28362352D01*
X12658768Y28362352D02*
X12692101Y28405209D01*
X12692101Y28405209D02*
X12758768Y28448066D01*
X12758768Y28448066D02*
X12925435Y28448066D01*
X12925435Y28448066D02*
X12992101Y28405209D01*
X12992101Y28405209D02*
X13025435Y28362352D01*
X13025435Y28362352D02*
X13058768Y28276638D01*
X13058768Y28276638D02*
X13058768Y28062352D01*
X13058768Y28062352D02*
X13025435Y27976638D01*
X13025435Y27976638D02*
X12992101Y27933780D01*
X12992101Y27933780D02*
X12925435Y27890923D01*
X12925435Y27890923D02*
X12758768Y27890923D01*
X12758768Y27890923D02*
X12692101Y27933780D01*
X12692101Y27933780D02*
X12658768Y27976638D01*
X14792101Y27890923D02*
X14392101Y27890923D01*
X14592101Y27890923D02*
X14592101Y28790923D01*
X14592101Y28790923D02*
X14525434Y28662352D01*
X14525434Y28662352D02*
X14458768Y28576638D01*
X14458768Y28576638D02*
X14392101Y28533780D01*
X15058768Y27890923D02*
X15592101Y28790923D01*
X15158768Y28790923D02*
X15225435Y28748066D01*
X15225435Y28748066D02*
X15258768Y28662352D01*
X15258768Y28662352D02*
X15225435Y28576638D01*
X15225435Y28576638D02*
X15158768Y28533780D01*
X15158768Y28533780D02*
X15092101Y28576638D01*
X15092101Y28576638D02*
X15058768Y28662352D01*
X15058768Y28662352D02*
X15092101Y28748066D01*
X15092101Y28748066D02*
X15158768Y28790923D01*
X15558768Y27933780D02*
X15592101Y28019495D01*
X15592101Y28019495D02*
X15558768Y28105209D01*
X15558768Y28105209D02*
X15492101Y28148066D01*
X15492101Y28148066D02*
X15425435Y28105209D01*
X15425435Y28105209D02*
X15392101Y28019495D01*
X15392101Y28019495D02*
X15425435Y27933780D01*
X15425435Y27933780D02*
X15492101Y27890923D01*
X15492101Y27890923D02*
X15558768Y27933780D01*
D15*
X2744736Y44310036D02*
X3344736Y44310036D01*
X3044736Y43010036D02*
X3044736Y44310036D01*
X4244736Y43010036D02*
X3644736Y43010036D01*
X3944736Y43010036D02*
X3944736Y44310036D01*
X3944736Y44310036D02*
X3844736Y44124321D01*
X3844736Y44124321D02*
X3744736Y44000512D01*
X3744736Y44000512D02*
X3644736Y43938607D01*
X4644736Y43071940D02*
X4794736Y43010036D01*
X4794736Y43010036D02*
X5044736Y43010036D01*
X5044736Y43010036D02*
X5144736Y43071940D01*
X5144736Y43071940D02*
X5194736Y43133845D01*
X5194736Y43133845D02*
X5244736Y43257655D01*
X5244736Y43257655D02*
X5244736Y43381464D01*
X5244736Y43381464D02*
X5194736Y43505274D01*
X5194736Y43505274D02*
X5144736Y43567179D01*
X5144736Y43567179D02*
X5044736Y43629083D01*
X5044736Y43629083D02*
X4844736Y43690988D01*
X4844736Y43690988D02*
X4744736Y43752893D01*
X4744736Y43752893D02*
X4694736Y43814798D01*
X4694736Y43814798D02*
X4644736Y43938607D01*
X4644736Y43938607D02*
X4644736Y44062417D01*
X4644736Y44062417D02*
X4694736Y44186226D01*
X4694736Y44186226D02*
X4744736Y44248131D01*
X4744736Y44248131D02*
X4844736Y44310036D01*
X4844736Y44310036D02*
X5094736Y44310036D01*
X5094736Y44310036D02*
X5244736Y44248131D01*
X6844736Y43690988D02*
X6994736Y43629083D01*
X6994736Y43629083D02*
X7044736Y43567179D01*
X7044736Y43567179D02*
X7094736Y43443369D01*
X7094736Y43443369D02*
X7094736Y43257655D01*
X7094736Y43257655D02*
X7044736Y43133845D01*
X7044736Y43133845D02*
X6994736Y43071940D01*
X6994736Y43071940D02*
X6894736Y43010036D01*
X6894736Y43010036D02*
X6494736Y43010036D01*
X6494736Y43010036D02*
X6494736Y44310036D01*
X6494736Y44310036D02*
X6844736Y44310036D01*
X6844736Y44310036D02*
X6944736Y44248131D01*
X6944736Y44248131D02*
X6994736Y44186226D01*
X6994736Y44186226D02*
X7044736Y44062417D01*
X7044736Y44062417D02*
X7044736Y43938607D01*
X7044736Y43938607D02*
X6994736Y43814798D01*
X6994736Y43814798D02*
X6944736Y43752893D01*
X6944736Y43752893D02*
X6844736Y43690988D01*
X6844736Y43690988D02*
X6494736Y43690988D01*
X7544736Y44310036D02*
X7544736Y43257655D01*
X7544736Y43257655D02*
X7594736Y43133845D01*
X7594736Y43133845D02*
X7644736Y43071940D01*
X7644736Y43071940D02*
X7744736Y43010036D01*
X7744736Y43010036D02*
X7944736Y43010036D01*
X7944736Y43010036D02*
X8044736Y43071940D01*
X8044736Y43071940D02*
X8094736Y43133845D01*
X8094736Y43133845D02*
X8144736Y43257655D01*
X8144736Y43257655D02*
X8144736Y44310036D01*
X8594736Y43071940D02*
X8744736Y43010036D01*
X8744736Y43010036D02*
X8994736Y43010036D01*
X8994736Y43010036D02*
X9094736Y43071940D01*
X9094736Y43071940D02*
X9144736Y43133845D01*
X9144736Y43133845D02*
X9194736Y43257655D01*
X9194736Y43257655D02*
X9194736Y43381464D01*
X9194736Y43381464D02*
X9144736Y43505274D01*
X9144736Y43505274D02*
X9094736Y43567179D01*
X9094736Y43567179D02*
X8994736Y43629083D01*
X8994736Y43629083D02*
X8794736Y43690988D01*
X8794736Y43690988D02*
X8694736Y43752893D01*
X8694736Y43752893D02*
X8644736Y43814798D01*
X8644736Y43814798D02*
X8594736Y43938607D01*
X8594736Y43938607D02*
X8594736Y44062417D01*
X8594736Y44062417D02*
X8644736Y44186226D01*
X8644736Y44186226D02*
X8694736Y44248131D01*
X8694736Y44248131D02*
X8794736Y44310036D01*
X8794736Y44310036D02*
X9044736Y44310036D01*
X9044736Y44310036D02*
X9194736Y44248131D01*
X39907143Y48363774D02*
X40535715Y48363774D01*
X40221429Y46963774D02*
X40221429Y48363774D01*
X41478572Y46963774D02*
X40850000Y46963774D01*
X41164286Y46963774D02*
X41164286Y48363774D01*
X41164286Y48363774D02*
X41059524Y48163774D01*
X41059524Y48163774D02*
X40954762Y48030440D01*
X40954762Y48030440D02*
X40850000Y47963774D01*
X41897619Y47030440D02*
X42054762Y46963774D01*
X42054762Y46963774D02*
X42316667Y46963774D01*
X42316667Y46963774D02*
X42421429Y47030440D01*
X42421429Y47030440D02*
X42473810Y47097107D01*
X42473810Y47097107D02*
X42526191Y47230440D01*
X42526191Y47230440D02*
X42526191Y47363774D01*
X42526191Y47363774D02*
X42473810Y47497107D01*
X42473810Y47497107D02*
X42421429Y47563774D01*
X42421429Y47563774D02*
X42316667Y47630440D01*
X42316667Y47630440D02*
X42107143Y47697107D01*
X42107143Y47697107D02*
X42002381Y47763774D01*
X42002381Y47763774D02*
X41950000Y47830440D01*
X41950000Y47830440D02*
X41897619Y47963774D01*
X41897619Y47963774D02*
X41897619Y48097107D01*
X41897619Y48097107D02*
X41950000Y48230440D01*
X41950000Y48230440D02*
X42002381Y48297107D01*
X42002381Y48297107D02*
X42107143Y48363774D01*
X42107143Y48363774D02*
X42369048Y48363774D01*
X42369048Y48363774D02*
X42526191Y48297107D01*
X43835714Y46963774D02*
X43835714Y48363774D01*
X43835714Y47697107D02*
X44464286Y47697107D01*
X44464286Y46963774D02*
X44464286Y48363774D01*
X44935714Y47363774D02*
X45459524Y47363774D01*
X44830952Y46963774D02*
X45197619Y48363774D01*
X45197619Y48363774D02*
X45564286Y46963774D01*
X45773809Y48363774D02*
X46402381Y48363774D01*
X46088095Y46963774D02*
X46088095Y48363774D01*
X49807142Y46963774D02*
X49283332Y46963774D01*
X49283332Y46963774D02*
X49283332Y48363774D01*
X50121427Y47363774D02*
X50645237Y47363774D01*
X50016665Y46963774D02*
X50383332Y48363774D01*
X50383332Y48363774D02*
X50749999Y46963774D01*
X51116665Y46963774D02*
X51116665Y48363774D01*
X51116665Y48363774D02*
X51745237Y46963774D01*
X51745237Y46963774D02*
X51745237Y48363774D01*
X52426189Y47763774D02*
X52321427Y47830440D01*
X52321427Y47830440D02*
X52269046Y47897107D01*
X52269046Y47897107D02*
X52216665Y48030440D01*
X52216665Y48030440D02*
X52216665Y48097107D01*
X52216665Y48097107D02*
X52269046Y48230440D01*
X52269046Y48230440D02*
X52321427Y48297107D01*
X52321427Y48297107D02*
X52426189Y48363774D01*
X52426189Y48363774D02*
X52635713Y48363774D01*
X52635713Y48363774D02*
X52740475Y48297107D01*
X52740475Y48297107D02*
X52792856Y48230440D01*
X52792856Y48230440D02*
X52845237Y48097107D01*
X52845237Y48097107D02*
X52845237Y48030440D01*
X52845237Y48030440D02*
X52792856Y47897107D01*
X52792856Y47897107D02*
X52740475Y47830440D01*
X52740475Y47830440D02*
X52635713Y47763774D01*
X52635713Y47763774D02*
X52426189Y47763774D01*
X52426189Y47763774D02*
X52321427Y47697107D01*
X52321427Y47697107D02*
X52269046Y47630440D01*
X52269046Y47630440D02*
X52216665Y47497107D01*
X52216665Y47497107D02*
X52216665Y47230440D01*
X52216665Y47230440D02*
X52269046Y47097107D01*
X52269046Y47097107D02*
X52321427Y47030440D01*
X52321427Y47030440D02*
X52426189Y46963774D01*
X52426189Y46963774D02*
X52635713Y46963774D01*
X52635713Y46963774D02*
X52740475Y47030440D01*
X52740475Y47030440D02*
X52792856Y47097107D01*
X52792856Y47097107D02*
X52845237Y47230440D01*
X52845237Y47230440D02*
X52845237Y47497107D01*
X52845237Y47497107D02*
X52792856Y47630440D01*
X52792856Y47630440D02*
X52740475Y47697107D01*
X52740475Y47697107D02*
X52635713Y47763774D01*
X53788094Y48363774D02*
X53578570Y48363774D01*
X53578570Y48363774D02*
X53473808Y48297107D01*
X53473808Y48297107D02*
X53421427Y48230440D01*
X53421427Y48230440D02*
X53316665Y48030440D01*
X53316665Y48030440D02*
X53264284Y47763774D01*
X53264284Y47763774D02*
X53264284Y47230440D01*
X53264284Y47230440D02*
X53316665Y47097107D01*
X53316665Y47097107D02*
X53369046Y47030440D01*
X53369046Y47030440D02*
X53473808Y46963774D01*
X53473808Y46963774D02*
X53683332Y46963774D01*
X53683332Y46963774D02*
X53788094Y47030440D01*
X53788094Y47030440D02*
X53840475Y47097107D01*
X53840475Y47097107D02*
X53892856Y47230440D01*
X53892856Y47230440D02*
X53892856Y47563774D01*
X53892856Y47563774D02*
X53840475Y47697107D01*
X53840475Y47697107D02*
X53788094Y47763774D01*
X53788094Y47763774D02*
X53683332Y47830440D01*
X53683332Y47830440D02*
X53473808Y47830440D01*
X53473808Y47830440D02*
X53369046Y47763774D01*
X53369046Y47763774D02*
X53316665Y47697107D01*
X53316665Y47697107D02*
X53264284Y47563774D01*
X54888094Y48363774D02*
X54364284Y48363774D01*
X54364284Y48363774D02*
X54311903Y47697107D01*
X54311903Y47697107D02*
X54364284Y47763774D01*
X54364284Y47763774D02*
X54469046Y47830440D01*
X54469046Y47830440D02*
X54730951Y47830440D01*
X54730951Y47830440D02*
X54835713Y47763774D01*
X54835713Y47763774D02*
X54888094Y47697107D01*
X54888094Y47697107D02*
X54940475Y47563774D01*
X54940475Y47563774D02*
X54940475Y47230440D01*
X54940475Y47230440D02*
X54888094Y47097107D01*
X54888094Y47097107D02*
X54835713Y47030440D01*
X54835713Y47030440D02*
X54730951Y46963774D01*
X54730951Y46963774D02*
X54469046Y46963774D01*
X54469046Y46963774D02*
X54364284Y47030440D01*
X54364284Y47030440D02*
X54311903Y47097107D01*
X55988094Y46963774D02*
X55359522Y46963774D01*
X55673808Y46963774D02*
X55673808Y48363774D01*
X55673808Y48363774D02*
X55569046Y48163774D01*
X55569046Y48163774D02*
X55464284Y48030440D01*
X55464284Y48030440D02*
X55359522Y47963774D01*
D12*
X2758771Y29912352D02*
X2992105Y29912352D01*
X3092105Y29440923D02*
X2758771Y29440923D01*
X2758771Y29440923D02*
X2758771Y30340923D01*
X2758771Y30340923D02*
X3092105Y30340923D01*
X3392104Y29440923D02*
X3392104Y30340923D01*
X3392104Y30340923D02*
X3792104Y29440923D01*
X3792104Y29440923D02*
X3792104Y30340923D01*
X4125437Y29440923D02*
X4125437Y30340923D01*
X4125437Y30340923D02*
X4292104Y30340923D01*
X4292104Y30340923D02*
X4392104Y30298066D01*
X4392104Y30298066D02*
X4458771Y30212352D01*
X4458771Y30212352D02*
X4492104Y30126638D01*
X4492104Y30126638D02*
X4525437Y29955209D01*
X4525437Y29955209D02*
X4525437Y29826638D01*
X4525437Y29826638D02*
X4492104Y29655209D01*
X4492104Y29655209D02*
X4458771Y29569495D01*
X4458771Y29569495D02*
X4392104Y29483780D01*
X4392104Y29483780D02*
X4292104Y29440923D01*
X4292104Y29440923D02*
X4125437Y29440923D01*
X5492104Y30340923D02*
X5625437Y30340923D01*
X5625437Y30340923D02*
X5692104Y30298066D01*
X5692104Y30298066D02*
X5758770Y30212352D01*
X5758770Y30212352D02*
X5792104Y30040923D01*
X5792104Y30040923D02*
X5792104Y29740923D01*
X5792104Y29740923D02*
X5758770Y29569495D01*
X5758770Y29569495D02*
X5692104Y29483780D01*
X5692104Y29483780D02*
X5625437Y29440923D01*
X5625437Y29440923D02*
X5492104Y29440923D01*
X5492104Y29440923D02*
X5425437Y29483780D01*
X5425437Y29483780D02*
X5358770Y29569495D01*
X5358770Y29569495D02*
X5325437Y29740923D01*
X5325437Y29740923D02*
X5325437Y30040923D01*
X5325437Y30040923D02*
X5358770Y30212352D01*
X5358770Y30212352D02*
X5425437Y30298066D01*
X5425437Y30298066D02*
X5492104Y30340923D01*
X6325437Y29912352D02*
X6092103Y29912352D01*
X6092103Y29440923D02*
X6092103Y30340923D01*
X6092103Y30340923D02*
X6425437Y30340923D01*
X7458770Y29912352D02*
X7558770Y29869495D01*
X7558770Y29869495D02*
X7592103Y29826638D01*
X7592103Y29826638D02*
X7625436Y29740923D01*
X7625436Y29740923D02*
X7625436Y29612352D01*
X7625436Y29612352D02*
X7592103Y29526638D01*
X7592103Y29526638D02*
X7558770Y29483780D01*
X7558770Y29483780D02*
X7492103Y29440923D01*
X7492103Y29440923D02*
X7225436Y29440923D01*
X7225436Y29440923D02*
X7225436Y30340923D01*
X7225436Y30340923D02*
X7458770Y30340923D01*
X7458770Y30340923D02*
X7525436Y30298066D01*
X7525436Y30298066D02*
X7558770Y30255209D01*
X7558770Y30255209D02*
X7592103Y30169495D01*
X7592103Y30169495D02*
X7592103Y30083780D01*
X7592103Y30083780D02*
X7558770Y29998066D01*
X7558770Y29998066D02*
X7525436Y29955209D01*
X7525436Y29955209D02*
X7458770Y29912352D01*
X7458770Y29912352D02*
X7225436Y29912352D01*
X7925436Y30340923D02*
X7925436Y29612352D01*
X7925436Y29612352D02*
X7958770Y29526638D01*
X7958770Y29526638D02*
X7992103Y29483780D01*
X7992103Y29483780D02*
X8058770Y29440923D01*
X8058770Y29440923D02*
X8192103Y29440923D01*
X8192103Y29440923D02*
X8258770Y29483780D01*
X8258770Y29483780D02*
X8292103Y29526638D01*
X8292103Y29526638D02*
X8325436Y29612352D01*
X8325436Y29612352D02*
X8325436Y30340923D01*
X8625436Y29483780D02*
X8725436Y29440923D01*
X8725436Y29440923D02*
X8892103Y29440923D01*
X8892103Y29440923D02*
X8958769Y29483780D01*
X8958769Y29483780D02*
X8992103Y29526638D01*
X8992103Y29526638D02*
X9025436Y29612352D01*
X9025436Y29612352D02*
X9025436Y29698066D01*
X9025436Y29698066D02*
X8992103Y29783780D01*
X8992103Y29783780D02*
X8958769Y29826638D01*
X8958769Y29826638D02*
X8892103Y29869495D01*
X8892103Y29869495D02*
X8758769Y29912352D01*
X8758769Y29912352D02*
X8692103Y29955209D01*
X8692103Y29955209D02*
X8658769Y29998066D01*
X8658769Y29998066D02*
X8625436Y30083780D01*
X8625436Y30083780D02*
X8625436Y30169495D01*
X8625436Y30169495D02*
X8658769Y30255209D01*
X8658769Y30255209D02*
X8692103Y30298066D01*
X8692103Y30298066D02*
X8758769Y30340923D01*
X8758769Y30340923D02*
X8925436Y30340923D01*
X8925436Y30340923D02*
X9025436Y30298066D01*
X9858769Y29526638D02*
X9892103Y29483780D01*
X9892103Y29483780D02*
X9858769Y29440923D01*
X9858769Y29440923D02*
X9825436Y29483780D01*
X9825436Y29483780D02*
X9858769Y29526638D01*
X9858769Y29526638D02*
X9858769Y29440923D01*
X10192102Y29526638D02*
X10225436Y29483780D01*
X10225436Y29483780D02*
X10192102Y29440923D01*
X10192102Y29440923D02*
X10158769Y29483780D01*
X10158769Y29483780D02*
X10192102Y29526638D01*
X10192102Y29526638D02*
X10192102Y29440923D01*
X10525435Y29526638D02*
X10558769Y29483780D01*
X10558769Y29483780D02*
X10525435Y29440923D01*
X10525435Y29440923D02*
X10492102Y29483780D01*
X10492102Y29483780D02*
X10525435Y29526638D01*
X10525435Y29526638D02*
X10525435Y29440923D01*
X11692101Y30040923D02*
X11692101Y29440923D01*
X11525435Y30383780D02*
X11358768Y29740923D01*
X11358768Y29740923D02*
X11792101Y29740923D01*
X12092102Y29440923D02*
X12225435Y29440923D01*
X12225435Y29440923D02*
X12292102Y29483780D01*
X12292102Y29483780D02*
X12325435Y29526638D01*
X12325435Y29526638D02*
X12392102Y29655209D01*
X12392102Y29655209D02*
X12425435Y29826638D01*
X12425435Y29826638D02*
X12425435Y30169495D01*
X12425435Y30169495D02*
X12392102Y30255209D01*
X12392102Y30255209D02*
X12358768Y30298066D01*
X12358768Y30298066D02*
X12292102Y30340923D01*
X12292102Y30340923D02*
X12158768Y30340923D01*
X12158768Y30340923D02*
X12092102Y30298066D01*
X12092102Y30298066D02*
X12058768Y30255209D01*
X12058768Y30255209D02*
X12025435Y30169495D01*
X12025435Y30169495D02*
X12025435Y29955209D01*
X12025435Y29955209D02*
X12058768Y29869495D01*
X12058768Y29869495D02*
X12092102Y29826638D01*
X12092102Y29826638D02*
X12158768Y29783780D01*
X12158768Y29783780D02*
X12292102Y29783780D01*
X12292102Y29783780D02*
X12358768Y29826638D01*
X12358768Y29826638D02*
X12392102Y29869495D01*
X12392102Y29869495D02*
X12425435Y29955209D01*
X13125435Y29440923D02*
X12892102Y29869495D01*
X12725435Y29440923D02*
X12725435Y30340923D01*
X12725435Y30340923D02*
X12992102Y30340923D01*
X12992102Y30340923D02*
X13058769Y30298066D01*
X13058769Y30298066D02*
X13092102Y30255209D01*
X13092102Y30255209D02*
X13125435Y30169495D01*
X13125435Y30169495D02*
X13125435Y30040923D01*
X13125435Y30040923D02*
X13092102Y29955209D01*
X13092102Y29955209D02*
X13058769Y29912352D01*
X13058769Y29912352D02*
X12992102Y29869495D01*
X12992102Y29869495D02*
X12725435Y29869495D01*
X13458769Y29440923D02*
X13592102Y29440923D01*
X13592102Y29440923D02*
X13658769Y29483780D01*
X13658769Y29483780D02*
X13692102Y29526638D01*
X13692102Y29526638D02*
X13758769Y29655209D01*
X13758769Y29655209D02*
X13792102Y29826638D01*
X13792102Y29826638D02*
X13792102Y30169495D01*
X13792102Y30169495D02*
X13758769Y30255209D01*
X13758769Y30255209D02*
X13725435Y30298066D01*
X13725435Y30298066D02*
X13658769Y30340923D01*
X13658769Y30340923D02*
X13525435Y30340923D01*
X13525435Y30340923D02*
X13458769Y30298066D01*
X13458769Y30298066D02*
X13425435Y30255209D01*
X13425435Y30255209D02*
X13392102Y30169495D01*
X13392102Y30169495D02*
X13392102Y29955209D01*
X13392102Y29955209D02*
X13425435Y29869495D01*
X13425435Y29869495D02*
X13458769Y29826638D01*
X13458769Y29826638D02*
X13525435Y29783780D01*
X13525435Y29783780D02*
X13658769Y29783780D01*
X13658769Y29783780D02*
X13725435Y29826638D01*
X13725435Y29826638D02*
X13758769Y29869495D01*
X13758769Y29869495D02*
X13792102Y29955209D01*
X14992102Y29440923D02*
X14592102Y29440923D01*
X14792102Y29440923D02*
X14792102Y30340923D01*
X14792102Y30340923D02*
X14725435Y30212352D01*
X14725435Y30212352D02*
X14658769Y30126638D01*
X14658769Y30126638D02*
X14592102Y30083780D01*
X15258769Y29440923D02*
X15792102Y30340923D01*
X15358769Y30340923D02*
X15425436Y30298066D01*
X15425436Y30298066D02*
X15458769Y30212352D01*
X15458769Y30212352D02*
X15425436Y30126638D01*
X15425436Y30126638D02*
X15358769Y30083780D01*
X15358769Y30083780D02*
X15292102Y30126638D01*
X15292102Y30126638D02*
X15258769Y30212352D01*
X15258769Y30212352D02*
X15292102Y30298066D01*
X15292102Y30298066D02*
X15358769Y30340923D01*
X15758769Y29483780D02*
X15792102Y29569495D01*
X15792102Y29569495D02*
X15758769Y29655209D01*
X15758769Y29655209D02*
X15692102Y29698066D01*
X15692102Y29698066D02*
X15625436Y29655209D01*
X15625436Y29655209D02*
X15592102Y29569495D01*
X15592102Y29569495D02*
X15625436Y29483780D01*
X15625436Y29483780D02*
X15692102Y29440923D01*
X15692102Y29440923D02*
X15758769Y29483780D01*
X16992102Y29440923D02*
X16592102Y29440923D01*
X16792102Y29440923D02*
X16792102Y30340923D01*
X16792102Y30340923D02*
X16725435Y30212352D01*
X16725435Y30212352D02*
X16658769Y30126638D01*
X16658769Y30126638D02*
X16592102Y30083780D01*
X17225436Y30340923D02*
X17392102Y29440923D01*
X17392102Y29440923D02*
X17525436Y30083780D01*
X17525436Y30083780D02*
X17658769Y29440923D01*
X17658769Y29440923D02*
X17825436Y30340923D01*
X3140676Y41290923D02*
X2729247Y41290923D01*
X2934962Y41290923D02*
X2934962Y42190923D01*
X2934962Y42190923D02*
X2866390Y42062352D01*
X2866390Y42062352D02*
X2797819Y41976638D01*
X2797819Y41976638D02*
X2729247Y41933780D01*
X3449247Y41633780D02*
X3997819Y41633780D01*
X4306390Y42105209D02*
X4340676Y42148066D01*
X4340676Y42148066D02*
X4409248Y42190923D01*
X4409248Y42190923D02*
X4580676Y42190923D01*
X4580676Y42190923D02*
X4649248Y42148066D01*
X4649248Y42148066D02*
X4683533Y42105209D01*
X4683533Y42105209D02*
X4717819Y42019495D01*
X4717819Y42019495D02*
X4717819Y41933780D01*
X4717819Y41933780D02*
X4683533Y41805209D01*
X4683533Y41805209D02*
X4272105Y41290923D01*
X4272105Y41290923D02*
X4717819Y41290923D01*
X5574961Y41762352D02*
X6123533Y41762352D01*
X6123533Y41505209D02*
X5574961Y41505209D01*
X6946390Y42190923D02*
X7392104Y42190923D01*
X7392104Y42190923D02*
X7152104Y41848066D01*
X7152104Y41848066D02*
X7254961Y41848066D01*
X7254961Y41848066D02*
X7323533Y41805209D01*
X7323533Y41805209D02*
X7357818Y41762352D01*
X7357818Y41762352D02*
X7392104Y41676638D01*
X7392104Y41676638D02*
X7392104Y41462352D01*
X7392104Y41462352D02*
X7357818Y41376638D01*
X7357818Y41376638D02*
X7323533Y41333780D01*
X7323533Y41333780D02*
X7254961Y41290923D01*
X7254961Y41290923D02*
X7049247Y41290923D01*
X7049247Y41290923D02*
X6980675Y41333780D01*
X6980675Y41333780D02*
X6946390Y41376638D01*
X7700675Y41633780D02*
X8249247Y41633780D01*
X8900676Y41890923D02*
X8900676Y41290923D01*
X8729247Y42233780D02*
X8557818Y41590923D01*
X8557818Y41590923D02*
X9003533Y41590923D01*
D14*
X52085526Y25136665D02*
X51752192Y25136665D01*
X51752192Y25136665D02*
X51752192Y25936665D01*
X52318859Y25555713D02*
X52552193Y25555713D01*
X52652193Y25136665D02*
X52318859Y25136665D01*
X52318859Y25136665D02*
X52318859Y25936665D01*
X52318859Y25936665D02*
X52652193Y25936665D01*
X52952192Y25136665D02*
X52952192Y25936665D01*
X52952192Y25936665D02*
X53118859Y25936665D01*
X53118859Y25936665D02*
X53218859Y25898570D01*
X53218859Y25898570D02*
X53285526Y25822380D01*
X53285526Y25822380D02*
X53318859Y25746189D01*
X53318859Y25746189D02*
X53352192Y25593808D01*
X53352192Y25593808D02*
X53352192Y25479522D01*
X53352192Y25479522D02*
X53318859Y25327141D01*
X53318859Y25327141D02*
X53285526Y25250951D01*
X53285526Y25250951D02*
X53218859Y25174760D01*
X53218859Y25174760D02*
X53118859Y25136665D01*
X53118859Y25136665D02*
X52952192Y25136665D01*
X54018859Y25136665D02*
X53618859Y25136665D01*
X53818859Y25136665D02*
X53818859Y25936665D01*
X53818859Y25936665D02*
X53752192Y25822380D01*
X53752192Y25822380D02*
X53685526Y25746189D01*
X53685526Y25746189D02*
X53618859Y25708094D01*
X54852192Y25136665D02*
X54852192Y25936665D01*
X54852192Y25936665D02*
X55018859Y25936665D01*
X55018859Y25936665D02*
X55118859Y25898570D01*
X55118859Y25898570D02*
X55185526Y25822380D01*
X55185526Y25822380D02*
X55218859Y25746189D01*
X55218859Y25746189D02*
X55252192Y25593808D01*
X55252192Y25593808D02*
X55252192Y25479522D01*
X55252192Y25479522D02*
X55218859Y25327141D01*
X55218859Y25327141D02*
X55185526Y25250951D01*
X55185526Y25250951D02*
X55118859Y25174760D01*
X55118859Y25174760D02*
X55018859Y25136665D01*
X55018859Y25136665D02*
X54852192Y25136665D01*
X55552192Y25136665D02*
X55552192Y25936665D01*
X56018859Y25936665D02*
X56152192Y25936665D01*
X56152192Y25936665D02*
X56218859Y25898570D01*
X56218859Y25898570D02*
X56285525Y25822380D01*
X56285525Y25822380D02*
X56318859Y25669999D01*
X56318859Y25669999D02*
X56318859Y25403332D01*
X56318859Y25403332D02*
X56285525Y25250951D01*
X56285525Y25250951D02*
X56218859Y25174760D01*
X56218859Y25174760D02*
X56152192Y25136665D01*
X56152192Y25136665D02*
X56018859Y25136665D01*
X56018859Y25136665D02*
X55952192Y25174760D01*
X55952192Y25174760D02*
X55885525Y25250951D01*
X55885525Y25250951D02*
X55852192Y25403332D01*
X55852192Y25403332D02*
X55852192Y25669999D01*
X55852192Y25669999D02*
X55885525Y25822380D01*
X55885525Y25822380D02*
X55952192Y25898570D01*
X55952192Y25898570D02*
X56018859Y25936665D01*
X56585525Y25365237D02*
X56918858Y25365237D01*
X56518858Y25136665D02*
X56752192Y25936665D01*
X56752192Y25936665D02*
X56985525Y25136665D01*
X57585525Y25136665D02*
X57185525Y25136665D01*
X57385525Y25136665D02*
X57385525Y25936665D01*
X57385525Y25936665D02*
X57318858Y25822380D01*
X57318858Y25822380D02*
X57252192Y25746189D01*
X57252192Y25746189D02*
X57185525Y25708094D01*
D12*
X10078676Y9090923D02*
X10078676Y8448066D01*
X10078676Y8448066D02*
X10043533Y8319495D01*
X10043533Y8319495D02*
X9973247Y8233780D01*
X9973247Y8233780D02*
X9867819Y8190923D01*
X9867819Y8190923D02*
X9797533Y8190923D01*
X10816676Y8190923D02*
X10394962Y8190923D01*
X10605819Y8190923D02*
X10605819Y9090923D01*
X10605819Y9090923D02*
X10535533Y8962352D01*
X10535533Y8962352D02*
X10465248Y8876638D01*
X10465248Y8876638D02*
X10394962Y8833780D01*
X11695248Y8190923D02*
X11695248Y9090923D01*
X11695248Y9090923D02*
X11976391Y9090923D01*
X11976391Y9090923D02*
X12046676Y9048066D01*
X12046676Y9048066D02*
X12081819Y9005209D01*
X12081819Y9005209D02*
X12116962Y8919495D01*
X12116962Y8919495D02*
X12116962Y8790923D01*
X12116962Y8790923D02*
X12081819Y8705209D01*
X12081819Y8705209D02*
X12046676Y8662352D01*
X12046676Y8662352D02*
X11976391Y8619495D01*
X11976391Y8619495D02*
X11695248Y8619495D01*
X12433248Y8190923D02*
X12433248Y9090923D01*
X12784677Y8190923D02*
X12784677Y9090923D01*
X12784677Y9090923D02*
X13206391Y8190923D01*
X13206391Y8190923D02*
X13206391Y9090923D01*
X14506677Y8190923D02*
X14084963Y8190923D01*
X14295820Y8190923D02*
X14295820Y9090923D01*
X14295820Y9090923D02*
X14225534Y8962352D01*
X14225534Y8962352D02*
X14155249Y8876638D01*
X14155249Y8876638D02*
X14084963Y8833780D01*
X3158771Y26340923D02*
X2925438Y26769495D01*
X2758771Y26340923D02*
X2758771Y27240923D01*
X2758771Y27240923D02*
X3025438Y27240923D01*
X3025438Y27240923D02*
X3092105Y27198066D01*
X3092105Y27198066D02*
X3125438Y27155209D01*
X3125438Y27155209D02*
X3158771Y27069495D01*
X3158771Y27069495D02*
X3158771Y26940923D01*
X3158771Y26940923D02*
X3125438Y26855209D01*
X3125438Y26855209D02*
X3092105Y26812352D01*
X3092105Y26812352D02*
X3025438Y26769495D01*
X3025438Y26769495D02*
X2758771Y26769495D01*
X3392105Y27240923D02*
X3825438Y27240923D01*
X3825438Y27240923D02*
X3592105Y26898066D01*
X3592105Y26898066D02*
X3692105Y26898066D01*
X3692105Y26898066D02*
X3758771Y26855209D01*
X3758771Y26855209D02*
X3792105Y26812352D01*
X3792105Y26812352D02*
X3825438Y26726638D01*
X3825438Y26726638D02*
X3825438Y26512352D01*
X3825438Y26512352D02*
X3792105Y26426638D01*
X3792105Y26426638D02*
X3758771Y26383780D01*
X3758771Y26383780D02*
X3692105Y26340923D01*
X3692105Y26340923D02*
X3492105Y26340923D01*
X3492105Y26340923D02*
X3425438Y26383780D01*
X3425438Y26383780D02*
X3392105Y26426638D01*
X5058771Y26426638D02*
X5025438Y26383780D01*
X5025438Y26383780D02*
X4925438Y26340923D01*
X4925438Y26340923D02*
X4858771Y26340923D01*
X4858771Y26340923D02*
X4758771Y26383780D01*
X4758771Y26383780D02*
X4692105Y26469495D01*
X4692105Y26469495D02*
X4658771Y26555209D01*
X4658771Y26555209D02*
X4625438Y26726638D01*
X4625438Y26726638D02*
X4625438Y26855209D01*
X4625438Y26855209D02*
X4658771Y27026638D01*
X4658771Y27026638D02*
X4692105Y27112352D01*
X4692105Y27112352D02*
X4758771Y27198066D01*
X4758771Y27198066D02*
X4858771Y27240923D01*
X4858771Y27240923D02*
X4925438Y27240923D01*
X4925438Y27240923D02*
X5025438Y27198066D01*
X5025438Y27198066D02*
X5058771Y27155209D01*
X5292105Y27240923D02*
X5725438Y27240923D01*
X5725438Y27240923D02*
X5492105Y26898066D01*
X5492105Y26898066D02*
X5592105Y26898066D01*
X5592105Y26898066D02*
X5658771Y26855209D01*
X5658771Y26855209D02*
X5692105Y26812352D01*
X5692105Y26812352D02*
X5725438Y26726638D01*
X5725438Y26726638D02*
X5725438Y26512352D01*
X5725438Y26512352D02*
X5692105Y26426638D01*
X5692105Y26426638D02*
X5658771Y26383780D01*
X5658771Y26383780D02*
X5592105Y26340923D01*
X5592105Y26340923D02*
X5392105Y26340923D01*
X5392105Y26340923D02*
X5325438Y26383780D01*
X5325438Y26383780D02*
X5292105Y26426638D01*
X6458771Y26940923D02*
X6725438Y26940923D01*
X6558771Y26340923D02*
X6558771Y27112352D01*
X6558771Y27112352D02*
X6592105Y27198066D01*
X6592105Y27198066D02*
X6658771Y27240923D01*
X6658771Y27240923D02*
X6725438Y27240923D01*
X6958771Y26340923D02*
X6958771Y26940923D01*
X6958771Y27240923D02*
X6925438Y27198066D01*
X6925438Y27198066D02*
X6958771Y27155209D01*
X6958771Y27155209D02*
X6992105Y27198066D01*
X6992105Y27198066D02*
X6958771Y27240923D01*
X6958771Y27240923D02*
X6958771Y27155209D01*
X7192104Y26940923D02*
X7458771Y26940923D01*
X7292104Y27240923D02*
X7292104Y26469495D01*
X7292104Y26469495D02*
X7325438Y26383780D01*
X7325438Y26383780D02*
X7392104Y26340923D01*
X7392104Y26340923D02*
X7458771Y26340923D01*
X7592104Y26940923D02*
X7858771Y26940923D01*
X7692104Y27240923D02*
X7692104Y26469495D01*
X7692104Y26469495D02*
X7725438Y26383780D01*
X7725438Y26383780D02*
X7792104Y26340923D01*
X7792104Y26340923D02*
X7858771Y26340923D01*
X8358771Y26383780D02*
X8292104Y26340923D01*
X8292104Y26340923D02*
X8158771Y26340923D01*
X8158771Y26340923D02*
X8092104Y26383780D01*
X8092104Y26383780D02*
X8058771Y26469495D01*
X8058771Y26469495D02*
X8058771Y26812352D01*
X8058771Y26812352D02*
X8092104Y26898066D01*
X8092104Y26898066D02*
X8158771Y26940923D01*
X8158771Y26940923D02*
X8292104Y26940923D01*
X8292104Y26940923D02*
X8358771Y26898066D01*
X8358771Y26898066D02*
X8392104Y26812352D01*
X8392104Y26812352D02*
X8392104Y26726638D01*
X8392104Y26726638D02*
X8058771Y26640923D01*
X8992104Y26340923D02*
X8992104Y27240923D01*
X8992104Y26383780D02*
X8925438Y26340923D01*
X8925438Y26340923D02*
X8792104Y26340923D01*
X8792104Y26340923D02*
X8725438Y26383780D01*
X8725438Y26383780D02*
X8692104Y26426638D01*
X8692104Y26426638D02*
X8658771Y26512352D01*
X8658771Y26512352D02*
X8658771Y26769495D01*
X8658771Y26769495D02*
X8692104Y26855209D01*
X8692104Y26855209D02*
X8725438Y26898066D01*
X8725438Y26898066D02*
X8792104Y26940923D01*
X8792104Y26940923D02*
X8925438Y26940923D01*
X8925438Y26940923D02*
X8992104Y26898066D01*
D14*
X39457143Y45536665D02*
X39085714Y45536665D01*
X39271428Y45536665D02*
X39271428Y46336665D01*
X39271428Y46336665D02*
X39209524Y46222380D01*
X39209524Y46222380D02*
X39147619Y46146189D01*
X39147619Y46146189D02*
X39085714Y46108094D01*
X39859524Y46336665D02*
X39921429Y46336665D01*
X39921429Y46336665D02*
X39983333Y46298570D01*
X39983333Y46298570D02*
X40014286Y46260475D01*
X40014286Y46260475D02*
X40045238Y46184284D01*
X40045238Y46184284D02*
X40076191Y46031903D01*
X40076191Y46031903D02*
X40076191Y45841427D01*
X40076191Y45841427D02*
X40045238Y45689046D01*
X40045238Y45689046D02*
X40014286Y45612856D01*
X40014286Y45612856D02*
X39983333Y45574760D01*
X39983333Y45574760D02*
X39921429Y45536665D01*
X39921429Y45536665D02*
X39859524Y45536665D01*
X39859524Y45536665D02*
X39797619Y45574760D01*
X39797619Y45574760D02*
X39766667Y45612856D01*
X39766667Y45612856D02*
X39735714Y45689046D01*
X39735714Y45689046D02*
X39704762Y45841427D01*
X39704762Y45841427D02*
X39704762Y46031903D01*
X39704762Y46031903D02*
X39735714Y46184284D01*
X39735714Y46184284D02*
X39766667Y46260475D01*
X39766667Y46260475D02*
X39797619Y46298570D01*
X39797619Y46298570D02*
X39859524Y46336665D01*
X40571429Y45955713D02*
X40664286Y45917618D01*
X40664286Y45917618D02*
X40695239Y45879522D01*
X40695239Y45879522D02*
X40726191Y45803332D01*
X40726191Y45803332D02*
X40726191Y45689046D01*
X40726191Y45689046D02*
X40695239Y45612856D01*
X40695239Y45612856D02*
X40664286Y45574760D01*
X40664286Y45574760D02*
X40602381Y45536665D01*
X40602381Y45536665D02*
X40354762Y45536665D01*
X40354762Y45536665D02*
X40354762Y46336665D01*
X40354762Y46336665D02*
X40571429Y46336665D01*
X40571429Y46336665D02*
X40633334Y46298570D01*
X40633334Y46298570D02*
X40664286Y46260475D01*
X40664286Y46260475D02*
X40695239Y46184284D01*
X40695239Y46184284D02*
X40695239Y46108094D01*
X40695239Y46108094D02*
X40664286Y46031903D01*
X40664286Y46031903D02*
X40633334Y45993808D01*
X40633334Y45993808D02*
X40571429Y45955713D01*
X40571429Y45955713D02*
X40354762Y45955713D01*
X40973810Y45765237D02*
X41283334Y45765237D01*
X40911905Y45536665D02*
X41128572Y46336665D01*
X41128572Y46336665D02*
X41345239Y45536665D01*
X41530953Y45574760D02*
X41623810Y45536665D01*
X41623810Y45536665D02*
X41778572Y45536665D01*
X41778572Y45536665D02*
X41840477Y45574760D01*
X41840477Y45574760D02*
X41871429Y45612856D01*
X41871429Y45612856D02*
X41902382Y45689046D01*
X41902382Y45689046D02*
X41902382Y45765237D01*
X41902382Y45765237D02*
X41871429Y45841427D01*
X41871429Y45841427D02*
X41840477Y45879522D01*
X41840477Y45879522D02*
X41778572Y45917618D01*
X41778572Y45917618D02*
X41654763Y45955713D01*
X41654763Y45955713D02*
X41592858Y45993808D01*
X41592858Y45993808D02*
X41561905Y46031903D01*
X41561905Y46031903D02*
X41530953Y46108094D01*
X41530953Y46108094D02*
X41530953Y46184284D01*
X41530953Y46184284D02*
X41561905Y46260475D01*
X41561905Y46260475D02*
X41592858Y46298570D01*
X41592858Y46298570D02*
X41654763Y46336665D01*
X41654763Y46336665D02*
X41809524Y46336665D01*
X41809524Y46336665D02*
X41902382Y46298570D01*
X42180953Y45955713D02*
X42397620Y45955713D01*
X42490477Y45536665D02*
X42180953Y45536665D01*
X42180953Y45536665D02*
X42180953Y46336665D01*
X42180953Y46336665D02*
X42490477Y46336665D01*
X42769048Y45841427D02*
X43264287Y45841427D01*
X43480953Y46336665D02*
X43852382Y46336665D01*
X43666668Y45536665D02*
X43666668Y46336665D01*
X44409525Y45536665D02*
X44038096Y45536665D01*
X44223810Y45536665D02*
X44223810Y46336665D01*
X44223810Y46336665D02*
X44161906Y46222380D01*
X44161906Y46222380D02*
X44100001Y46146189D01*
X44100001Y46146189D02*
X44038096Y46108094D01*
X44657144Y45574760D02*
X44750001Y45536665D01*
X44750001Y45536665D02*
X44904763Y45536665D01*
X44904763Y45536665D02*
X44966668Y45574760D01*
X44966668Y45574760D02*
X44997620Y45612856D01*
X44997620Y45612856D02*
X45028573Y45689046D01*
X45028573Y45689046D02*
X45028573Y45765237D01*
X45028573Y45765237D02*
X44997620Y45841427D01*
X44997620Y45841427D02*
X44966668Y45879522D01*
X44966668Y45879522D02*
X44904763Y45917618D01*
X44904763Y45917618D02*
X44780954Y45955713D01*
X44780954Y45955713D02*
X44719049Y45993808D01*
X44719049Y45993808D02*
X44688096Y46031903D01*
X44688096Y46031903D02*
X44657144Y46108094D01*
X44657144Y46108094D02*
X44657144Y46184284D01*
X44657144Y46184284D02*
X44688096Y46260475D01*
X44688096Y46260475D02*
X44719049Y46298570D01*
X44719049Y46298570D02*
X44780954Y46336665D01*
X44780954Y46336665D02*
X44935715Y46336665D01*
X44935715Y46336665D02*
X45028573Y46298570D01*
X45709525Y46069999D02*
X45957144Y46069999D01*
X45802382Y45536665D02*
X45802382Y46222380D01*
X45802382Y46222380D02*
X45833335Y46298570D01*
X45833335Y46298570D02*
X45895240Y46336665D01*
X45895240Y46336665D02*
X45957144Y46336665D01*
X46266669Y45536665D02*
X46204764Y45574760D01*
X46204764Y45574760D02*
X46173811Y45612856D01*
X46173811Y45612856D02*
X46142859Y45689046D01*
X46142859Y45689046D02*
X46142859Y45917618D01*
X46142859Y45917618D02*
X46173811Y45993808D01*
X46173811Y45993808D02*
X46204764Y46031903D01*
X46204764Y46031903D02*
X46266669Y46069999D01*
X46266669Y46069999D02*
X46359526Y46069999D01*
X46359526Y46069999D02*
X46421430Y46031903D01*
X46421430Y46031903D02*
X46452383Y45993808D01*
X46452383Y45993808D02*
X46483335Y45917618D01*
X46483335Y45917618D02*
X46483335Y45689046D01*
X46483335Y45689046D02*
X46452383Y45612856D01*
X46452383Y45612856D02*
X46421430Y45574760D01*
X46421430Y45574760D02*
X46359526Y45536665D01*
X46359526Y45536665D02*
X46266669Y45536665D01*
X46761906Y45536665D02*
X46761906Y46069999D01*
X46761906Y45917618D02*
X46792859Y45993808D01*
X46792859Y45993808D02*
X46823811Y46031903D01*
X46823811Y46031903D02*
X46885716Y46069999D01*
X46885716Y46069999D02*
X46947621Y46069999D01*
X47969049Y45536665D02*
X47659525Y45536665D01*
X47659525Y45536665D02*
X47659525Y46336665D01*
X48185715Y45536665D02*
X48185715Y46069999D01*
X48185715Y46336665D02*
X48154763Y46298570D01*
X48154763Y46298570D02*
X48185715Y46260475D01*
X48185715Y46260475D02*
X48216668Y46298570D01*
X48216668Y46298570D02*
X48185715Y46336665D01*
X48185715Y46336665D02*
X48185715Y46260475D01*
X48588097Y45536665D02*
X48526192Y45574760D01*
X48526192Y45574760D02*
X48495239Y45650951D01*
X48495239Y45650951D02*
X48495239Y46336665D01*
X48773811Y46069999D02*
X48928573Y45536665D01*
X49083334Y46069999D02*
X48928573Y45536665D01*
X48928573Y45536665D02*
X48866668Y45346189D01*
X48866668Y45346189D02*
X48835715Y45308094D01*
X48835715Y45308094D02*
X48773811Y45269999D01*
X49671430Y46298570D02*
X49609525Y46336665D01*
X49609525Y46336665D02*
X49516668Y46336665D01*
X49516668Y46336665D02*
X49423811Y46298570D01*
X49423811Y46298570D02*
X49361906Y46222380D01*
X49361906Y46222380D02*
X49330953Y46146189D01*
X49330953Y46146189D02*
X49300001Y45993808D01*
X49300001Y45993808D02*
X49300001Y45879522D01*
X49300001Y45879522D02*
X49330953Y45727141D01*
X49330953Y45727141D02*
X49361906Y45650951D01*
X49361906Y45650951D02*
X49423811Y45574760D01*
X49423811Y45574760D02*
X49516668Y45536665D01*
X49516668Y45536665D02*
X49578572Y45536665D01*
X49578572Y45536665D02*
X49671430Y45574760D01*
X49671430Y45574760D02*
X49702382Y45612856D01*
X49702382Y45612856D02*
X49702382Y45879522D01*
X49702382Y45879522D02*
X49578572Y45879522D01*
X50104763Y46336665D02*
X50228572Y46336665D01*
X50228572Y46336665D02*
X50290477Y46298570D01*
X50290477Y46298570D02*
X50352382Y46222380D01*
X50352382Y46222380D02*
X50383334Y46069999D01*
X50383334Y46069999D02*
X50383334Y45803332D01*
X50383334Y45803332D02*
X50352382Y45650951D01*
X50352382Y45650951D02*
X50290477Y45574760D01*
X50290477Y45574760D02*
X50228572Y45536665D01*
X50228572Y45536665D02*
X50104763Y45536665D01*
X50104763Y45536665D02*
X50042858Y45574760D01*
X50042858Y45574760D02*
X49980953Y45650951D01*
X49980953Y45650951D02*
X49950001Y45803332D01*
X49950001Y45803332D02*
X49950001Y46069999D01*
X49950001Y46069999D02*
X49980953Y46222380D01*
X49980953Y46222380D02*
X50042858Y46298570D01*
X50042858Y46298570D02*
X50104763Y46336665D01*
X51064286Y46336665D02*
X51435715Y46336665D01*
X51250001Y45536665D02*
X51250001Y46336665D01*
X51652381Y45841427D02*
X52147620Y45841427D01*
X52457143Y45955713D02*
X52673810Y45955713D01*
X52766667Y45536665D02*
X52457143Y45536665D01*
X52457143Y45536665D02*
X52457143Y46336665D01*
X52457143Y46336665D02*
X52766667Y46336665D01*
X52952381Y46336665D02*
X53323810Y46336665D01*
X53138096Y45536665D02*
X53138096Y46336665D01*
X53540476Y45536665D02*
X53540476Y46336665D01*
X53540476Y45955713D02*
X53911905Y45955713D01*
X53911905Y45536665D02*
X53911905Y46336665D01*
X54221428Y45841427D02*
X54716667Y45841427D01*
X55026190Y45955713D02*
X55242857Y45955713D01*
X55335714Y45536665D02*
X55026190Y45536665D01*
X55026190Y45536665D02*
X55026190Y46336665D01*
X55026190Y46336665D02*
X55335714Y46336665D01*
X55707143Y45536665D02*
X55645238Y45574760D01*
X55645238Y45574760D02*
X55614285Y45650951D01*
X55614285Y45650951D02*
X55614285Y46336665D01*
X55954761Y45536665D02*
X55954761Y46069999D01*
X55954761Y46336665D02*
X55923809Y46298570D01*
X55923809Y46298570D02*
X55954761Y46260475D01*
X55954761Y46260475D02*
X55985714Y46298570D01*
X55985714Y46298570D02*
X55954761Y46336665D01*
X55954761Y46336665D02*
X55954761Y46260475D01*
X56171428Y46069999D02*
X56419047Y46069999D01*
X56264285Y46336665D02*
X56264285Y45650951D01*
X56264285Y45650951D02*
X56295238Y45574760D01*
X56295238Y45574760D02*
X56357143Y45536665D01*
X56357143Y45536665D02*
X56419047Y45536665D01*
X56883333Y45574760D02*
X56821429Y45536665D01*
X56821429Y45536665D02*
X56697619Y45536665D01*
X56697619Y45536665D02*
X56635714Y45574760D01*
X56635714Y45574760D02*
X56604762Y45650951D01*
X56604762Y45650951D02*
X56604762Y45955713D01*
X56604762Y45955713D02*
X56635714Y46031903D01*
X56635714Y46031903D02*
X56697619Y46069999D01*
X56697619Y46069999D02*
X56821429Y46069999D01*
X56821429Y46069999D02*
X56883333Y46031903D01*
X56883333Y46031903D02*
X56914286Y45955713D01*
X56914286Y45955713D02*
X56914286Y45879522D01*
X56914286Y45879522D02*
X56604762Y45803332D01*
D12*
X60609077Y26339287D02*
X59709077Y26339287D01*
X60609077Y26767858D02*
X60094791Y26446430D01*
X59709077Y26767858D02*
X60223362Y26339287D01*
X60137648Y27089287D02*
X60137648Y27339287D01*
X60609077Y27446430D02*
X60609077Y27089287D01*
X60609077Y27089287D02*
X59709077Y27089287D01*
X59709077Y27089287D02*
X59709077Y27446430D01*
X60137648Y27767858D02*
X60137648Y28017858D01*
X60609077Y28125001D02*
X60609077Y27767858D01*
X60609077Y27767858D02*
X59709077Y27767858D01*
X59709077Y27767858D02*
X59709077Y28125001D01*
X60609077Y28446429D02*
X59709077Y28446429D01*
X59709077Y28446429D02*
X59709077Y28732143D01*
X59709077Y28732143D02*
X59751934Y28803572D01*
X59751934Y28803572D02*
X59794791Y28839286D01*
X59794791Y28839286D02*
X59880505Y28875000D01*
X59880505Y28875000D02*
X60009077Y28875000D01*
X60009077Y28875000D02*
X60094791Y28839286D01*
X60094791Y28839286D02*
X60137648Y28803572D01*
X60137648Y28803572D02*
X60180505Y28732143D01*
X60180505Y28732143D02*
X60180505Y28446429D01*
X59709077Y29339286D02*
X59709077Y29482143D01*
X59709077Y29482143D02*
X59751934Y29553572D01*
X59751934Y29553572D02*
X59837648Y29625000D01*
X59837648Y29625000D02*
X60009077Y29660715D01*
X60009077Y29660715D02*
X60309077Y29660715D01*
X60309077Y29660715D02*
X60480505Y29625000D01*
X60480505Y29625000D02*
X60566220Y29553572D01*
X60566220Y29553572D02*
X60609077Y29482143D01*
X60609077Y29482143D02*
X60609077Y29339286D01*
X60609077Y29339286D02*
X60566220Y29267857D01*
X60566220Y29267857D02*
X60480505Y29196429D01*
X60480505Y29196429D02*
X60309077Y29160715D01*
X60309077Y29160715D02*
X60009077Y29160715D01*
X60009077Y29160715D02*
X59837648Y29196429D01*
X59837648Y29196429D02*
X59751934Y29267857D01*
X59751934Y29267857D02*
X59709077Y29339286D01*
X59709077Y29982143D02*
X60437648Y29982143D01*
X60437648Y29982143D02*
X60523362Y30017857D01*
X60523362Y30017857D02*
X60566220Y30053571D01*
X60566220Y30053571D02*
X60609077Y30125000D01*
X60609077Y30125000D02*
X60609077Y30267857D01*
X60609077Y30267857D02*
X60566220Y30339286D01*
X60566220Y30339286D02*
X60523362Y30375000D01*
X60523362Y30375000D02*
X60437648Y30410714D01*
X60437648Y30410714D02*
X59709077Y30410714D01*
X59709077Y30660714D02*
X59709077Y31089285D01*
X60609077Y30875000D02*
X59709077Y30875000D01*
X60266220Y31910715D02*
X60266220Y32482143D01*
X60609077Y33410715D02*
X59709077Y33410715D01*
X59709077Y33410715D02*
X60609077Y33839286D01*
X60609077Y33839286D02*
X59709077Y33839286D01*
X59709077Y34339286D02*
X59709077Y34482143D01*
X59709077Y34482143D02*
X59751934Y34553572D01*
X59751934Y34553572D02*
X59837648Y34625000D01*
X59837648Y34625000D02*
X60009077Y34660715D01*
X60009077Y34660715D02*
X60309077Y34660715D01*
X60309077Y34660715D02*
X60480505Y34625000D01*
X60480505Y34625000D02*
X60566220Y34553572D01*
X60566220Y34553572D02*
X60609077Y34482143D01*
X60609077Y34482143D02*
X60609077Y34339286D01*
X60609077Y34339286D02*
X60566220Y34267857D01*
X60566220Y34267857D02*
X60480505Y34196429D01*
X60480505Y34196429D02*
X60309077Y34160715D01*
X60309077Y34160715D02*
X60009077Y34160715D01*
X60009077Y34160715D02*
X59837648Y34196429D01*
X59837648Y34196429D02*
X59751934Y34267857D01*
X59751934Y34267857D02*
X59709077Y34339286D01*
X60523362Y35982143D02*
X60566220Y35946429D01*
X60566220Y35946429D02*
X60609077Y35839286D01*
X60609077Y35839286D02*
X60609077Y35767858D01*
X60609077Y35767858D02*
X60566220Y35660715D01*
X60566220Y35660715D02*
X60480505Y35589286D01*
X60480505Y35589286D02*
X60394791Y35553572D01*
X60394791Y35553572D02*
X60223362Y35517858D01*
X60223362Y35517858D02*
X60094791Y35517858D01*
X60094791Y35517858D02*
X59923362Y35553572D01*
X59923362Y35553572D02*
X59837648Y35589286D01*
X59837648Y35589286D02*
X59751934Y35660715D01*
X59751934Y35660715D02*
X59709077Y35767858D01*
X59709077Y35767858D02*
X59709077Y35839286D01*
X59709077Y35839286D02*
X59751934Y35946429D01*
X59751934Y35946429D02*
X59794791Y35982143D01*
X59709077Y36446429D02*
X59709077Y36589286D01*
X59709077Y36589286D02*
X59751934Y36660715D01*
X59751934Y36660715D02*
X59837648Y36732143D01*
X59837648Y36732143D02*
X60009077Y36767858D01*
X60009077Y36767858D02*
X60309077Y36767858D01*
X60309077Y36767858D02*
X60480505Y36732143D01*
X60480505Y36732143D02*
X60566220Y36660715D01*
X60566220Y36660715D02*
X60609077Y36589286D01*
X60609077Y36589286D02*
X60609077Y36446429D01*
X60609077Y36446429D02*
X60566220Y36375000D01*
X60566220Y36375000D02*
X60480505Y36303572D01*
X60480505Y36303572D02*
X60309077Y36267858D01*
X60309077Y36267858D02*
X60009077Y36267858D01*
X60009077Y36267858D02*
X59837648Y36303572D01*
X59837648Y36303572D02*
X59751934Y36375000D01*
X59751934Y36375000D02*
X59709077Y36446429D01*
X60609077Y37089286D02*
X59709077Y37089286D01*
X59709077Y37089286D02*
X59709077Y37375000D01*
X59709077Y37375000D02*
X59751934Y37446429D01*
X59751934Y37446429D02*
X59794791Y37482143D01*
X59794791Y37482143D02*
X59880505Y37517857D01*
X59880505Y37517857D02*
X60009077Y37517857D01*
X60009077Y37517857D02*
X60094791Y37482143D01*
X60094791Y37482143D02*
X60137648Y37446429D01*
X60137648Y37446429D02*
X60180505Y37375000D01*
X60180505Y37375000D02*
X60180505Y37089286D01*
X60609077Y37839286D02*
X59709077Y37839286D01*
X59709077Y37839286D02*
X59709077Y38125000D01*
X59709077Y38125000D02*
X59751934Y38196429D01*
X59751934Y38196429D02*
X59794791Y38232143D01*
X59794791Y38232143D02*
X59880505Y38267857D01*
X59880505Y38267857D02*
X60009077Y38267857D01*
X60009077Y38267857D02*
X60094791Y38232143D01*
X60094791Y38232143D02*
X60137648Y38196429D01*
X60137648Y38196429D02*
X60180505Y38125000D01*
X60180505Y38125000D02*
X60180505Y37839286D01*
X60137648Y38589286D02*
X60137648Y38839286D01*
X60609077Y38946429D02*
X60609077Y38589286D01*
X60609077Y38589286D02*
X59709077Y38589286D01*
X59709077Y38589286D02*
X59709077Y38946429D01*
X60609077Y39696428D02*
X60180505Y39446428D01*
X60609077Y39267857D02*
X59709077Y39267857D01*
X59709077Y39267857D02*
X59709077Y39553571D01*
X59709077Y39553571D02*
X59751934Y39625000D01*
X59751934Y39625000D02*
X59794791Y39660714D01*
X59794791Y39660714D02*
X59880505Y39696428D01*
X59880505Y39696428D02*
X60009077Y39696428D01*
X60009077Y39696428D02*
X60094791Y39660714D01*
X60094791Y39660714D02*
X60137648Y39625000D01*
X60137648Y39625000D02*
X60180505Y39553571D01*
X60180505Y39553571D02*
X60180505Y39267857D01*
D16*
X19766666Y35407545D02*
X19766666Y36207545D01*
X19766666Y36207545D02*
X20000000Y35636117D01*
X20000000Y35636117D02*
X20233333Y36207545D01*
X20233333Y36207545D02*
X20233333Y35407545D01*
X20700000Y36207545D02*
X20833333Y36207545D01*
X20833333Y36207545D02*
X20900000Y36169450D01*
X20900000Y36169450D02*
X20966666Y36093260D01*
X20966666Y36093260D02*
X21000000Y35940879D01*
X21000000Y35940879D02*
X21000000Y35674212D01*
X21000000Y35674212D02*
X20966666Y35521831D01*
X20966666Y35521831D02*
X20900000Y35445640D01*
X20900000Y35445640D02*
X20833333Y35407545D01*
X20833333Y35407545D02*
X20700000Y35407545D01*
X20700000Y35407545D02*
X20633333Y35445640D01*
X20633333Y35445640D02*
X20566666Y35521831D01*
X20566666Y35521831D02*
X20533333Y35674212D01*
X20533333Y35674212D02*
X20533333Y35940879D01*
X20533333Y35940879D02*
X20566666Y36093260D01*
X20566666Y36093260D02*
X20633333Y36169450D01*
X20633333Y36169450D02*
X20700000Y36207545D01*
X21199999Y36207545D02*
X21433333Y35407545D01*
X21433333Y35407545D02*
X21666666Y36207545D01*
X21866666Y36131355D02*
X21899999Y36169450D01*
X21899999Y36169450D02*
X21966666Y36207545D01*
X21966666Y36207545D02*
X22133333Y36207545D01*
X22133333Y36207545D02*
X22199999Y36169450D01*
X22199999Y36169450D02*
X22233333Y36131355D01*
X22233333Y36131355D02*
X22266666Y36055164D01*
X22266666Y36055164D02*
X22266666Y35978974D01*
X22266666Y35978974D02*
X22233333Y35864688D01*
X22233333Y35864688D02*
X21833333Y35407545D01*
X21833333Y35407545D02*
X22266666Y35407545D01*
X22701666Y17165936D02*
X22668333Y17127840D01*
X22668333Y17127840D02*
X22568333Y17089745D01*
X22568333Y17089745D02*
X22501666Y17089745D01*
X22501666Y17089745D02*
X22401666Y17127840D01*
X22401666Y17127840D02*
X22335000Y17204031D01*
X22335000Y17204031D02*
X22301666Y17280221D01*
X22301666Y17280221D02*
X22268333Y17432602D01*
X22268333Y17432602D02*
X22268333Y17546888D01*
X22268333Y17546888D02*
X22301666Y17699269D01*
X22301666Y17699269D02*
X22335000Y17775460D01*
X22335000Y17775460D02*
X22401666Y17851650D01*
X22401666Y17851650D02*
X22501666Y17889745D01*
X22501666Y17889745D02*
X22568333Y17889745D01*
X22568333Y17889745D02*
X22668333Y17851650D01*
X22668333Y17851650D02*
X22701666Y17813555D01*
X23101666Y17546888D02*
X23035000Y17584983D01*
X23035000Y17584983D02*
X23001666Y17623079D01*
X23001666Y17623079D02*
X22968333Y17699269D01*
X22968333Y17699269D02*
X22968333Y17737364D01*
X22968333Y17737364D02*
X23001666Y17813555D01*
X23001666Y17813555D02*
X23035000Y17851650D01*
X23035000Y17851650D02*
X23101666Y17889745D01*
X23101666Y17889745D02*
X23235000Y17889745D01*
X23235000Y17889745D02*
X23301666Y17851650D01*
X23301666Y17851650D02*
X23335000Y17813555D01*
X23335000Y17813555D02*
X23368333Y17737364D01*
X23368333Y17737364D02*
X23368333Y17699269D01*
X23368333Y17699269D02*
X23335000Y17623079D01*
X23335000Y17623079D02*
X23301666Y17584983D01*
X23301666Y17584983D02*
X23235000Y17546888D01*
X23235000Y17546888D02*
X23101666Y17546888D01*
X23101666Y17546888D02*
X23035000Y17508793D01*
X23035000Y17508793D02*
X23001666Y17470698D01*
X23001666Y17470698D02*
X22968333Y17394507D01*
X22968333Y17394507D02*
X22968333Y17242126D01*
X22968333Y17242126D02*
X23001666Y17165936D01*
X23001666Y17165936D02*
X23035000Y17127840D01*
X23035000Y17127840D02*
X23101666Y17089745D01*
X23101666Y17089745D02*
X23235000Y17089745D01*
X23235000Y17089745D02*
X23301666Y17127840D01*
X23301666Y17127840D02*
X23335000Y17165936D01*
X23335000Y17165936D02*
X23368333Y17242126D01*
X23368333Y17242126D02*
X23368333Y17394507D01*
X23368333Y17394507D02*
X23335000Y17470698D01*
X23335000Y17470698D02*
X23301666Y17508793D01*
X23301666Y17508793D02*
X23235000Y17546888D01*
X26201666Y14636145D02*
X25968333Y15017098D01*
X25801666Y14636145D02*
X25801666Y15436145D01*
X25801666Y15436145D02*
X26068333Y15436145D01*
X26068333Y15436145D02*
X26135000Y15398050D01*
X26135000Y15398050D02*
X26168333Y15359955D01*
X26168333Y15359955D02*
X26201666Y15283764D01*
X26201666Y15283764D02*
X26201666Y15169479D01*
X26201666Y15169479D02*
X26168333Y15093288D01*
X26168333Y15093288D02*
X26135000Y15055193D01*
X26135000Y15055193D02*
X26068333Y15017098D01*
X26068333Y15017098D02*
X25801666Y15017098D01*
X26801666Y15169479D02*
X26801666Y14636145D01*
X26635000Y15474240D02*
X26468333Y14902812D01*
X26468333Y14902812D02*
X26901666Y14902812D01*
X47201666Y10665936D02*
X47168333Y10627840D01*
X47168333Y10627840D02*
X47068333Y10589745D01*
X47068333Y10589745D02*
X47001666Y10589745D01*
X47001666Y10589745D02*
X46901666Y10627840D01*
X46901666Y10627840D02*
X46835000Y10704031D01*
X46835000Y10704031D02*
X46801666Y10780221D01*
X46801666Y10780221D02*
X46768333Y10932602D01*
X46768333Y10932602D02*
X46768333Y11046888D01*
X46768333Y11046888D02*
X46801666Y11199269D01*
X46801666Y11199269D02*
X46835000Y11275460D01*
X46835000Y11275460D02*
X46901666Y11351650D01*
X46901666Y11351650D02*
X47001666Y11389745D01*
X47001666Y11389745D02*
X47068333Y11389745D01*
X47068333Y11389745D02*
X47168333Y11351650D01*
X47168333Y11351650D02*
X47201666Y11313555D01*
X47535000Y10589745D02*
X47668333Y10589745D01*
X47668333Y10589745D02*
X47735000Y10627840D01*
X47735000Y10627840D02*
X47768333Y10665936D01*
X47768333Y10665936D02*
X47835000Y10780221D01*
X47835000Y10780221D02*
X47868333Y10932602D01*
X47868333Y10932602D02*
X47868333Y11237364D01*
X47868333Y11237364D02*
X47835000Y11313555D01*
X47835000Y11313555D02*
X47801666Y11351650D01*
X47801666Y11351650D02*
X47735000Y11389745D01*
X47735000Y11389745D02*
X47601666Y11389745D01*
X47601666Y11389745D02*
X47535000Y11351650D01*
X47535000Y11351650D02*
X47501666Y11313555D01*
X47501666Y11313555D02*
X47468333Y11237364D01*
X47468333Y11237364D02*
X47468333Y11046888D01*
X47468333Y11046888D02*
X47501666Y10970698D01*
X47501666Y10970698D02*
X47535000Y10932602D01*
X47535000Y10932602D02*
X47601666Y10894507D01*
X47601666Y10894507D02*
X47735000Y10894507D01*
X47735000Y10894507D02*
X47801666Y10932602D01*
X47801666Y10932602D02*
X47835000Y10970698D01*
X47835000Y10970698D02*
X47868333Y11046888D01*
X36385000Y34758793D02*
X36151666Y34758793D01*
X36151666Y34339745D02*
X36151666Y35139745D01*
X36151666Y35139745D02*
X36485000Y35139745D01*
X36985000Y34758793D02*
X37085000Y34720698D01*
X37085000Y34720698D02*
X37118333Y34682602D01*
X37118333Y34682602D02*
X37151666Y34606412D01*
X37151666Y34606412D02*
X37151666Y34492126D01*
X37151666Y34492126D02*
X37118333Y34415936D01*
X37118333Y34415936D02*
X37085000Y34377840D01*
X37085000Y34377840D02*
X37018333Y34339745D01*
X37018333Y34339745D02*
X36751666Y34339745D01*
X36751666Y34339745D02*
X36751666Y35139745D01*
X36751666Y35139745D02*
X36985000Y35139745D01*
X36985000Y35139745D02*
X37051666Y35101650D01*
X37051666Y35101650D02*
X37085000Y35063555D01*
X37085000Y35063555D02*
X37118333Y34987364D01*
X37118333Y34987364D02*
X37118333Y34911174D01*
X37118333Y34911174D02*
X37085000Y34834983D01*
X37085000Y34834983D02*
X37051666Y34796888D01*
X37051666Y34796888D02*
X36985000Y34758793D01*
X36985000Y34758793D02*
X36751666Y34758793D01*
X37818333Y34339745D02*
X37418333Y34339745D01*
X37618333Y34339745D02*
X37618333Y35139745D01*
X37618333Y35139745D02*
X37551666Y35025460D01*
X37551666Y35025460D02*
X37485000Y34949269D01*
X37485000Y34949269D02*
X37418333Y34911174D01*
X3731666Y9136145D02*
X3731666Y8564717D01*
X3731666Y8564717D02*
X3698333Y8450431D01*
X3698333Y8450431D02*
X3631666Y8374240D01*
X3631666Y8374240D02*
X3531666Y8336145D01*
X3531666Y8336145D02*
X3465000Y8336145D01*
X4064999Y8336145D02*
X4064999Y9136145D01*
X4064999Y9136145D02*
X4331666Y9136145D01*
X4331666Y9136145D02*
X4398333Y9098050D01*
X4398333Y9098050D02*
X4431666Y9059955D01*
X4431666Y9059955D02*
X4464999Y8983764D01*
X4464999Y8983764D02*
X4464999Y8869479D01*
X4464999Y8869479D02*
X4431666Y8793288D01*
X4431666Y8793288D02*
X4398333Y8755193D01*
X4398333Y8755193D02*
X4331666Y8717098D01*
X4331666Y8717098D02*
X4064999Y8717098D01*
X5131666Y8336145D02*
X4731666Y8336145D01*
X4931666Y8336145D02*
X4931666Y9136145D01*
X4931666Y9136145D02*
X4864999Y9021860D01*
X4864999Y9021860D02*
X4798333Y8945669D01*
X4798333Y8945669D02*
X4731666Y8907574D01*
X47049999Y24008736D02*
X47016666Y23970640D01*
X47016666Y23970640D02*
X46916666Y23932545D01*
X46916666Y23932545D02*
X46849999Y23932545D01*
X46849999Y23932545D02*
X46749999Y23970640D01*
X46749999Y23970640D02*
X46683333Y24046831D01*
X46683333Y24046831D02*
X46649999Y24123021D01*
X46649999Y24123021D02*
X46616666Y24275402D01*
X46616666Y24275402D02*
X46616666Y24389688D01*
X46616666Y24389688D02*
X46649999Y24542069D01*
X46649999Y24542069D02*
X46683333Y24618260D01*
X46683333Y24618260D02*
X46749999Y24694450D01*
X46749999Y24694450D02*
X46849999Y24732545D01*
X46849999Y24732545D02*
X46916666Y24732545D01*
X46916666Y24732545D02*
X47016666Y24694450D01*
X47016666Y24694450D02*
X47049999Y24656355D01*
X47716666Y23932545D02*
X47316666Y23932545D01*
X47516666Y23932545D02*
X47516666Y24732545D01*
X47516666Y24732545D02*
X47449999Y24618260D01*
X47449999Y24618260D02*
X47383333Y24542069D01*
X47383333Y24542069D02*
X47316666Y24503974D01*
X48316666Y24465879D02*
X48316666Y23932545D01*
X48150000Y24770640D02*
X47983333Y24199212D01*
X47983333Y24199212D02*
X48416666Y24199212D01*
X28526666Y35008736D02*
X28493333Y34970640D01*
X28493333Y34970640D02*
X28393333Y34932545D01*
X28393333Y34932545D02*
X28326666Y34932545D01*
X28326666Y34932545D02*
X28226666Y34970640D01*
X28226666Y34970640D02*
X28160000Y35046831D01*
X28160000Y35046831D02*
X28126666Y35123021D01*
X28126666Y35123021D02*
X28093333Y35275402D01*
X28093333Y35275402D02*
X28093333Y35389688D01*
X28093333Y35389688D02*
X28126666Y35542069D01*
X28126666Y35542069D02*
X28160000Y35618260D01*
X28160000Y35618260D02*
X28226666Y35694450D01*
X28226666Y35694450D02*
X28326666Y35732545D01*
X28326666Y35732545D02*
X28393333Y35732545D01*
X28393333Y35732545D02*
X28493333Y35694450D01*
X28493333Y35694450D02*
X28526666Y35656355D01*
X28760000Y35732545D02*
X29193333Y35732545D01*
X29193333Y35732545D02*
X28960000Y35427783D01*
X28960000Y35427783D02*
X29060000Y35427783D01*
X29060000Y35427783D02*
X29126666Y35389688D01*
X29126666Y35389688D02*
X29160000Y35351593D01*
X29160000Y35351593D02*
X29193333Y35275402D01*
X29193333Y35275402D02*
X29193333Y35084926D01*
X29193333Y35084926D02*
X29160000Y35008736D01*
X29160000Y35008736D02*
X29126666Y34970640D01*
X29126666Y34970640D02*
X29060000Y34932545D01*
X29060000Y34932545D02*
X28860000Y34932545D01*
X28860000Y34932545D02*
X28793333Y34970640D01*
X28793333Y34970640D02*
X28760000Y35008736D01*
X13340000Y16008736D02*
X13306667Y15970640D01*
X13306667Y15970640D02*
X13206667Y15932545D01*
X13206667Y15932545D02*
X13140000Y15932545D01*
X13140000Y15932545D02*
X13040000Y15970640D01*
X13040000Y15970640D02*
X12973334Y16046831D01*
X12973334Y16046831D02*
X12940000Y16123021D01*
X12940000Y16123021D02*
X12906667Y16275402D01*
X12906667Y16275402D02*
X12906667Y16389688D01*
X12906667Y16389688D02*
X12940000Y16542069D01*
X12940000Y16542069D02*
X12973334Y16618260D01*
X12973334Y16618260D02*
X13040000Y16694450D01*
X13040000Y16694450D02*
X13140000Y16732545D01*
X13140000Y16732545D02*
X13206667Y16732545D01*
X13206667Y16732545D02*
X13306667Y16694450D01*
X13306667Y16694450D02*
X13340000Y16656355D01*
X13940000Y16732545D02*
X13806667Y16732545D01*
X13806667Y16732545D02*
X13740000Y16694450D01*
X13740000Y16694450D02*
X13706667Y16656355D01*
X13706667Y16656355D02*
X13640000Y16542069D01*
X13640000Y16542069D02*
X13606667Y16389688D01*
X13606667Y16389688D02*
X13606667Y16084926D01*
X13606667Y16084926D02*
X13640000Y16008736D01*
X13640000Y16008736D02*
X13673334Y15970640D01*
X13673334Y15970640D02*
X13740000Y15932545D01*
X13740000Y15932545D02*
X13873334Y15932545D01*
X13873334Y15932545D02*
X13940000Y15970640D01*
X13940000Y15970640D02*
X13973334Y16008736D01*
X13973334Y16008736D02*
X14006667Y16084926D01*
X14006667Y16084926D02*
X14006667Y16275402D01*
X14006667Y16275402D02*
X13973334Y16351593D01*
X13973334Y16351593D02*
X13940000Y16389688D01*
X13940000Y16389688D02*
X13873334Y16427783D01*
X13873334Y16427783D02*
X13740000Y16427783D01*
X13740000Y16427783D02*
X13673334Y16389688D01*
X13673334Y16389688D02*
X13640000Y16351593D01*
X13640000Y16351593D02*
X13606667Y16275402D01*
X31949999Y24158736D02*
X31916666Y24120640D01*
X31916666Y24120640D02*
X31816666Y24082545D01*
X31816666Y24082545D02*
X31749999Y24082545D01*
X31749999Y24082545D02*
X31649999Y24120640D01*
X31649999Y24120640D02*
X31583333Y24196831D01*
X31583333Y24196831D02*
X31549999Y24273021D01*
X31549999Y24273021D02*
X31516666Y24425402D01*
X31516666Y24425402D02*
X31516666Y24539688D01*
X31516666Y24539688D02*
X31549999Y24692069D01*
X31549999Y24692069D02*
X31583333Y24768260D01*
X31583333Y24768260D02*
X31649999Y24844450D01*
X31649999Y24844450D02*
X31749999Y24882545D01*
X31749999Y24882545D02*
X31816666Y24882545D01*
X31816666Y24882545D02*
X31916666Y24844450D01*
X31916666Y24844450D02*
X31949999Y24806355D01*
X32616666Y24082545D02*
X32216666Y24082545D01*
X32416666Y24082545D02*
X32416666Y24882545D01*
X32416666Y24882545D02*
X32349999Y24768260D01*
X32349999Y24768260D02*
X32283333Y24692069D01*
X32283333Y24692069D02*
X32216666Y24653974D01*
X33283333Y24082545D02*
X32883333Y24082545D01*
X33083333Y24082545D02*
X33083333Y24882545D01*
X33083333Y24882545D02*
X33016666Y24768260D01*
X33016666Y24768260D02*
X32950000Y24692069D01*
X32950000Y24692069D02*
X32883333Y24653974D01*
X36266666Y37864745D02*
X36266666Y38664745D01*
X36266666Y38664745D02*
X36500000Y38093317D01*
X36500000Y38093317D02*
X36733333Y38664745D01*
X36733333Y38664745D02*
X36733333Y37864745D01*
X37200000Y38664745D02*
X37333333Y38664745D01*
X37333333Y38664745D02*
X37400000Y38626650D01*
X37400000Y38626650D02*
X37466666Y38550460D01*
X37466666Y38550460D02*
X37500000Y38398079D01*
X37500000Y38398079D02*
X37500000Y38131412D01*
X37500000Y38131412D02*
X37466666Y37979031D01*
X37466666Y37979031D02*
X37400000Y37902840D01*
X37400000Y37902840D02*
X37333333Y37864745D01*
X37333333Y37864745D02*
X37200000Y37864745D01*
X37200000Y37864745D02*
X37133333Y37902840D01*
X37133333Y37902840D02*
X37066666Y37979031D01*
X37066666Y37979031D02*
X37033333Y38131412D01*
X37033333Y38131412D02*
X37033333Y38398079D01*
X37033333Y38398079D02*
X37066666Y38550460D01*
X37066666Y38550460D02*
X37133333Y38626650D01*
X37133333Y38626650D02*
X37200000Y38664745D01*
X37699999Y38664745D02*
X37933333Y37864745D01*
X37933333Y37864745D02*
X38166666Y38664745D01*
X38766666Y37864745D02*
X38366666Y37864745D01*
X38566666Y37864745D02*
X38566666Y38664745D01*
X38566666Y38664745D02*
X38499999Y38550460D01*
X38499999Y38550460D02*
X38433333Y38474269D01*
X38433333Y38474269D02*
X38366666Y38436174D01*
X58766666Y9036145D02*
X58766666Y8464717D01*
X58766666Y8464717D02*
X58733333Y8350431D01*
X58733333Y8350431D02*
X58666666Y8274240D01*
X58666666Y8274240D02*
X58566666Y8236145D01*
X58566666Y8236145D02*
X58500000Y8236145D01*
X59466666Y8236145D02*
X59066666Y8236145D01*
X59266666Y8236145D02*
X59266666Y9036145D01*
X59266666Y9036145D02*
X59199999Y8921860D01*
X59199999Y8921860D02*
X59133333Y8845669D01*
X59133333Y8845669D02*
X59066666Y8807574D01*
X35151666Y24108736D02*
X35118333Y24070640D01*
X35118333Y24070640D02*
X35018333Y24032545D01*
X35018333Y24032545D02*
X34951666Y24032545D01*
X34951666Y24032545D02*
X34851666Y24070640D01*
X34851666Y24070640D02*
X34785000Y24146831D01*
X34785000Y24146831D02*
X34751666Y24223021D01*
X34751666Y24223021D02*
X34718333Y24375402D01*
X34718333Y24375402D02*
X34718333Y24489688D01*
X34718333Y24489688D02*
X34751666Y24642069D01*
X34751666Y24642069D02*
X34785000Y24718260D01*
X34785000Y24718260D02*
X34851666Y24794450D01*
X34851666Y24794450D02*
X34951666Y24832545D01*
X34951666Y24832545D02*
X35018333Y24832545D01*
X35018333Y24832545D02*
X35118333Y24794450D01*
X35118333Y24794450D02*
X35151666Y24756355D01*
X35818333Y24032545D02*
X35418333Y24032545D01*
X35618333Y24032545D02*
X35618333Y24832545D01*
X35618333Y24832545D02*
X35551666Y24718260D01*
X35551666Y24718260D02*
X35485000Y24642069D01*
X35485000Y24642069D02*
X35418333Y24603974D01*
X36085000Y24756355D02*
X36118333Y24794450D01*
X36118333Y24794450D02*
X36185000Y24832545D01*
X36185000Y24832545D02*
X36351667Y24832545D01*
X36351667Y24832545D02*
X36418333Y24794450D01*
X36418333Y24794450D02*
X36451667Y24756355D01*
X36451667Y24756355D02*
X36485000Y24680164D01*
X36485000Y24680164D02*
X36485000Y24603974D01*
X36485000Y24603974D02*
X36451667Y24489688D01*
X36451667Y24489688D02*
X36051667Y24032545D01*
X36051667Y24032545D02*
X36485000Y24032545D01*
X44398332Y25858736D02*
X44364999Y25820640D01*
X44364999Y25820640D02*
X44264999Y25782545D01*
X44264999Y25782545D02*
X44198332Y25782545D01*
X44198332Y25782545D02*
X44098332Y25820640D01*
X44098332Y25820640D02*
X44031666Y25896831D01*
X44031666Y25896831D02*
X43998332Y25973021D01*
X43998332Y25973021D02*
X43964999Y26125402D01*
X43964999Y26125402D02*
X43964999Y26239688D01*
X43964999Y26239688D02*
X43998332Y26392069D01*
X43998332Y26392069D02*
X44031666Y26468260D01*
X44031666Y26468260D02*
X44098332Y26544450D01*
X44098332Y26544450D02*
X44198332Y26582545D01*
X44198332Y26582545D02*
X44264999Y26582545D01*
X44264999Y26582545D02*
X44364999Y26544450D01*
X44364999Y26544450D02*
X44398332Y26506355D01*
X45064999Y25782545D02*
X44664999Y25782545D01*
X44864999Y25782545D02*
X44864999Y26582545D01*
X44864999Y26582545D02*
X44798332Y26468260D01*
X44798332Y26468260D02*
X44731666Y26392069D01*
X44731666Y26392069D02*
X44664999Y26353974D01*
X45298333Y26582545D02*
X45731666Y26582545D01*
X45731666Y26582545D02*
X45498333Y26277783D01*
X45498333Y26277783D02*
X45598333Y26277783D01*
X45598333Y26277783D02*
X45664999Y26239688D01*
X45664999Y26239688D02*
X45698333Y26201593D01*
X45698333Y26201593D02*
X45731666Y26125402D01*
X45731666Y26125402D02*
X45731666Y25934926D01*
X45731666Y25934926D02*
X45698333Y25858736D01*
X45698333Y25858736D02*
X45664999Y25820640D01*
X45664999Y25820640D02*
X45598333Y25782545D01*
X45598333Y25782545D02*
X45398333Y25782545D01*
X45398333Y25782545D02*
X45331666Y25820640D01*
X45331666Y25820640D02*
X45298333Y25858736D01*
X34527666Y9136145D02*
X34294333Y9517098D01*
X34127666Y9136145D02*
X34127666Y9936145D01*
X34127666Y9936145D02*
X34394333Y9936145D01*
X34394333Y9936145D02*
X34461000Y9898050D01*
X34461000Y9898050D02*
X34494333Y9859955D01*
X34494333Y9859955D02*
X34527666Y9783764D01*
X34527666Y9783764D02*
X34527666Y9669479D01*
X34527666Y9669479D02*
X34494333Y9593288D01*
X34494333Y9593288D02*
X34461000Y9555193D01*
X34461000Y9555193D02*
X34394333Y9517098D01*
X34394333Y9517098D02*
X34127666Y9517098D01*
X35161000Y9936145D02*
X34827666Y9936145D01*
X34827666Y9936145D02*
X34794333Y9555193D01*
X34794333Y9555193D02*
X34827666Y9593288D01*
X34827666Y9593288D02*
X34894333Y9631383D01*
X34894333Y9631383D02*
X35061000Y9631383D01*
X35061000Y9631383D02*
X35127666Y9593288D01*
X35127666Y9593288D02*
X35161000Y9555193D01*
X35161000Y9555193D02*
X35194333Y9479002D01*
X35194333Y9479002D02*
X35194333Y9288526D01*
X35194333Y9288526D02*
X35161000Y9212336D01*
X35161000Y9212336D02*
X35127666Y9174240D01*
X35127666Y9174240D02*
X35061000Y9136145D01*
X35061000Y9136145D02*
X34894333Y9136145D01*
X34894333Y9136145D02*
X34827666Y9174240D01*
X34827666Y9174240D02*
X34794333Y9212336D01*
X49701666Y21136145D02*
X49468333Y21517098D01*
X49301666Y21136145D02*
X49301666Y21936145D01*
X49301666Y21936145D02*
X49568333Y21936145D01*
X49568333Y21936145D02*
X49635000Y21898050D01*
X49635000Y21898050D02*
X49668333Y21859955D01*
X49668333Y21859955D02*
X49701666Y21783764D01*
X49701666Y21783764D02*
X49701666Y21669479D01*
X49701666Y21669479D02*
X49668333Y21593288D01*
X49668333Y21593288D02*
X49635000Y21555193D01*
X49635000Y21555193D02*
X49568333Y21517098D01*
X49568333Y21517098D02*
X49301666Y21517098D01*
X50035000Y21136145D02*
X50168333Y21136145D01*
X50168333Y21136145D02*
X50235000Y21174240D01*
X50235000Y21174240D02*
X50268333Y21212336D01*
X50268333Y21212336D02*
X50335000Y21326621D01*
X50335000Y21326621D02*
X50368333Y21479002D01*
X50368333Y21479002D02*
X50368333Y21783764D01*
X50368333Y21783764D02*
X50335000Y21859955D01*
X50335000Y21859955D02*
X50301666Y21898050D01*
X50301666Y21898050D02*
X50235000Y21936145D01*
X50235000Y21936145D02*
X50101666Y21936145D01*
X50101666Y21936145D02*
X50035000Y21898050D01*
X50035000Y21898050D02*
X50001666Y21859955D01*
X50001666Y21859955D02*
X49968333Y21783764D01*
X49968333Y21783764D02*
X49968333Y21593288D01*
X49968333Y21593288D02*
X50001666Y21517098D01*
X50001666Y21517098D02*
X50035000Y21479002D01*
X50035000Y21479002D02*
X50101666Y21440907D01*
X50101666Y21440907D02*
X50235000Y21440907D01*
X50235000Y21440907D02*
X50301666Y21479002D01*
X50301666Y21479002D02*
X50335000Y21517098D01*
X50335000Y21517098D02*
X50368333Y21593288D01*
X37666667Y24417098D02*
X37666667Y24036145D01*
X37433333Y24836145D02*
X37666667Y24417098D01*
X37666667Y24417098D02*
X37900000Y24836145D01*
X38500000Y24036145D02*
X38100000Y24036145D01*
X38300000Y24036145D02*
X38300000Y24836145D01*
X38300000Y24836145D02*
X38233333Y24721860D01*
X38233333Y24721860D02*
X38166667Y24645669D01*
X38166667Y24645669D02*
X38100000Y24607574D01*
X14798334Y10601593D02*
X14565000Y10601593D01*
X14565000Y10182545D02*
X14565000Y10982545D01*
X14565000Y10982545D02*
X14898334Y10982545D01*
X15398334Y10601593D02*
X15498334Y10563498D01*
X15498334Y10563498D02*
X15531667Y10525402D01*
X15531667Y10525402D02*
X15565000Y10449212D01*
X15565000Y10449212D02*
X15565000Y10334926D01*
X15565000Y10334926D02*
X15531667Y10258736D01*
X15531667Y10258736D02*
X15498334Y10220640D01*
X15498334Y10220640D02*
X15431667Y10182545D01*
X15431667Y10182545D02*
X15165000Y10182545D01*
X15165000Y10182545D02*
X15165000Y10982545D01*
X15165000Y10982545D02*
X15398334Y10982545D01*
X15398334Y10982545D02*
X15465000Y10944450D01*
X15465000Y10944450D02*
X15498334Y10906355D01*
X15498334Y10906355D02*
X15531667Y10830164D01*
X15531667Y10830164D02*
X15531667Y10753974D01*
X15531667Y10753974D02*
X15498334Y10677783D01*
X15498334Y10677783D02*
X15465000Y10639688D01*
X15465000Y10639688D02*
X15398334Y10601593D01*
X15398334Y10601593D02*
X15165000Y10601593D01*
X15798334Y10982545D02*
X16231667Y10982545D01*
X16231667Y10982545D02*
X15998334Y10677783D01*
X15998334Y10677783D02*
X16098334Y10677783D01*
X16098334Y10677783D02*
X16165000Y10639688D01*
X16165000Y10639688D02*
X16198334Y10601593D01*
X16198334Y10601593D02*
X16231667Y10525402D01*
X16231667Y10525402D02*
X16231667Y10334926D01*
X16231667Y10334926D02*
X16198334Y10258736D01*
X16198334Y10258736D02*
X16165000Y10220640D01*
X16165000Y10220640D02*
X16098334Y10182545D01*
X16098334Y10182545D02*
X15898334Y10182545D01*
X15898334Y10182545D02*
X15831667Y10220640D01*
X15831667Y10220640D02*
X15798334Y10258736D01*
X33301666Y36636145D02*
X33068333Y37017098D01*
X32901666Y36636145D02*
X32901666Y37436145D01*
X32901666Y37436145D02*
X33168333Y37436145D01*
X33168333Y37436145D02*
X33235000Y37398050D01*
X33235000Y37398050D02*
X33268333Y37359955D01*
X33268333Y37359955D02*
X33301666Y37283764D01*
X33301666Y37283764D02*
X33301666Y37169479D01*
X33301666Y37169479D02*
X33268333Y37093288D01*
X33268333Y37093288D02*
X33235000Y37055193D01*
X33235000Y37055193D02*
X33168333Y37017098D01*
X33168333Y37017098D02*
X32901666Y37017098D01*
X33535000Y37436145D02*
X33968333Y37436145D01*
X33968333Y37436145D02*
X33735000Y37131383D01*
X33735000Y37131383D02*
X33835000Y37131383D01*
X33835000Y37131383D02*
X33901666Y37093288D01*
X33901666Y37093288D02*
X33935000Y37055193D01*
X33935000Y37055193D02*
X33968333Y36979002D01*
X33968333Y36979002D02*
X33968333Y36788526D01*
X33968333Y36788526D02*
X33935000Y36712336D01*
X33935000Y36712336D02*
X33901666Y36674240D01*
X33901666Y36674240D02*
X33835000Y36636145D01*
X33835000Y36636145D02*
X33635000Y36636145D01*
X33635000Y36636145D02*
X33568333Y36674240D01*
X33568333Y36674240D02*
X33535000Y36712336D01*
X36840000Y18558736D02*
X36806667Y18520640D01*
X36806667Y18520640D02*
X36706667Y18482545D01*
X36706667Y18482545D02*
X36640000Y18482545D01*
X36640000Y18482545D02*
X36540000Y18520640D01*
X36540000Y18520640D02*
X36473334Y18596831D01*
X36473334Y18596831D02*
X36440000Y18673021D01*
X36440000Y18673021D02*
X36406667Y18825402D01*
X36406667Y18825402D02*
X36406667Y18939688D01*
X36406667Y18939688D02*
X36440000Y19092069D01*
X36440000Y19092069D02*
X36473334Y19168260D01*
X36473334Y19168260D02*
X36540000Y19244450D01*
X36540000Y19244450D02*
X36640000Y19282545D01*
X36640000Y19282545D02*
X36706667Y19282545D01*
X36706667Y19282545D02*
X36806667Y19244450D01*
X36806667Y19244450D02*
X36840000Y19206355D01*
X37440000Y19015879D02*
X37440000Y18482545D01*
X37273334Y19320640D02*
X37106667Y18749212D01*
X37106667Y18749212D02*
X37540000Y18749212D01*
X49701666Y18636145D02*
X49468333Y19017098D01*
X49301666Y18636145D02*
X49301666Y19436145D01*
X49301666Y19436145D02*
X49568333Y19436145D01*
X49568333Y19436145D02*
X49635000Y19398050D01*
X49635000Y19398050D02*
X49668333Y19359955D01*
X49668333Y19359955D02*
X49701666Y19283764D01*
X49701666Y19283764D02*
X49701666Y19169479D01*
X49701666Y19169479D02*
X49668333Y19093288D01*
X49668333Y19093288D02*
X49635000Y19055193D01*
X49635000Y19055193D02*
X49568333Y19017098D01*
X49568333Y19017098D02*
X49301666Y19017098D01*
X50101666Y19093288D02*
X50035000Y19131383D01*
X50035000Y19131383D02*
X50001666Y19169479D01*
X50001666Y19169479D02*
X49968333Y19245669D01*
X49968333Y19245669D02*
X49968333Y19283764D01*
X49968333Y19283764D02*
X50001666Y19359955D01*
X50001666Y19359955D02*
X50035000Y19398050D01*
X50035000Y19398050D02*
X50101666Y19436145D01*
X50101666Y19436145D02*
X50235000Y19436145D01*
X50235000Y19436145D02*
X50301666Y19398050D01*
X50301666Y19398050D02*
X50335000Y19359955D01*
X50335000Y19359955D02*
X50368333Y19283764D01*
X50368333Y19283764D02*
X50368333Y19245669D01*
X50368333Y19245669D02*
X50335000Y19169479D01*
X50335000Y19169479D02*
X50301666Y19131383D01*
X50301666Y19131383D02*
X50235000Y19093288D01*
X50235000Y19093288D02*
X50101666Y19093288D01*
X50101666Y19093288D02*
X50035000Y19055193D01*
X50035000Y19055193D02*
X50001666Y19017098D01*
X50001666Y19017098D02*
X49968333Y18940907D01*
X49968333Y18940907D02*
X49968333Y18788526D01*
X49968333Y18788526D02*
X50001666Y18712336D01*
X50001666Y18712336D02*
X50035000Y18674240D01*
X50035000Y18674240D02*
X50101666Y18636145D01*
X50101666Y18636145D02*
X50235000Y18636145D01*
X50235000Y18636145D02*
X50301666Y18674240D01*
X50301666Y18674240D02*
X50335000Y18712336D01*
X50335000Y18712336D02*
X50368333Y18788526D01*
X50368333Y18788526D02*
X50368333Y18940907D01*
X50368333Y18940907D02*
X50335000Y19017098D01*
X50335000Y19017098D02*
X50301666Y19055193D01*
X50301666Y19055193D02*
X50235000Y19093288D01*
X38898332Y10665936D02*
X38864999Y10627840D01*
X38864999Y10627840D02*
X38764999Y10589745D01*
X38764999Y10589745D02*
X38698332Y10589745D01*
X38698332Y10589745D02*
X38598332Y10627840D01*
X38598332Y10627840D02*
X38531666Y10704031D01*
X38531666Y10704031D02*
X38498332Y10780221D01*
X38498332Y10780221D02*
X38464999Y10932602D01*
X38464999Y10932602D02*
X38464999Y11046888D01*
X38464999Y11046888D02*
X38498332Y11199269D01*
X38498332Y11199269D02*
X38531666Y11275460D01*
X38531666Y11275460D02*
X38598332Y11351650D01*
X38598332Y11351650D02*
X38698332Y11389745D01*
X38698332Y11389745D02*
X38764999Y11389745D01*
X38764999Y11389745D02*
X38864999Y11351650D01*
X38864999Y11351650D02*
X38898332Y11313555D01*
X39564999Y10589745D02*
X39164999Y10589745D01*
X39364999Y10589745D02*
X39364999Y11389745D01*
X39364999Y11389745D02*
X39298332Y11275460D01*
X39298332Y11275460D02*
X39231666Y11199269D01*
X39231666Y11199269D02*
X39164999Y11161174D01*
X39998333Y11389745D02*
X40064999Y11389745D01*
X40064999Y11389745D02*
X40131666Y11351650D01*
X40131666Y11351650D02*
X40164999Y11313555D01*
X40164999Y11313555D02*
X40198333Y11237364D01*
X40198333Y11237364D02*
X40231666Y11084983D01*
X40231666Y11084983D02*
X40231666Y10894507D01*
X40231666Y10894507D02*
X40198333Y10742126D01*
X40198333Y10742126D02*
X40164999Y10665936D01*
X40164999Y10665936D02*
X40131666Y10627840D01*
X40131666Y10627840D02*
X40064999Y10589745D01*
X40064999Y10589745D02*
X39998333Y10589745D01*
X39998333Y10589745D02*
X39931666Y10627840D01*
X39931666Y10627840D02*
X39898333Y10665936D01*
X39898333Y10665936D02*
X39864999Y10742126D01*
X39864999Y10742126D02*
X39831666Y10894507D01*
X39831666Y10894507D02*
X39831666Y11084983D01*
X39831666Y11084983D02*
X39864999Y11237364D01*
X39864999Y11237364D02*
X39898333Y11313555D01*
X39898333Y11313555D02*
X39931666Y11351650D01*
X39931666Y11351650D02*
X39998333Y11389745D01*
X25066666Y22236145D02*
X25066666Y21588526D01*
X25066666Y21588526D02*
X25100000Y21512336D01*
X25100000Y21512336D02*
X25133333Y21474240D01*
X25133333Y21474240D02*
X25200000Y21436145D01*
X25200000Y21436145D02*
X25333333Y21436145D01*
X25333333Y21436145D02*
X25400000Y21474240D01*
X25400000Y21474240D02*
X25433333Y21512336D01*
X25433333Y21512336D02*
X25466666Y21588526D01*
X25466666Y21588526D02*
X25466666Y22236145D01*
X26166666Y21436145D02*
X25766666Y21436145D01*
X25966666Y21436145D02*
X25966666Y22236145D01*
X25966666Y22236145D02*
X25899999Y22121860D01*
X25899999Y22121860D02*
X25833333Y22045669D01*
X25833333Y22045669D02*
X25766666Y22007574D01*
X21765000Y31982545D02*
X21531667Y32363498D01*
X21365000Y31982545D02*
X21365000Y32782545D01*
X21365000Y32782545D02*
X21631667Y32782545D01*
X21631667Y32782545D02*
X21698334Y32744450D01*
X21698334Y32744450D02*
X21731667Y32706355D01*
X21731667Y32706355D02*
X21765000Y32630164D01*
X21765000Y32630164D02*
X21765000Y32515879D01*
X21765000Y32515879D02*
X21731667Y32439688D01*
X21731667Y32439688D02*
X21698334Y32401593D01*
X21698334Y32401593D02*
X21631667Y32363498D01*
X21631667Y32363498D02*
X21365000Y32363498D01*
X22031667Y32706355D02*
X22065000Y32744450D01*
X22065000Y32744450D02*
X22131667Y32782545D01*
X22131667Y32782545D02*
X22298334Y32782545D01*
X22298334Y32782545D02*
X22365000Y32744450D01*
X22365000Y32744450D02*
X22398334Y32706355D01*
X22398334Y32706355D02*
X22431667Y32630164D01*
X22431667Y32630164D02*
X22431667Y32553974D01*
X22431667Y32553974D02*
X22398334Y32439688D01*
X22398334Y32439688D02*
X21998334Y31982545D01*
X21998334Y31982545D02*
X22431667Y31982545D01*
X39601666Y31315936D02*
X39568333Y31277840D01*
X39568333Y31277840D02*
X39468333Y31239745D01*
X39468333Y31239745D02*
X39401666Y31239745D01*
X39401666Y31239745D02*
X39301666Y31277840D01*
X39301666Y31277840D02*
X39235000Y31354031D01*
X39235000Y31354031D02*
X39201666Y31430221D01*
X39201666Y31430221D02*
X39168333Y31582602D01*
X39168333Y31582602D02*
X39168333Y31696888D01*
X39168333Y31696888D02*
X39201666Y31849269D01*
X39201666Y31849269D02*
X39235000Y31925460D01*
X39235000Y31925460D02*
X39301666Y32001650D01*
X39301666Y32001650D02*
X39401666Y32039745D01*
X39401666Y32039745D02*
X39468333Y32039745D01*
X39468333Y32039745D02*
X39568333Y32001650D01*
X39568333Y32001650D02*
X39601666Y31963555D01*
X40268333Y31239745D02*
X39868333Y31239745D01*
X40068333Y31239745D02*
X40068333Y32039745D01*
X40068333Y32039745D02*
X40001666Y31925460D01*
X40001666Y31925460D02*
X39935000Y31849269D01*
X39935000Y31849269D02*
X39868333Y31811174D01*
X40868333Y32039745D02*
X40735000Y32039745D01*
X40735000Y32039745D02*
X40668333Y32001650D01*
X40668333Y32001650D02*
X40635000Y31963555D01*
X40635000Y31963555D02*
X40568333Y31849269D01*
X40568333Y31849269D02*
X40535000Y31696888D01*
X40535000Y31696888D02*
X40535000Y31392126D01*
X40535000Y31392126D02*
X40568333Y31315936D01*
X40568333Y31315936D02*
X40601667Y31277840D01*
X40601667Y31277840D02*
X40668333Y31239745D01*
X40668333Y31239745D02*
X40801667Y31239745D01*
X40801667Y31239745D02*
X40868333Y31277840D01*
X40868333Y31277840D02*
X40901667Y31315936D01*
X40901667Y31315936D02*
X40935000Y31392126D01*
X40935000Y31392126D02*
X40935000Y31582602D01*
X40935000Y31582602D02*
X40901667Y31658793D01*
X40901667Y31658793D02*
X40868333Y31696888D01*
X40868333Y31696888D02*
X40801667Y31734983D01*
X40801667Y31734983D02*
X40668333Y31734983D01*
X40668333Y31734983D02*
X40601667Y31696888D01*
X40601667Y31696888D02*
X40568333Y31658793D01*
X40568333Y31658793D02*
X40535000Y31582602D01*
X46051666Y16932545D02*
X46051666Y17732545D01*
X46051666Y17732545D02*
X46218333Y17732545D01*
X46218333Y17732545D02*
X46318333Y17694450D01*
X46318333Y17694450D02*
X46385000Y17618260D01*
X46385000Y17618260D02*
X46418333Y17542069D01*
X46418333Y17542069D02*
X46451666Y17389688D01*
X46451666Y17389688D02*
X46451666Y17275402D01*
X46451666Y17275402D02*
X46418333Y17123021D01*
X46418333Y17123021D02*
X46385000Y17046831D01*
X46385000Y17046831D02*
X46318333Y16970640D01*
X46318333Y16970640D02*
X46218333Y16932545D01*
X46218333Y16932545D02*
X46051666Y16932545D01*
X47118333Y16932545D02*
X46718333Y16932545D01*
X46918333Y16932545D02*
X46918333Y17732545D01*
X46918333Y17732545D02*
X46851666Y17618260D01*
X46851666Y17618260D02*
X46785000Y17542069D01*
X46785000Y17542069D02*
X46718333Y17503974D01*
X22001666Y11858736D02*
X21968333Y11820640D01*
X21968333Y11820640D02*
X21868333Y11782545D01*
X21868333Y11782545D02*
X21801666Y11782545D01*
X21801666Y11782545D02*
X21701666Y11820640D01*
X21701666Y11820640D02*
X21635000Y11896831D01*
X21635000Y11896831D02*
X21601666Y11973021D01*
X21601666Y11973021D02*
X21568333Y12125402D01*
X21568333Y12125402D02*
X21568333Y12239688D01*
X21568333Y12239688D02*
X21601666Y12392069D01*
X21601666Y12392069D02*
X21635000Y12468260D01*
X21635000Y12468260D02*
X21701666Y12544450D01*
X21701666Y12544450D02*
X21801666Y12582545D01*
X21801666Y12582545D02*
X21868333Y12582545D01*
X21868333Y12582545D02*
X21968333Y12544450D01*
X21968333Y12544450D02*
X22001666Y12506355D01*
X22235000Y12582545D02*
X22701666Y12582545D01*
X22701666Y12582545D02*
X22401666Y11782545D01*
X25565000Y28083736D02*
X25531667Y28045640D01*
X25531667Y28045640D02*
X25431667Y28007545D01*
X25431667Y28007545D02*
X25365000Y28007545D01*
X25365000Y28007545D02*
X25265000Y28045640D01*
X25265000Y28045640D02*
X25198334Y28121831D01*
X25198334Y28121831D02*
X25165000Y28198021D01*
X25165000Y28198021D02*
X25131667Y28350402D01*
X25131667Y28350402D02*
X25131667Y28464688D01*
X25131667Y28464688D02*
X25165000Y28617069D01*
X25165000Y28617069D02*
X25198334Y28693260D01*
X25198334Y28693260D02*
X25265000Y28769450D01*
X25265000Y28769450D02*
X25365000Y28807545D01*
X25365000Y28807545D02*
X25431667Y28807545D01*
X25431667Y28807545D02*
X25531667Y28769450D01*
X25531667Y28769450D02*
X25565000Y28731355D01*
X25831667Y28731355D02*
X25865000Y28769450D01*
X25865000Y28769450D02*
X25931667Y28807545D01*
X25931667Y28807545D02*
X26098334Y28807545D01*
X26098334Y28807545D02*
X26165000Y28769450D01*
X26165000Y28769450D02*
X26198334Y28731355D01*
X26198334Y28731355D02*
X26231667Y28655164D01*
X26231667Y28655164D02*
X26231667Y28578974D01*
X26231667Y28578974D02*
X26198334Y28464688D01*
X26198334Y28464688D02*
X25798334Y28007545D01*
X25798334Y28007545D02*
X26231667Y28007545D01*
X35199999Y32265936D02*
X35166666Y32227840D01*
X35166666Y32227840D02*
X35066666Y32189745D01*
X35066666Y32189745D02*
X34999999Y32189745D01*
X34999999Y32189745D02*
X34899999Y32227840D01*
X34899999Y32227840D02*
X34833333Y32304031D01*
X34833333Y32304031D02*
X34799999Y32380221D01*
X34799999Y32380221D02*
X34766666Y32532602D01*
X34766666Y32532602D02*
X34766666Y32646888D01*
X34766666Y32646888D02*
X34799999Y32799269D01*
X34799999Y32799269D02*
X34833333Y32875460D01*
X34833333Y32875460D02*
X34899999Y32951650D01*
X34899999Y32951650D02*
X34999999Y32989745D01*
X34999999Y32989745D02*
X35066666Y32989745D01*
X35066666Y32989745D02*
X35166666Y32951650D01*
X35166666Y32951650D02*
X35199999Y32913555D01*
X35866666Y32189745D02*
X35466666Y32189745D01*
X35666666Y32189745D02*
X35666666Y32989745D01*
X35666666Y32989745D02*
X35599999Y32875460D01*
X35599999Y32875460D02*
X35533333Y32799269D01*
X35533333Y32799269D02*
X35466666Y32761174D01*
X36500000Y32989745D02*
X36166666Y32989745D01*
X36166666Y32989745D02*
X36133333Y32608793D01*
X36133333Y32608793D02*
X36166666Y32646888D01*
X36166666Y32646888D02*
X36233333Y32684983D01*
X36233333Y32684983D02*
X36400000Y32684983D01*
X36400000Y32684983D02*
X36466666Y32646888D01*
X36466666Y32646888D02*
X36500000Y32608793D01*
X36500000Y32608793D02*
X36533333Y32532602D01*
X36533333Y32532602D02*
X36533333Y32342126D01*
X36533333Y32342126D02*
X36500000Y32265936D01*
X36500000Y32265936D02*
X36466666Y32227840D01*
X36466666Y32227840D02*
X36400000Y32189745D01*
X36400000Y32189745D02*
X36233333Y32189745D01*
X36233333Y32189745D02*
X36166666Y32227840D01*
X36166666Y32227840D02*
X36133333Y32265936D01*
X40883333Y24232545D02*
X40650000Y24613498D01*
X40483333Y24232545D02*
X40483333Y25032545D01*
X40483333Y25032545D02*
X40750000Y25032545D01*
X40750000Y25032545D02*
X40816667Y24994450D01*
X40816667Y24994450D02*
X40850000Y24956355D01*
X40850000Y24956355D02*
X40883333Y24880164D01*
X40883333Y24880164D02*
X40883333Y24765879D01*
X40883333Y24765879D02*
X40850000Y24689688D01*
X40850000Y24689688D02*
X40816667Y24651593D01*
X40816667Y24651593D02*
X40750000Y24613498D01*
X40750000Y24613498D02*
X40483333Y24613498D01*
X41116667Y25032545D02*
X41583333Y25032545D01*
X41583333Y25032545D02*
X41283333Y24232545D01*
X25606666Y26236145D02*
X25273332Y26236145D01*
X25273332Y26236145D02*
X25273332Y27036145D01*
X26206666Y26236145D02*
X25806666Y26236145D01*
X26006666Y26236145D02*
X26006666Y27036145D01*
X26006666Y27036145D02*
X25939999Y26921860D01*
X25939999Y26921860D02*
X25873333Y26845669D01*
X25873333Y26845669D02*
X25806666Y26807574D01*
X25465000Y30512336D02*
X25431667Y30474240D01*
X25431667Y30474240D02*
X25331667Y30436145D01*
X25331667Y30436145D02*
X25265000Y30436145D01*
X25265000Y30436145D02*
X25165000Y30474240D01*
X25165000Y30474240D02*
X25098334Y30550431D01*
X25098334Y30550431D02*
X25065000Y30626621D01*
X25065000Y30626621D02*
X25031667Y30779002D01*
X25031667Y30779002D02*
X25031667Y30893288D01*
X25031667Y30893288D02*
X25065000Y31045669D01*
X25065000Y31045669D02*
X25098334Y31121860D01*
X25098334Y31121860D02*
X25165000Y31198050D01*
X25165000Y31198050D02*
X25265000Y31236145D01*
X25265000Y31236145D02*
X25331667Y31236145D01*
X25331667Y31236145D02*
X25431667Y31198050D01*
X25431667Y31198050D02*
X25465000Y31159955D01*
X26131667Y30436145D02*
X25731667Y30436145D01*
X25931667Y30436145D02*
X25931667Y31236145D01*
X25931667Y31236145D02*
X25865000Y31121860D01*
X25865000Y31121860D02*
X25798334Y31045669D01*
X25798334Y31045669D02*
X25731667Y31007574D01*
X43483333Y23139745D02*
X43483333Y23939745D01*
X43483333Y23939745D02*
X43650000Y23939745D01*
X43650000Y23939745D02*
X43750000Y23901650D01*
X43750000Y23901650D02*
X43816667Y23825460D01*
X43816667Y23825460D02*
X43850000Y23749269D01*
X43850000Y23749269D02*
X43883333Y23596888D01*
X43883333Y23596888D02*
X43883333Y23482602D01*
X43883333Y23482602D02*
X43850000Y23330221D01*
X43850000Y23330221D02*
X43816667Y23254031D01*
X43816667Y23254031D02*
X43750000Y23177840D01*
X43750000Y23177840D02*
X43650000Y23139745D01*
X43650000Y23139745D02*
X43483333Y23139745D01*
X44150000Y23863555D02*
X44183333Y23901650D01*
X44183333Y23901650D02*
X44250000Y23939745D01*
X44250000Y23939745D02*
X44416667Y23939745D01*
X44416667Y23939745D02*
X44483333Y23901650D01*
X44483333Y23901650D02*
X44516667Y23863555D01*
X44516667Y23863555D02*
X44550000Y23787364D01*
X44550000Y23787364D02*
X44550000Y23711174D01*
X44550000Y23711174D02*
X44516667Y23596888D01*
X44516667Y23596888D02*
X44116667Y23139745D01*
X44116667Y23139745D02*
X44550000Y23139745D01*
X24206666Y43140936D02*
X24173333Y43102840D01*
X24173333Y43102840D02*
X24073333Y43064745D01*
X24073333Y43064745D02*
X24006666Y43064745D01*
X24006666Y43064745D02*
X23906666Y43102840D01*
X23906666Y43102840D02*
X23840000Y43179031D01*
X23840000Y43179031D02*
X23806666Y43255221D01*
X23806666Y43255221D02*
X23773333Y43407602D01*
X23773333Y43407602D02*
X23773333Y43521888D01*
X23773333Y43521888D02*
X23806666Y43674269D01*
X23806666Y43674269D02*
X23840000Y43750460D01*
X23840000Y43750460D02*
X23906666Y43826650D01*
X23906666Y43826650D02*
X24006666Y43864745D01*
X24006666Y43864745D02*
X24073333Y43864745D01*
X24073333Y43864745D02*
X24173333Y43826650D01*
X24173333Y43826650D02*
X24206666Y43788555D01*
X24506666Y43064745D02*
X24506666Y43864745D01*
X24506666Y43864745D02*
X24906666Y43064745D01*
X24906666Y43064745D02*
X24906666Y43864745D01*
X25606666Y43064745D02*
X25206666Y43064745D01*
X25406666Y43064745D02*
X25406666Y43864745D01*
X25406666Y43864745D02*
X25339999Y43750460D01*
X25339999Y43750460D02*
X25273333Y43674269D01*
X25273333Y43674269D02*
X25206666Y43636174D01*
X37601666Y22165936D02*
X37568333Y22127840D01*
X37568333Y22127840D02*
X37468333Y22089745D01*
X37468333Y22089745D02*
X37401666Y22089745D01*
X37401666Y22089745D02*
X37301666Y22127840D01*
X37301666Y22127840D02*
X37235000Y22204031D01*
X37235000Y22204031D02*
X37201666Y22280221D01*
X37201666Y22280221D02*
X37168333Y22432602D01*
X37168333Y22432602D02*
X37168333Y22546888D01*
X37168333Y22546888D02*
X37201666Y22699269D01*
X37201666Y22699269D02*
X37235000Y22775460D01*
X37235000Y22775460D02*
X37301666Y22851650D01*
X37301666Y22851650D02*
X37401666Y22889745D01*
X37401666Y22889745D02*
X37468333Y22889745D01*
X37468333Y22889745D02*
X37568333Y22851650D01*
X37568333Y22851650D02*
X37601666Y22813555D01*
X38235000Y22889745D02*
X37901666Y22889745D01*
X37901666Y22889745D02*
X37868333Y22508793D01*
X37868333Y22508793D02*
X37901666Y22546888D01*
X37901666Y22546888D02*
X37968333Y22584983D01*
X37968333Y22584983D02*
X38135000Y22584983D01*
X38135000Y22584983D02*
X38201666Y22546888D01*
X38201666Y22546888D02*
X38235000Y22508793D01*
X38235000Y22508793D02*
X38268333Y22432602D01*
X38268333Y22432602D02*
X38268333Y22242126D01*
X38268333Y22242126D02*
X38235000Y22165936D01*
X38235000Y22165936D02*
X38201666Y22127840D01*
X38201666Y22127840D02*
X38135000Y22089745D01*
X38135000Y22089745D02*
X37968333Y22089745D01*
X37968333Y22089745D02*
X37901666Y22127840D01*
X37901666Y22127840D02*
X37868333Y22165936D01*
X28083332Y32936145D02*
X27849999Y33317098D01*
X27683332Y32936145D02*
X27683332Y33736145D01*
X27683332Y33736145D02*
X27949999Y33736145D01*
X27949999Y33736145D02*
X28016666Y33698050D01*
X28016666Y33698050D02*
X28049999Y33659955D01*
X28049999Y33659955D02*
X28083332Y33583764D01*
X28083332Y33583764D02*
X28083332Y33469479D01*
X28083332Y33469479D02*
X28049999Y33393288D01*
X28049999Y33393288D02*
X28016666Y33355193D01*
X28016666Y33355193D02*
X27949999Y33317098D01*
X27949999Y33317098D02*
X27683332Y33317098D01*
X28749999Y32936145D02*
X28349999Y32936145D01*
X28549999Y32936145D02*
X28549999Y33736145D01*
X28549999Y33736145D02*
X28483332Y33621860D01*
X28483332Y33621860D02*
X28416666Y33545669D01*
X28416666Y33545669D02*
X28349999Y33507574D01*
X43416667Y31758793D02*
X43183333Y31758793D01*
X43183333Y31339745D02*
X43183333Y32139745D01*
X43183333Y32139745D02*
X43516667Y32139745D01*
X44016667Y31758793D02*
X44116667Y31720698D01*
X44116667Y31720698D02*
X44150000Y31682602D01*
X44150000Y31682602D02*
X44183333Y31606412D01*
X44183333Y31606412D02*
X44183333Y31492126D01*
X44183333Y31492126D02*
X44150000Y31415936D01*
X44150000Y31415936D02*
X44116667Y31377840D01*
X44116667Y31377840D02*
X44050000Y31339745D01*
X44050000Y31339745D02*
X43783333Y31339745D01*
X43783333Y31339745D02*
X43783333Y32139745D01*
X43783333Y32139745D02*
X44016667Y32139745D01*
X44016667Y32139745D02*
X44083333Y32101650D01*
X44083333Y32101650D02*
X44116667Y32063555D01*
X44116667Y32063555D02*
X44150000Y31987364D01*
X44150000Y31987364D02*
X44150000Y31911174D01*
X44150000Y31911174D02*
X44116667Y31834983D01*
X44116667Y31834983D02*
X44083333Y31796888D01*
X44083333Y31796888D02*
X44016667Y31758793D01*
X44016667Y31758793D02*
X43783333Y31758793D01*
X44450000Y32063555D02*
X44483333Y32101650D01*
X44483333Y32101650D02*
X44550000Y32139745D01*
X44550000Y32139745D02*
X44716667Y32139745D01*
X44716667Y32139745D02*
X44783333Y32101650D01*
X44783333Y32101650D02*
X44816667Y32063555D01*
X44816667Y32063555D02*
X44850000Y31987364D01*
X44850000Y31987364D02*
X44850000Y31911174D01*
X44850000Y31911174D02*
X44816667Y31796888D01*
X44816667Y31796888D02*
X44416667Y31339745D01*
X44416667Y31339745D02*
X44850000Y31339745D01*
X30801666Y12036145D02*
X30568333Y12417098D01*
X30401666Y12036145D02*
X30401666Y12836145D01*
X30401666Y12836145D02*
X30668333Y12836145D01*
X30668333Y12836145D02*
X30735000Y12798050D01*
X30735000Y12798050D02*
X30768333Y12759955D01*
X30768333Y12759955D02*
X30801666Y12683764D01*
X30801666Y12683764D02*
X30801666Y12569479D01*
X30801666Y12569479D02*
X30768333Y12493288D01*
X30768333Y12493288D02*
X30735000Y12455193D01*
X30735000Y12455193D02*
X30668333Y12417098D01*
X30668333Y12417098D02*
X30401666Y12417098D01*
X31401666Y12836145D02*
X31268333Y12836145D01*
X31268333Y12836145D02*
X31201666Y12798050D01*
X31201666Y12798050D02*
X31168333Y12759955D01*
X31168333Y12759955D02*
X31101666Y12645669D01*
X31101666Y12645669D02*
X31068333Y12493288D01*
X31068333Y12493288D02*
X31068333Y12188526D01*
X31068333Y12188526D02*
X31101666Y12112336D01*
X31101666Y12112336D02*
X31135000Y12074240D01*
X31135000Y12074240D02*
X31201666Y12036145D01*
X31201666Y12036145D02*
X31335000Y12036145D01*
X31335000Y12036145D02*
X31401666Y12074240D01*
X31401666Y12074240D02*
X31435000Y12112336D01*
X31435000Y12112336D02*
X31468333Y12188526D01*
X31468333Y12188526D02*
X31468333Y12379002D01*
X31468333Y12379002D02*
X31435000Y12455193D01*
X31435000Y12455193D02*
X31401666Y12493288D01*
X31401666Y12493288D02*
X31335000Y12531383D01*
X31335000Y12531383D02*
X31201666Y12531383D01*
X31201666Y12531383D02*
X31135000Y12493288D01*
X31135000Y12493288D02*
X31101666Y12455193D01*
X31101666Y12455193D02*
X31068333Y12379002D01*
%TO.C,C8*%
X20359420Y16510000D02*
X20640580Y16510000D01*
X20359420Y15490000D02*
X20640580Y15490000D01*
%TO.C,R4*%
X23762742Y15522500D02*
X24237258Y15522500D01*
X23762742Y14477500D02*
X24237258Y14477500D01*
%TO.C,C9*%
X44859420Y10010000D02*
X45140580Y10010000D01*
X44859420Y8990000D02*
X45140580Y8990000D01*
%TO.C,FB1*%
X33510000Y30562779D02*
X33510000Y30237221D01*
X32490000Y30562779D02*
X32490000Y30237221D01*
%TO.C,JP1*%
X7137258Y8177500D02*
X6662742Y8177500D01*
X7137258Y9222500D02*
X6662742Y9222500D01*
%TO.C,C14*%
X47359420Y26510000D02*
X47640580Y26510000D01*
X47359420Y25490000D02*
X47640580Y25490000D01*
%TO.C,C3*%
X26361252Y36265000D02*
X25838748Y36265000D01*
X26361252Y37735000D02*
X25838748Y37735000D01*
%TO.C,C6*%
X15738748Y18735000D02*
X16261252Y18735000D01*
X15738748Y17265000D02*
X16261252Y17265000D01*
%TO.C,C11*%
X32540580Y27490000D02*
X32259420Y27490000D01*
X32540580Y28510000D02*
X32259420Y28510000D01*
%TO.C,J1*%
X6866000Y2030000D02*
X6866000Y3360000D01*
X8196000Y2030000D02*
X6866000Y2030000D01*
X9466000Y2030000D02*
X57786000Y2030000D01*
X9466000Y2030000D02*
X9466000Y4630000D01*
X57786000Y2030000D02*
X57786000Y7230000D01*
X6866000Y4630000D02*
X6866000Y7230000D01*
X9466000Y4630000D02*
X6866000Y4630000D01*
X6866000Y7230000D02*
X57786000Y7230000D01*
%TO.C,C12*%
X32540580Y25890000D02*
X32259420Y25890000D01*
X32540580Y26910000D02*
X32259420Y26910000D01*
%TO.C,C13*%
X47359420Y28110000D02*
X47640580Y28110000D01*
X47359420Y27090000D02*
X47640580Y27090000D01*
%TO.C,R5*%
X32088742Y10022500D02*
X32563258Y10022500D01*
X32088742Y8977500D02*
X32563258Y8977500D01*
%TO.C,R9*%
X47737258Y20977500D02*
X47262742Y20977500D01*
X47737258Y22022500D02*
X47262742Y22022500D01*
%TO.C,Y1*%
X36225000Y27475000D02*
X37575000Y27475000D01*
X36225000Y25725000D02*
X37575000Y25725000D01*
%TO.C,FB3*%
X17837221Y12510000D02*
X18162779Y12510000D01*
X17837221Y11490000D02*
X18162779Y11490000D01*
%TO.C,R3*%
X30672936Y37735000D02*
X31127064Y37735000D01*
X30672936Y36265000D02*
X31127064Y36265000D01*
%TO.C,C4*%
X39238748Y21285000D02*
X39761252Y21285000D01*
X39238748Y19815000D02*
X39761252Y19815000D01*
%TO.C,R8*%
X47737258Y18477500D02*
X47262742Y18477500D01*
X47737258Y19522500D02*
X47262742Y19522500D01*
%TO.C,C10*%
X42140580Y8990000D02*
X41859420Y8990000D01*
X42140580Y10010000D02*
X41859420Y10010000D01*
%TO.C,U1*%
X27390000Y22135000D02*
X27390000Y22370000D01*
X27390000Y17390000D02*
X27390000Y17865000D01*
X27865000Y22610000D02*
X27690000Y22610000D01*
X27865000Y17390000D02*
X27390000Y17390000D01*
X32135000Y22610000D02*
X32610000Y22610000D01*
X32135000Y17390000D02*
X32610000Y17390000D01*
X32610000Y22610000D02*
X32610000Y22135000D01*
X32610000Y17390000D02*
X32610000Y17865000D01*
X27390000Y22610000D02*
X27150000Y22940000D01*
X27630000Y22940000D01*
X27390000Y22610000D01*
G36*
X27390000Y22610000D02*
G01*
X27150000Y22940000D01*
X27630000Y22940000D01*
X27390000Y22610000D01*
G37*
%TO.C,R2*%
X24272936Y35110000D02*
X25727064Y35110000D01*
X24272936Y33290000D02*
X25727064Y33290000D01*
%TO.C,C16*%
X37640000Y29259420D02*
X37640000Y29540580D01*
X38660000Y29259420D02*
X38660000Y29540580D01*
%TO.C,D1*%
X42515000Y19735000D02*
X42515000Y18265000D01*
X42515000Y18265000D02*
X44800000Y18265000D01*
X44800000Y19735000D02*
X42515000Y19735000D01*
%TO.C,C7*%
X19659420Y14110000D02*
X19940580Y14110000D01*
X19659420Y13090000D02*
X19940580Y13090000D01*
%TO.C,C2*%
X26765000Y30538748D02*
X26765000Y31061252D01*
X28235000Y30538748D02*
X28235000Y31061252D01*
%TO.C,C15*%
X35140000Y29259420D02*
X35140000Y29540580D01*
X36160000Y29259420D02*
X36160000Y29540580D01*
%TO.C,R7*%
X40477500Y26562742D02*
X40477500Y27037258D01*
X41522500Y26562742D02*
X41522500Y27037258D01*
%TO.C,L1*%
X27050000Y24650000D02*
X27050000Y28550000D01*
X29950000Y24650000D02*
X29950000Y28550000D01*
%TO.C,C1*%
X28765000Y30538748D02*
X28765000Y31061252D01*
X30235000Y30538748D02*
X30235000Y31061252D01*
%TO.C,D2*%
X42515000Y22235000D02*
X42515000Y20765000D01*
X42515000Y20765000D02*
X44800000Y20765000D01*
X44800000Y22235000D02*
X42515000Y22235000D01*
%TO.C,CN1*%
X33115000Y39340000D02*
X33115000Y48760000D01*
X33115000Y39340000D02*
X31455000Y39340000D01*
X33115000Y45450000D02*
X16265000Y45450000D01*
X33115000Y48760000D02*
X16265000Y48760000D01*
X30705000Y38050000D02*
X30105000Y38050000D01*
X30405000Y38650000D02*
X30705000Y38050000D01*
X30105000Y38050000D02*
X30405000Y38650000D01*
X29355000Y39340000D02*
X27645000Y39340000D01*
X25545000Y39340000D02*
X23835000Y39340000D01*
X21735000Y39340000D02*
X20025000Y39340000D01*
X16265000Y39340000D02*
X17925000Y39340000D01*
X16265000Y48760000D02*
X16265000Y39340000D01*
%TO.C,C5*%
X35259420Y21510000D02*
X35540580Y21510000D01*
X35259420Y20490000D02*
X35540580Y20490000D01*
%TO.C,R1*%
X32727064Y33290000D02*
X31272936Y33290000D01*
X32727064Y35110000D02*
X31272936Y35110000D01*
%TO.C,FB2*%
X44510000Y29662779D02*
X44510000Y29337221D01*
X43490000Y29662779D02*
X43490000Y29337221D01*
%TO.C,R6*%
X28837258Y11877500D02*
X28362742Y11877500D01*
X28837258Y12922500D02*
X28362742Y12922500D01*
%TD*%
M02*
