M48
; DRILL file {KiCad 7.0.11+dfsg-1build4} date Tue 22 Sep 2026 02:58:24 PM KST
; FORMAT={-:-/ absolute / metric / decimal}
; #@! TF.CreationDate,2026-09-22T14:58:24+09:00
; #@! TF.GenerationSoftware,Kicad,Pcbnew,7.0.11+dfsg-1build4
; #@! TF.FileFunction,Plated,1,2,PTH
FMAT,2
METRIC
; #@! TA.AperFunction,Plated,PTH,ComponentDrill
T1C1.000
%
G90
G05
T1
X8.196Y5.9
X8.196Y3.36
X10.736Y5.9
X10.736Y3.36
X13.276Y5.9
X13.276Y3.36
X15.816Y5.9
X15.816Y3.36
X18.356Y5.9
X18.356Y3.36
X20.896Y5.9
X20.896Y3.36
X23.436Y5.9
X23.436Y3.36
X25.976Y5.9
X25.976Y3.36
X28.516Y5.9
X28.516Y3.36
X31.056Y5.9
X31.056Y3.36
X33.596Y5.9
X33.596Y3.36
X36.136Y5.9
X36.136Y3.36
X38.676Y5.9
X38.676Y3.36
X41.216Y5.9
X41.216Y3.36
X43.756Y5.9
X43.756Y3.36
X46.296Y5.9
X46.296Y3.36
X48.836Y5.9
X48.836Y3.36
X51.376Y5.9
X51.376Y3.36
X53.916Y5.9
X53.916Y3.36
X56.456Y5.9
X56.456Y3.36
M30
