%TF.GenerationSoftware,KiCad,Pcbnew,7.0.11+dfsg-1build4*%
%TF.CreationDate,2026-09-22T14:58:24+09:00*%
%TF.ProjectId,t_eth_elite_hat_adapter,745f6574-685f-4656-9c69-74655f686174,rev?*%
%TF.SameCoordinates,Original*%
%TF.FileFunction,Legend,Bot*%
%TF.FilePolarity,Positive*%
%FSLAX46Y46*%
G04 Gerber Fmt 4.6, Leading zero omitted, Abs format (unit mm)*
G04 Created by KiCad (PCBNEW 7.0.11+dfsg-1build4) date 2026-09-22 14:58:24*
%MOMM*%
%LPD*%
G01*
G04 APERTURE LIST*
%ADD10C,0.320000*%
%ADD11C,0.176000*%
G04 APERTURE END LIST*
D10*
X48816190Y23491402D02*
X47879047Y23491402D01*
X48347619Y21491402D02*
X48347619Y23491402D01*
X47332380Y22253307D02*
X46082857Y22253307D01*
X45301904Y22539021D02*
X44755238Y22539021D01*
X44520952Y21491402D02*
X45301904Y21491402D01*
X45301904Y21491402D02*
X45301904Y23491402D01*
X45301904Y23491402D02*
X44520952Y23491402D01*
X44052380Y23491402D02*
X43115237Y23491402D01*
X43583809Y21491402D02*
X43583809Y23491402D01*
X42568570Y21491402D02*
X42568570Y23491402D01*
X42568570Y22539021D02*
X41631427Y22539021D01*
X41631427Y21491402D02*
X41631427Y23491402D01*
X40850475Y22253307D02*
X39600952Y22253307D01*
X38819999Y22539021D02*
X38273333Y22539021D01*
X38039047Y21491402D02*
X38819999Y21491402D01*
X38819999Y21491402D02*
X38819999Y23491402D01*
X38819999Y23491402D02*
X38039047Y23491402D01*
X37101904Y21491402D02*
X37258094Y21586640D01*
X37258094Y21586640D02*
X37336189Y21777117D01*
X37336189Y21777117D02*
X37336189Y23491402D01*
X36477141Y21491402D02*
X36477141Y22824736D01*
X36477141Y23491402D02*
X36555237Y23396164D01*
X36555237Y23396164D02*
X36477141Y23300926D01*
X36477141Y23300926D02*
X36399046Y23396164D01*
X36399046Y23396164D02*
X36477141Y23491402D01*
X36477141Y23491402D02*
X36477141Y23300926D01*
X35930475Y22824736D02*
X35305713Y22824736D01*
X35696189Y23491402D02*
X35696189Y21777117D01*
X35696189Y21777117D02*
X35618094Y21586640D01*
X35618094Y21586640D02*
X35461904Y21491402D01*
X35461904Y21491402D02*
X35305713Y21491402D01*
X34134284Y21586640D02*
X34290475Y21491402D01*
X34290475Y21491402D02*
X34602856Y21491402D01*
X34602856Y21491402D02*
X34759046Y21586640D01*
X34759046Y21586640D02*
X34837142Y21777117D01*
X34837142Y21777117D02*
X34837142Y22539021D01*
X34837142Y22539021D02*
X34759046Y22729498D01*
X34759046Y22729498D02*
X34602856Y22824736D01*
X34602856Y22824736D02*
X34290475Y22824736D01*
X34290475Y22824736D02*
X34134284Y22729498D01*
X34134284Y22729498D02*
X34056189Y22539021D01*
X34056189Y22539021D02*
X34056189Y22348545D01*
X34056189Y22348545D02*
X34837142Y22158069D01*
X32181904Y21586640D02*
X31947618Y21491402D01*
X31947618Y21491402D02*
X31557142Y21491402D01*
X31557142Y21491402D02*
X31400951Y21586640D01*
X31400951Y21586640D02*
X31322856Y21681879D01*
X31322856Y21681879D02*
X31244761Y21872355D01*
X31244761Y21872355D02*
X31244761Y22062831D01*
X31244761Y22062831D02*
X31322856Y22253307D01*
X31322856Y22253307D02*
X31400951Y22348545D01*
X31400951Y22348545D02*
X31557142Y22443783D01*
X31557142Y22443783D02*
X31869523Y22539021D01*
X31869523Y22539021D02*
X32025713Y22634260D01*
X32025713Y22634260D02*
X32103808Y22729498D01*
X32103808Y22729498D02*
X32181904Y22919974D01*
X32181904Y22919974D02*
X32181904Y23110450D01*
X32181904Y23110450D02*
X32103808Y23300926D01*
X32103808Y23300926D02*
X32025713Y23396164D01*
X32025713Y23396164D02*
X31869523Y23491402D01*
X31869523Y23491402D02*
X31479046Y23491402D01*
X31479046Y23491402D02*
X31244761Y23396164D01*
X30541903Y21491402D02*
X30541903Y23491402D01*
X29760951Y21491402D02*
X29760951Y23491402D01*
X29760951Y23491402D02*
X29370475Y23491402D01*
X29370475Y23491402D02*
X29136189Y23396164D01*
X29136189Y23396164D02*
X28979999Y23205688D01*
X28979999Y23205688D02*
X28901904Y23015212D01*
X28901904Y23015212D02*
X28823808Y22634260D01*
X28823808Y22634260D02*
X28823808Y22348545D01*
X28823808Y22348545D02*
X28901904Y21967593D01*
X28901904Y21967593D02*
X28979999Y21777117D01*
X28979999Y21777117D02*
X29136189Y21586640D01*
X29136189Y21586640D02*
X29370475Y21491402D01*
X29370475Y21491402D02*
X29760951Y21491402D01*
X28120951Y22539021D02*
X27574285Y22539021D01*
X27339999Y21491402D02*
X28120951Y21491402D01*
X28120951Y21491402D02*
X28120951Y23491402D01*
X28120951Y23491402D02*
X27339999Y23491402D01*
D11*
X50176998Y18952652D02*
X50091093Y18900272D01*
X50091093Y18900272D02*
X49919284Y18900272D01*
X49919284Y18900272D02*
X49833379Y18952652D01*
X49833379Y18952652D02*
X49790427Y19057414D01*
X49790427Y19057414D02*
X49790427Y19109795D01*
X49790427Y19109795D02*
X49833379Y19214557D01*
X49833379Y19214557D02*
X49919284Y19266938D01*
X49919284Y19266938D02*
X50048141Y19266938D01*
X50048141Y19266938D02*
X50134046Y19319319D01*
X50134046Y19319319D02*
X50176998Y19424081D01*
X50176998Y19424081D02*
X50176998Y19476462D01*
X50176998Y19476462D02*
X50134046Y19581224D01*
X50134046Y19581224D02*
X50048141Y19633605D01*
X50048141Y19633605D02*
X49919284Y19633605D01*
X49919284Y19633605D02*
X49833379Y19581224D01*
X49532713Y19633605D02*
X49189094Y19633605D01*
X49403856Y20000272D02*
X49403856Y19057414D01*
X49403856Y19057414D02*
X49360903Y18952652D01*
X49360903Y18952652D02*
X49274998Y18900272D01*
X49274998Y18900272D02*
X49189094Y18900272D01*
X48501855Y18900272D02*
X48501855Y19476462D01*
X48501855Y19476462D02*
X48544808Y19581224D01*
X48544808Y19581224D02*
X48630712Y19633605D01*
X48630712Y19633605D02*
X48802522Y19633605D01*
X48802522Y19633605D02*
X48888427Y19581224D01*
X48501855Y18952652D02*
X48587760Y18900272D01*
X48587760Y18900272D02*
X48802522Y18900272D01*
X48802522Y18900272D02*
X48888427Y18952652D01*
X48888427Y18952652D02*
X48931379Y19057414D01*
X48931379Y19057414D02*
X48931379Y19162176D01*
X48931379Y19162176D02*
X48888427Y19266938D01*
X48888427Y19266938D02*
X48802522Y19319319D01*
X48802522Y19319319D02*
X48587760Y19319319D01*
X48587760Y19319319D02*
X48501855Y19371700D01*
X47685760Y18952652D02*
X47771665Y18900272D01*
X47771665Y18900272D02*
X47943474Y18900272D01*
X47943474Y18900272D02*
X48029379Y18952652D01*
X48029379Y18952652D02*
X48072332Y19005033D01*
X48072332Y19005033D02*
X48115284Y19109795D01*
X48115284Y19109795D02*
X48115284Y19424081D01*
X48115284Y19424081D02*
X48072332Y19528843D01*
X48072332Y19528843D02*
X48029379Y19581224D01*
X48029379Y19581224D02*
X47943474Y19633605D01*
X47943474Y19633605D02*
X47771665Y19633605D01*
X47771665Y19633605D02*
X47685760Y19581224D01*
X47299189Y18900272D02*
X47299189Y20000272D01*
X47213284Y19319319D02*
X46955570Y18900272D01*
X46955570Y19633605D02*
X47299189Y19214557D01*
X46568999Y18900272D02*
X46568999Y19633605D01*
X46568999Y20000272D02*
X46611951Y19947891D01*
X46611951Y19947891D02*
X46568999Y19895510D01*
X46568999Y19895510D02*
X46526046Y19947891D01*
X46526046Y19947891D02*
X46568999Y20000272D01*
X46568999Y20000272D02*
X46568999Y19895510D01*
X46139475Y19633605D02*
X46139475Y18900272D01*
X46139475Y19528843D02*
X46096522Y19581224D01*
X46096522Y19581224D02*
X46010617Y19633605D01*
X46010617Y19633605D02*
X45881760Y19633605D01*
X45881760Y19633605D02*
X45795856Y19581224D01*
X45795856Y19581224D02*
X45752903Y19476462D01*
X45752903Y19476462D02*
X45752903Y18900272D01*
X44936808Y19633605D02*
X44936808Y18743129D01*
X44936808Y18743129D02*
X44979761Y18638367D01*
X44979761Y18638367D02*
X45022713Y18585986D01*
X45022713Y18585986D02*
X45108618Y18533605D01*
X45108618Y18533605D02*
X45237475Y18533605D01*
X45237475Y18533605D02*
X45323380Y18585986D01*
X44936808Y18952652D02*
X45022713Y18900272D01*
X45022713Y18900272D02*
X45194522Y18900272D01*
X45194522Y18900272D02*
X45280427Y18952652D01*
X45280427Y18952652D02*
X45323380Y19005033D01*
X45323380Y19005033D02*
X45366332Y19109795D01*
X45366332Y19109795D02*
X45366332Y19424081D01*
X45366332Y19424081D02*
X45323380Y19528843D01*
X45323380Y19528843D02*
X45280427Y19581224D01*
X45280427Y19581224D02*
X45194522Y19633605D01*
X45194522Y19633605D02*
X45022713Y19633605D01*
X45022713Y19633605D02*
X44936808Y19581224D01*
X44507285Y19319319D02*
X43820047Y19319319D01*
X43390523Y18900272D02*
X43390523Y20000272D01*
X43003951Y18900272D02*
X43003951Y19476462D01*
X43003951Y19476462D02*
X43046904Y19581224D01*
X43046904Y19581224D02*
X43132808Y19633605D01*
X43132808Y19633605D02*
X43261665Y19633605D01*
X43261665Y19633605D02*
X43347570Y19581224D01*
X43347570Y19581224D02*
X43390523Y19528843D01*
X42230809Y18952652D02*
X42316713Y18900272D01*
X42316713Y18900272D02*
X42488523Y18900272D01*
X42488523Y18900272D02*
X42574428Y18952652D01*
X42574428Y18952652D02*
X42617380Y19057414D01*
X42617380Y19057414D02*
X42617380Y19476462D01*
X42617380Y19476462D02*
X42574428Y19581224D01*
X42574428Y19581224D02*
X42488523Y19633605D01*
X42488523Y19633605D02*
X42316713Y19633605D01*
X42316713Y19633605D02*
X42230809Y19581224D01*
X42230809Y19581224D02*
X42187856Y19476462D01*
X42187856Y19476462D02*
X42187856Y19371700D01*
X42187856Y19371700D02*
X42617380Y19266938D01*
X41414713Y18900272D02*
X41414713Y19476462D01*
X41414713Y19476462D02*
X41457666Y19581224D01*
X41457666Y19581224D02*
X41543570Y19633605D01*
X41543570Y19633605D02*
X41715380Y19633605D01*
X41715380Y19633605D02*
X41801285Y19581224D01*
X41414713Y18952652D02*
X41500618Y18900272D01*
X41500618Y18900272D02*
X41715380Y18900272D01*
X41715380Y18900272D02*
X41801285Y18952652D01*
X41801285Y18952652D02*
X41844237Y19057414D01*
X41844237Y19057414D02*
X41844237Y19162176D01*
X41844237Y19162176D02*
X41801285Y19266938D01*
X41801285Y19266938D02*
X41715380Y19319319D01*
X41715380Y19319319D02*
X41500618Y19319319D01*
X41500618Y19319319D02*
X41414713Y19371700D01*
X40598618Y18900272D02*
X40598618Y20000272D01*
X40598618Y18952652D02*
X40684523Y18900272D01*
X40684523Y18900272D02*
X40856332Y18900272D01*
X40856332Y18900272D02*
X40942237Y18952652D01*
X40942237Y18952652D02*
X40985190Y19005033D01*
X40985190Y19005033D02*
X41028142Y19109795D01*
X41028142Y19109795D02*
X41028142Y19424081D01*
X41028142Y19424081D02*
X40985190Y19528843D01*
X40985190Y19528843D02*
X40942237Y19581224D01*
X40942237Y19581224D02*
X40856332Y19633605D01*
X40856332Y19633605D02*
X40684523Y19633605D01*
X40684523Y19633605D02*
X40598618Y19581224D01*
X39825476Y18952652D02*
X39911380Y18900272D01*
X39911380Y18900272D02*
X40083190Y18900272D01*
X40083190Y18900272D02*
X40169095Y18952652D01*
X40169095Y18952652D02*
X40212047Y19057414D01*
X40212047Y19057414D02*
X40212047Y19476462D01*
X40212047Y19476462D02*
X40169095Y19581224D01*
X40169095Y19581224D02*
X40083190Y19633605D01*
X40083190Y19633605D02*
X39911380Y19633605D01*
X39911380Y19633605D02*
X39825476Y19581224D01*
X39825476Y19581224D02*
X39782523Y19476462D01*
X39782523Y19476462D02*
X39782523Y19371700D01*
X39782523Y19371700D02*
X40212047Y19266938D01*
X39395952Y18900272D02*
X39395952Y19633605D01*
X39395952Y19424081D02*
X39352999Y19528843D01*
X39352999Y19528843D02*
X39310047Y19581224D01*
X39310047Y19581224D02*
X39224142Y19633605D01*
X39224142Y19633605D02*
X39138237Y19633605D01*
X38193285Y18952652D02*
X38107380Y18900272D01*
X38107380Y18900272D02*
X37935571Y18900272D01*
X37935571Y18900272D02*
X37849666Y18952652D01*
X37849666Y18952652D02*
X37806714Y19057414D01*
X37806714Y19057414D02*
X37806714Y19109795D01*
X37806714Y19109795D02*
X37849666Y19214557D01*
X37849666Y19214557D02*
X37935571Y19266938D01*
X37935571Y19266938D02*
X38064428Y19266938D01*
X38064428Y19266938D02*
X38150333Y19319319D01*
X38150333Y19319319D02*
X38193285Y19424081D01*
X38193285Y19424081D02*
X38193285Y19476462D01*
X38193285Y19476462D02*
X38150333Y19581224D01*
X38150333Y19581224D02*
X38064428Y19633605D01*
X38064428Y19633605D02*
X37935571Y19633605D01*
X37935571Y19633605D02*
X37849666Y19581224D01*
X37291285Y18900272D02*
X37377190Y18952652D01*
X37377190Y18952652D02*
X37420143Y19005033D01*
X37420143Y19005033D02*
X37463095Y19109795D01*
X37463095Y19109795D02*
X37463095Y19424081D01*
X37463095Y19424081D02*
X37420143Y19528843D01*
X37420143Y19528843D02*
X37377190Y19581224D01*
X37377190Y19581224D02*
X37291285Y19633605D01*
X37291285Y19633605D02*
X37162428Y19633605D01*
X37162428Y19633605D02*
X37076524Y19581224D01*
X37076524Y19581224D02*
X37033571Y19528843D01*
X37033571Y19528843D02*
X36990619Y19424081D01*
X36990619Y19424081D02*
X36990619Y19109795D01*
X36990619Y19109795D02*
X37033571Y19005033D01*
X37033571Y19005033D02*
X37076524Y18952652D01*
X37076524Y18952652D02*
X37162428Y18900272D01*
X37162428Y18900272D02*
X37291285Y18900272D01*
X36217476Y18952652D02*
X36303381Y18900272D01*
X36303381Y18900272D02*
X36475190Y18900272D01*
X36475190Y18900272D02*
X36561095Y18952652D01*
X36561095Y18952652D02*
X36604048Y19005033D01*
X36604048Y19005033D02*
X36647000Y19109795D01*
X36647000Y19109795D02*
X36647000Y19424081D01*
X36647000Y19424081D02*
X36604048Y19528843D01*
X36604048Y19528843D02*
X36561095Y19581224D01*
X36561095Y19581224D02*
X36475190Y19633605D01*
X36475190Y19633605D02*
X36303381Y19633605D01*
X36303381Y19633605D02*
X36217476Y19581224D01*
X35830905Y18900272D02*
X35830905Y20000272D01*
X35745000Y19319319D02*
X35487286Y18900272D01*
X35487286Y19633605D02*
X35830905Y19214557D01*
X34757096Y18952652D02*
X34843000Y18900272D01*
X34843000Y18900272D02*
X35014810Y18900272D01*
X35014810Y18900272D02*
X35100715Y18952652D01*
X35100715Y18952652D02*
X35143667Y19057414D01*
X35143667Y19057414D02*
X35143667Y19476462D01*
X35143667Y19476462D02*
X35100715Y19581224D01*
X35100715Y19581224D02*
X35014810Y19633605D01*
X35014810Y19633605D02*
X34843000Y19633605D01*
X34843000Y19633605D02*
X34757096Y19581224D01*
X34757096Y19581224D02*
X34714143Y19476462D01*
X34714143Y19476462D02*
X34714143Y19371700D01*
X34714143Y19371700D02*
X35143667Y19266938D01*
X34456429Y19633605D02*
X34112810Y19633605D01*
X34327572Y20000272D02*
X34327572Y19057414D01*
X34327572Y19057414D02*
X34284619Y18952652D01*
X34284619Y18952652D02*
X34198714Y18900272D01*
X34198714Y18900272D02*
X34112810Y18900272D01*
X33253762Y19633605D02*
X32910143Y19633605D01*
X33124905Y18900272D02*
X33124905Y19843129D01*
X33124905Y19843129D02*
X33081952Y19947891D01*
X33081952Y19947891D02*
X32996047Y20000272D01*
X32996047Y20000272D02*
X32910143Y20000272D01*
X32222904Y18900272D02*
X32222904Y19476462D01*
X32222904Y19476462D02*
X32265857Y19581224D01*
X32265857Y19581224D02*
X32351761Y19633605D01*
X32351761Y19633605D02*
X32523571Y19633605D01*
X32523571Y19633605D02*
X32609476Y19581224D01*
X32222904Y18952652D02*
X32308809Y18900272D01*
X32308809Y18900272D02*
X32523571Y18900272D01*
X32523571Y18900272D02*
X32609476Y18952652D01*
X32609476Y18952652D02*
X32652428Y19057414D01*
X32652428Y19057414D02*
X32652428Y19162176D01*
X32652428Y19162176D02*
X32609476Y19266938D01*
X32609476Y19266938D02*
X32523571Y19319319D01*
X32523571Y19319319D02*
X32308809Y19319319D01*
X32308809Y19319319D02*
X32222904Y19371700D01*
X31406809Y18952652D02*
X31492714Y18900272D01*
X31492714Y18900272D02*
X31664523Y18900272D01*
X31664523Y18900272D02*
X31750428Y18952652D01*
X31750428Y18952652D02*
X31793381Y19005033D01*
X31793381Y19005033D02*
X31836333Y19109795D01*
X31836333Y19109795D02*
X31836333Y19424081D01*
X31836333Y19424081D02*
X31793381Y19528843D01*
X31793381Y19528843D02*
X31750428Y19581224D01*
X31750428Y19581224D02*
X31664523Y19633605D01*
X31664523Y19633605D02*
X31492714Y19633605D01*
X31492714Y19633605D02*
X31406809Y19581224D01*
X30676619Y18952652D02*
X30762523Y18900272D01*
X30762523Y18900272D02*
X30934333Y18900272D01*
X30934333Y18900272D02*
X31020238Y18952652D01*
X31020238Y18952652D02*
X31063190Y19057414D01*
X31063190Y19057414D02*
X31063190Y19476462D01*
X31063190Y19476462D02*
X31020238Y19581224D01*
X31020238Y19581224D02*
X30934333Y19633605D01*
X30934333Y19633605D02*
X30762523Y19633605D01*
X30762523Y19633605D02*
X30676619Y19581224D01*
X30676619Y19581224D02*
X30633666Y19476462D01*
X30633666Y19476462D02*
X30633666Y19371700D01*
X30633666Y19371700D02*
X31063190Y19266938D01*
X30290047Y18952652D02*
X30204142Y18900272D01*
X30204142Y18900272D02*
X30032333Y18900272D01*
X30032333Y18900272D02*
X29946428Y18952652D01*
X29946428Y18952652D02*
X29903476Y19057414D01*
X29903476Y19057414D02*
X29903476Y19109795D01*
X29903476Y19109795D02*
X29946428Y19214557D01*
X29946428Y19214557D02*
X30032333Y19266938D01*
X30032333Y19266938D02*
X30161190Y19266938D01*
X30161190Y19266938D02*
X30247095Y19319319D01*
X30247095Y19319319D02*
X30290047Y19424081D01*
X30290047Y19424081D02*
X30290047Y19476462D01*
X30290047Y19476462D02*
X30247095Y19581224D01*
X30247095Y19581224D02*
X30161190Y19633605D01*
X30161190Y19633605D02*
X30032333Y19633605D01*
X30032333Y19633605D02*
X29946428Y19581224D01*
X28443095Y18900272D02*
X28443095Y20000272D01*
X28443095Y18952652D02*
X28529000Y18900272D01*
X28529000Y18900272D02*
X28700809Y18900272D01*
X28700809Y18900272D02*
X28786714Y18952652D01*
X28786714Y18952652D02*
X28829667Y19005033D01*
X28829667Y19005033D02*
X28872619Y19109795D01*
X28872619Y19109795D02*
X28872619Y19424081D01*
X28872619Y19424081D02*
X28829667Y19528843D01*
X28829667Y19528843D02*
X28786714Y19581224D01*
X28786714Y19581224D02*
X28700809Y19633605D01*
X28700809Y19633605D02*
X28529000Y19633605D01*
X28529000Y19633605D02*
X28443095Y19581224D01*
X27884714Y18900272D02*
X27970619Y18952652D01*
X27970619Y18952652D02*
X28013572Y19005033D01*
X28013572Y19005033D02*
X28056524Y19109795D01*
X28056524Y19109795D02*
X28056524Y19424081D01*
X28056524Y19424081D02*
X28013572Y19528843D01*
X28013572Y19528843D02*
X27970619Y19581224D01*
X27970619Y19581224D02*
X27884714Y19633605D01*
X27884714Y19633605D02*
X27755857Y19633605D01*
X27755857Y19633605D02*
X27669953Y19581224D01*
X27669953Y19581224D02*
X27627000Y19528843D01*
X27627000Y19528843D02*
X27584048Y19424081D01*
X27584048Y19424081D02*
X27584048Y19109795D01*
X27584048Y19109795D02*
X27627000Y19005033D01*
X27627000Y19005033D02*
X27669953Y18952652D01*
X27669953Y18952652D02*
X27755857Y18900272D01*
X27755857Y18900272D02*
X27884714Y18900272D01*
X27283381Y19633605D02*
X27111572Y18900272D01*
X27111572Y18900272D02*
X26939762Y19424081D01*
X26939762Y19424081D02*
X26767953Y18900272D01*
X26767953Y18900272D02*
X26596143Y19633605D01*
X26252525Y19633605D02*
X26252525Y18900272D01*
X26252525Y19528843D02*
X26209572Y19581224D01*
X26209572Y19581224D02*
X26123667Y19633605D01*
X26123667Y19633605D02*
X25994810Y19633605D01*
X25994810Y19633605D02*
X25908906Y19581224D01*
X25908906Y19581224D02*
X25865953Y19476462D01*
X25865953Y19476462D02*
X25865953Y18900272D01*
M02*
