%TF.GenerationSoftware,KiCad,Pcbnew,7.0.11+dfsg-1build4*%
%TF.CreationDate,2026-09-22T14:58:24+09:00*%
%TF.ProjectId,t_eth_elite_hat_adapter,745f6574-685f-4656-9c69-74655f686174,rev?*%
%TF.SameCoordinates,Original*%
%TF.FileFunction,Drillmap*%
%TF.FilePolarity,Positive*%
%FSLAX45Y45*%
G04 Gerber Fmt 4.5, Leading zero omitted, Abs format (unit mm)*
G04 Created by KiCad (PCBNEW 7.0.11+dfsg-1build4) date 2026-09-22 14:58:24*
%MOMM*%
%LPD*%
G01*
G04 APERTURE LIST*
%ADD10C,0.100000*%
%ADD11C,0.200000*%
G04 APERTURE END LIST*
D10*
X300000Y5720000D02*
G75*
G03*
X0Y5420000I0J-300000D01*
G01*
X6622000Y5420000D02*
G75*
G03*
X6322000Y5720000I-300000J0D01*
G01*
X6322000Y5720000D02*
X300000Y5720000D01*
X0Y2940000D02*
X1740000Y2940000D01*
X0Y1000000D02*
X0Y300000D01*
X6622000Y300000D02*
X6622000Y5420000D01*
X1740000Y1000000D02*
X0Y1000000D01*
X6322000Y0D02*
G75*
G03*
X6622000Y300000I0J300000D01*
G01*
X0Y300000D02*
G75*
G03*
X300000Y0I300000J0D01*
G01*
X0Y5420000D02*
X0Y2940000D01*
X1740000Y2940000D02*
X1740000Y1000000D01*
X300000Y0D02*
X6322000Y0D01*
D11*
D10*
X769600Y640000D02*
X869600Y540000D01*
X869600Y640000D02*
X769600Y540000D01*
X769600Y386000D02*
X869600Y286000D01*
X869600Y386000D02*
X769600Y286000D01*
X1023600Y640000D02*
X1123600Y540000D01*
X1123600Y640000D02*
X1023600Y540000D01*
X1023600Y386000D02*
X1123600Y286000D01*
X1123600Y386000D02*
X1023600Y286000D01*
X1277600Y640000D02*
X1377600Y540000D01*
X1377600Y640000D02*
X1277600Y540000D01*
X1277600Y386000D02*
X1377600Y286000D01*
X1377600Y386000D02*
X1277600Y286000D01*
X1531600Y640000D02*
X1631600Y540000D01*
X1631600Y640000D02*
X1531600Y540000D01*
X1531600Y386000D02*
X1631600Y286000D01*
X1631600Y386000D02*
X1531600Y286000D01*
X1785600Y640000D02*
X1885600Y540000D01*
X1885600Y640000D02*
X1785600Y540000D01*
X1785600Y386000D02*
X1885600Y286000D01*
X1885600Y386000D02*
X1785600Y286000D01*
X2039600Y640000D02*
X2139600Y540000D01*
X2139600Y640000D02*
X2039600Y540000D01*
X2039600Y386000D02*
X2139600Y286000D01*
X2139600Y386000D02*
X2039600Y286000D01*
X2293600Y640000D02*
X2393600Y540000D01*
X2393600Y640000D02*
X2293600Y540000D01*
X2293600Y386000D02*
X2393600Y286000D01*
X2393600Y386000D02*
X2293600Y286000D01*
X2547600Y640000D02*
X2647600Y540000D01*
X2647600Y640000D02*
X2547600Y540000D01*
X2547600Y386000D02*
X2647600Y286000D01*
X2647600Y386000D02*
X2547600Y286000D01*
X2801600Y640000D02*
X2901600Y540000D01*
X2901600Y640000D02*
X2801600Y540000D01*
X2801600Y386000D02*
X2901600Y286000D01*
X2901600Y386000D02*
X2801600Y286000D01*
X3055600Y640000D02*
X3155600Y540000D01*
X3155600Y640000D02*
X3055600Y540000D01*
X3055600Y386000D02*
X3155600Y286000D01*
X3155600Y386000D02*
X3055600Y286000D01*
X3309600Y640000D02*
X3409600Y540000D01*
X3409600Y640000D02*
X3309600Y540000D01*
X3309600Y386000D02*
X3409600Y286000D01*
X3409600Y386000D02*
X3309600Y286000D01*
X3563600Y640000D02*
X3663600Y540000D01*
X3663600Y640000D02*
X3563600Y540000D01*
X3563600Y386000D02*
X3663600Y286000D01*
X3663600Y386000D02*
X3563600Y286000D01*
X3817600Y640000D02*
X3917600Y540000D01*
X3917600Y640000D02*
X3817600Y540000D01*
X3817600Y386000D02*
X3917600Y286000D01*
X3917600Y386000D02*
X3817600Y286000D01*
X4071600Y640000D02*
X4171600Y540000D01*
X4171600Y640000D02*
X4071600Y540000D01*
X4071600Y386000D02*
X4171600Y286000D01*
X4171600Y386000D02*
X4071600Y286000D01*
X4325600Y640000D02*
X4425600Y540000D01*
X4425600Y640000D02*
X4325600Y540000D01*
X4325600Y386000D02*
X4425600Y286000D01*
X4425600Y386000D02*
X4325600Y286000D01*
X4579600Y640000D02*
X4679600Y540000D01*
X4679600Y640000D02*
X4579600Y540000D01*
X4579600Y386000D02*
X4679600Y286000D01*
X4679600Y386000D02*
X4579600Y286000D01*
X4833600Y640000D02*
X4933600Y540000D01*
X4933600Y640000D02*
X4833600Y540000D01*
X4833600Y386000D02*
X4933600Y286000D01*
X4933600Y386000D02*
X4833600Y286000D01*
X5087600Y640000D02*
X5187600Y540000D01*
X5187600Y640000D02*
X5087600Y540000D01*
X5087600Y386000D02*
X5187600Y286000D01*
X5187600Y386000D02*
X5087600Y286000D01*
X5341600Y640000D02*
X5441600Y540000D01*
X5441600Y640000D02*
X5341600Y540000D01*
X5341600Y386000D02*
X5441600Y286000D01*
X5441600Y386000D02*
X5341600Y286000D01*
X5595600Y640000D02*
X5695600Y540000D01*
X5695600Y640000D02*
X5595600Y540000D01*
X5595600Y386000D02*
X5695600Y286000D01*
X5695600Y386000D02*
X5595600Y286000D01*
D11*
X255777Y-316484D02*
X255777Y-116484D01*
X255777Y-116484D02*
X303396Y-116484D01*
X303396Y-116484D02*
X331967Y-126008D01*
X331967Y-126008D02*
X351015Y-145055D01*
X351015Y-145055D02*
X360539Y-164103D01*
X360539Y-164103D02*
X370062Y-202198D01*
X370062Y-202198D02*
X370062Y-230769D01*
X370062Y-230769D02*
X360539Y-268865D01*
X360539Y-268865D02*
X351015Y-287912D01*
X351015Y-287912D02*
X331967Y-306960D01*
X331967Y-306960D02*
X303396Y-316484D01*
X303396Y-316484D02*
X255777Y-316484D01*
X455777Y-316484D02*
X455777Y-183150D01*
X455777Y-221246D02*
X465301Y-202198D01*
X465301Y-202198D02*
X474824Y-192674D01*
X474824Y-192674D02*
X493872Y-183150D01*
X493872Y-183150D02*
X512920Y-183150D01*
X579586Y-316484D02*
X579586Y-183150D01*
X579586Y-116484D02*
X570063Y-126008D01*
X570063Y-126008D02*
X579586Y-135531D01*
X579586Y-135531D02*
X589110Y-126008D01*
X589110Y-126008D02*
X579586Y-116484D01*
X579586Y-116484D02*
X579586Y-135531D01*
X703396Y-316484D02*
X684348Y-306960D01*
X684348Y-306960D02*
X674824Y-287912D01*
X674824Y-287912D02*
X674824Y-116484D01*
X808158Y-316484D02*
X789110Y-306960D01*
X789110Y-306960D02*
X779586Y-287912D01*
X779586Y-287912D02*
X779586Y-116484D01*
X1036729Y-316484D02*
X1036729Y-116484D01*
X1036729Y-116484D02*
X1103396Y-259341D01*
X1103396Y-259341D02*
X1170063Y-116484D01*
X1170063Y-116484D02*
X1170063Y-316484D01*
X1351015Y-316484D02*
X1351015Y-211722D01*
X1351015Y-211722D02*
X1341491Y-192674D01*
X1341491Y-192674D02*
X1322444Y-183150D01*
X1322444Y-183150D02*
X1284348Y-183150D01*
X1284348Y-183150D02*
X1265301Y-192674D01*
X1351015Y-306960D02*
X1331967Y-316484D01*
X1331967Y-316484D02*
X1284348Y-316484D01*
X1284348Y-316484D02*
X1265301Y-306960D01*
X1265301Y-306960D02*
X1255777Y-287912D01*
X1255777Y-287912D02*
X1255777Y-268865D01*
X1255777Y-268865D02*
X1265301Y-249817D01*
X1265301Y-249817D02*
X1284348Y-240293D01*
X1284348Y-240293D02*
X1331967Y-240293D01*
X1331967Y-240293D02*
X1351015Y-230769D01*
X1446253Y-183150D02*
X1446253Y-383150D01*
X1446253Y-192674D02*
X1465301Y-183150D01*
X1465301Y-183150D02*
X1503396Y-183150D01*
X1503396Y-183150D02*
X1522443Y-192674D01*
X1522443Y-192674D02*
X1531967Y-202198D01*
X1531967Y-202198D02*
X1541491Y-221246D01*
X1541491Y-221246D02*
X1541491Y-278389D01*
X1541491Y-278389D02*
X1531967Y-297436D01*
X1531967Y-297436D02*
X1522443Y-306960D01*
X1522443Y-306960D02*
X1503396Y-316484D01*
X1503396Y-316484D02*
X1465301Y-316484D01*
X1465301Y-316484D02*
X1446253Y-306960D01*
X1627205Y-297436D02*
X1636729Y-306960D01*
X1636729Y-306960D02*
X1627205Y-316484D01*
X1627205Y-316484D02*
X1617682Y-306960D01*
X1617682Y-306960D02*
X1627205Y-297436D01*
X1627205Y-297436D02*
X1627205Y-316484D01*
X1627205Y-192674D02*
X1636729Y-202198D01*
X1636729Y-202198D02*
X1627205Y-211722D01*
X1627205Y-211722D02*
X1617682Y-202198D01*
X1617682Y-202198D02*
X1627205Y-192674D01*
X1627205Y-192674D02*
X1627205Y-211722D01*
D10*
X-105000Y-595000D02*
X-5000Y-695000D01*
X-5000Y-595000D02*
X-105000Y-695000D01*
D11*
X360539Y-736484D02*
X246253Y-736484D01*
X303396Y-736484D02*
X303396Y-536484D01*
X303396Y-536484D02*
X284348Y-565055D01*
X284348Y-565055D02*
X265301Y-584103D01*
X265301Y-584103D02*
X246253Y-593627D01*
X446253Y-717436D02*
X455777Y-726960D01*
X455777Y-726960D02*
X446253Y-736484D01*
X446253Y-736484D02*
X436729Y-726960D01*
X436729Y-726960D02*
X446253Y-717436D01*
X446253Y-717436D02*
X446253Y-736484D01*
X579586Y-536484D02*
X598634Y-536484D01*
X598634Y-536484D02*
X617682Y-546008D01*
X617682Y-546008D02*
X627205Y-555531D01*
X627205Y-555531D02*
X636729Y-574579D01*
X636729Y-574579D02*
X646253Y-612674D01*
X646253Y-612674D02*
X646253Y-660293D01*
X646253Y-660293D02*
X636729Y-698389D01*
X636729Y-698389D02*
X627205Y-717436D01*
X627205Y-717436D02*
X617682Y-726960D01*
X617682Y-726960D02*
X598634Y-736484D01*
X598634Y-736484D02*
X579586Y-736484D01*
X579586Y-736484D02*
X560539Y-726960D01*
X560539Y-726960D02*
X551015Y-717436D01*
X551015Y-717436D02*
X541491Y-698389D01*
X541491Y-698389D02*
X531967Y-660293D01*
X531967Y-660293D02*
X531967Y-612674D01*
X531967Y-612674D02*
X541491Y-574579D01*
X541491Y-574579D02*
X551015Y-555531D01*
X551015Y-555531D02*
X560539Y-546008D01*
X560539Y-546008D02*
X579586Y-536484D01*
X770062Y-536484D02*
X789110Y-536484D01*
X789110Y-536484D02*
X808158Y-546008D01*
X808158Y-546008D02*
X817682Y-555531D01*
X817682Y-555531D02*
X827205Y-574579D01*
X827205Y-574579D02*
X836729Y-612674D01*
X836729Y-612674D02*
X836729Y-660293D01*
X836729Y-660293D02*
X827205Y-698389D01*
X827205Y-698389D02*
X817682Y-717436D01*
X817682Y-717436D02*
X808158Y-726960D01*
X808158Y-726960D02*
X789110Y-736484D01*
X789110Y-736484D02*
X770062Y-736484D01*
X770062Y-736484D02*
X751015Y-726960D01*
X751015Y-726960D02*
X741491Y-717436D01*
X741491Y-717436D02*
X731967Y-698389D01*
X731967Y-698389D02*
X722443Y-660293D01*
X722443Y-660293D02*
X722443Y-612674D01*
X722443Y-612674D02*
X731967Y-574579D01*
X731967Y-574579D02*
X741491Y-555531D01*
X741491Y-555531D02*
X751015Y-546008D01*
X751015Y-546008D02*
X770062Y-536484D01*
X960539Y-536484D02*
X979586Y-536484D01*
X979586Y-536484D02*
X998634Y-546008D01*
X998634Y-546008D02*
X1008158Y-555531D01*
X1008158Y-555531D02*
X1017682Y-574579D01*
X1017682Y-574579D02*
X1027205Y-612674D01*
X1027205Y-612674D02*
X1027205Y-660293D01*
X1027205Y-660293D02*
X1017682Y-698389D01*
X1017682Y-698389D02*
X1008158Y-717436D01*
X1008158Y-717436D02*
X998634Y-726960D01*
X998634Y-726960D02*
X979586Y-736484D01*
X979586Y-736484D02*
X960539Y-736484D01*
X960539Y-736484D02*
X941491Y-726960D01*
X941491Y-726960D02*
X931967Y-717436D01*
X931967Y-717436D02*
X922443Y-698389D01*
X922443Y-698389D02*
X912920Y-660293D01*
X912920Y-660293D02*
X912920Y-612674D01*
X912920Y-612674D02*
X922443Y-574579D01*
X922443Y-574579D02*
X931967Y-555531D01*
X931967Y-555531D02*
X941491Y-546008D01*
X941491Y-546008D02*
X960539Y-536484D01*
X1112920Y-736484D02*
X1112920Y-603150D01*
X1112920Y-622198D02*
X1122444Y-612674D01*
X1122444Y-612674D02*
X1141491Y-603150D01*
X1141491Y-603150D02*
X1170063Y-603150D01*
X1170063Y-603150D02*
X1189110Y-612674D01*
X1189110Y-612674D02*
X1198634Y-631722D01*
X1198634Y-631722D02*
X1198634Y-736484D01*
X1198634Y-631722D02*
X1208158Y-612674D01*
X1208158Y-612674D02*
X1227205Y-603150D01*
X1227205Y-603150D02*
X1255777Y-603150D01*
X1255777Y-603150D02*
X1274825Y-612674D01*
X1274825Y-612674D02*
X1284348Y-631722D01*
X1284348Y-631722D02*
X1284348Y-736484D01*
X1379586Y-736484D02*
X1379586Y-603150D01*
X1379586Y-622198D02*
X1389110Y-612674D01*
X1389110Y-612674D02*
X1408158Y-603150D01*
X1408158Y-603150D02*
X1436729Y-603150D01*
X1436729Y-603150D02*
X1455777Y-612674D01*
X1455777Y-612674D02*
X1465301Y-631722D01*
X1465301Y-631722D02*
X1465301Y-736484D01*
X1465301Y-631722D02*
X1474824Y-612674D01*
X1474824Y-612674D02*
X1493872Y-603150D01*
X1493872Y-603150D02*
X1522443Y-603150D01*
X1522443Y-603150D02*
X1541491Y-612674D01*
X1541491Y-612674D02*
X1551015Y-631722D01*
X1551015Y-631722D02*
X1551015Y-736484D01*
X1941491Y-526960D02*
X1770063Y-784103D01*
X2198634Y-536484D02*
X2217682Y-536484D01*
X2217682Y-536484D02*
X2236729Y-546008D01*
X2236729Y-546008D02*
X2246253Y-555531D01*
X2246253Y-555531D02*
X2255777Y-574579D01*
X2255777Y-574579D02*
X2265301Y-612674D01*
X2265301Y-612674D02*
X2265301Y-660293D01*
X2265301Y-660293D02*
X2255777Y-698389D01*
X2255777Y-698389D02*
X2246253Y-717436D01*
X2246253Y-717436D02*
X2236729Y-726960D01*
X2236729Y-726960D02*
X2217682Y-736484D01*
X2217682Y-736484D02*
X2198634Y-736484D01*
X2198634Y-736484D02*
X2179587Y-726960D01*
X2179587Y-726960D02*
X2170063Y-717436D01*
X2170063Y-717436D02*
X2160539Y-698389D01*
X2160539Y-698389D02*
X2151015Y-660293D01*
X2151015Y-660293D02*
X2151015Y-612674D01*
X2151015Y-612674D02*
X2160539Y-574579D01*
X2160539Y-574579D02*
X2170063Y-555531D01*
X2170063Y-555531D02*
X2179587Y-546008D01*
X2179587Y-546008D02*
X2198634Y-536484D01*
X2351015Y-717436D02*
X2360539Y-726960D01*
X2360539Y-726960D02*
X2351015Y-736484D01*
X2351015Y-736484D02*
X2341491Y-726960D01*
X2341491Y-726960D02*
X2351015Y-717436D01*
X2351015Y-717436D02*
X2351015Y-736484D01*
X2484348Y-536484D02*
X2503396Y-536484D01*
X2503396Y-536484D02*
X2522444Y-546008D01*
X2522444Y-546008D02*
X2531968Y-555531D01*
X2531968Y-555531D02*
X2541491Y-574579D01*
X2541491Y-574579D02*
X2551015Y-612674D01*
X2551015Y-612674D02*
X2551015Y-660293D01*
X2551015Y-660293D02*
X2541491Y-698389D01*
X2541491Y-698389D02*
X2531968Y-717436D01*
X2531968Y-717436D02*
X2522444Y-726960D01*
X2522444Y-726960D02*
X2503396Y-736484D01*
X2503396Y-736484D02*
X2484348Y-736484D01*
X2484348Y-736484D02*
X2465301Y-726960D01*
X2465301Y-726960D02*
X2455777Y-717436D01*
X2455777Y-717436D02*
X2446253Y-698389D01*
X2446253Y-698389D02*
X2436729Y-660293D01*
X2436729Y-660293D02*
X2436729Y-612674D01*
X2436729Y-612674D02*
X2446253Y-574579D01*
X2446253Y-574579D02*
X2455777Y-555531D01*
X2455777Y-555531D02*
X2465301Y-546008D01*
X2465301Y-546008D02*
X2484348Y-536484D01*
X2617682Y-536484D02*
X2741491Y-536484D01*
X2741491Y-536484D02*
X2674825Y-612674D01*
X2674825Y-612674D02*
X2703396Y-612674D01*
X2703396Y-612674D02*
X2722444Y-622198D01*
X2722444Y-622198D02*
X2731968Y-631722D01*
X2731968Y-631722D02*
X2741491Y-650770D01*
X2741491Y-650770D02*
X2741491Y-698389D01*
X2741491Y-698389D02*
X2731968Y-717436D01*
X2731968Y-717436D02*
X2722444Y-726960D01*
X2722444Y-726960D02*
X2703396Y-736484D01*
X2703396Y-736484D02*
X2646253Y-736484D01*
X2646253Y-736484D02*
X2627206Y-726960D01*
X2627206Y-726960D02*
X2617682Y-717436D01*
X2836729Y-736484D02*
X2874825Y-736484D01*
X2874825Y-736484D02*
X2893872Y-726960D01*
X2893872Y-726960D02*
X2903396Y-717436D01*
X2903396Y-717436D02*
X2922444Y-688865D01*
X2922444Y-688865D02*
X2931967Y-650770D01*
X2931967Y-650770D02*
X2931967Y-574579D01*
X2931967Y-574579D02*
X2922444Y-555531D01*
X2922444Y-555531D02*
X2912920Y-546008D01*
X2912920Y-546008D02*
X2893872Y-536484D01*
X2893872Y-536484D02*
X2855777Y-536484D01*
X2855777Y-536484D02*
X2836729Y-546008D01*
X2836729Y-546008D02*
X2827206Y-555531D01*
X2827206Y-555531D02*
X2817682Y-574579D01*
X2817682Y-574579D02*
X2817682Y-622198D01*
X2817682Y-622198D02*
X2827206Y-641246D01*
X2827206Y-641246D02*
X2836729Y-650770D01*
X2836729Y-650770D02*
X2855777Y-660293D01*
X2855777Y-660293D02*
X2893872Y-660293D01*
X2893872Y-660293D02*
X2912920Y-650770D01*
X2912920Y-650770D02*
X2922444Y-641246D01*
X2922444Y-641246D02*
X2931967Y-622198D01*
X3103396Y-603150D02*
X3103396Y-736484D01*
X3055777Y-526960D02*
X3008158Y-669817D01*
X3008158Y-669817D02*
X3131967Y-669817D01*
X3198634Y-536484D02*
X3198634Y-574579D01*
X3274825Y-536484D02*
X3274825Y-574579D01*
X3570063Y-812674D02*
X3560539Y-803150D01*
X3560539Y-803150D02*
X3541491Y-774579D01*
X3541491Y-774579D02*
X3531968Y-755531D01*
X3531968Y-755531D02*
X3522444Y-726960D01*
X3522444Y-726960D02*
X3512920Y-679341D01*
X3512920Y-679341D02*
X3512920Y-641246D01*
X3512920Y-641246D02*
X3522444Y-593627D01*
X3522444Y-593627D02*
X3531968Y-565055D01*
X3531968Y-565055D02*
X3541491Y-546008D01*
X3541491Y-546008D02*
X3560539Y-517436D01*
X3560539Y-517436D02*
X3570063Y-507912D01*
X3731968Y-603150D02*
X3731968Y-736484D01*
X3684348Y-526960D02*
X3636729Y-669817D01*
X3636729Y-669817D02*
X3760539Y-669817D01*
X3874825Y-536484D02*
X3893872Y-536484D01*
X3893872Y-536484D02*
X3912920Y-546008D01*
X3912920Y-546008D02*
X3922444Y-555531D01*
X3922444Y-555531D02*
X3931968Y-574579D01*
X3931968Y-574579D02*
X3941491Y-612674D01*
X3941491Y-612674D02*
X3941491Y-660293D01*
X3941491Y-660293D02*
X3931968Y-698389D01*
X3931968Y-698389D02*
X3922444Y-717436D01*
X3922444Y-717436D02*
X3912920Y-726960D01*
X3912920Y-726960D02*
X3893872Y-736484D01*
X3893872Y-736484D02*
X3874825Y-736484D01*
X3874825Y-736484D02*
X3855777Y-726960D01*
X3855777Y-726960D02*
X3846253Y-717436D01*
X3846253Y-717436D02*
X3836729Y-698389D01*
X3836729Y-698389D02*
X3827206Y-660293D01*
X3827206Y-660293D02*
X3827206Y-612674D01*
X3827206Y-612674D02*
X3836729Y-574579D01*
X3836729Y-574579D02*
X3846253Y-555531D01*
X3846253Y-555531D02*
X3855777Y-546008D01*
X3855777Y-546008D02*
X3874825Y-536484D01*
X4179587Y-736484D02*
X4179587Y-536484D01*
X4265301Y-736484D02*
X4265301Y-631722D01*
X4265301Y-631722D02*
X4255777Y-612674D01*
X4255777Y-612674D02*
X4236730Y-603150D01*
X4236730Y-603150D02*
X4208158Y-603150D01*
X4208158Y-603150D02*
X4189110Y-612674D01*
X4189110Y-612674D02*
X4179587Y-622198D01*
X4389111Y-736484D02*
X4370063Y-726960D01*
X4370063Y-726960D02*
X4360539Y-717436D01*
X4360539Y-717436D02*
X4351015Y-698389D01*
X4351015Y-698389D02*
X4351015Y-641246D01*
X4351015Y-641246D02*
X4360539Y-622198D01*
X4360539Y-622198D02*
X4370063Y-612674D01*
X4370063Y-612674D02*
X4389111Y-603150D01*
X4389111Y-603150D02*
X4417682Y-603150D01*
X4417682Y-603150D02*
X4436730Y-612674D01*
X4436730Y-612674D02*
X4446253Y-622198D01*
X4446253Y-622198D02*
X4455777Y-641246D01*
X4455777Y-641246D02*
X4455777Y-698389D01*
X4455777Y-698389D02*
X4446253Y-717436D01*
X4446253Y-717436D02*
X4436730Y-726960D01*
X4436730Y-726960D02*
X4417682Y-736484D01*
X4417682Y-736484D02*
X4389111Y-736484D01*
X4570063Y-736484D02*
X4551015Y-726960D01*
X4551015Y-726960D02*
X4541492Y-707912D01*
X4541492Y-707912D02*
X4541492Y-536484D01*
X4722444Y-726960D02*
X4703396Y-736484D01*
X4703396Y-736484D02*
X4665301Y-736484D01*
X4665301Y-736484D02*
X4646253Y-726960D01*
X4646253Y-726960D02*
X4636730Y-707912D01*
X4636730Y-707912D02*
X4636730Y-631722D01*
X4636730Y-631722D02*
X4646253Y-612674D01*
X4646253Y-612674D02*
X4665301Y-603150D01*
X4665301Y-603150D02*
X4703396Y-603150D01*
X4703396Y-603150D02*
X4722444Y-612674D01*
X4722444Y-612674D02*
X4731968Y-631722D01*
X4731968Y-631722D02*
X4731968Y-650770D01*
X4731968Y-650770D02*
X4636730Y-669817D01*
X4808158Y-726960D02*
X4827206Y-736484D01*
X4827206Y-736484D02*
X4865301Y-736484D01*
X4865301Y-736484D02*
X4884349Y-726960D01*
X4884349Y-726960D02*
X4893873Y-707912D01*
X4893873Y-707912D02*
X4893873Y-698389D01*
X4893873Y-698389D02*
X4884349Y-679341D01*
X4884349Y-679341D02*
X4865301Y-669817D01*
X4865301Y-669817D02*
X4836730Y-669817D01*
X4836730Y-669817D02*
X4817682Y-660293D01*
X4817682Y-660293D02*
X4808158Y-641246D01*
X4808158Y-641246D02*
X4808158Y-631722D01*
X4808158Y-631722D02*
X4817682Y-612674D01*
X4817682Y-612674D02*
X4836730Y-603150D01*
X4836730Y-603150D02*
X4865301Y-603150D01*
X4865301Y-603150D02*
X4884349Y-612674D01*
X4960539Y-812674D02*
X4970063Y-803150D01*
X4970063Y-803150D02*
X4989111Y-774579D01*
X4989111Y-774579D02*
X4998634Y-755531D01*
X4998634Y-755531D02*
X5008158Y-726960D01*
X5008158Y-726960D02*
X5017682Y-679341D01*
X5017682Y-679341D02*
X5017682Y-641246D01*
X5017682Y-641246D02*
X5008158Y-593627D01*
X5008158Y-593627D02*
X4998634Y-565055D01*
X4998634Y-565055D02*
X4989111Y-546008D01*
X4989111Y-546008D02*
X4970063Y-517436D01*
X4970063Y-517436D02*
X4960539Y-507912D01*
M02*
