%TF.GenerationSoftware,KiCad,Pcbnew,7.0.11+dfsg-1build4*%
%TF.CreationDate,2026-09-22T14:58:24+09:00*%
%TF.ProjectId,t_eth_elite_hat_adapter,745f6574-685f-4656-9c69-74655f686174,rev?*%
%TF.SameCoordinates,Original*%
%TF.FileFunction,Copper,L2,Bot*%
%TF.FilePolarity,Positive*%
%FSLAX46Y46*%
G04 Gerber Fmt 4.6, Leading zero omitted, Abs format (unit mm)*
G04 Created by KiCad (PCBNEW 7.0.11+dfsg-1build4) date 2026-09-22 14:58:24*
%MOMM*%
%LPD*%
G01*
G04 APERTURE LIST*
%TA.AperFunction,ComponentPad*%
%ADD10R,1.700000X1.700000*%
%TD*%
%TA.AperFunction,ComponentPad*%
%ADD11O,1.700000X1.700000*%
%TD*%
G04 APERTURE END LIST*
D10*
%TO.P,J1,1*%
%TO.N,N/C*%
X8196000Y3360000D03*
D11*
%TO.P,J1,2*%
X8196000Y5900000D03*
%TO.P,J1,3*%
X10736000Y3360000D03*
%TO.P,J1,4*%
X10736000Y5900000D03*
%TO.P,J1,5*%
X13276000Y3360000D03*
%TO.P,J1,6*%
X13276000Y5900000D03*
%TO.P,J1,7*%
X15816000Y3360000D03*
%TO.P,J1,8*%
X15816000Y5900000D03*
%TO.P,J1,9*%
X18356000Y3360000D03*
%TO.P,J1,10*%
X18356000Y5900000D03*
%TO.P,J1,11*%
X20896000Y3360000D03*
%TO.P,J1,12*%
X20896000Y5900000D03*
%TO.P,J1,13*%
X23436000Y3360000D03*
%TO.P,J1,14*%
X23436000Y5900000D03*
%TO.P,J1,15*%
X25976000Y3360000D03*
%TO.P,J1,16*%
X25976000Y5900000D03*
%TO.P,J1,17*%
X28516000Y3360000D03*
%TO.P,J1,18*%
X28516000Y5900000D03*
%TO.P,J1,19*%
X31056000Y3360000D03*
%TO.P,J1,20*%
X31056000Y5900000D03*
%TO.P,J1,21*%
X33596000Y3360000D03*
%TO.P,J1,22*%
X33596000Y5900000D03*
%TO.P,J1,23*%
X36136000Y3360000D03*
%TO.P,J1,24*%
X36136000Y5900000D03*
%TO.P,J1,25*%
X38676000Y3360000D03*
%TO.P,J1,26*%
X38676000Y5900000D03*
%TO.P,J1,27*%
X41216000Y3360000D03*
%TO.P,J1,28*%
X41216000Y5900000D03*
%TO.P,J1,29*%
X43756000Y3360000D03*
%TO.P,J1,30*%
X43756000Y5900000D03*
%TO.P,J1,31*%
X46296000Y3360000D03*
%TO.P,J1,32*%
X46296000Y5900000D03*
%TO.P,J1,33*%
X48836000Y3360000D03*
%TO.P,J1,34*%
X48836000Y5900000D03*
%TO.P,J1,35*%
X51376000Y3360000D03*
%TO.P,J1,36*%
X51376000Y5900000D03*
%TO.P,J1,37*%
X53916000Y3360000D03*
%TO.P,J1,38*%
X53916000Y5900000D03*
%TO.P,J1,39*%
X56456000Y3360000D03*
%TO.P,J1,40*%
X56456000Y5900000D03*
%TD*%
M02*
